%TF.GenerationSoftware,KiCad,Pcbnew,10.0.1*%
%TF.CreationDate,2026-07-02T18:13:29+02:00*%
%TF.ProjectId,WortuhrNeu,576f7274-7568-4724-9e65-752e6b696361,rev?*%
%TF.SameCoordinates,Original*%
%TF.FileFunction,Soldermask,Bot*%
%TF.FilePolarity,Negative*%
%FSLAX46Y46*%
G04 Gerber Fmt 4.6, Leading zero omitted, Abs format (unit mm)*
G04 Created by KiCad (PCBNEW 10.0.1) date 2026-07-02 18:13:29*
%MOMM*%
%LPD*%
G01*
G04 APERTURE LIST*
G04 Aperture macros list*
%AMRoundRect*
0 Rectangle with rounded corners*
0 $1 Rounding radius*
0 $2 $3 $4 $5 $6 $7 $8 $9 X,Y pos of 4 corners*
0 Add a 4 corners polygon primitive as box body*
4,1,4,$2,$3,$4,$5,$6,$7,$8,$9,$2,$3,0*
0 Add four circle primitives for the rounded corners*
1,1,$1+$1,$2,$3*
1,1,$1+$1,$4,$5*
1,1,$1+$1,$6,$7*
1,1,$1+$1,$8,$9*
0 Add four rect primitives between the rounded corners*
20,1,$1+$1,$2,$3,$4,$5,0*
20,1,$1+$1,$4,$5,$6,$7,0*
20,1,$1+$1,$6,$7,$8,$9,0*
20,1,$1+$1,$8,$9,$2,$3,0*%
G04 Aperture macros list end*
%ADD10C,2.100000*%
%ADD11C,1.750000*%
%ADD12R,0.850000X0.850000*%
%ADD13R,1.700000X1.700000*%
%ADD14C,1.700000*%
%ADD15C,1.710000*%
%ADD16R,1.600000X1.600000*%
%ADD17O,1.600000X1.600000*%
%ADD18O,1.700000X1.700000*%
%ADD19C,2.400000*%
%ADD20C,3.200000*%
%ADD21R,2.000000X2.000000*%
%ADD22C,2.000000*%
%ADD23R,4.600000X2.000000*%
%ADD24O,4.200000X2.000000*%
%ADD25O,2.000000X4.200000*%
%ADD26R,1.500000X1.050000*%
%ADD27O,1.500000X1.050000*%
%ADD28R,4.000000X4.000000*%
%ADD29C,1.400000*%
%ADD30RoundRect,0.249700X-0.450300X-0.300300X0.450300X-0.300300X0.450300X0.300300X-0.450300X0.300300X0*%
%ADD31O,1.400000X1.100000*%
%ADD32C,1.600000*%
G04 APERTURE END LIST*
D10*
%TO.C,SW2*%
X316750000Y-151490000D03*
X323760000Y-151490000D03*
D11*
X318000000Y-149000000D03*
X322500000Y-149000000D03*
%TD*%
D12*
%TO.C,J1*%
X327250000Y-163750000D03*
%TD*%
D13*
%TO.C,X5*%
X124983000Y-142750000D03*
D14*
X127523000Y-142750000D03*
X130063000Y-142750000D03*
%TD*%
D15*
%TO.C,F1*%
X53213000Y-159131000D03*
X52013000Y-164231000D03*
%TD*%
D16*
%TO.C,U6*%
X214249000Y-149350000D03*
D17*
X211709000Y-149350000D03*
X209169000Y-149350000D03*
X206629000Y-149350000D03*
X204089000Y-149350000D03*
X201549000Y-149350000D03*
X199009000Y-149350000D03*
X196469000Y-149350000D03*
X193929000Y-149350000D03*
X191389000Y-149350000D03*
X188849000Y-149350000D03*
X186309000Y-149350000D03*
X183769000Y-149350000D03*
X181229000Y-149350000D03*
X178689000Y-149350000D03*
X178689000Y-164590000D03*
X181229000Y-164590000D03*
X183769000Y-164590000D03*
X186309000Y-164590000D03*
X188849000Y-164590000D03*
X191389000Y-164590000D03*
X193929000Y-164590000D03*
X196469000Y-164590000D03*
X199009000Y-164590000D03*
X201549000Y-164590000D03*
X204089000Y-164590000D03*
X206629000Y-164590000D03*
X209169000Y-164590000D03*
X211709000Y-164590000D03*
X214249000Y-164590000D03*
%TD*%
D13*
%TO.C,U5*%
X220401000Y-150672000D03*
D18*
X220401000Y-153212000D03*
X220401000Y-155752000D03*
X220401000Y-158292000D03*
X255401000Y-160772000D03*
X255401000Y-158232000D03*
X255401000Y-155692000D03*
X255401000Y-153152000D03*
%TD*%
D13*
%TO.C,X4*%
X108320600Y-142750000D03*
D14*
X110860600Y-142750000D03*
X113400600Y-142750000D03*
%TD*%
D19*
%TO.C,TH1*%
X58200000Y-157075000D03*
X58200000Y-149325000D03*
%TD*%
D13*
%TO.C,X1*%
X58333400Y-142750000D03*
D14*
X60873400Y-142750000D03*
X63413400Y-142750000D03*
%TD*%
D13*
%TO.C,X7*%
X158307800Y-142750000D03*
D14*
X160847800Y-142750000D03*
X163387800Y-142750000D03*
%TD*%
D20*
%TO.C,H4*%
X376174000Y-144780000D03*
%TD*%
D13*
%TO.C,X17*%
X341594200Y-142750000D03*
D14*
X344134200Y-142750000D03*
X346674200Y-142750000D03*
%TD*%
D20*
%TO.C,H6*%
X374523000Y-176149000D03*
%TD*%
D21*
%TO.C,C13*%
X345000000Y-163217677D03*
D22*
X345000000Y-158217677D03*
%TD*%
D13*
%TO.C,X3*%
X91658200Y-142750000D03*
D14*
X94198200Y-142750000D03*
X96738200Y-142750000D03*
%TD*%
D23*
%TO.C,J5*%
X49500000Y-152700000D03*
D24*
X49500000Y-146400000D03*
D25*
X44700000Y-149800000D03*
%TD*%
D13*
%TO.C,X18*%
X324931800Y-142750000D03*
D14*
X327471800Y-142750000D03*
X330011800Y-142750000D03*
%TD*%
D13*
%TO.C,X14*%
X291607000Y-142750000D03*
D14*
X294147000Y-142750000D03*
X296687000Y-142750000D03*
%TD*%
D20*
%TO.C,H5*%
X46101000Y-176657000D03*
%TD*%
D13*
%TO.C,X8*%
X174970200Y-142750000D03*
D14*
X177510200Y-142750000D03*
X180050200Y-142750000D03*
%TD*%
D10*
%TO.C,SW1*%
X331250000Y-151490000D03*
X338260000Y-151490000D03*
D11*
X332500000Y-149000000D03*
X337000000Y-149000000D03*
%TD*%
D13*
%TO.C,X16*%
X308269400Y-142750000D03*
D14*
X310809400Y-142750000D03*
X313349400Y-142750000D03*
%TD*%
D13*
%TO.C,X12*%
X258282200Y-142750000D03*
D14*
X260822200Y-142750000D03*
X263362200Y-142750000D03*
%TD*%
%TO.C,U7*%
X371930000Y-150400000D03*
X369930000Y-150400000D03*
X367930000Y-150400000D03*
X365930000Y-150400000D03*
X363930000Y-150400000D03*
X361930000Y-150400000D03*
X359930000Y-150400000D03*
X357930000Y-150400000D03*
X357930000Y-165600000D03*
X359930000Y-165600000D03*
X361930000Y-165600000D03*
X363930000Y-165600000D03*
X365930000Y-165600000D03*
X367930000Y-165600000D03*
X369930000Y-165600000D03*
X371930000Y-165600000D03*
%TD*%
D26*
%TO.C,U4*%
X327200000Y-160720000D03*
D27*
X327200000Y-159450000D03*
X327200000Y-158180000D03*
%TD*%
D20*
%TO.C,H3*%
X352298000Y-152019000D03*
%TD*%
D28*
%TO.C,U8*%
X68700000Y-146900000D03*
X68700000Y-166400000D03*
X118700000Y-166400000D03*
X118700000Y-146900000D03*
%TD*%
D13*
%TO.C,X10*%
X191632600Y-142750000D03*
D14*
X194172600Y-142750000D03*
X196712600Y-142750000D03*
%TD*%
D13*
%TO.C,X6*%
X141645400Y-142750000D03*
D14*
X144185400Y-142750000D03*
X146725400Y-142750000D03*
%TD*%
D13*
%TO.C,X13*%
X241619800Y-142750000D03*
D14*
X244159800Y-142750000D03*
X246699800Y-142750000D03*
%TD*%
D29*
%TO.C,U9*%
X140832500Y-150197500D03*
X140832500Y-147657500D03*
D30*
X125592500Y-146927500D03*
D31*
X125592500Y-148827500D03*
X125592500Y-150727500D03*
%TD*%
D13*
%TO.C,X2*%
X74995800Y-142750000D03*
D14*
X77535800Y-142750000D03*
X80075800Y-142750000D03*
%TD*%
D20*
%TO.C,H2*%
X235077000Y-157480000D03*
%TD*%
D13*
%TO.C,X9*%
X208295000Y-142750000D03*
D14*
X210835000Y-142750000D03*
X213375000Y-142750000D03*
%TD*%
D13*
%TO.C,X11*%
X224957400Y-142750000D03*
D14*
X227497400Y-142750000D03*
X230037400Y-142750000D03*
%TD*%
D13*
%TO.C,X15*%
X274944600Y-142750000D03*
D14*
X277484600Y-142750000D03*
X280024600Y-142750000D03*
%TD*%
D13*
%TO.C,X19*%
X358256600Y-142750000D03*
D14*
X360796600Y-142750000D03*
X363336600Y-142750000D03*
%TD*%
D21*
%TO.C,C1*%
X127950000Y-158982323D03*
D22*
X127950000Y-163982323D03*
%TD*%
D32*
%TO.C,LDR1*%
X327500000Y-150500000D03*
X327500000Y-147960000D03*
%TD*%
D13*
%TO.C,U3*%
X262920000Y-164150000D03*
D18*
X265460000Y-164150000D03*
X268000000Y-164150000D03*
X270540000Y-164150000D03*
X273080000Y-164150000D03*
X275620000Y-164150000D03*
X278160000Y-164150000D03*
X280700000Y-164150000D03*
X283240000Y-164150000D03*
X285780000Y-164150000D03*
X288320000Y-164150000D03*
X290860000Y-164150000D03*
X293400000Y-164150000D03*
X295940000Y-164150000D03*
X298480000Y-164150000D03*
X301020000Y-164150000D03*
X303560000Y-164150000D03*
X306100000Y-164150000D03*
X308640000Y-164150000D03*
X311180000Y-164150000D03*
X311180000Y-149150000D03*
X308640000Y-149150000D03*
X306100000Y-149150000D03*
X303560000Y-149150000D03*
X301020000Y-149150000D03*
X298480000Y-149150000D03*
X295940000Y-149150000D03*
X293400000Y-149150000D03*
X290860000Y-149150000D03*
X288320000Y-149150000D03*
X285780000Y-149150000D03*
X283240000Y-149150000D03*
X280700000Y-149150000D03*
X278160000Y-149150000D03*
X275620000Y-149150000D03*
X273080000Y-149150000D03*
X270540000Y-149150000D03*
X268000000Y-149150000D03*
X265460000Y-149150000D03*
D13*
X262920000Y-149150000D03*
%TD*%
D20*
%TO.C,H1*%
X45974000Y-164973000D03*
%TD*%
D13*
%TO.C,J4*%
X355000000Y-147000000D03*
D14*
X357540000Y-147000000D03*
X360080000Y-147000000D03*
X362620000Y-147000000D03*
%TD*%
M02*
