%TF.GenerationSoftware,KiCad,Pcbnew,10.0.1*%
%TF.CreationDate,2026-07-02T18:13:29+02:00*%
%TF.ProjectId,WortuhrNeu,576f7274-7568-4724-9e65-752e6b696361,rev?*%
%TF.SameCoordinates,Original*%
%TF.FileFunction,Soldermask,Top*%
%TF.FilePolarity,Negative*%
%FSLAX46Y46*%
G04 Gerber Fmt 4.6, Leading zero omitted, Abs format (unit mm)*
G04 Created by KiCad (PCBNEW 10.0.1) date 2026-07-02 18:13:29*
%MOMM*%
%LPD*%
G01*
G04 APERTURE LIST*
G04 Aperture macros list*
%AMRoundRect*
0 Rectangle with rounded corners*
0 $1 Rounding radius*
0 $2 $3 $4 $5 $6 $7 $8 $9 X,Y pos of 4 corners*
0 Add a 4 corners polygon primitive as box body*
4,1,4,$2,$3,$4,$5,$6,$7,$8,$9,$2,$3,0*
0 Add four circle primitives for the rounded corners*
1,1,$1+$1,$2,$3*
1,1,$1+$1,$4,$5*
1,1,$1+$1,$6,$7*
1,1,$1+$1,$8,$9*
0 Add four rect primitives between the rounded corners*
20,1,$1+$1,$2,$3,$4,$5,0*
20,1,$1+$1,$4,$5,$6,$7,0*
20,1,$1+$1,$6,$7,$8,$9,0*
20,1,$1+$1,$8,$9,$2,$3,0*%
%AMFreePoly0*
4,1,23,0.500000,-0.750000,0.000000,-0.750000,0.000000,-0.745722,-0.065263,-0.745722,-0.191342,-0.711940,-0.304381,-0.646677,-0.396677,-0.554381,-0.461940,-0.441342,-0.495722,-0.315263,-0.495722,-0.250000,-0.500000,-0.250000,-0.500000,0.250000,-0.495722,0.250000,-0.495722,0.315263,-0.461940,0.441342,-0.396677,0.554381,-0.304381,0.646677,-0.191342,0.711940,-0.065263,0.745722,0.000000,0.745722,
0.000000,0.750000,0.500000,0.750000,0.500000,-0.750000,0.500000,-0.750000,$1*%
%AMFreePoly1*
4,1,23,0.000000,0.745722,0.065263,0.745722,0.191342,0.711940,0.304381,0.646677,0.396677,0.554381,0.461940,0.441342,0.495722,0.315263,0.495722,0.250000,0.500000,0.250000,0.500000,-0.250000,0.495722,-0.250000,0.495722,-0.315263,0.461940,-0.441342,0.396677,-0.554381,0.304381,-0.646677,0.191342,-0.711940,0.065263,-0.745722,0.000000,-0.745722,0.000000,-0.750000,-0.500000,-0.750000,
-0.500000,0.750000,0.000000,0.750000,0.000000,0.745722,0.000000,0.745722,$1*%
%AMFreePoly2*
4,1,23,0.550000,-0.750000,0.000000,-0.750000,0.000000,-0.745722,-0.065263,-0.745722,-0.191342,-0.711940,-0.304381,-0.646677,-0.396677,-0.554381,-0.461940,-0.441342,-0.495722,-0.315263,-0.495722,-0.250000,-0.500000,-0.250000,-0.500000,0.250000,-0.495722,0.250000,-0.495722,0.315263,-0.461940,0.441342,-0.396677,0.554381,-0.304381,0.646677,-0.191342,0.711940,-0.065263,0.745722,0.000000,0.745722,
0.000000,0.750000,0.550000,0.750000,0.550000,-0.750000,0.550000,-0.750000,$1*%
%AMFreePoly3*
4,1,23,0.000000,0.745722,0.065263,0.745722,0.191342,0.711940,0.304381,0.646677,0.396677,0.554381,0.461940,0.441342,0.495722,0.315263,0.495722,0.250000,0.500000,0.250000,0.500000,-0.250000,0.495722,-0.250000,0.495722,-0.315263,0.461940,-0.441342,0.396677,-0.554381,0.304381,-0.646677,0.191342,-0.711940,0.065263,-0.745722,0.000000,-0.745722,0.000000,-0.750000,-0.550000,-0.750000,
-0.550000,0.750000,0.000000,0.750000,0.000000,0.745722,0.000000,0.745722,$1*%
G04 Aperture macros list end*
%ADD10RoundRect,0.250000X0.450000X-0.350000X0.450000X0.350000X-0.450000X0.350000X-0.450000X-0.350000X0*%
%ADD11C,2.100000*%
%ADD12C,1.750000*%
%ADD13RoundRect,0.250000X-0.350000X-0.450000X0.350000X-0.450000X0.350000X0.450000X-0.350000X0.450000X0*%
%ADD14RoundRect,0.250000X-0.600000X2.250000X-0.600000X-2.250000X0.600000X-2.250000X0.600000X2.250000X0*%
%ADD15R,0.850000X0.850000*%
%ADD16RoundRect,0.250000X-0.650000X0.412500X-0.650000X-0.412500X0.650000X-0.412500X0.650000X0.412500X0*%
%ADD17FreePoly0,180.000000*%
%ADD18FreePoly1,180.000000*%
%ADD19R,1.700000X1.700000*%
%ADD20C,1.700000*%
%ADD21RoundRect,0.250000X0.650000X-0.412500X0.650000X0.412500X-0.650000X0.412500X-0.650000X-0.412500X0*%
%ADD22RoundRect,0.250000X0.337500X0.475000X-0.337500X0.475000X-0.337500X-0.475000X0.337500X-0.475000X0*%
%ADD23C,1.710000*%
%ADD24R,1.600000X1.600000*%
%ADD25O,1.600000X1.600000*%
%ADD26O,1.700000X1.700000*%
%ADD27RoundRect,0.250000X-0.450000X0.350000X-0.450000X-0.350000X0.450000X-0.350000X0.450000X0.350000X0*%
%ADD28RoundRect,0.250000X0.350000X0.450000X-0.350000X0.450000X-0.350000X-0.450000X0.350000X-0.450000X0*%
%ADD29C,2.400000*%
%ADD30FreePoly2,180.000000*%
%ADD31R,1.000000X1.500000*%
%ADD32FreePoly3,180.000000*%
%ADD33R,2.000000X2.000000*%
%ADD34C,2.000000*%
%ADD35RoundRect,0.250000X1.000000X-1.400000X1.000000X1.400000X-1.000000X1.400000X-1.000000X-1.400000X0*%
%ADD36RoundRect,0.250000X0.475000X-0.337500X0.475000X0.337500X-0.475000X0.337500X-0.475000X-0.337500X0*%
%ADD37R,4.600000X2.000000*%
%ADD38O,4.200000X2.000000*%
%ADD39O,2.000000X4.200000*%
%ADD40RoundRect,0.250000X-0.337500X-0.475000X0.337500X-0.475000X0.337500X0.475000X-0.337500X0.475000X0*%
%ADD41RoundRect,0.250000X-0.412500X-0.650000X0.412500X-0.650000X0.412500X0.650000X-0.412500X0.650000X0*%
%ADD42R,1.500000X1.050000*%
%ADD43O,1.500000X1.050000*%
%ADD44R,4.000000X4.000000*%
%ADD45C,1.400000*%
%ADD46RoundRect,0.249700X-0.450300X-0.300300X0.450300X-0.300300X0.450300X0.300300X-0.450300X0.300300X0*%
%ADD47O,1.400000X1.100000*%
%ADD48RoundRect,0.250000X-2.050000X-0.300000X2.050000X-0.300000X2.050000X0.300000X-2.050000X0.300000X0*%
%ADD49RoundRect,0.250002X-4.449998X-5.149998X4.449998X-5.149998X4.449998X5.149998X-4.449998X5.149998X0*%
%ADD50C,1.600000*%
G04 APERTURE END LIST*
%TO.C,J3*%
G36*
X369050000Y-146300000D02*
G01*
X369350000Y-146300000D01*
X369350000Y-147800000D01*
X369050000Y-147800000D01*
X369050000Y-146300000D01*
G37*
%TO.C,J2*%
G36*
X344300000Y-146950000D02*
G01*
X345800000Y-146950000D01*
X345800000Y-148450000D01*
X344300000Y-148450000D01*
X344300000Y-146950000D01*
G37*
%TD*%
D10*
%TO.C,R12*%
X365950000Y-163500000D03*
X365950000Y-161500000D03*
%TD*%
D11*
%TO.C,SW2*%
X316750000Y-151490000D03*
X323760000Y-151490000D03*
D12*
X318000000Y-149000000D03*
X322500000Y-149000000D03*
%TD*%
D13*
%TO.C,R9*%
X316800000Y-158150000D03*
X318800000Y-158150000D03*
%TD*%
D14*
%TO.C,X38*%
X62853651Y-178051000D03*
X60313651Y-178051000D03*
X57773651Y-178051000D03*
%TD*%
D15*
%TO.C,J1*%
X327250000Y-163750000D03*
%TD*%
D16*
%TO.C,C3*%
X140075000Y-155487500D03*
X140075000Y-158612500D03*
%TD*%
D17*
%TO.C,J3*%
X369850000Y-147050000D03*
D18*
X368550000Y-147050000D03*
%TD*%
D19*
%TO.C,X5*%
X124983000Y-142750000D03*
D20*
X127523000Y-142750000D03*
X130063000Y-142750000D03*
%TD*%
D21*
%TO.C,C4*%
X140125000Y-163812500D03*
X140125000Y-160687500D03*
%TD*%
D16*
%TO.C,C20*%
X354850000Y-155887500D03*
X354850000Y-159012500D03*
%TD*%
D22*
%TO.C,C17*%
X214525000Y-161500000D03*
X212450000Y-161500000D03*
%TD*%
D23*
%TO.C,F1*%
X53213000Y-159131000D03*
X52013000Y-164231000D03*
%TD*%
D24*
%TO.C,U6*%
X214249000Y-149350000D03*
D25*
X211709000Y-149350000D03*
X209169000Y-149350000D03*
X206629000Y-149350000D03*
X204089000Y-149350000D03*
X201549000Y-149350000D03*
X199009000Y-149350000D03*
X196469000Y-149350000D03*
X193929000Y-149350000D03*
X191389000Y-149350000D03*
X188849000Y-149350000D03*
X186309000Y-149350000D03*
X183769000Y-149350000D03*
X181229000Y-149350000D03*
X178689000Y-149350000D03*
X178689000Y-164590000D03*
X181229000Y-164590000D03*
X183769000Y-164590000D03*
X186309000Y-164590000D03*
X188849000Y-164590000D03*
X191389000Y-164590000D03*
X193929000Y-164590000D03*
X196469000Y-164590000D03*
X199009000Y-164590000D03*
X201549000Y-164590000D03*
X204089000Y-164590000D03*
X206629000Y-164590000D03*
X209169000Y-164590000D03*
X211709000Y-164590000D03*
X214249000Y-164590000D03*
%TD*%
D14*
%TO.C,X23*%
X313751851Y-178200000D03*
X311211851Y-178200000D03*
X308671851Y-178200000D03*
%TD*%
%TO.C,X31*%
X179950000Y-178100000D03*
X177410000Y-178100000D03*
X174870000Y-178100000D03*
%TD*%
D19*
%TO.C,U5*%
X220401000Y-150672000D03*
D26*
X220401000Y-153212000D03*
X220401000Y-155752000D03*
X220401000Y-158292000D03*
X255401000Y-160772000D03*
X255401000Y-158232000D03*
X255401000Y-155692000D03*
X255401000Y-153152000D03*
%TD*%
D27*
%TO.C,R1*%
X63800000Y-153250000D03*
X63800000Y-155250000D03*
%TD*%
D14*
%TO.C,X28*%
X229945600Y-178101000D03*
X227405600Y-178101000D03*
X224865600Y-178101000D03*
%TD*%
D28*
%TO.C,R6*%
X324050000Y-155350000D03*
X322050000Y-155350000D03*
%TD*%
D19*
%TO.C,X4*%
X108320600Y-142750000D03*
D20*
X110860600Y-142750000D03*
X113400600Y-142750000D03*
%TD*%
D29*
%TO.C,TH1*%
X58200000Y-157075000D03*
X58200000Y-149325000D03*
%TD*%
D19*
%TO.C,X1*%
X58333400Y-142750000D03*
D20*
X60873400Y-142750000D03*
X63413400Y-142750000D03*
%TD*%
D14*
%TO.C,X34*%
X129503251Y-178051000D03*
X126963251Y-178051000D03*
X124423251Y-178051000D03*
%TD*%
D28*
%TO.C,R8*%
X184050000Y-151800000D03*
X182050000Y-151800000D03*
%TD*%
D19*
%TO.C,X7*%
X158307800Y-142750000D03*
D20*
X160847800Y-142750000D03*
X163387800Y-142750000D03*
%TD*%
D27*
%TO.C,R14*%
X360000000Y-161450000D03*
X360000000Y-163450000D03*
%TD*%
D19*
%TO.C,X17*%
X341594200Y-142750000D03*
D20*
X344134200Y-142750000D03*
X346674200Y-142750000D03*
%TD*%
D16*
%TO.C,C19*%
X357850000Y-154937500D03*
X357850000Y-158062500D03*
%TD*%
D30*
%TO.C,J2*%
X346350000Y-147700000D03*
D31*
X345050000Y-147700000D03*
D32*
X343750000Y-147700000D03*
%TD*%
D13*
%TO.C,R3*%
X140907500Y-167005000D03*
X142907500Y-167005000D03*
%TD*%
D33*
%TO.C,C13*%
X345000000Y-163217677D03*
D34*
X345000000Y-158217677D03*
%TD*%
D14*
%TO.C,X24*%
X297089451Y-178200000D03*
X294549451Y-178200000D03*
X292009451Y-178200000D03*
%TD*%
D13*
%TO.C,R10*%
X363871000Y-152781000D03*
X365871000Y-152781000D03*
%TD*%
D19*
%TO.C,X3*%
X91658200Y-142750000D03*
D20*
X94198200Y-142750000D03*
X96738200Y-142750000D03*
%TD*%
D35*
%TO.C,D1*%
X57400000Y-163400000D03*
X64200000Y-163400000D03*
%TD*%
D36*
%TO.C,C14*%
X252857000Y-160549500D03*
X252857000Y-158474500D03*
%TD*%
D14*
%TO.C,X20*%
X363739051Y-178200000D03*
X361199051Y-178200000D03*
X358659051Y-178200000D03*
%TD*%
D37*
%TO.C,J5*%
X49500000Y-152700000D03*
D38*
X49500000Y-146400000D03*
D39*
X44700000Y-149800000D03*
%TD*%
D22*
%TO.C,C16*%
X328187500Y-153050000D03*
X326112500Y-153050000D03*
%TD*%
D19*
%TO.C,X18*%
X324931800Y-142750000D03*
D20*
X327471800Y-142750000D03*
X330011800Y-142750000D03*
%TD*%
D14*
%TO.C,X29*%
X213145600Y-178101000D03*
X210605600Y-178101000D03*
X208065600Y-178101000D03*
%TD*%
D19*
%TO.C,X14*%
X291607000Y-142750000D03*
D20*
X294147000Y-142750000D03*
X296687000Y-142750000D03*
%TD*%
D19*
%TO.C,X8*%
X174970200Y-142750000D03*
D20*
X177510200Y-142750000D03*
X180050200Y-142750000D03*
%TD*%
D40*
%TO.C,C15*%
X207950000Y-161500000D03*
X210025000Y-161500000D03*
%TD*%
D11*
%TO.C,SW1*%
X331250000Y-151490000D03*
X338260000Y-151490000D03*
D12*
X332500000Y-149000000D03*
X337000000Y-149000000D03*
%TD*%
D19*
%TO.C,X16*%
X308269400Y-142750000D03*
D20*
X310809400Y-142750000D03*
X313349400Y-142750000D03*
%TD*%
D19*
%TO.C,X12*%
X258282200Y-142750000D03*
D20*
X260822200Y-142750000D03*
X263362200Y-142750000D03*
%TD*%
%TO.C,U7*%
X371930000Y-150400000D03*
X369930000Y-150400000D03*
X367930000Y-150400000D03*
X365930000Y-150400000D03*
X363930000Y-150400000D03*
X361930000Y-150400000D03*
X359930000Y-150400000D03*
X357930000Y-150400000D03*
X357930000Y-165600000D03*
X359930000Y-165600000D03*
X361930000Y-165600000D03*
X363930000Y-165600000D03*
X365930000Y-165600000D03*
X367930000Y-165600000D03*
X369930000Y-165600000D03*
X371930000Y-165600000D03*
%TD*%
D40*
%TO.C,C11*%
X316762500Y-155800000D03*
X318837500Y-155800000D03*
%TD*%
D14*
%TO.C,X36*%
X96178451Y-178051000D03*
X93638451Y-178051000D03*
X91098451Y-178051000D03*
%TD*%
D41*
%TO.C,C9*%
X266887500Y-152600000D03*
X270012500Y-152600000D03*
%TD*%
D40*
%TO.C,C8*%
X266812500Y-155300000D03*
X268887500Y-155300000D03*
%TD*%
D41*
%TO.C,C7*%
X261537500Y-152600000D03*
X264662500Y-152600000D03*
%TD*%
D40*
%TO.C,C12*%
X333712500Y-156000000D03*
X335787500Y-156000000D03*
%TD*%
D13*
%TO.C,R11*%
X333700000Y-158400000D03*
X335700000Y-158400000D03*
%TD*%
D14*
%TO.C,X32*%
X163287600Y-178100000D03*
X160747600Y-178100000D03*
X158207600Y-178100000D03*
%TD*%
D42*
%TO.C,U4*%
X327200000Y-160720000D03*
D43*
X327200000Y-159450000D03*
X327200000Y-158180000D03*
%TD*%
D40*
%TO.C,C6*%
X262662500Y-155300000D03*
X264737500Y-155300000D03*
%TD*%
D44*
%TO.C,U8*%
X68700000Y-146900000D03*
X68700000Y-166400000D03*
X118700000Y-166400000D03*
X118700000Y-146900000D03*
%TD*%
D19*
%TO.C,X10*%
X191632600Y-142750000D03*
D20*
X194172600Y-142750000D03*
X196712600Y-142750000D03*
%TD*%
D19*
%TO.C,X6*%
X141645400Y-142750000D03*
D20*
X144185400Y-142750000D03*
X146725400Y-142750000D03*
%TD*%
D14*
%TO.C,X27*%
X246599600Y-178100000D03*
X244059600Y-178100000D03*
X241519600Y-178100000D03*
%TD*%
D19*
%TO.C,X13*%
X241619800Y-142750000D03*
D20*
X244159800Y-142750000D03*
X246699800Y-142750000D03*
%TD*%
D45*
%TO.C,U9*%
X140832500Y-150197500D03*
X140832500Y-147657500D03*
D46*
X125592500Y-146927500D03*
D47*
X125592500Y-148827500D03*
X125592500Y-150727500D03*
%TD*%
D19*
%TO.C,X2*%
X74995800Y-142750000D03*
D20*
X77535800Y-142750000D03*
X80075800Y-142750000D03*
%TD*%
D22*
%TO.C,C2*%
X127437500Y-153900000D03*
X125362500Y-153900000D03*
%TD*%
D19*
%TO.C,X9*%
X208295000Y-142750000D03*
D20*
X210835000Y-142750000D03*
X213375000Y-142750000D03*
%TD*%
D28*
%TO.C,R7*%
X328150000Y-155350000D03*
X326150000Y-155350000D03*
%TD*%
D19*
%TO.C,X11*%
X224957400Y-142750000D03*
D20*
X227497400Y-142750000D03*
X230037400Y-142750000D03*
%TD*%
D36*
%TO.C,C10*%
X330600000Y-160587500D03*
X330600000Y-158512500D03*
%TD*%
D13*
%TO.C,R2*%
X145415000Y-167005000D03*
X147415000Y-167005000D03*
%TD*%
D14*
%TO.C,X33*%
X146165651Y-178051000D03*
X143625651Y-178051000D03*
X141085651Y-178051000D03*
%TD*%
D27*
%TO.C,R15*%
X368000000Y-161500000D03*
X368000000Y-163500000D03*
%TD*%
D14*
%TO.C,X30*%
X196612400Y-178100000D03*
X194072400Y-178100000D03*
X191532400Y-178100000D03*
%TD*%
%TO.C,X26*%
X263262000Y-178100000D03*
X260722000Y-178100000D03*
X258182000Y-178100000D03*
%TD*%
%TO.C,X35*%
X112840851Y-178051000D03*
X110300851Y-178051000D03*
X107760851Y-178051000D03*
%TD*%
D19*
%TO.C,X15*%
X274944600Y-142750000D03*
D20*
X277484600Y-142750000D03*
X280024600Y-142750000D03*
%TD*%
D14*
%TO.C,X25*%
X280427051Y-178200000D03*
X277887051Y-178200000D03*
X275347051Y-178200000D03*
%TD*%
D19*
%TO.C,X19*%
X358256600Y-142750000D03*
D20*
X360796600Y-142750000D03*
X363336600Y-142750000D03*
%TD*%
D33*
%TO.C,C1*%
X127950000Y-158982323D03*
D34*
X127950000Y-163982323D03*
%TD*%
D48*
%TO.C,U2*%
X144750000Y-156550000D03*
X144750000Y-158250000D03*
X144750000Y-159950000D03*
D49*
X153900000Y-159950000D03*
D48*
X144750000Y-161650000D03*
X144750000Y-163350000D03*
%TD*%
D10*
%TO.C,R13*%
X362100000Y-163450000D03*
X362100000Y-161450000D03*
%TD*%
D40*
%TO.C,C18*%
X182012500Y-161350000D03*
X184087500Y-161350000D03*
%TD*%
D27*
%TO.C,R5*%
X323000000Y-158550000D03*
X323000000Y-160550000D03*
%TD*%
D14*
%TO.C,X22*%
X330414251Y-178200000D03*
X327874251Y-178200000D03*
X325334251Y-178200000D03*
%TD*%
D36*
%TO.C,C5*%
X137350000Y-163287500D03*
X137350000Y-161212500D03*
%TD*%
D50*
%TO.C,LDR1*%
X327500000Y-150500000D03*
X327500000Y-147960000D03*
%TD*%
D14*
%TO.C,X37*%
X79516051Y-178051000D03*
X76976051Y-178051000D03*
X74436051Y-178051000D03*
%TD*%
D19*
%TO.C,U3*%
X262920000Y-164150000D03*
D26*
X265460000Y-164150000D03*
X268000000Y-164150000D03*
X270540000Y-164150000D03*
X273080000Y-164150000D03*
X275620000Y-164150000D03*
X278160000Y-164150000D03*
X280700000Y-164150000D03*
X283240000Y-164150000D03*
X285780000Y-164150000D03*
X288320000Y-164150000D03*
X290860000Y-164150000D03*
X293400000Y-164150000D03*
X295940000Y-164150000D03*
X298480000Y-164150000D03*
X301020000Y-164150000D03*
X303560000Y-164150000D03*
X306100000Y-164150000D03*
X308640000Y-164150000D03*
X311180000Y-164150000D03*
X311180000Y-149150000D03*
X308640000Y-149150000D03*
X306100000Y-149150000D03*
X303560000Y-149150000D03*
X301020000Y-149150000D03*
X298480000Y-149150000D03*
X295940000Y-149150000D03*
X293400000Y-149150000D03*
X290860000Y-149150000D03*
X288320000Y-149150000D03*
X285780000Y-149150000D03*
X283240000Y-149150000D03*
X280700000Y-149150000D03*
X278160000Y-149150000D03*
X275620000Y-149150000D03*
X273080000Y-149150000D03*
X270540000Y-149150000D03*
X268000000Y-149150000D03*
X265460000Y-149150000D03*
D19*
X262920000Y-149150000D03*
%TD*%
D10*
%TO.C,R4*%
X143510000Y-148701000D03*
X143510000Y-146701000D03*
%TD*%
D14*
%TO.C,X21*%
X347076651Y-178200000D03*
X344536651Y-178200000D03*
X341996651Y-178200000D03*
%TD*%
D19*
%TO.C,J4*%
X355000000Y-147000000D03*
D20*
X357540000Y-147000000D03*
X360080000Y-147000000D03*
X362620000Y-147000000D03*
%TD*%
M02*
