M48
; DRILL file KiCad 10.0.1 date 2026-07-02T18:13:29
; FORMAT={-:-/ absolute / inch / decimal}
; #@! TF.CreationDate,2026-07-02T18:13:29+02:00
; #@! TF.GenerationSoftware,Kicad,Pcbnew,10.0.1
; #@! TF.FileFunction,Plated,1,2,PTH
FMAT,2
INCH
; #@! TA.AperFunction,Plated,PTH,ComponentDrill
T1C0.0197
; #@! TA.AperFunction,Plated,PTH,ViaDrill
T2C0.0236
; #@! TA.AperFunction,Plated,PTH,ComponentDrill
T3C0.0276
; #@! TA.AperFunction,Plated,PTH,ComponentDrill
T4C0.0280
; #@! TA.AperFunction,Plated,PTH,ComponentDrill
T5C0.0295
; #@! TA.AperFunction,Plated,PTH,ComponentDrill
T6C0.0315
; #@! TA.AperFunction,Plated,PTH,ComponentDrill
T7C0.0390
; #@! TA.AperFunction,Plated,PTH,ComponentDrill
T8C0.0394
; #@! TA.AperFunction,Plated,PTH,ComponentDrill
T9C0.0472
; #@! TA.AperFunction,Plated,PTH,ComponentDrill
T10C0.0512
%
G90
G05
T1
X12.8839Y-6.4469
T2
X1.7Y-6.025
X1.71Y-5.635
X1.725Y-6.28
X1.9Y-5.905
X1.95Y-6.345
X1.97Y-5.58
X2.095Y-5.84
X2.13Y-6.1
X2.17Y-6.615
X2.38Y-6.52
X2.415Y-6.13
X2.57Y-6.26
X2.665Y-6.11
X2.7Y-7.01
X2.73Y-6.37
X2.84Y-6.225
X2.925Y-6.12
X2.965Y-6.365
X3.135Y-6.565
X3.19Y-6.375
X3.305Y-6.115
X3.385Y-6.465
X3.505Y-6.595
X3.7Y-6.595
X3.72Y-6.12
X3.72Y-6.365
X4.02Y-7.01
X5.09Y-6.06
X5.335Y-7.01
X5.455Y-6.29
X6.0591Y-6.075
X6.0591Y-6.561
X6.665Y-7.01
X7.025Y-6.145
X7.075Y-6.145
X7.115Y-5.81
X7.245Y-6.145
X7.295Y-6.145
X7.32Y-6.35
X7.415Y-5.805
X7.715Y-5.805
X7.97Y-7.01
X8.005Y-5.805
X8.26Y-6.29
X8.31Y-6.215
X8.315Y-5.8
X8.365Y-6.29
X8.635Y-5.84
X8.92Y-5.805
X9.235Y-5.865
X9.285Y-7.01
X9.53Y-5.805
X9.805Y-5.87
X10.105Y-5.815
X10.465Y-6.18
X10.465Y-6.23
X10.51Y-5.695
X10.5512Y-5.695
X10.605Y-7.01
X11.925Y-7.015
X12.5354Y-6.4877
X12.6189Y-6.5589
X12.76Y-6.1831
X12.76Y-6.4487
X12.92Y-6.165
X13.165Y-6.425
X13.165Y-6.625
X13.245Y-7.015
X13.3Y-6.5117
X13.325Y-6.215
X13.3538Y-6.4873
X13.385Y-6.215
X13.44Y-6.27
X13.455Y-6.095
X13.5016Y-5.8834
X13.58Y-6.135
X13.61Y-6.0
X13.675Y-6.24
X13.695Y-5.82
X13.75Y-6.07
X13.81Y-6.437
X13.8146Y-6.629
X13.865Y-6.39
X13.89Y-6.295
X13.945Y-5.63
X13.995Y-5.93
X14.0Y-6.49
X14.15Y-6.245
X14.225Y-6.055
X14.3228Y-6.3563
X14.325Y-6.145
X14.33Y-6.435
X14.38Y-6.235
X14.48Y-7.015
X14.485Y-6.135
X14.61Y-6.17
X14.615Y-6.04
X14.615Y-6.3
X14.62Y-6.41
T3
X4.9446Y-5.7845
X4.9446Y-5.8594
X4.9446Y-5.9342
X5.5446Y-5.8133
X5.5446Y-5.9133
T4
X2.0478Y-6.4658
X2.095Y-6.265
T5
X12.8819Y-6.2276
X12.8819Y-6.2776
X12.8819Y-6.3276
T6
X12.8937Y-5.8252
X12.8937Y-5.9252
T7
X12.5197Y-5.8661
X12.6969Y-5.8661
X13.0906Y-5.8661
X13.2677Y-5.8661
T8
X2.2966Y-5.6201
X2.3966Y-5.6201
X2.4966Y-5.6201
X2.9526Y-5.6201
X3.0526Y-5.6201
X3.1526Y-5.6201
X3.6086Y-5.6201
X3.7086Y-5.6201
X3.8086Y-5.6201
X4.2646Y-5.6201
X4.3646Y-5.6201
X4.4646Y-5.6201
X4.9206Y-5.6201
X5.0206Y-5.6201
X5.0374Y-6.2591
X5.0374Y-6.456
X5.1206Y-5.6201
X5.5766Y-5.6201
X5.6766Y-5.6201
X5.7766Y-5.6201
X6.2326Y-5.6201
X6.3326Y-5.6201
X6.4326Y-5.6201
X6.8886Y-5.6201
X6.9886Y-5.6201
X7.035Y-5.8799
X7.035Y-6.4799
X7.0886Y-5.6201
X7.135Y-5.8799
X7.135Y-6.4799
X7.235Y-5.8799
X7.235Y-6.4799
X7.335Y-5.8799
X7.335Y-6.4799
X7.435Y-5.8799
X7.435Y-6.4799
X7.535Y-5.8799
X7.535Y-6.4799
X7.5446Y-5.6201
X7.635Y-5.8799
X7.635Y-6.4799
X7.6446Y-5.6201
X7.735Y-5.8799
X7.735Y-6.4799
X7.7446Y-5.6201
X7.835Y-5.8799
X7.835Y-6.4799
X7.935Y-5.8799
X7.935Y-6.4799
X8.035Y-5.8799
X8.035Y-6.4799
X8.135Y-5.8799
X8.135Y-6.4799
X8.2006Y-5.6201
X8.235Y-5.8799
X8.235Y-6.4799
X8.3006Y-5.6201
X8.335Y-5.8799
X8.335Y-6.4799
X8.4006Y-5.6201
X8.435Y-5.8799
X8.435Y-6.4799
X8.6772Y-5.932
X8.6772Y-6.032
X8.6772Y-6.132
X8.6772Y-6.232
X8.8566Y-5.6201
X8.9566Y-5.6201
X9.0566Y-5.6201
X9.5126Y-5.6201
X9.6126Y-5.6201
X9.7126Y-5.6201
X10.0552Y-6.0296
X10.0552Y-6.1296
X10.0552Y-6.2296
X10.0552Y-6.3296
X10.1686Y-5.6201
X10.2686Y-5.6201
X10.3512Y-5.872
X10.3512Y-6.4626
X10.3686Y-5.6201
X10.4512Y-5.872
X10.4512Y-6.4626
X10.5512Y-5.872
X10.5512Y-6.4626
X10.6512Y-5.872
X10.6512Y-6.4626
X10.7512Y-5.872
X10.7512Y-6.4626
X10.8246Y-5.6201
X10.8512Y-5.872
X10.8512Y-6.4626
X10.9246Y-5.6201
X10.9512Y-5.872
X10.9512Y-6.4626
X11.0246Y-5.6201
X11.0512Y-5.872
X11.0512Y-6.4626
X11.1512Y-5.872
X11.1512Y-6.4626
X11.2512Y-5.872
X11.2512Y-6.4626
X11.3512Y-5.872
X11.3512Y-6.4626
X11.4512Y-5.872
X11.4512Y-6.4626
X11.4806Y-5.6201
X11.5512Y-5.872
X11.5512Y-6.4626
X11.5806Y-5.6201
X11.6512Y-5.872
X11.6512Y-6.4626
X11.6806Y-5.6201
X11.7512Y-5.872
X11.7512Y-6.4626
X11.8512Y-5.872
X11.8512Y-6.4626
X11.9512Y-5.872
X11.9512Y-6.4626
X12.0512Y-5.872
X12.0512Y-6.4626
X12.1366Y-5.6201
X12.1512Y-5.872
X12.1512Y-6.4626
X12.2366Y-5.6201
X12.2512Y-5.872
X12.2512Y-6.4626
X12.3366Y-5.6201
X12.7926Y-5.6201
X12.8926Y-5.6201
X12.9926Y-5.6201
X13.4486Y-5.6201
X13.5486Y-5.6201
X13.5827Y-6.229
X13.5827Y-6.4259
X13.6486Y-5.6201
X13.9764Y-5.7874
X14.0764Y-5.7874
X14.0917Y-5.9213
X14.0917Y-6.5197
X14.1046Y-5.6201
X14.1705Y-5.9213
X14.1705Y-6.5197
X14.1764Y-5.7874
X14.2046Y-5.6201
X14.2492Y-5.9213
X14.2492Y-6.5197
X14.2764Y-5.7874
X14.3046Y-5.6201
X14.328Y-5.9213
X14.328Y-6.5197
X14.4067Y-5.9213
X14.4067Y-6.5197
X14.4854Y-5.9213
X14.4854Y-6.5197
X14.5642Y-5.9213
X14.5642Y-6.5197
X14.6429Y-5.9213
X14.6429Y-6.5197
T9
X2.2913Y-5.8789
X2.2913Y-6.1841
X2.7047Y-5.7835
X2.7047Y-6.5512
X4.6732Y-5.7835
X4.6732Y-6.5512
T10
X12.4705Y-5.9642
X12.7465Y-5.9642
X13.0413Y-5.9642
X13.3173Y-5.9642
T8
G00X1.7598Y-5.9409
M15
G01X1.7598Y-5.8543
M16
G05
G00X1.9921Y-5.7638
M15
G01X1.9055Y-5.7638
M16
G05
G00X2.0Y-6.0118
M15
G01X1.8976Y-6.0118
M16
G05
M30
