G04 #@! TF.GenerationSoftware,KiCad,Pcbnew,9.0.0*
G04 #@! TF.CreationDate,2025-07-17T21:41:10+02:00*
G04 #@! TF.ProjectId,PowerPCB,506f7765-7250-4434-922e-6b696361645f,rev?*
G04 #@! TF.SameCoordinates,Original*
G04 #@! TF.FileFunction,Copper,L1,Top*
G04 #@! TF.FilePolarity,Positive*
%FSLAX46Y46*%
G04 Gerber Fmt 4.6, Leading zero omitted, Abs format (unit mm)*
G04 Created by KiCad (PCBNEW 9.0.0) date 2025-07-17 21:41:11*
%MOMM*%
%LPD*%
G01*
G04 APERTURE LIST*
G04 #@! TA.AperFunction,Profile*
%ADD10C,0.050000*%
G04 #@! TD*
%ADD11C,0.350000*%
%ADD12O,3.600000X1.000000*%
%ADD13O,3.200000X1.000000*%
%ADD14O,1.000000X3.200000*%
G04 #@! TA.AperFunction,ComponentPad*
%ADD15R,1.700000X1.700000*%
G04 #@! TD*
G04 #@! TA.AperFunction,ComponentPad*
%ADD16O,1.700000X1.700000*%
G04 #@! TD*
G04 #@! TA.AperFunction,SMDPad,CuDef*
%ADD17C,1.500000*%
G04 #@! TD*
G04 #@! TA.AperFunction,ComponentPad*
%ADD18R,1.600000X1.600000*%
G04 #@! TD*
G04 #@! TA.AperFunction,ComponentPad*
%ADD19C,1.600000*%
G04 #@! TD*
G04 #@! TA.AperFunction,ComponentPad*
%ADD20R,4.000000X4.000000*%
G04 #@! TD*
G04 #@! TA.AperFunction,ComponentPad*
%ADD21C,2.400000*%
G04 #@! TD*
G04 #@! TA.AperFunction,ComponentPad*
%ADD22R,4.600000X2.000000*%
G04 #@! TD*
G04 #@! TA.AperFunction,ComponentPad*
%ADD23O,4.200000X2.000000*%
G04 #@! TD*
G04 #@! TA.AperFunction,ComponentPad*
%ADD24O,2.000000X4.200000*%
G04 #@! TD*
G04 #@! TA.AperFunction,ComponentPad*
%ADD25R,1.800000X1.800000*%
G04 #@! TD*
G04 #@! TA.AperFunction,ComponentPad*
%ADD26O,1.800000X1.800000*%
G04 #@! TD*
G04 #@! TA.AperFunction,ComponentPad*
%ADD27C,1.710000*%
G04 #@! TD*
G04 #@! TA.AperFunction,Conductor*
%ADD28C,0.300000*%
G04 #@! TD*
G04 APERTURE END LIST*
D10*
X170800000Y-83000000D02*
X57800000Y-83000000D01*
X57800000Y-30600000D01*
X170800000Y-30600000D01*
X170800000Y-83000000D01*
D11*
X108109000Y-33250000D03*
X110649000Y-33250000D03*
X113189000Y-33250000D03*
X82057800Y-74450000D03*
X84597800Y-74450000D03*
X87137800Y-74450000D03*
X103397349Y-66600000D03*
X108397349Y-66600000D03*
X107197349Y-78200000D03*
X112197349Y-78200000D03*
X164600000Y-66926000D03*
X167140000Y-69466000D03*
X167140000Y-66926000D03*
X164600000Y-69466000D03*
X128408200Y-63201000D03*
X130948200Y-63201000D03*
X133488200Y-63201000D03*
X166050000Y-78150000D03*
X85750000Y-37000000D03*
X85750000Y-56500000D03*
X135750000Y-56500000D03*
X135750000Y-37000000D03*
X65395400Y-74450000D03*
X67935400Y-74450000D03*
X70475400Y-74450000D03*
X115382600Y-74450000D03*
X117922600Y-74450000D03*
X120462600Y-74450000D03*
X61758600Y-63201000D03*
X64298600Y-63201000D03*
X66838600Y-63201000D03*
X74784200Y-33250000D03*
X77324200Y-33250000D03*
X79864200Y-33250000D03*
X68925000Y-57200000D03*
X76675000Y-57200000D03*
X68335000Y-69441000D03*
X70875000Y-66901000D03*
X68335000Y-66901000D03*
X70875000Y-69441000D03*
D12*
X65900000Y-46749000D03*
D13*
X65900000Y-40449000D03*
D14*
X61100000Y-43849000D03*
D11*
X62000000Y-55000000D03*
X98720200Y-74450000D03*
X101260200Y-74450000D03*
X103800200Y-74450000D03*
X95075000Y-63200000D03*
X97615000Y-63200000D03*
X100155000Y-63200000D03*
X78421000Y-63201000D03*
X80961000Y-63201000D03*
X83501000Y-63201000D03*
X75600000Y-46045000D03*
X75600000Y-43505000D03*
X141433800Y-33250000D03*
X143973800Y-33250000D03*
X146513800Y-33250000D03*
X124771400Y-33250000D03*
X127311400Y-33250000D03*
X129851400Y-33250000D03*
X68335000Y-80690000D03*
X70875000Y-78150000D03*
X68335000Y-78150000D03*
X70875000Y-80690000D03*
X164500000Y-37000000D03*
X167040000Y-39540000D03*
X167040000Y-37000000D03*
X164500000Y-39540000D03*
X158096200Y-33250000D03*
X160636200Y-33250000D03*
X163176200Y-33250000D03*
X161733000Y-63201000D03*
X164273000Y-63201000D03*
X166813000Y-63201000D03*
X76050000Y-78150000D03*
X145070600Y-63201000D03*
X147610600Y-63201000D03*
X150150600Y-63201000D03*
X89000000Y-66851000D03*
X111875000Y-63200000D03*
X114415000Y-63200000D03*
X116955000Y-63200000D03*
X148707400Y-74450000D03*
X151247400Y-74450000D03*
X153787400Y-74450000D03*
X122000000Y-37000000D03*
X69600000Y-50200000D03*
X74700000Y-51400000D03*
X132045000Y-74450000D03*
X134585000Y-74450000D03*
X137125000Y-74450000D03*
X91446600Y-33250000D03*
X93986600Y-33250000D03*
X96526600Y-33250000D03*
D15*
X108109000Y-33250000D03*
D16*
X110649000Y-33250000D03*
X113189000Y-33250000D03*
D15*
X82057800Y-74450000D03*
D16*
X84597800Y-74450000D03*
X87137800Y-74450000D03*
D17*
X60300000Y-33200000D03*
D18*
X103397349Y-66600000D03*
D19*
X108397349Y-66600000D03*
D17*
X161800000Y-80600000D03*
D18*
X107197349Y-78200000D03*
D19*
X112197349Y-78200000D03*
D15*
X164600000Y-66926000D03*
D16*
X167140000Y-69466000D03*
X167140000Y-66926000D03*
X164600000Y-69466000D03*
D15*
X128408200Y-63201000D03*
D16*
X130948200Y-63201000D03*
X133488200Y-63201000D03*
D17*
X60500000Y-80400000D03*
D20*
X85750000Y-37000000D03*
X85750000Y-56500000D03*
X135750000Y-56500000D03*
X135750000Y-37000000D03*
D15*
X65395400Y-74450000D03*
D16*
X67935400Y-74450000D03*
X70475400Y-74450000D03*
D15*
X115382600Y-74450000D03*
D16*
X117922600Y-74450000D03*
X120462600Y-74450000D03*
D15*
X61758600Y-63201000D03*
D16*
X64298600Y-63201000D03*
X66838600Y-63201000D03*
D15*
X74784200Y-33250000D03*
D16*
X77324200Y-33250000D03*
X79864200Y-33250000D03*
D21*
X68925000Y-57200000D03*
X76675000Y-57200000D03*
D16*
X68335000Y-69441000D03*
D15*
X70875000Y-66901000D03*
D16*
X68335000Y-66901000D03*
X70875000Y-69441000D03*
D22*
X65900000Y-46749000D03*
D23*
X65900000Y-40449000D03*
D24*
X61100000Y-43849000D03*
D15*
X98720200Y-74450000D03*
D16*
X101260200Y-74450000D03*
X103800200Y-74450000D03*
D15*
X95075000Y-63200000D03*
D16*
X97615000Y-63200000D03*
X100155000Y-63200000D03*
D15*
X78421000Y-63201000D03*
D16*
X80961000Y-63201000D03*
X83501000Y-63201000D03*
D25*
X75600000Y-46045000D03*
D26*
X75600000Y-43505000D03*
D15*
X141433800Y-33250000D03*
D16*
X143973800Y-33250000D03*
X146513800Y-33250000D03*
D15*
X124771400Y-33250000D03*
D16*
X127311400Y-33250000D03*
X129851400Y-33250000D03*
X68335000Y-80690000D03*
D15*
X70875000Y-78150000D03*
D16*
X68335000Y-78150000D03*
X70875000Y-80690000D03*
D15*
X164500000Y-37000000D03*
D16*
X167040000Y-39540000D03*
X167040000Y-37000000D03*
X164500000Y-39540000D03*
D15*
X158096200Y-33250000D03*
D16*
X160636200Y-33250000D03*
X163176200Y-33250000D03*
D15*
X161733000Y-63201000D03*
D16*
X164273000Y-63201000D03*
X166813000Y-63201000D03*
D15*
X145070600Y-63201000D03*
D16*
X147610600Y-63201000D03*
X150150600Y-63201000D03*
D15*
X111875000Y-63200000D03*
D16*
X114415000Y-63200000D03*
X116955000Y-63200000D03*
D15*
X148707400Y-74450000D03*
D16*
X151247400Y-74450000D03*
X153787400Y-74450000D03*
D27*
X69600000Y-50200000D03*
X74700000Y-51400000D03*
D15*
X132045000Y-74450000D03*
D16*
X134585000Y-74450000D03*
X137125000Y-74450000D03*
D15*
X91446600Y-33250000D03*
D16*
X93986600Y-33250000D03*
X96526600Y-33250000D03*
D28*
X95487600Y-31749000D02*
X93986600Y-33250000D01*
X109610000Y-31749000D02*
X95487600Y-31749000D01*
X110649000Y-32788000D02*
X109610000Y-31749000D01*
X110649000Y-33250000D02*
X110649000Y-32788000D01*
X142934800Y-31749000D02*
X128812400Y-31749000D01*
X143973800Y-32788000D02*
X142934800Y-31749000D01*
X128812400Y-31749000D02*
X127311400Y-33250000D01*
X143973800Y-33250000D02*
X143973800Y-32788000D01*
X67936081Y-65300000D02*
X64500000Y-65300000D01*
X68335000Y-65698919D02*
X67936081Y-65300000D01*
X68335000Y-66901000D02*
X68335000Y-65698919D01*
X64298600Y-65098600D02*
X64500000Y-65300000D01*
X64298600Y-63201000D02*
X64298600Y-65098600D01*
X96577000Y-61700000D02*
X82462000Y-61700000D01*
X82462000Y-61700000D02*
X80961000Y-63201000D01*
X97615000Y-62738000D02*
X96577000Y-61700000D01*
X97615000Y-63200000D02*
X97615000Y-62738000D01*
X115916000Y-61699000D02*
X114415000Y-63200000D01*
X129908200Y-61699000D02*
X115916000Y-61699000D01*
X130948200Y-62739000D02*
X129908200Y-61699000D01*
X130948200Y-63201000D02*
X130948200Y-62739000D01*
X149111600Y-61700000D02*
X147610600Y-63201000D01*
X164273000Y-61998919D02*
X163974081Y-61700000D01*
X164273000Y-63201000D02*
X164273000Y-61998919D01*
X163974081Y-61700000D02*
X149111600Y-61700000D01*
X69436400Y-72949000D02*
X67935400Y-74450000D01*
X84298881Y-72949000D02*
X69436400Y-72949000D01*
X84597800Y-73247919D02*
X84298881Y-72949000D01*
X84597800Y-74450000D02*
X84597800Y-73247919D01*
X116883600Y-72949000D02*
X102761200Y-72949000D01*
X102761200Y-72949000D02*
X101260200Y-74450000D01*
X117922600Y-73988000D02*
X116883600Y-72949000D01*
X117922600Y-74450000D02*
X117922600Y-73988000D01*
X136086000Y-72949000D02*
X134585000Y-74450000D01*
X150208400Y-72949000D02*
X136086000Y-72949000D01*
X151247400Y-73988000D02*
X150208400Y-72949000D01*
X151247400Y-74450000D02*
X151247400Y-73988000D01*
G04 #@! TA.AperFunction,Conductor*
G36*
X71538319Y-31170185D02*
G01*
X71584074Y-31222989D01*
X71595277Y-31275367D01*
X71501633Y-44666357D01*
X71500374Y-44683133D01*
X71494500Y-44723991D01*
X71494500Y-45686091D01*
X71494497Y-45686958D01*
X71458311Y-50861455D01*
X71438158Y-50928355D01*
X71416695Y-50953267D01*
X69718046Y-52463179D01*
X69654863Y-52493005D01*
X69635665Y-52494500D01*
X66124000Y-52494500D01*
X66123991Y-52494500D01*
X66123990Y-52494501D01*
X66016549Y-52506052D01*
X66016537Y-52506054D01*
X65965027Y-52517260D01*
X65862502Y-52551383D01*
X65862496Y-52551386D01*
X65741462Y-52629171D01*
X65741451Y-52629179D01*
X65688659Y-52674923D01*
X65594433Y-52783664D01*
X65594430Y-52783668D01*
X65534664Y-52914534D01*
X65514976Y-52981582D01*
X65494500Y-53124001D01*
X65494500Y-59725500D01*
X65474815Y-59792539D01*
X65422011Y-59838294D01*
X65370500Y-59849500D01*
X58474500Y-59849500D01*
X58407461Y-59829815D01*
X58361706Y-59777011D01*
X58350500Y-59725500D01*
X58350500Y-54878711D01*
X60149500Y-54878711D01*
X60149500Y-55121288D01*
X60181161Y-55361785D01*
X60243947Y-55596104D01*
X60336773Y-55820205D01*
X60336776Y-55820212D01*
X60458064Y-56030289D01*
X60458066Y-56030292D01*
X60458067Y-56030293D01*
X60605733Y-56222736D01*
X60605739Y-56222743D01*
X60777256Y-56394260D01*
X60777262Y-56394265D01*
X60969711Y-56541936D01*
X61179788Y-56663224D01*
X61403900Y-56756054D01*
X61638211Y-56818838D01*
X61818586Y-56842584D01*
X61878711Y-56850500D01*
X61878712Y-56850500D01*
X62121289Y-56850500D01*
X62169388Y-56844167D01*
X62361789Y-56818838D01*
X62596100Y-56756054D01*
X62820212Y-56663224D01*
X63030289Y-56541936D01*
X63222738Y-56394265D01*
X63394265Y-56222738D01*
X63541936Y-56030289D01*
X63663224Y-55820212D01*
X63756054Y-55596100D01*
X63818838Y-55361789D01*
X63850500Y-55121288D01*
X63850500Y-54878712D01*
X63818838Y-54638211D01*
X63756054Y-54403900D01*
X63663224Y-54179788D01*
X63541936Y-53969711D01*
X63394265Y-53777262D01*
X63394260Y-53777256D01*
X63222743Y-53605739D01*
X63222736Y-53605733D01*
X63030293Y-53458067D01*
X63030292Y-53458066D01*
X63030289Y-53458064D01*
X62820212Y-53336776D01*
X62820205Y-53336773D01*
X62596104Y-53243947D01*
X62361785Y-53181161D01*
X62121289Y-53149500D01*
X62121288Y-53149500D01*
X61878712Y-53149500D01*
X61878711Y-53149500D01*
X61638214Y-53181161D01*
X61403895Y-53243947D01*
X61179794Y-53336773D01*
X61179785Y-53336777D01*
X60969706Y-53458067D01*
X60777263Y-53605733D01*
X60777256Y-53605739D01*
X60605739Y-53777256D01*
X60605733Y-53777263D01*
X60458067Y-53969706D01*
X60336777Y-54179785D01*
X60336773Y-54179794D01*
X60243947Y-54403895D01*
X60181161Y-54638214D01*
X60149500Y-54878711D01*
X58350500Y-54878711D01*
X58350500Y-42630902D01*
X59599500Y-42630902D01*
X59599500Y-45067097D01*
X59636446Y-45300368D01*
X59709433Y-45524996D01*
X59768860Y-45641627D01*
X59816657Y-45735433D01*
X59955483Y-45926510D01*
X60122490Y-46093517D01*
X60313567Y-46232343D01*
X60412991Y-46283002D01*
X60524003Y-46339566D01*
X60524005Y-46339566D01*
X60524008Y-46339568D01*
X60644412Y-46378689D01*
X60748631Y-46412553D01*
X60981903Y-46449500D01*
X60981908Y-46449500D01*
X61218097Y-46449500D01*
X61451368Y-46412553D01*
X61675992Y-46339568D01*
X61886433Y-46232343D01*
X62077510Y-46093517D01*
X62244517Y-45926510D01*
X62383343Y-45735433D01*
X62400809Y-45701155D01*
X63100000Y-45701155D01*
X63100000Y-46499000D01*
X64166988Y-46499000D01*
X64134075Y-46556007D01*
X64100000Y-46683174D01*
X64100000Y-46814826D01*
X64134075Y-46941993D01*
X64166988Y-46999000D01*
X63100000Y-46999000D01*
X63100000Y-47796844D01*
X63106401Y-47856372D01*
X63106403Y-47856379D01*
X63156645Y-47991086D01*
X63156649Y-47991093D01*
X63242809Y-48106187D01*
X63242812Y-48106190D01*
X63357906Y-48192350D01*
X63357913Y-48192354D01*
X63492620Y-48242596D01*
X63492627Y-48242598D01*
X63552155Y-48248999D01*
X63552172Y-48249000D01*
X65650000Y-48249000D01*
X65650000Y-47249000D01*
X66150000Y-47249000D01*
X66150000Y-48249000D01*
X68247828Y-48249000D01*
X68247844Y-48248999D01*
X68307372Y-48242598D01*
X68307379Y-48242596D01*
X68442086Y-48192354D01*
X68442093Y-48192350D01*
X68557187Y-48106190D01*
X68557190Y-48106187D01*
X68643350Y-47991093D01*
X68643354Y-47991086D01*
X68693596Y-47856379D01*
X68693598Y-47856372D01*
X68699999Y-47796844D01*
X68700000Y-47796827D01*
X68700000Y-46999000D01*
X67633012Y-46999000D01*
X67665925Y-46941993D01*
X67700000Y-46814826D01*
X67700000Y-46683174D01*
X67665925Y-46556007D01*
X67633012Y-46499000D01*
X68700000Y-46499000D01*
X68700000Y-45701172D01*
X68699999Y-45701155D01*
X68693598Y-45641627D01*
X68693596Y-45641620D01*
X68643354Y-45506913D01*
X68643350Y-45506906D01*
X68557190Y-45391812D01*
X68557187Y-45391809D01*
X68442093Y-45305649D01*
X68442086Y-45305645D01*
X68307379Y-45255403D01*
X68307372Y-45255401D01*
X68247844Y-45249000D01*
X66150000Y-45249000D01*
X66150000Y-46249000D01*
X65650000Y-46249000D01*
X65650000Y-45249000D01*
X63552155Y-45249000D01*
X63492627Y-45255401D01*
X63492620Y-45255403D01*
X63357913Y-45305645D01*
X63357906Y-45305649D01*
X63242812Y-45391809D01*
X63242809Y-45391812D01*
X63156649Y-45506906D01*
X63156645Y-45506913D01*
X63106403Y-45641620D01*
X63106401Y-45641627D01*
X63100000Y-45701155D01*
X62400809Y-45701155D01*
X62490568Y-45524992D01*
X62563553Y-45300368D01*
X62571689Y-45249000D01*
X62600500Y-45067097D01*
X62600500Y-42630902D01*
X62563553Y-42397631D01*
X62490566Y-42173003D01*
X62383342Y-41962566D01*
X62373849Y-41949500D01*
X62244517Y-41771490D01*
X62077510Y-41604483D01*
X61886433Y-41465657D01*
X61809603Y-41426510D01*
X61675996Y-41358433D01*
X61451368Y-41285446D01*
X61218097Y-41248500D01*
X61218092Y-41248500D01*
X60981908Y-41248500D01*
X60981903Y-41248500D01*
X60748631Y-41285446D01*
X60524003Y-41358433D01*
X60313566Y-41465657D01*
X60204550Y-41544862D01*
X60122490Y-41604483D01*
X60122488Y-41604485D01*
X60122487Y-41604485D01*
X59955485Y-41771487D01*
X59955485Y-41771488D01*
X59955483Y-41771490D01*
X59906023Y-41839566D01*
X59816657Y-41962566D01*
X59709433Y-42173003D01*
X59636446Y-42397631D01*
X59599500Y-42630902D01*
X58350500Y-42630902D01*
X58350500Y-40330902D01*
X63299500Y-40330902D01*
X63299500Y-40567097D01*
X63336446Y-40800368D01*
X63409433Y-41024996D01*
X63516657Y-41235433D01*
X63655483Y-41426510D01*
X63822490Y-41593517D01*
X64013567Y-41732343D01*
X64112991Y-41783002D01*
X64224003Y-41839566D01*
X64224005Y-41839566D01*
X64224008Y-41839568D01*
X64344412Y-41878689D01*
X64448631Y-41912553D01*
X64681903Y-41949500D01*
X64681908Y-41949500D01*
X67118097Y-41949500D01*
X67351368Y-41912553D01*
X67575992Y-41839568D01*
X67786433Y-41732343D01*
X67977510Y-41593517D01*
X68144517Y-41426510D01*
X68283343Y-41235433D01*
X68390568Y-41024992D01*
X68463553Y-40800368D01*
X68500500Y-40567097D01*
X68500500Y-40330902D01*
X68463553Y-40097631D01*
X68390566Y-39873003D01*
X68283342Y-39662566D01*
X68144517Y-39471490D01*
X67977510Y-39304483D01*
X67786433Y-39165657D01*
X67575996Y-39058433D01*
X67351368Y-38985446D01*
X67118097Y-38948500D01*
X67118092Y-38948500D01*
X64681908Y-38948500D01*
X64681903Y-38948500D01*
X64448631Y-38985446D01*
X64224003Y-39058433D01*
X64013566Y-39165657D01*
X63904550Y-39244862D01*
X63822490Y-39304483D01*
X63822488Y-39304485D01*
X63822487Y-39304485D01*
X63655485Y-39471487D01*
X63655485Y-39471488D01*
X63655483Y-39471490D01*
X63595862Y-39553550D01*
X63516657Y-39662566D01*
X63409433Y-39873003D01*
X63336446Y-40097631D01*
X63299500Y-40330902D01*
X58350500Y-40330902D01*
X58350500Y-33081902D01*
X58799500Y-33081902D01*
X58799500Y-33318097D01*
X58836446Y-33551368D01*
X58909433Y-33775996D01*
X59016657Y-33986433D01*
X59155483Y-34177510D01*
X59322490Y-34344517D01*
X59513567Y-34483343D01*
X59612991Y-34534002D01*
X59724003Y-34590566D01*
X59724005Y-34590566D01*
X59724008Y-34590568D01*
X59844412Y-34629689D01*
X59948631Y-34663553D01*
X60181903Y-34700500D01*
X60181908Y-34700500D01*
X60418097Y-34700500D01*
X60651368Y-34663553D01*
X60875992Y-34590568D01*
X61086433Y-34483343D01*
X61277510Y-34344517D01*
X61444517Y-34177510D01*
X61583343Y-33986433D01*
X61690568Y-33775992D01*
X61763553Y-33551368D01*
X61800500Y-33318097D01*
X61800500Y-33081902D01*
X61763553Y-32848631D01*
X61690566Y-32624003D01*
X61583342Y-32413566D01*
X61444517Y-32222490D01*
X61277510Y-32055483D01*
X61086433Y-31916657D01*
X60875996Y-31809433D01*
X60651368Y-31736446D01*
X60418097Y-31699500D01*
X60418092Y-31699500D01*
X60181908Y-31699500D01*
X60181903Y-31699500D01*
X59948631Y-31736446D01*
X59724003Y-31809433D01*
X59513566Y-31916657D01*
X59404550Y-31995862D01*
X59322490Y-32055483D01*
X59322488Y-32055485D01*
X59322487Y-32055485D01*
X59155485Y-32222487D01*
X59155485Y-32222488D01*
X59155483Y-32222490D01*
X59095862Y-32304550D01*
X59016657Y-32413566D01*
X58909433Y-32624003D01*
X58836446Y-32848631D01*
X58799500Y-33081902D01*
X58350500Y-33081902D01*
X58350500Y-31274500D01*
X58370185Y-31207461D01*
X58422989Y-31161706D01*
X58474500Y-31150500D01*
X71471280Y-31150500D01*
X71538319Y-31170185D01*
G37*
G04 #@! TD.AperFunction*
G04 #@! TA.AperFunction,Conductor*
G36*
X83192717Y-35784520D02*
G01*
X83238635Y-35837183D01*
X83250000Y-35889042D01*
X83250000Y-36750000D01*
X85201518Y-36750000D01*
X85190889Y-36768409D01*
X85150000Y-36921009D01*
X85150000Y-37078991D01*
X85190889Y-37231591D01*
X85201518Y-37250000D01*
X83250000Y-37250000D01*
X83250000Y-39047844D01*
X83256401Y-39107372D01*
X83256403Y-39107379D01*
X83306645Y-39242086D01*
X83306649Y-39242093D01*
X83392809Y-39357187D01*
X83392812Y-39357190D01*
X83507906Y-39443350D01*
X83507913Y-39443354D01*
X83642620Y-39493596D01*
X83642627Y-39493598D01*
X83702155Y-39499999D01*
X83702172Y-39500000D01*
X85500000Y-39500000D01*
X85500000Y-37548482D01*
X85518409Y-37559111D01*
X85671009Y-37600000D01*
X85828991Y-37600000D01*
X85981591Y-37559111D01*
X86000000Y-37548482D01*
X86000000Y-39500000D01*
X87797828Y-39500000D01*
X87797839Y-39499999D01*
X87862742Y-39493020D01*
X87931502Y-39505424D01*
X87982640Y-39553033D01*
X88000000Y-39616309D01*
X88000000Y-51475418D01*
X87980315Y-51542457D01*
X87927511Y-51588212D01*
X87875847Y-51599418D01*
X85656225Y-51596678D01*
X85630329Y-51596647D01*
X85630328Y-51596647D01*
X85630321Y-51596647D01*
X85587589Y-51598404D01*
X85566695Y-51600151D01*
X85545468Y-51602835D01*
X85524247Y-51605518D01*
X85524245Y-51605518D01*
X85524242Y-51605519D01*
X85387262Y-51649531D01*
X85324465Y-51680152D01*
X85324463Y-51680153D01*
X85216556Y-51753418D01*
X85205426Y-51760976D01*
X85205425Y-51760977D01*
X83395916Y-53410825D01*
X83374560Y-53431478D01*
X83364413Y-53441884D01*
X83344298Y-53463764D01*
X83266512Y-53584804D01*
X83266501Y-53584822D01*
X83237743Y-53647796D01*
X83237490Y-53648345D01*
X83237484Y-53648362D01*
X83237484Y-53648364D01*
X83196950Y-53786417D01*
X83196950Y-53786418D01*
X83196950Y-53930293D01*
X83196951Y-53930297D01*
X83206895Y-53999455D01*
X83206896Y-53999460D01*
X83206897Y-53999463D01*
X83244977Y-54129151D01*
X83250000Y-54164086D01*
X83250000Y-54440826D01*
X83249572Y-54448798D01*
X83249678Y-54448804D01*
X83249500Y-54452128D01*
X83249500Y-58547869D01*
X83249666Y-58550945D01*
X83233601Y-58618942D01*
X83207048Y-58651299D01*
X83188656Y-58667235D01*
X83094433Y-58775973D01*
X83094430Y-58775977D01*
X83034664Y-58906843D01*
X83014976Y-58973891D01*
X82994500Y-59116310D01*
X82994500Y-59725500D01*
X82974815Y-59792539D01*
X82922011Y-59838294D01*
X82870500Y-59849500D01*
X73364561Y-59849500D01*
X73297522Y-59829815D01*
X73251767Y-59777011D01*
X73240561Y-59725500D01*
X73240561Y-55029446D01*
X73260246Y-54962407D01*
X73313050Y-54916652D01*
X73364561Y-54905446D01*
X77075988Y-54905521D01*
X77183450Y-54893969D01*
X77234963Y-54882763D01*
X77337504Y-54848634D01*
X77458543Y-54770846D01*
X77511347Y-54725091D01*
X77605567Y-54616357D01*
X77665338Y-54485480D01*
X77685023Y-54418441D01*
X77685024Y-54418437D01*
X77705500Y-54276021D01*
X77705500Y-53324000D01*
X77725185Y-53256961D01*
X77777989Y-53211206D01*
X77791796Y-53208202D01*
X77799998Y-53199999D01*
X77800000Y-53200000D01*
X77800000Y-44400000D01*
X77676158Y-44400000D01*
X77609119Y-44380315D01*
X77573669Y-44344865D01*
X77573482Y-44345006D01*
X77572507Y-44343704D01*
X77571844Y-44343041D01*
X77570831Y-44341466D01*
X77570829Y-44341463D01*
X77570825Y-44341457D01*
X77570820Y-44341451D01*
X77525076Y-44288659D01*
X77525072Y-44288656D01*
X77525070Y-44288653D01*
X77416336Y-44194433D01*
X77416333Y-44194431D01*
X77416331Y-44194430D01*
X77285465Y-44134664D01*
X77285460Y-44134662D01*
X77285459Y-44134662D01*
X77218420Y-44114977D01*
X77218422Y-44114977D01*
X77218417Y-44114976D01*
X77156354Y-44106053D01*
X77076000Y-44094500D01*
X77075998Y-44094500D01*
X77051705Y-44094500D01*
X76984666Y-44074815D01*
X76938911Y-44022011D01*
X76928967Y-43952853D01*
X76933774Y-43932183D01*
X76966014Y-43832954D01*
X76966013Y-43832954D01*
X76966015Y-43832951D01*
X77000500Y-43615222D01*
X77000500Y-43394778D01*
X76966015Y-43177049D01*
X76897895Y-42967394D01*
X76897895Y-42967393D01*
X76863237Y-42899375D01*
X76797815Y-42770978D01*
X76724948Y-42670684D01*
X76668247Y-42592641D01*
X76668243Y-42592636D01*
X76512363Y-42436756D01*
X76512358Y-42436752D01*
X76334025Y-42307187D01*
X76334024Y-42307186D01*
X76334022Y-42307185D01*
X76271096Y-42275122D01*
X76137606Y-42207104D01*
X76137603Y-42207103D01*
X75927952Y-42138985D01*
X75819086Y-42121742D01*
X75710222Y-42104500D01*
X75489778Y-42104500D01*
X75417201Y-42115995D01*
X75272047Y-42138985D01*
X75062396Y-42207103D01*
X75062393Y-42207104D01*
X74865974Y-42307187D01*
X74687641Y-42436752D01*
X74687636Y-42436756D01*
X74531756Y-42592636D01*
X74531752Y-42592641D01*
X74402187Y-42770974D01*
X74302104Y-42967393D01*
X74302103Y-42967396D01*
X74233985Y-43177047D01*
X74199500Y-43394778D01*
X74199500Y-43615221D01*
X74233985Y-43832954D01*
X74266226Y-43932183D01*
X74268221Y-44002024D01*
X74232140Y-44061856D01*
X74169439Y-44092684D01*
X74148295Y-44094500D01*
X72136014Y-44094500D01*
X72068975Y-44074815D01*
X72023220Y-44022011D01*
X72012017Y-43969633D01*
X72068295Y-35921919D01*
X72088448Y-35855022D01*
X72141571Y-35809637D01*
X72191907Y-35798790D01*
X83125621Y-35765044D01*
X83192717Y-35784520D01*
G37*
G04 #@! TD.AperFunction*
G04 #@! TA.AperFunction,Conductor*
G36*
X94933830Y-31170185D02*
G01*
X94979585Y-31222989D01*
X94989529Y-31292147D01*
X94960504Y-31355703D01*
X94954472Y-31362181D01*
X94417310Y-31899342D01*
X94355987Y-31932827D01*
X94307845Y-31932315D01*
X94307655Y-31933516D01*
X94202711Y-31916894D01*
X94092887Y-31899500D01*
X93880313Y-31899500D01*
X93831642Y-31907208D01*
X93670360Y-31932753D01*
X93468185Y-31998444D01*
X93278779Y-32094951D01*
X93106815Y-32219889D01*
X92993273Y-32333431D01*
X92931950Y-32366915D01*
X92862258Y-32361931D01*
X92806325Y-32320059D01*
X92789410Y-32289082D01*
X92740397Y-32157671D01*
X92740393Y-32157664D01*
X92654147Y-32042455D01*
X92654144Y-32042452D01*
X92538935Y-31956206D01*
X92538928Y-31956202D01*
X92404082Y-31905908D01*
X92404083Y-31905908D01*
X92344483Y-31899501D01*
X92344481Y-31899500D01*
X92344473Y-31899500D01*
X92344464Y-31899500D01*
X90548729Y-31899500D01*
X90548723Y-31899501D01*
X90489116Y-31905908D01*
X90354271Y-31956202D01*
X90354264Y-31956206D01*
X90239055Y-32042452D01*
X90239052Y-32042455D01*
X90152806Y-32157664D01*
X90152802Y-32157671D01*
X90102508Y-32292517D01*
X90096101Y-32352116D01*
X90096100Y-32352135D01*
X90096100Y-34147870D01*
X90096101Y-34147876D01*
X90102508Y-34207483D01*
X90152802Y-34342328D01*
X90152806Y-34342335D01*
X90239052Y-34457544D01*
X90239055Y-34457547D01*
X90354264Y-34543793D01*
X90354271Y-34543797D01*
X90489117Y-34594091D01*
X90489116Y-34594091D01*
X90496044Y-34594835D01*
X90548727Y-34600500D01*
X92344472Y-34600499D01*
X92404083Y-34594091D01*
X92538931Y-34543796D01*
X92654146Y-34457546D01*
X92740396Y-34342331D01*
X92789410Y-34210916D01*
X92831281Y-34154984D01*
X92896745Y-34130566D01*
X92965018Y-34145417D01*
X92993273Y-34166569D01*
X93106813Y-34280109D01*
X93278779Y-34405048D01*
X93278781Y-34405049D01*
X93278784Y-34405051D01*
X93468188Y-34501557D01*
X93670357Y-34567246D01*
X93880313Y-34600500D01*
X93880314Y-34600500D01*
X94092886Y-34600500D01*
X94092887Y-34600500D01*
X94302843Y-34567246D01*
X94505012Y-34501557D01*
X94694416Y-34405051D01*
X94780738Y-34342335D01*
X94866386Y-34280109D01*
X94866388Y-34280106D01*
X94866392Y-34280104D01*
X95016704Y-34129792D01*
X95016706Y-34129788D01*
X95016709Y-34129786D01*
X95141648Y-33957820D01*
X95141647Y-33957820D01*
X95141651Y-33957816D01*
X95238157Y-33768412D01*
X95303846Y-33566243D01*
X95337100Y-33356287D01*
X95337100Y-33143713D01*
X95303084Y-32928945D01*
X95304726Y-32928684D01*
X95307854Y-32866137D01*
X95337257Y-32819288D01*
X95720727Y-32435819D01*
X95782050Y-32402334D01*
X95808408Y-32399500D01*
X106634500Y-32399500D01*
X106701539Y-32419185D01*
X106747294Y-32471989D01*
X106758500Y-32523500D01*
X106758500Y-34147870D01*
X106758501Y-34147876D01*
X106764908Y-34207483D01*
X106815202Y-34342328D01*
X106815206Y-34342335D01*
X106901452Y-34457544D01*
X106901455Y-34457547D01*
X107016664Y-34543793D01*
X107016671Y-34543797D01*
X107151517Y-34594091D01*
X107151516Y-34594091D01*
X107158444Y-34594835D01*
X107211127Y-34600500D01*
X109006872Y-34600499D01*
X109066483Y-34594091D01*
X109201331Y-34543796D01*
X109316546Y-34457546D01*
X109402796Y-34342331D01*
X109451810Y-34210916D01*
X109493681Y-34154984D01*
X109559145Y-34130566D01*
X109627418Y-34145417D01*
X109655673Y-34166569D01*
X109769213Y-34280109D01*
X109941179Y-34405048D01*
X109941181Y-34405049D01*
X109941184Y-34405051D01*
X110130588Y-34501557D01*
X110332757Y-34567246D01*
X110542713Y-34600500D01*
X110542714Y-34600500D01*
X110755286Y-34600500D01*
X110755287Y-34600500D01*
X110965243Y-34567246D01*
X111167412Y-34501557D01*
X111356816Y-34405051D01*
X111443138Y-34342335D01*
X111528786Y-34280109D01*
X111528788Y-34280106D01*
X111528792Y-34280104D01*
X111679104Y-34129792D01*
X111679106Y-34129788D01*
X111679109Y-34129786D01*
X111804048Y-33957820D01*
X111804047Y-33957820D01*
X111804051Y-33957816D01*
X111900557Y-33768412D01*
X111966246Y-33566243D01*
X111999500Y-33356287D01*
X111999500Y-33143713D01*
X111966246Y-32933757D01*
X111900557Y-32731588D01*
X111804051Y-32542184D01*
X111804049Y-32542181D01*
X111804048Y-32542179D01*
X111679109Y-32370213D01*
X111528786Y-32219890D01*
X111356820Y-32094951D01*
X111167414Y-31998444D01*
X111167413Y-31998443D01*
X111167412Y-31998443D01*
X110965243Y-31932754D01*
X110965241Y-31932753D01*
X110965240Y-31932753D01*
X110803957Y-31907208D01*
X110755287Y-31899500D01*
X110755286Y-31899500D01*
X110731808Y-31899500D01*
X110664769Y-31879815D01*
X110644127Y-31863181D01*
X110143128Y-31362181D01*
X110109643Y-31300858D01*
X110114627Y-31231166D01*
X110156499Y-31175233D01*
X110221963Y-31150816D01*
X110230809Y-31150500D01*
X128191591Y-31150500D01*
X128258630Y-31170185D01*
X128304385Y-31222989D01*
X128314329Y-31292147D01*
X128285304Y-31355703D01*
X128279272Y-31362181D01*
X127742110Y-31899342D01*
X127680787Y-31932827D01*
X127632645Y-31932315D01*
X127632455Y-31933516D01*
X127527511Y-31916894D01*
X127417687Y-31899500D01*
X127205113Y-31899500D01*
X127156442Y-31907208D01*
X126995160Y-31932753D01*
X126792985Y-31998444D01*
X126603579Y-32094951D01*
X126431615Y-32219889D01*
X126318073Y-32333431D01*
X126256750Y-32366915D01*
X126187058Y-32361931D01*
X126131125Y-32320059D01*
X126114210Y-32289082D01*
X126065197Y-32157671D01*
X126065193Y-32157664D01*
X125978947Y-32042455D01*
X125978944Y-32042452D01*
X125863735Y-31956206D01*
X125863728Y-31956202D01*
X125728882Y-31905908D01*
X125728883Y-31905908D01*
X125669283Y-31899501D01*
X125669281Y-31899500D01*
X125669273Y-31899500D01*
X125669264Y-31899500D01*
X123873529Y-31899500D01*
X123873523Y-31899501D01*
X123813916Y-31905908D01*
X123679071Y-31956202D01*
X123679064Y-31956206D01*
X123563855Y-32042452D01*
X123563852Y-32042455D01*
X123477606Y-32157664D01*
X123477602Y-32157671D01*
X123427308Y-32292517D01*
X123420901Y-32352116D01*
X123420900Y-32352135D01*
X123420900Y-34147870D01*
X123420901Y-34147876D01*
X123427308Y-34207483D01*
X123477602Y-34342328D01*
X123477606Y-34342335D01*
X123563852Y-34457544D01*
X123563855Y-34457547D01*
X123679064Y-34543793D01*
X123679071Y-34543797D01*
X123813917Y-34594091D01*
X123813916Y-34594091D01*
X123820844Y-34594835D01*
X123873527Y-34600500D01*
X125669272Y-34600499D01*
X125728883Y-34594091D01*
X125863731Y-34543796D01*
X125978946Y-34457546D01*
X126065196Y-34342331D01*
X126114210Y-34210916D01*
X126156081Y-34154984D01*
X126221545Y-34130566D01*
X126289818Y-34145417D01*
X126318073Y-34166569D01*
X126431613Y-34280109D01*
X126603579Y-34405048D01*
X126603581Y-34405049D01*
X126603584Y-34405051D01*
X126792988Y-34501557D01*
X126995157Y-34567246D01*
X127205113Y-34600500D01*
X127205114Y-34600500D01*
X127417686Y-34600500D01*
X127417687Y-34600500D01*
X127627643Y-34567246D01*
X127829812Y-34501557D01*
X128019216Y-34405051D01*
X128105538Y-34342335D01*
X128191186Y-34280109D01*
X128191188Y-34280106D01*
X128191192Y-34280104D01*
X128341504Y-34129792D01*
X128341506Y-34129788D01*
X128341509Y-34129786D01*
X128466448Y-33957820D01*
X128466447Y-33957820D01*
X128466451Y-33957816D01*
X128562957Y-33768412D01*
X128628646Y-33566243D01*
X128661900Y-33356287D01*
X128661900Y-33143713D01*
X128627884Y-32928945D01*
X128629526Y-32928684D01*
X128632654Y-32866137D01*
X128662057Y-32819288D01*
X129045527Y-32435819D01*
X129106850Y-32402334D01*
X129133208Y-32399500D01*
X139959300Y-32399500D01*
X140026339Y-32419185D01*
X140072094Y-32471989D01*
X140083300Y-32523500D01*
X140083300Y-34147870D01*
X140083301Y-34147876D01*
X140089708Y-34207483D01*
X140140002Y-34342328D01*
X140140006Y-34342335D01*
X140226252Y-34457544D01*
X140226255Y-34457547D01*
X140341464Y-34543793D01*
X140341471Y-34543797D01*
X140476317Y-34594091D01*
X140476316Y-34594091D01*
X140483244Y-34594835D01*
X140535927Y-34600500D01*
X142331672Y-34600499D01*
X142391283Y-34594091D01*
X142526131Y-34543796D01*
X142641346Y-34457546D01*
X142727596Y-34342331D01*
X142776610Y-34210916D01*
X142818481Y-34154984D01*
X142883945Y-34130566D01*
X142952218Y-34145417D01*
X142980473Y-34166569D01*
X143094013Y-34280109D01*
X143265979Y-34405048D01*
X143265981Y-34405049D01*
X143265984Y-34405051D01*
X143455388Y-34501557D01*
X143657557Y-34567246D01*
X143867513Y-34600500D01*
X143867514Y-34600500D01*
X144080086Y-34600500D01*
X144080087Y-34600500D01*
X144290043Y-34567246D01*
X144492212Y-34501557D01*
X144681616Y-34405051D01*
X144767938Y-34342335D01*
X144853586Y-34280109D01*
X144853588Y-34280106D01*
X144853592Y-34280104D01*
X145003904Y-34129792D01*
X145003906Y-34129788D01*
X145003909Y-34129786D01*
X145128848Y-33957820D01*
X145128847Y-33957820D01*
X145128851Y-33957816D01*
X145225357Y-33768412D01*
X145291046Y-33566243D01*
X145324300Y-33356287D01*
X145324300Y-33143713D01*
X145291046Y-32933757D01*
X145225357Y-32731588D01*
X145128851Y-32542184D01*
X145003904Y-32370208D01*
X144985831Y-32352135D01*
X156745700Y-32352135D01*
X156745700Y-34147870D01*
X156745701Y-34147876D01*
X156752108Y-34207483D01*
X156802402Y-34342328D01*
X156802406Y-34342335D01*
X156888652Y-34457544D01*
X156888655Y-34457547D01*
X157003864Y-34543793D01*
X157003871Y-34543797D01*
X157138717Y-34594091D01*
X157138716Y-34594091D01*
X157145644Y-34594835D01*
X157198327Y-34600500D01*
X158994072Y-34600499D01*
X159053683Y-34594091D01*
X159188531Y-34543796D01*
X159303746Y-34457546D01*
X159389996Y-34342331D01*
X159439010Y-34210916D01*
X159480881Y-34154984D01*
X159546345Y-34130566D01*
X159614618Y-34145417D01*
X159642873Y-34166569D01*
X159756413Y-34280109D01*
X159928379Y-34405048D01*
X159928381Y-34405049D01*
X159928384Y-34405051D01*
X160117788Y-34501557D01*
X160319957Y-34567246D01*
X160529913Y-34600500D01*
X160529914Y-34600500D01*
X160742486Y-34600500D01*
X160742487Y-34600500D01*
X160952443Y-34567246D01*
X161154612Y-34501557D01*
X161344016Y-34405051D01*
X161430338Y-34342335D01*
X161515986Y-34280109D01*
X161515988Y-34280106D01*
X161515992Y-34280104D01*
X161666304Y-34129792D01*
X161666306Y-34129788D01*
X161666309Y-34129786D01*
X161791248Y-33957820D01*
X161791247Y-33957820D01*
X161791251Y-33957816D01*
X161887757Y-33768412D01*
X161953446Y-33566243D01*
X161986700Y-33356287D01*
X161986700Y-33143713D01*
X161953446Y-32933757D01*
X161887757Y-32731588D01*
X161791251Y-32542184D01*
X161791249Y-32542181D01*
X161791248Y-32542179D01*
X161666309Y-32370213D01*
X161515986Y-32219890D01*
X161344020Y-32094951D01*
X161154614Y-31998444D01*
X161154613Y-31998443D01*
X161154612Y-31998443D01*
X160952443Y-31932754D01*
X160952441Y-31932753D01*
X160952440Y-31932753D01*
X160791157Y-31907208D01*
X160742487Y-31899500D01*
X160529913Y-31899500D01*
X160481242Y-31907208D01*
X160319960Y-31932753D01*
X160117785Y-31998444D01*
X159928379Y-32094951D01*
X159756415Y-32219889D01*
X159642873Y-32333431D01*
X159581550Y-32366915D01*
X159511858Y-32361931D01*
X159455925Y-32320059D01*
X159439010Y-32289082D01*
X159389997Y-32157671D01*
X159389993Y-32157664D01*
X159303747Y-32042455D01*
X159303744Y-32042452D01*
X159188535Y-31956206D01*
X159188528Y-31956202D01*
X159053682Y-31905908D01*
X159053683Y-31905908D01*
X158994083Y-31899501D01*
X158994081Y-31899500D01*
X158994073Y-31899500D01*
X158994064Y-31899500D01*
X157198329Y-31899500D01*
X157198323Y-31899501D01*
X157138716Y-31905908D01*
X157003871Y-31956202D01*
X157003864Y-31956206D01*
X156888655Y-32042452D01*
X156888652Y-32042455D01*
X156802406Y-32157664D01*
X156802402Y-32157671D01*
X156752108Y-32292517D01*
X156745701Y-32352116D01*
X156745700Y-32352135D01*
X144985831Y-32352135D01*
X144853592Y-32219896D01*
X144853586Y-32219890D01*
X144681620Y-32094951D01*
X144492214Y-31998444D01*
X144492213Y-31998443D01*
X144492212Y-31998443D01*
X144290043Y-31932754D01*
X144290041Y-31932753D01*
X144290040Y-31932753D01*
X144128757Y-31907208D01*
X144080087Y-31899500D01*
X144080086Y-31899500D01*
X144056608Y-31899500D01*
X143989569Y-31879815D01*
X143968927Y-31863181D01*
X143467928Y-31362181D01*
X143434443Y-31300858D01*
X143439427Y-31231166D01*
X143481299Y-31175233D01*
X143546763Y-31150816D01*
X143555609Y-31150500D01*
X170125500Y-31150500D01*
X170192539Y-31170185D01*
X170238294Y-31222989D01*
X170249500Y-31274500D01*
X170249500Y-51576947D01*
X170229815Y-51643986D01*
X170177011Y-51689741D01*
X170125347Y-51700946D01*
X159635279Y-51687997D01*
X88629347Y-51600347D01*
X88562332Y-51580580D01*
X88516642Y-51527719D01*
X88505500Y-51476347D01*
X88505500Y-39616309D01*
X88505499Y-39616301D01*
X88501110Y-39583716D01*
X88500000Y-39567162D01*
X88500000Y-36878711D01*
X120149500Y-36878711D01*
X120149500Y-37121288D01*
X120181161Y-37361785D01*
X120243947Y-37596104D01*
X120336773Y-37820205D01*
X120336776Y-37820212D01*
X120458064Y-38030289D01*
X120458066Y-38030292D01*
X120458067Y-38030293D01*
X120605733Y-38222736D01*
X120605739Y-38222743D01*
X120777256Y-38394260D01*
X120777262Y-38394265D01*
X120969711Y-38541936D01*
X121179788Y-38663224D01*
X121403900Y-38756054D01*
X121638211Y-38818838D01*
X121818586Y-38842584D01*
X121878711Y-38850500D01*
X121878712Y-38850500D01*
X122121289Y-38850500D01*
X122169388Y-38844167D01*
X122361789Y-38818838D01*
X122596100Y-38756054D01*
X122820212Y-38663224D01*
X123030289Y-38541936D01*
X123222738Y-38394265D01*
X123394265Y-38222738D01*
X123541936Y-38030289D01*
X123663224Y-37820212D01*
X123756054Y-37596100D01*
X123818838Y-37361789D01*
X123850500Y-37121288D01*
X123850500Y-36878712D01*
X123818838Y-36638211D01*
X123756054Y-36403900D01*
X123663224Y-36179788D01*
X123541936Y-35969711D01*
X123481018Y-35890321D01*
X123394266Y-35777263D01*
X123394260Y-35777256D01*
X123222743Y-35605739D01*
X123222736Y-35605733D01*
X123030293Y-35458067D01*
X123030292Y-35458066D01*
X123030289Y-35458064D01*
X122820212Y-35336776D01*
X122742612Y-35304633D01*
X122596104Y-35243947D01*
X122361785Y-35181161D01*
X122121289Y-35149500D01*
X122121288Y-35149500D01*
X121878712Y-35149500D01*
X121878711Y-35149500D01*
X121638214Y-35181161D01*
X121403895Y-35243947D01*
X121179794Y-35336773D01*
X121179785Y-35336777D01*
X120969706Y-35458067D01*
X120777263Y-35605733D01*
X120777256Y-35605739D01*
X120605739Y-35777256D01*
X120605733Y-35777263D01*
X120458067Y-35969706D01*
X120336777Y-36179785D01*
X120336773Y-36179794D01*
X120243947Y-36403895D01*
X120181161Y-36638214D01*
X120149500Y-36878711D01*
X88500000Y-36878711D01*
X88500000Y-35149000D01*
X88374499Y-35149000D01*
X88365813Y-35146449D01*
X88356852Y-35147738D01*
X88332811Y-35136759D01*
X88307460Y-35129315D01*
X88301532Y-35122474D01*
X88293296Y-35118713D01*
X88279006Y-35096478D01*
X88261705Y-35076511D01*
X88259417Y-35065996D01*
X88255522Y-35059935D01*
X88250499Y-35025000D01*
X88250499Y-34952155D01*
X133250000Y-34952155D01*
X133250000Y-36750000D01*
X135201518Y-36750000D01*
X135190889Y-36768409D01*
X135150000Y-36921009D01*
X135150000Y-37078991D01*
X135190889Y-37231591D01*
X135201518Y-37250000D01*
X133250000Y-37250000D01*
X133250000Y-39047844D01*
X133256401Y-39107372D01*
X133256403Y-39107379D01*
X133306645Y-39242086D01*
X133306649Y-39242093D01*
X133392809Y-39357187D01*
X133392812Y-39357190D01*
X133507906Y-39443350D01*
X133507913Y-39443354D01*
X133642620Y-39493596D01*
X133642627Y-39493598D01*
X133702155Y-39499999D01*
X133702172Y-39500000D01*
X135500000Y-39500000D01*
X135500000Y-37548482D01*
X135518409Y-37559111D01*
X135671009Y-37600000D01*
X135828991Y-37600000D01*
X135981591Y-37559111D01*
X136000000Y-37548482D01*
X136000000Y-39500000D01*
X137797828Y-39500000D01*
X137797844Y-39499999D01*
X137857372Y-39493598D01*
X137857379Y-39493596D01*
X137992086Y-39443354D01*
X137992093Y-39443350D01*
X138107187Y-39357190D01*
X138107190Y-39357187D01*
X138193350Y-39242093D01*
X138193354Y-39242086D01*
X138243596Y-39107379D01*
X138243598Y-39107372D01*
X138249999Y-39047844D01*
X138250000Y-39047827D01*
X138250000Y-37250000D01*
X136298482Y-37250000D01*
X136309111Y-37231591D01*
X136350000Y-37078991D01*
X136350000Y-36921009D01*
X136309111Y-36768409D01*
X136298482Y-36750000D01*
X138250000Y-36750000D01*
X138250000Y-36102135D01*
X163149500Y-36102135D01*
X163149500Y-37897870D01*
X163149501Y-37897876D01*
X163155908Y-37957483D01*
X163206202Y-38092328D01*
X163206206Y-38092335D01*
X163292452Y-38207544D01*
X163292455Y-38207547D01*
X163407664Y-38293793D01*
X163407671Y-38293797D01*
X163542517Y-38344091D01*
X163542516Y-38344091D01*
X163549444Y-38344835D01*
X163602127Y-38350500D01*
X165397872Y-38350499D01*
X165457483Y-38344091D01*
X165592331Y-38293796D01*
X165707546Y-38207546D01*
X165793796Y-38092331D01*
X165842810Y-37960916D01*
X165884681Y-37904984D01*
X165950145Y-37880566D01*
X166018418Y-37895417D01*
X166046673Y-37916569D01*
X166160213Y-38030109D01*
X166332182Y-38155050D01*
X166340946Y-38159516D01*
X166391742Y-38207491D01*
X166408536Y-38275312D01*
X166385998Y-38341447D01*
X166340946Y-38380484D01*
X166332182Y-38384949D01*
X166160213Y-38509890D01*
X166009890Y-38660213D01*
X165884951Y-38832179D01*
X165788444Y-39021585D01*
X165722753Y-39223760D01*
X165689500Y-39433713D01*
X165689500Y-39646286D01*
X165722753Y-39856239D01*
X165788444Y-40058414D01*
X165884951Y-40247820D01*
X166009890Y-40419786D01*
X166160213Y-40570109D01*
X166332179Y-40695048D01*
X166332181Y-40695049D01*
X166332184Y-40695051D01*
X166521588Y-40791557D01*
X166723757Y-40857246D01*
X166933713Y-40890500D01*
X166933714Y-40890500D01*
X167146286Y-40890500D01*
X167146287Y-40890500D01*
X167356243Y-40857246D01*
X167558412Y-40791557D01*
X167747816Y-40695051D01*
X167769789Y-40679086D01*
X167919786Y-40570109D01*
X167919788Y-40570106D01*
X167919792Y-40570104D01*
X168070104Y-40419792D01*
X168070106Y-40419788D01*
X168070109Y-40419786D01*
X168195048Y-40247820D01*
X168195047Y-40247820D01*
X168195051Y-40247816D01*
X168291557Y-40058412D01*
X168357246Y-39856243D01*
X168390500Y-39646287D01*
X168390500Y-39433713D01*
X168357246Y-39223757D01*
X168291557Y-39021588D01*
X168195051Y-38832184D01*
X168195049Y-38832181D01*
X168195048Y-38832179D01*
X168070109Y-38660213D01*
X167919786Y-38509890D01*
X167747820Y-38384951D01*
X167747115Y-38384591D01*
X167739054Y-38380485D01*
X167688259Y-38332512D01*
X167671463Y-38264692D01*
X167693999Y-38198556D01*
X167739054Y-38159515D01*
X167747816Y-38155051D01*
X167834138Y-38092335D01*
X167919786Y-38030109D01*
X167919788Y-38030106D01*
X167919792Y-38030104D01*
X168070104Y-37879792D01*
X168070106Y-37879788D01*
X168070109Y-37879786D01*
X168195048Y-37707820D01*
X168195047Y-37707820D01*
X168195051Y-37707816D01*
X168291557Y-37518412D01*
X168357246Y-37316243D01*
X168390500Y-37106287D01*
X168390500Y-36893713D01*
X168357246Y-36683757D01*
X168291557Y-36481588D01*
X168195051Y-36292184D01*
X168195049Y-36292181D01*
X168195048Y-36292179D01*
X168070109Y-36120213D01*
X167919786Y-35969890D01*
X167747820Y-35844951D01*
X167558414Y-35748444D01*
X167558413Y-35748443D01*
X167558412Y-35748443D01*
X167356243Y-35682754D01*
X167356241Y-35682753D01*
X167356240Y-35682753D01*
X167194957Y-35657208D01*
X167146287Y-35649500D01*
X166933713Y-35649500D01*
X166885042Y-35657208D01*
X166723760Y-35682753D01*
X166521585Y-35748444D01*
X166332179Y-35844951D01*
X166160215Y-35969889D01*
X166046673Y-36083431D01*
X165985350Y-36116915D01*
X165915658Y-36111931D01*
X165859725Y-36070059D01*
X165842810Y-36039082D01*
X165793797Y-35907671D01*
X165793793Y-35907664D01*
X165707547Y-35792455D01*
X165707544Y-35792452D01*
X165592335Y-35706206D01*
X165592328Y-35706202D01*
X165457482Y-35655908D01*
X165457483Y-35655908D01*
X165397883Y-35649501D01*
X165397881Y-35649500D01*
X165397873Y-35649500D01*
X165397864Y-35649500D01*
X163602129Y-35649500D01*
X163602123Y-35649501D01*
X163542516Y-35655908D01*
X163407671Y-35706202D01*
X163407664Y-35706206D01*
X163292455Y-35792452D01*
X163292452Y-35792455D01*
X163206206Y-35907664D01*
X163206202Y-35907671D01*
X163155908Y-36042517D01*
X163149501Y-36102116D01*
X163149500Y-36102135D01*
X138250000Y-36102135D01*
X138250000Y-34952172D01*
X138249999Y-34952155D01*
X138243598Y-34892627D01*
X138243596Y-34892620D01*
X138193354Y-34757913D01*
X138193350Y-34757906D01*
X138107190Y-34642812D01*
X138107187Y-34642809D01*
X137992093Y-34556649D01*
X137992086Y-34556645D01*
X137857379Y-34506403D01*
X137857372Y-34506401D01*
X137797844Y-34500000D01*
X136000000Y-34500000D01*
X136000000Y-36451517D01*
X135981591Y-36440889D01*
X135828991Y-36400000D01*
X135671009Y-36400000D01*
X135518409Y-36440889D01*
X135500000Y-36451517D01*
X135500000Y-34500000D01*
X133702155Y-34500000D01*
X133642627Y-34506401D01*
X133642620Y-34506403D01*
X133507913Y-34556645D01*
X133507906Y-34556649D01*
X133392812Y-34642809D01*
X133392809Y-34642812D01*
X133306649Y-34757906D01*
X133306645Y-34757913D01*
X133256403Y-34892620D01*
X133256401Y-34892627D01*
X133250000Y-34952155D01*
X88250499Y-34952155D01*
X88250499Y-34952129D01*
X88250498Y-34952123D01*
X88250497Y-34952116D01*
X88244091Y-34892517D01*
X88193884Y-34757906D01*
X88193797Y-34757671D01*
X88193793Y-34757664D01*
X88107547Y-34642455D01*
X88107544Y-34642452D01*
X87992335Y-34556206D01*
X87992328Y-34556202D01*
X87857482Y-34505908D01*
X87857483Y-34505908D01*
X87797883Y-34499501D01*
X87797881Y-34499500D01*
X87797873Y-34499500D01*
X87797864Y-34499500D01*
X83702129Y-34499500D01*
X83702123Y-34499501D01*
X83642516Y-34505908D01*
X83507671Y-34556202D01*
X83507664Y-34556206D01*
X83392455Y-34642452D01*
X83392452Y-34642455D01*
X83306206Y-34757664D01*
X83306202Y-34757671D01*
X83255908Y-34892517D01*
X83249501Y-34952116D01*
X83249501Y-34952123D01*
X83249500Y-34952135D01*
X83249500Y-35025000D01*
X83229815Y-35092039D01*
X83177011Y-35137794D01*
X83125500Y-35149000D01*
X78624000Y-35149000D01*
X78556961Y-35129315D01*
X78511206Y-35076511D01*
X78500000Y-35025000D01*
X78500000Y-33946863D01*
X78513514Y-33890569D01*
X78575757Y-33768412D01*
X78641446Y-33566243D01*
X78674700Y-33356287D01*
X78674700Y-33143713D01*
X78641446Y-32933757D01*
X78575757Y-32731588D01*
X78545791Y-32672776D01*
X78513515Y-32609430D01*
X78500000Y-32553135D01*
X78500000Y-31274500D01*
X78519685Y-31207461D01*
X78572489Y-31161706D01*
X78624000Y-31150500D01*
X94866791Y-31150500D01*
X94933830Y-31170185D01*
G37*
G04 #@! TD.AperFunction*
G04 #@! TA.AperFunction,Conductor*
G36*
X82071103Y-60970185D02*
G01*
X82116858Y-61022989D01*
X82126802Y-61092147D01*
X82097777Y-61155703D01*
X82072956Y-61177601D01*
X82068223Y-61180763D01*
X82047328Y-61194724D01*
X81391710Y-61850342D01*
X81330387Y-61883827D01*
X81282245Y-61883315D01*
X81282055Y-61884516D01*
X81177111Y-61867894D01*
X81067287Y-61850500D01*
X80854713Y-61850500D01*
X80806042Y-61858208D01*
X80644760Y-61883753D01*
X80442585Y-61949444D01*
X80253179Y-62045951D01*
X80081215Y-62170889D01*
X79967673Y-62284431D01*
X79906350Y-62317915D01*
X79836658Y-62312931D01*
X79780725Y-62271059D01*
X79763810Y-62240082D01*
X79714797Y-62108671D01*
X79714793Y-62108664D01*
X79628547Y-61993455D01*
X79628544Y-61993452D01*
X79513335Y-61907206D01*
X79513328Y-61907202D01*
X79378482Y-61856908D01*
X79378483Y-61856908D01*
X79318883Y-61850501D01*
X79318881Y-61850500D01*
X79318873Y-61850500D01*
X79318864Y-61850500D01*
X77523129Y-61850500D01*
X77523123Y-61850501D01*
X77463516Y-61856908D01*
X77328671Y-61907202D01*
X77328664Y-61907206D01*
X77213455Y-61993452D01*
X77213452Y-61993455D01*
X77127206Y-62108664D01*
X77127202Y-62108671D01*
X77076908Y-62243517D01*
X77070501Y-62303116D01*
X77070500Y-62303135D01*
X77070500Y-64098870D01*
X77070501Y-64098876D01*
X77076908Y-64158483D01*
X77127202Y-64293328D01*
X77127206Y-64293335D01*
X77213452Y-64408544D01*
X77213455Y-64408547D01*
X77328664Y-64494793D01*
X77328671Y-64494797D01*
X77463517Y-64545091D01*
X77463516Y-64545091D01*
X77470444Y-64545835D01*
X77523127Y-64551500D01*
X79318872Y-64551499D01*
X79378483Y-64545091D01*
X79513331Y-64494796D01*
X79628546Y-64408546D01*
X79714796Y-64293331D01*
X79763810Y-64161916D01*
X79805681Y-64105984D01*
X79871145Y-64081566D01*
X79939418Y-64096417D01*
X79967673Y-64117569D01*
X80081213Y-64231109D01*
X80253179Y-64356048D01*
X80253181Y-64356049D01*
X80253184Y-64356051D01*
X80442588Y-64452557D01*
X80644757Y-64518246D01*
X80854713Y-64551500D01*
X80854714Y-64551500D01*
X81067286Y-64551500D01*
X81067287Y-64551500D01*
X81277243Y-64518246D01*
X81479412Y-64452557D01*
X81668816Y-64356051D01*
X81755138Y-64293335D01*
X81840786Y-64231109D01*
X81840788Y-64231106D01*
X81840792Y-64231104D01*
X81991104Y-64080792D01*
X81991106Y-64080788D01*
X81991109Y-64080786D01*
X82116048Y-63908820D01*
X82116047Y-63908820D01*
X82116051Y-63908816D01*
X82212557Y-63719412D01*
X82278246Y-63517243D01*
X82311500Y-63307287D01*
X82311500Y-63094713D01*
X82311342Y-63093713D01*
X82277484Y-62879945D01*
X82279126Y-62879684D01*
X82282254Y-62817137D01*
X82311657Y-62770288D01*
X82695127Y-62386819D01*
X82756450Y-62353334D01*
X82782808Y-62350500D01*
X93600500Y-62350500D01*
X93667539Y-62370185D01*
X93713294Y-62422989D01*
X93724500Y-62474500D01*
X93724500Y-64097870D01*
X93724501Y-64097876D01*
X93730908Y-64157483D01*
X93781202Y-64292328D01*
X93781206Y-64292335D01*
X93867452Y-64407544D01*
X93867455Y-64407547D01*
X93982664Y-64493793D01*
X93982671Y-64493797D01*
X94117517Y-64544091D01*
X94117516Y-64544091D01*
X94124444Y-64544835D01*
X94177127Y-64550500D01*
X95972872Y-64550499D01*
X96032483Y-64544091D01*
X96167331Y-64493796D01*
X96282546Y-64407546D01*
X96368796Y-64292331D01*
X96417810Y-64160916D01*
X96459681Y-64104984D01*
X96525145Y-64080566D01*
X96593418Y-64095417D01*
X96621673Y-64116569D01*
X96735213Y-64230109D01*
X96907179Y-64355048D01*
X96907181Y-64355049D01*
X96907184Y-64355051D01*
X97096588Y-64451557D01*
X97298757Y-64517246D01*
X97508713Y-64550500D01*
X97508714Y-64550500D01*
X97721286Y-64550500D01*
X97721287Y-64550500D01*
X97931243Y-64517246D01*
X98133412Y-64451557D01*
X98322816Y-64355051D01*
X98344789Y-64339086D01*
X98494786Y-64230109D01*
X98494788Y-64230106D01*
X98494792Y-64230104D01*
X98645104Y-64079792D01*
X98645106Y-64079788D01*
X98645109Y-64079786D01*
X98754086Y-63929789D01*
X98770051Y-63907816D01*
X98866557Y-63718412D01*
X98932246Y-63516243D01*
X98965500Y-63306287D01*
X98965500Y-63093713D01*
X98932246Y-62883757D01*
X98866557Y-62681588D01*
X98770051Y-62492184D01*
X98770049Y-62492181D01*
X98770048Y-62492179D01*
X98645109Y-62320213D01*
X98494786Y-62169890D01*
X98322820Y-62044951D01*
X98133414Y-61948444D01*
X98133413Y-61948443D01*
X98133412Y-61948443D01*
X97931243Y-61882754D01*
X97931241Y-61882753D01*
X97931240Y-61882753D01*
X97768059Y-61856908D01*
X97721287Y-61849500D01*
X97721286Y-61849500D01*
X97697808Y-61849500D01*
X97630769Y-61829815D01*
X97610127Y-61813181D01*
X96991674Y-61194727D01*
X96991671Y-61194724D01*
X96973862Y-61182825D01*
X96966044Y-61177601D01*
X96921240Y-61123990D01*
X96912533Y-61054665D01*
X96942687Y-60991638D01*
X97002130Y-60954918D01*
X97034936Y-60950500D01*
X115456567Y-60950500D01*
X115523606Y-60970185D01*
X115569361Y-61022989D01*
X115579305Y-61092147D01*
X115550280Y-61155703D01*
X115525458Y-61177602D01*
X115501328Y-61193724D01*
X114845710Y-61849342D01*
X114784387Y-61882827D01*
X114736245Y-61882315D01*
X114736055Y-61883516D01*
X114568065Y-61856909D01*
X114521287Y-61849500D01*
X114308713Y-61849500D01*
X114261941Y-61856908D01*
X114098760Y-61882753D01*
X113896585Y-61948444D01*
X113707179Y-62044951D01*
X113535215Y-62169889D01*
X113421673Y-62283431D01*
X113360350Y-62316915D01*
X113290658Y-62311931D01*
X113234725Y-62270059D01*
X113217810Y-62239082D01*
X113168797Y-62107671D01*
X113168793Y-62107664D01*
X113082547Y-61992455D01*
X113082544Y-61992452D01*
X112967335Y-61906206D01*
X112967328Y-61906202D01*
X112832482Y-61855908D01*
X112832483Y-61855908D01*
X112772883Y-61849501D01*
X112772881Y-61849500D01*
X112772873Y-61849500D01*
X112772864Y-61849500D01*
X110977129Y-61849500D01*
X110977123Y-61849501D01*
X110917516Y-61855908D01*
X110782671Y-61906202D01*
X110782664Y-61906206D01*
X110667455Y-61992452D01*
X110667452Y-61992455D01*
X110581206Y-62107664D01*
X110581202Y-62107671D01*
X110530908Y-62242517D01*
X110524501Y-62302116D01*
X110524500Y-62302135D01*
X110524500Y-64097870D01*
X110524501Y-64097876D01*
X110530908Y-64157483D01*
X110581202Y-64292328D01*
X110581206Y-64292335D01*
X110667452Y-64407544D01*
X110667455Y-64407547D01*
X110782664Y-64493793D01*
X110782671Y-64493797D01*
X110917517Y-64544091D01*
X110917516Y-64544091D01*
X110924444Y-64544835D01*
X110977127Y-64550500D01*
X112772872Y-64550499D01*
X112832483Y-64544091D01*
X112967331Y-64493796D01*
X113082546Y-64407546D01*
X113168796Y-64292331D01*
X113217810Y-64160916D01*
X113259681Y-64104984D01*
X113325145Y-64080566D01*
X113393418Y-64095417D01*
X113421673Y-64116569D01*
X113535213Y-64230109D01*
X113707179Y-64355048D01*
X113707181Y-64355049D01*
X113707184Y-64355051D01*
X113896588Y-64451557D01*
X114098757Y-64517246D01*
X114308713Y-64550500D01*
X114308714Y-64550500D01*
X114521286Y-64550500D01*
X114521287Y-64550500D01*
X114731243Y-64517246D01*
X114933412Y-64451557D01*
X115122816Y-64355051D01*
X115144789Y-64339086D01*
X115294786Y-64230109D01*
X115294788Y-64230106D01*
X115294792Y-64230104D01*
X115445104Y-64079792D01*
X115445106Y-64079788D01*
X115445109Y-64079786D01*
X115554086Y-63929789D01*
X115570051Y-63907816D01*
X115666557Y-63718412D01*
X115732246Y-63516243D01*
X115765500Y-63306287D01*
X115765500Y-63093713D01*
X115732405Y-62884760D01*
X115731484Y-62878945D01*
X115733126Y-62878684D01*
X115736254Y-62816137D01*
X115765657Y-62769288D01*
X116149127Y-62385819D01*
X116210450Y-62352334D01*
X116236808Y-62349500D01*
X126933700Y-62349500D01*
X127000739Y-62369185D01*
X127046494Y-62421989D01*
X127057700Y-62473500D01*
X127057700Y-64098870D01*
X127057701Y-64098876D01*
X127064108Y-64158483D01*
X127114402Y-64293328D01*
X127114406Y-64293335D01*
X127200652Y-64408544D01*
X127200655Y-64408547D01*
X127315864Y-64494793D01*
X127315871Y-64494797D01*
X127450717Y-64545091D01*
X127450716Y-64545091D01*
X127457644Y-64545835D01*
X127510327Y-64551500D01*
X129306072Y-64551499D01*
X129365683Y-64545091D01*
X129500531Y-64494796D01*
X129615746Y-64408546D01*
X129701996Y-64293331D01*
X129751010Y-64161916D01*
X129792881Y-64105984D01*
X129858345Y-64081566D01*
X129926618Y-64096417D01*
X129954873Y-64117569D01*
X130068413Y-64231109D01*
X130240379Y-64356048D01*
X130240381Y-64356049D01*
X130240384Y-64356051D01*
X130429788Y-64452557D01*
X130631957Y-64518246D01*
X130841913Y-64551500D01*
X130841914Y-64551500D01*
X131054486Y-64551500D01*
X131054487Y-64551500D01*
X131264443Y-64518246D01*
X131466612Y-64452557D01*
X131656016Y-64356051D01*
X131742338Y-64293335D01*
X131827986Y-64231109D01*
X131827988Y-64231106D01*
X131827992Y-64231104D01*
X131978304Y-64080792D01*
X131978306Y-64080788D01*
X131978309Y-64080786D01*
X132103248Y-63908820D01*
X132103247Y-63908820D01*
X132103251Y-63908816D01*
X132199757Y-63719412D01*
X132265446Y-63517243D01*
X132298700Y-63307287D01*
X132298700Y-63094713D01*
X132265446Y-62884757D01*
X132199757Y-62682588D01*
X132103251Y-62493184D01*
X132103249Y-62493181D01*
X132103248Y-62493179D01*
X131978309Y-62321213D01*
X131827986Y-62170890D01*
X131656020Y-62045951D01*
X131466614Y-61949444D01*
X131466613Y-61949443D01*
X131466612Y-61949443D01*
X131264443Y-61883754D01*
X131264441Y-61883753D01*
X131264440Y-61883753D01*
X131103157Y-61858208D01*
X131054487Y-61850500D01*
X131054486Y-61850500D01*
X131031008Y-61850500D01*
X130963969Y-61830815D01*
X130943327Y-61814181D01*
X130322874Y-61193727D01*
X130322870Y-61193724D01*
X130322869Y-61193723D01*
X130298740Y-61177600D01*
X130253937Y-61123991D01*
X130245228Y-61054666D01*
X130275382Y-60991639D01*
X130334825Y-60954919D01*
X130367632Y-60950500D01*
X148653664Y-60950500D01*
X148720703Y-60970185D01*
X148766458Y-61022989D01*
X148776402Y-61092147D01*
X148747377Y-61155703D01*
X148722556Y-61177601D01*
X148717823Y-61180763D01*
X148696928Y-61194724D01*
X148041310Y-61850342D01*
X147979987Y-61883827D01*
X147931845Y-61883315D01*
X147931655Y-61884516D01*
X147826711Y-61867894D01*
X147716887Y-61850500D01*
X147504313Y-61850500D01*
X147455642Y-61858208D01*
X147294360Y-61883753D01*
X147092185Y-61949444D01*
X146902779Y-62045951D01*
X146730815Y-62170889D01*
X146617273Y-62284431D01*
X146555950Y-62317915D01*
X146486258Y-62312931D01*
X146430325Y-62271059D01*
X146413410Y-62240082D01*
X146364397Y-62108671D01*
X146364393Y-62108664D01*
X146278147Y-61993455D01*
X146278144Y-61993452D01*
X146162935Y-61907206D01*
X146162928Y-61907202D01*
X146028082Y-61856908D01*
X146028083Y-61856908D01*
X145968483Y-61850501D01*
X145968481Y-61850500D01*
X145968473Y-61850500D01*
X145968464Y-61850500D01*
X144172729Y-61850500D01*
X144172723Y-61850501D01*
X144113116Y-61856908D01*
X143978271Y-61907202D01*
X143978264Y-61907206D01*
X143863055Y-61993452D01*
X143863052Y-61993455D01*
X143776806Y-62108664D01*
X143776802Y-62108671D01*
X143726508Y-62243517D01*
X143720101Y-62303116D01*
X143720100Y-62303135D01*
X143720100Y-64098870D01*
X143720101Y-64098876D01*
X143726508Y-64158483D01*
X143776802Y-64293328D01*
X143776806Y-64293335D01*
X143863052Y-64408544D01*
X143863055Y-64408547D01*
X143978264Y-64494793D01*
X143978271Y-64494797D01*
X144113117Y-64545091D01*
X144113116Y-64545091D01*
X144120044Y-64545835D01*
X144172727Y-64551500D01*
X145968472Y-64551499D01*
X146028083Y-64545091D01*
X146162931Y-64494796D01*
X146278146Y-64408546D01*
X146364396Y-64293331D01*
X146413410Y-64161916D01*
X146455281Y-64105984D01*
X146520745Y-64081566D01*
X146589018Y-64096417D01*
X146617273Y-64117569D01*
X146730813Y-64231109D01*
X146902779Y-64356048D01*
X146902781Y-64356049D01*
X146902784Y-64356051D01*
X147092188Y-64452557D01*
X147294357Y-64518246D01*
X147504313Y-64551500D01*
X147504314Y-64551500D01*
X147716886Y-64551500D01*
X147716887Y-64551500D01*
X147926843Y-64518246D01*
X148129012Y-64452557D01*
X148318416Y-64356051D01*
X148404738Y-64293335D01*
X148490386Y-64231109D01*
X148490388Y-64231106D01*
X148490392Y-64231104D01*
X148640704Y-64080792D01*
X148640706Y-64080788D01*
X148640709Y-64080786D01*
X148765648Y-63908820D01*
X148765647Y-63908820D01*
X148765651Y-63908816D01*
X148862157Y-63719412D01*
X148927846Y-63517243D01*
X148961100Y-63307287D01*
X148961100Y-63094713D01*
X148960942Y-63093713D01*
X148927084Y-62879945D01*
X148928726Y-62879684D01*
X148931854Y-62817137D01*
X148961257Y-62770288D01*
X149344727Y-62386819D01*
X149406050Y-62353334D01*
X149432408Y-62350500D01*
X160258500Y-62350500D01*
X160325539Y-62370185D01*
X160371294Y-62422989D01*
X160382500Y-62474500D01*
X160382500Y-64098870D01*
X160382501Y-64098876D01*
X160388908Y-64158483D01*
X160439202Y-64293328D01*
X160439206Y-64293335D01*
X160525452Y-64408544D01*
X160525455Y-64408547D01*
X160640664Y-64494793D01*
X160640671Y-64494797D01*
X160775517Y-64545091D01*
X160775516Y-64545091D01*
X160782444Y-64545835D01*
X160835127Y-64551500D01*
X162630872Y-64551499D01*
X162690483Y-64545091D01*
X162825331Y-64494796D01*
X162940546Y-64408546D01*
X163026796Y-64293331D01*
X163075810Y-64161916D01*
X163117681Y-64105984D01*
X163183145Y-64081566D01*
X163251418Y-64096417D01*
X163279673Y-64117569D01*
X163393213Y-64231109D01*
X163565179Y-64356048D01*
X163565181Y-64356049D01*
X163565184Y-64356051D01*
X163754588Y-64452557D01*
X163956757Y-64518246D01*
X164166713Y-64551500D01*
X164166714Y-64551500D01*
X164379286Y-64551500D01*
X164379287Y-64551500D01*
X164589243Y-64518246D01*
X164791412Y-64452557D01*
X164980816Y-64356051D01*
X165067138Y-64293335D01*
X165152786Y-64231109D01*
X165152788Y-64231106D01*
X165152792Y-64231104D01*
X165303104Y-64080792D01*
X165303106Y-64080788D01*
X165303109Y-64080786D01*
X165428048Y-63908820D01*
X165428047Y-63908820D01*
X165428051Y-63908816D01*
X165524557Y-63719412D01*
X165590246Y-63517243D01*
X165623500Y-63307287D01*
X165623500Y-63094713D01*
X165590246Y-62884757D01*
X165524557Y-62682588D01*
X165428051Y-62493184D01*
X165428049Y-62493181D01*
X165428048Y-62493179D01*
X165303109Y-62321213D01*
X165152786Y-62170890D01*
X164976875Y-62043085D01*
X164977851Y-62041740D01*
X164935834Y-61995295D01*
X164923500Y-61941382D01*
X164923500Y-61934847D01*
X164898502Y-61809180D01*
X164898501Y-61809179D01*
X164898501Y-61809175D01*
X164849465Y-61690792D01*
X164812140Y-61634931D01*
X164812140Y-61634930D01*
X164778277Y-61584250D01*
X164778271Y-61584243D01*
X164388752Y-61194724D01*
X164370943Y-61182825D01*
X164363125Y-61177601D01*
X164318321Y-61123990D01*
X164309614Y-61054665D01*
X164339768Y-60991638D01*
X164399211Y-60954918D01*
X164432017Y-60950500D01*
X170125500Y-60950500D01*
X170192539Y-60970185D01*
X170238294Y-61022989D01*
X170249500Y-61074500D01*
X170249500Y-71025500D01*
X170229815Y-71092539D01*
X170177011Y-71138294D01*
X170125500Y-71149500D01*
X67100862Y-71149500D01*
X67033823Y-71129815D01*
X66988068Y-71077011D01*
X66978124Y-71007853D01*
X67000000Y-70959951D01*
X67000000Y-70282771D01*
X67019685Y-70215732D01*
X67072489Y-70169977D01*
X67141647Y-70160033D01*
X67205203Y-70189058D01*
X67224319Y-70209886D01*
X67304896Y-70320792D01*
X67455213Y-70471109D01*
X67627179Y-70596048D01*
X67627181Y-70596049D01*
X67627184Y-70596051D01*
X67816588Y-70692557D01*
X68018757Y-70758246D01*
X68228713Y-70791500D01*
X68228714Y-70791500D01*
X68441286Y-70791500D01*
X68441287Y-70791500D01*
X68651243Y-70758246D01*
X68853412Y-70692557D01*
X69042816Y-70596051D01*
X69064789Y-70580086D01*
X69214786Y-70471109D01*
X69214788Y-70471106D01*
X69214792Y-70471104D01*
X69365104Y-70320792D01*
X69365106Y-70320788D01*
X69365109Y-70320786D01*
X69490048Y-70148820D01*
X69490047Y-70148820D01*
X69490051Y-70148816D01*
X69586557Y-69959412D01*
X69652246Y-69757243D01*
X69685500Y-69547287D01*
X69685500Y-69334713D01*
X69652246Y-69124757D01*
X69586557Y-68922588D01*
X69490051Y-68733184D01*
X69490049Y-68733181D01*
X69490048Y-68733179D01*
X69365109Y-68561213D01*
X69214786Y-68410890D01*
X69042820Y-68285951D01*
X69042115Y-68285591D01*
X69034054Y-68281485D01*
X68983259Y-68233512D01*
X68966463Y-68165692D01*
X68988999Y-68099556D01*
X69034054Y-68060515D01*
X69042816Y-68056051D01*
X69129147Y-67993328D01*
X69214784Y-67931110D01*
X69214784Y-67931109D01*
X69214792Y-67931104D01*
X69328329Y-67817566D01*
X69389648Y-67784084D01*
X69459340Y-67789068D01*
X69515274Y-67830939D01*
X69532189Y-67861917D01*
X69581202Y-67993328D01*
X69581206Y-67993335D01*
X69667452Y-68108544D01*
X69667455Y-68108547D01*
X69782664Y-68194793D01*
X69782671Y-68194797D01*
X69917517Y-68245091D01*
X69917516Y-68245091D01*
X69924444Y-68245835D01*
X69977127Y-68251500D01*
X71772872Y-68251499D01*
X71832483Y-68245091D01*
X71967331Y-68194796D01*
X72082546Y-68108546D01*
X72168796Y-67993331D01*
X72219091Y-67858483D01*
X72225500Y-67798873D01*
X72225499Y-66729712D01*
X87149500Y-66729712D01*
X87149500Y-66972288D01*
X87181162Y-67212789D01*
X87212554Y-67329944D01*
X87243947Y-67447104D01*
X87336773Y-67671205D01*
X87336777Y-67671214D01*
X87358974Y-67709661D01*
X87458064Y-67881289D01*
X87458066Y-67881292D01*
X87458067Y-67881293D01*
X87605733Y-68073736D01*
X87605739Y-68073743D01*
X87777256Y-68245260D01*
X87777263Y-68245266D01*
X87830285Y-68285951D01*
X87969711Y-68392936D01*
X88179788Y-68514224D01*
X88403900Y-68607054D01*
X88638211Y-68669838D01*
X88818586Y-68693584D01*
X88878711Y-68701500D01*
X88878712Y-68701500D01*
X89121289Y-68701500D01*
X89169388Y-68695167D01*
X89361789Y-68669838D01*
X89596100Y-68607054D01*
X89820212Y-68514224D01*
X90030289Y-68392936D01*
X90222738Y-68245265D01*
X90394265Y-68073738D01*
X90541936Y-67881289D01*
X90663224Y-67671212D01*
X90756054Y-67447100D01*
X90818838Y-67212789D01*
X90850500Y-66972288D01*
X90850500Y-66729712D01*
X90818838Y-66489211D01*
X90756054Y-66254900D01*
X90663224Y-66030788D01*
X90541936Y-65820711D01*
X90532697Y-65808671D01*
X90489331Y-65752155D01*
X102097349Y-65752155D01*
X102097349Y-66350000D01*
X103081663Y-66350000D01*
X103077269Y-66354394D01*
X103024608Y-66445606D01*
X102997349Y-66547339D01*
X102997349Y-66652661D01*
X103024608Y-66754394D01*
X103077269Y-66845606D01*
X103081663Y-66850000D01*
X102097349Y-66850000D01*
X102097349Y-67447844D01*
X102103750Y-67507372D01*
X102103752Y-67507379D01*
X102153994Y-67642086D01*
X102153998Y-67642093D01*
X102240158Y-67757187D01*
X102240161Y-67757190D01*
X102355255Y-67843350D01*
X102355262Y-67843354D01*
X102489969Y-67893596D01*
X102489976Y-67893598D01*
X102549504Y-67899999D01*
X102549521Y-67900000D01*
X103147349Y-67900000D01*
X103147349Y-66915686D01*
X103151743Y-66920080D01*
X103242955Y-66972741D01*
X103344688Y-67000000D01*
X103450010Y-67000000D01*
X103551743Y-66972741D01*
X103642955Y-66920080D01*
X103647349Y-66915686D01*
X103647349Y-67900000D01*
X104245177Y-67900000D01*
X104245193Y-67899999D01*
X104304721Y-67893598D01*
X104304728Y-67893596D01*
X104439435Y-67843354D01*
X104439442Y-67843350D01*
X104554536Y-67757190D01*
X104554539Y-67757187D01*
X104640699Y-67642093D01*
X104640703Y-67642086D01*
X104690945Y-67507379D01*
X104690947Y-67507372D01*
X104697348Y-67447844D01*
X104697349Y-67447827D01*
X104697349Y-66850000D01*
X103713035Y-66850000D01*
X103717429Y-66845606D01*
X103770090Y-66754394D01*
X103797349Y-66652661D01*
X103797349Y-66547339D01*
X103784034Y-66497648D01*
X107096849Y-66497648D01*
X107096849Y-66702351D01*
X107128871Y-66904534D01*
X107192130Y-67099223D01*
X107195150Y-67105149D01*
X107265003Y-67242243D01*
X107285064Y-67281613D01*
X107405377Y-67447213D01*
X107550135Y-67591971D01*
X107705098Y-67704556D01*
X107715739Y-67712287D01*
X107803866Y-67757190D01*
X107898125Y-67805218D01*
X107898127Y-67805218D01*
X107898130Y-67805220D01*
X108002486Y-67839127D01*
X108092814Y-67868477D01*
X108173705Y-67881289D01*
X108294997Y-67900500D01*
X108294998Y-67900500D01*
X108499700Y-67900500D01*
X108499701Y-67900500D01*
X108701883Y-67868477D01*
X108896568Y-67805220D01*
X109078959Y-67712287D01*
X109175583Y-67642086D01*
X109244562Y-67591971D01*
X109244564Y-67591968D01*
X109244568Y-67591966D01*
X109389315Y-67447219D01*
X109389317Y-67447215D01*
X109389320Y-67447213D01*
X109442081Y-67374590D01*
X109509636Y-67281610D01*
X109602569Y-67099219D01*
X109665826Y-66904534D01*
X109697849Y-66702352D01*
X109697849Y-66497648D01*
X109679625Y-66382588D01*
X109665826Y-66295465D01*
X109602566Y-66100773D01*
X109592543Y-66081102D01*
X109592542Y-66081101D01*
X109565554Y-66028135D01*
X163249500Y-66028135D01*
X163249500Y-67823870D01*
X163249501Y-67823876D01*
X163255908Y-67883483D01*
X163306202Y-68018328D01*
X163306206Y-68018335D01*
X163392452Y-68133544D01*
X163392455Y-68133547D01*
X163507664Y-68219793D01*
X163507671Y-68219797D01*
X163642517Y-68270091D01*
X163642516Y-68270091D01*
X163649444Y-68270835D01*
X163702127Y-68276500D01*
X165497872Y-68276499D01*
X165557483Y-68270091D01*
X165692331Y-68219796D01*
X165807546Y-68133546D01*
X165893796Y-68018331D01*
X165942810Y-67886916D01*
X165984681Y-67830984D01*
X166050145Y-67806566D01*
X166118418Y-67821417D01*
X166146673Y-67842569D01*
X166260213Y-67956109D01*
X166432182Y-68081050D01*
X166440946Y-68085516D01*
X166491742Y-68133491D01*
X166508536Y-68201312D01*
X166485998Y-68267447D01*
X166440946Y-68306484D01*
X166432182Y-68310949D01*
X166260213Y-68435890D01*
X166109890Y-68586213D01*
X165984951Y-68758179D01*
X165888444Y-68947585D01*
X165822753Y-69149760D01*
X165789500Y-69359713D01*
X165789500Y-69572286D01*
X165822753Y-69782239D01*
X165888444Y-69984414D01*
X165984951Y-70173820D01*
X166109890Y-70345786D01*
X166260213Y-70496109D01*
X166432179Y-70621048D01*
X166432181Y-70621049D01*
X166432184Y-70621051D01*
X166621588Y-70717557D01*
X166823757Y-70783246D01*
X167033713Y-70816500D01*
X167033714Y-70816500D01*
X167246286Y-70816500D01*
X167246287Y-70816500D01*
X167456243Y-70783246D01*
X167658412Y-70717557D01*
X167847816Y-70621051D01*
X167882230Y-70596048D01*
X168019786Y-70496109D01*
X168019788Y-70496106D01*
X168019792Y-70496104D01*
X168170104Y-70345792D01*
X168170106Y-70345788D01*
X168170109Y-70345786D01*
X168295048Y-70173820D01*
X168295047Y-70173820D01*
X168295051Y-70173816D01*
X168391557Y-69984412D01*
X168457246Y-69782243D01*
X168490500Y-69572287D01*
X168490500Y-69359713D01*
X168457246Y-69149757D01*
X168391557Y-68947588D01*
X168295051Y-68758184D01*
X168295049Y-68758181D01*
X168295048Y-68758179D01*
X168170109Y-68586213D01*
X168019786Y-68435890D01*
X167847820Y-68310951D01*
X167847115Y-68310591D01*
X167839054Y-68306485D01*
X167788259Y-68258512D01*
X167771463Y-68190692D01*
X167793999Y-68124556D01*
X167839054Y-68085515D01*
X167847816Y-68081051D01*
X167934138Y-68018335D01*
X168019786Y-67956109D01*
X168019788Y-67956106D01*
X168019792Y-67956104D01*
X168170104Y-67805792D01*
X168170106Y-67805788D01*
X168170109Y-67805786D01*
X168289037Y-67642093D01*
X168295051Y-67633816D01*
X168391557Y-67444412D01*
X168457246Y-67242243D01*
X168490500Y-67032287D01*
X168490500Y-66819713D01*
X168457246Y-66609757D01*
X168391557Y-66407588D01*
X168295051Y-66218184D01*
X168295049Y-66218181D01*
X168295048Y-66218179D01*
X168170109Y-66046213D01*
X168019786Y-65895890D01*
X167847820Y-65770951D01*
X167658414Y-65674444D01*
X167658413Y-65674443D01*
X167658412Y-65674443D01*
X167456243Y-65608754D01*
X167456241Y-65608753D01*
X167456240Y-65608753D01*
X167294957Y-65583208D01*
X167246287Y-65575500D01*
X167033713Y-65575500D01*
X166985042Y-65583208D01*
X166823760Y-65608753D01*
X166621585Y-65674444D01*
X166432179Y-65770951D01*
X166260215Y-65895889D01*
X166146673Y-66009431D01*
X166085350Y-66042915D01*
X166015658Y-66037931D01*
X165959725Y-65996059D01*
X165942810Y-65965082D01*
X165893797Y-65833671D01*
X165893793Y-65833664D01*
X165807547Y-65718455D01*
X165807544Y-65718452D01*
X165692335Y-65632206D01*
X165692328Y-65632202D01*
X165557482Y-65581908D01*
X165557483Y-65581908D01*
X165497883Y-65575501D01*
X165497881Y-65575500D01*
X165497873Y-65575500D01*
X165497864Y-65575500D01*
X163702129Y-65575500D01*
X163702123Y-65575501D01*
X163642516Y-65581908D01*
X163507671Y-65632202D01*
X163507664Y-65632206D01*
X163392455Y-65718452D01*
X163392452Y-65718455D01*
X163306206Y-65833664D01*
X163306202Y-65833671D01*
X163255908Y-65968517D01*
X163249501Y-66028116D01*
X163249500Y-66028135D01*
X109565554Y-66028135D01*
X109552812Y-66003127D01*
X109509636Y-65918390D01*
X109448085Y-65833671D01*
X109389320Y-65752786D01*
X109244562Y-65608028D01*
X109078962Y-65487715D01*
X109078961Y-65487714D01*
X109078959Y-65487713D01*
X109005257Y-65450160D01*
X108896572Y-65394781D01*
X108701883Y-65331522D01*
X108527344Y-65303878D01*
X108499701Y-65299500D01*
X108294997Y-65299500D01*
X108270678Y-65303351D01*
X108092814Y-65331522D01*
X107898125Y-65394781D01*
X107715735Y-65487715D01*
X107550135Y-65608028D01*
X107405377Y-65752786D01*
X107285064Y-65918386D01*
X107192130Y-66100776D01*
X107128871Y-66295465D01*
X107096849Y-66497648D01*
X103784034Y-66497648D01*
X103770090Y-66445606D01*
X103717429Y-66354394D01*
X103713035Y-66350000D01*
X104697349Y-66350000D01*
X104697349Y-65752172D01*
X104697348Y-65752155D01*
X104690947Y-65692627D01*
X104690945Y-65692620D01*
X104640703Y-65557913D01*
X104640699Y-65557906D01*
X104554539Y-65442812D01*
X104554536Y-65442809D01*
X104439442Y-65356649D01*
X104439435Y-65356645D01*
X104304728Y-65306403D01*
X104304721Y-65306401D01*
X104245193Y-65300000D01*
X103647349Y-65300000D01*
X103647349Y-66284314D01*
X103642955Y-66279920D01*
X103551743Y-66227259D01*
X103450010Y-66200000D01*
X103344688Y-66200000D01*
X103242955Y-66227259D01*
X103151743Y-66279920D01*
X103147349Y-66284314D01*
X103147349Y-65300000D01*
X102549504Y-65300000D01*
X102489976Y-65306401D01*
X102489969Y-65306403D01*
X102355262Y-65356645D01*
X102355255Y-65356649D01*
X102240161Y-65442809D01*
X102240158Y-65442812D01*
X102153998Y-65557906D01*
X102153994Y-65557913D01*
X102103752Y-65692620D01*
X102103750Y-65692627D01*
X102097349Y-65752155D01*
X90489331Y-65752155D01*
X90394266Y-65628263D01*
X90394260Y-65628256D01*
X90222743Y-65456739D01*
X90222736Y-65456733D01*
X90030293Y-65309067D01*
X90030292Y-65309066D01*
X90030289Y-65309064D01*
X89820212Y-65187776D01*
X89759601Y-65162670D01*
X89596104Y-65094947D01*
X89361785Y-65032161D01*
X89121289Y-65000500D01*
X89121288Y-65000500D01*
X88878712Y-65000500D01*
X88878711Y-65000500D01*
X88638214Y-65032161D01*
X88403895Y-65094947D01*
X88179794Y-65187773D01*
X88179785Y-65187777D01*
X88012695Y-65284247D01*
X87974324Y-65306401D01*
X87969706Y-65309067D01*
X87777263Y-65456733D01*
X87777256Y-65456739D01*
X87605739Y-65628256D01*
X87605733Y-65628263D01*
X87458067Y-65820706D01*
X87458064Y-65820710D01*
X87458064Y-65820711D01*
X87450586Y-65833664D01*
X87336777Y-66030785D01*
X87336773Y-66030794D01*
X87243947Y-66254895D01*
X87181161Y-66489214D01*
X87153826Y-66696850D01*
X87149500Y-66729712D01*
X72225499Y-66729712D01*
X72225499Y-66003128D01*
X72219091Y-65943517D01*
X72217810Y-65940083D01*
X72168797Y-65808671D01*
X72168793Y-65808664D01*
X72082547Y-65693455D01*
X72082544Y-65693452D01*
X71967335Y-65607206D01*
X71967328Y-65607202D01*
X71832482Y-65556908D01*
X71832483Y-65556908D01*
X71772883Y-65550501D01*
X71772881Y-65550500D01*
X71772873Y-65550500D01*
X71772864Y-65550500D01*
X69977129Y-65550500D01*
X69977123Y-65550501D01*
X69917516Y-65556908D01*
X69782671Y-65607202D01*
X69782664Y-65607206D01*
X69667455Y-65693452D01*
X69667452Y-65693455D01*
X69581206Y-65808664D01*
X69581203Y-65808669D01*
X69532189Y-65940083D01*
X69490317Y-65996016D01*
X69424853Y-66020433D01*
X69356580Y-66005581D01*
X69328326Y-65984430D01*
X69214786Y-65870890D01*
X69038875Y-65743085D01*
X69039851Y-65741740D01*
X68997834Y-65695295D01*
X68985500Y-65641382D01*
X68985500Y-65634847D01*
X68960502Y-65509180D01*
X68960501Y-65509179D01*
X68960501Y-65509175D01*
X68913117Y-65394780D01*
X68911466Y-65390793D01*
X68911463Y-65390787D01*
X68840275Y-65284247D01*
X68350754Y-64794726D01*
X68350750Y-64794723D01*
X68244208Y-64723535D01*
X68125825Y-64674499D01*
X68125819Y-64674497D01*
X68000152Y-64649500D01*
X68000150Y-64649500D01*
X65073100Y-64649500D01*
X65064414Y-64646949D01*
X65055453Y-64648238D01*
X65031412Y-64637259D01*
X65006061Y-64629815D01*
X65000133Y-64622974D01*
X64991897Y-64619213D01*
X64977607Y-64596978D01*
X64960306Y-64577011D01*
X64958018Y-64566496D01*
X64954123Y-64560435D01*
X64949100Y-64525500D01*
X64949100Y-64460617D01*
X64968785Y-64393578D01*
X65003192Y-64359902D01*
X65002474Y-64358914D01*
X65006411Y-64356053D01*
X65006416Y-64356051D01*
X65178392Y-64231104D01*
X65328704Y-64080792D01*
X65328706Y-64080788D01*
X65328709Y-64080786D01*
X65453648Y-63908820D01*
X65453647Y-63908820D01*
X65453651Y-63908816D01*
X65550157Y-63719412D01*
X65615846Y-63517243D01*
X65649100Y-63307287D01*
X65649100Y-63094713D01*
X65615846Y-62884757D01*
X65550157Y-62682588D01*
X65453651Y-62493184D01*
X65453649Y-62493181D01*
X65453648Y-62493179D01*
X65328709Y-62321213D01*
X65178386Y-62170890D01*
X65006420Y-62045951D01*
X64817014Y-61949444D01*
X64817013Y-61949443D01*
X64817012Y-61949443D01*
X64614843Y-61883754D01*
X64614841Y-61883753D01*
X64614840Y-61883753D01*
X64453557Y-61858208D01*
X64404887Y-61850500D01*
X64192313Y-61850500D01*
X64143642Y-61858208D01*
X63982360Y-61883753D01*
X63780185Y-61949444D01*
X63590779Y-62045951D01*
X63418815Y-62170889D01*
X63305273Y-62284431D01*
X63243950Y-62317915D01*
X63174258Y-62312931D01*
X63118325Y-62271059D01*
X63101410Y-62240082D01*
X63052397Y-62108671D01*
X63052393Y-62108664D01*
X62966147Y-61993455D01*
X62966144Y-61993452D01*
X62850935Y-61907206D01*
X62850928Y-61907202D01*
X62716082Y-61856908D01*
X62716083Y-61856908D01*
X62656483Y-61850501D01*
X62656481Y-61850500D01*
X62656473Y-61850500D01*
X62656464Y-61850500D01*
X60860729Y-61850500D01*
X60860723Y-61850501D01*
X60801116Y-61856908D01*
X60666271Y-61907202D01*
X60666264Y-61907206D01*
X60551055Y-61993452D01*
X60551052Y-61993455D01*
X60464806Y-62108664D01*
X60464802Y-62108671D01*
X60414508Y-62243517D01*
X60408101Y-62303116D01*
X60408100Y-62303135D01*
X60408100Y-64098870D01*
X60408101Y-64098876D01*
X60414508Y-64158483D01*
X60464802Y-64293328D01*
X60464806Y-64293335D01*
X60551052Y-64408544D01*
X60551055Y-64408547D01*
X60666264Y-64494793D01*
X60666271Y-64494797D01*
X60801117Y-64545091D01*
X60801116Y-64545091D01*
X60808044Y-64545835D01*
X60860727Y-64551500D01*
X62656472Y-64551499D01*
X62716083Y-64545091D01*
X62850931Y-64494796D01*
X62966146Y-64408546D01*
X63052396Y-64293331D01*
X63101410Y-64161916D01*
X63143281Y-64105984D01*
X63208745Y-64081566D01*
X63277018Y-64096417D01*
X63305273Y-64117569D01*
X63418808Y-64231104D01*
X63590784Y-64356051D01*
X63590788Y-64356053D01*
X63594726Y-64358914D01*
X63593746Y-64360262D01*
X63635760Y-64406690D01*
X63648100Y-64460617D01*
X63648100Y-65162670D01*
X63659603Y-65220497D01*
X63672285Y-65284250D01*
X63673099Y-65288344D01*
X63673911Y-65290304D01*
X63675637Y-65297301D01*
X63674246Y-65329068D01*
X63674532Y-65360866D01*
X63672729Y-65363726D01*
X63672582Y-65367104D01*
X63654239Y-65393073D01*
X63637287Y-65419980D01*
X63634223Y-65421412D01*
X63632273Y-65424174D01*
X63602804Y-65436103D01*
X63573994Y-65449575D01*
X63568494Y-65449992D01*
X63567509Y-65450392D01*
X63566284Y-65450160D01*
X63555246Y-65451000D01*
X58474500Y-65451000D01*
X58407461Y-65431315D01*
X58361706Y-65378511D01*
X58350500Y-65327000D01*
X58350500Y-61074500D01*
X58370185Y-61007461D01*
X58422989Y-60961706D01*
X58474500Y-60950500D01*
X82004064Y-60950500D01*
X82071103Y-60970185D01*
G37*
G04 #@! TD.AperFunction*
G04 #@! TA.AperFunction,Conductor*
G36*
X74751214Y-44619685D02*
G01*
X74757060Y-44623682D01*
X74865978Y-44702815D01*
X74994375Y-44768237D01*
X75062393Y-44802895D01*
X75062396Y-44802896D01*
X75167221Y-44836955D01*
X75272049Y-44871015D01*
X75489778Y-44905500D01*
X75489779Y-44905500D01*
X75710221Y-44905500D01*
X75710222Y-44905500D01*
X75927951Y-44871015D01*
X76137606Y-44802895D01*
X76334022Y-44702815D01*
X76442940Y-44623682D01*
X76508746Y-44600202D01*
X76515825Y-44600000D01*
X77076000Y-44600000D01*
X77143039Y-44619685D01*
X77188794Y-44672489D01*
X77200000Y-44724000D01*
X77200000Y-54276021D01*
X77180315Y-54343060D01*
X77127511Y-54388815D01*
X77075998Y-54400021D01*
X72735061Y-54399934D01*
X72735061Y-59725500D01*
X72715376Y-59792539D01*
X72662572Y-59838294D01*
X72611061Y-59849500D01*
X66124000Y-59849500D01*
X66056961Y-59829815D01*
X66011206Y-59777011D01*
X66000000Y-59725500D01*
X66000000Y-53124000D01*
X66019685Y-53056961D01*
X66072489Y-53011206D01*
X66124000Y-53000000D01*
X69875000Y-53000000D01*
X72000000Y-51111111D01*
X72000000Y-44724000D01*
X72019685Y-44656961D01*
X72072489Y-44611206D01*
X72124000Y-44600000D01*
X74684175Y-44600000D01*
X74751214Y-44619685D01*
G37*
G04 #@! TD.AperFunction*
G04 #@! TA.AperFunction,Conductor*
G36*
X170125655Y-52206448D02*
G01*
X170192668Y-52226215D01*
X170238358Y-52279076D01*
X170249500Y-52330448D01*
X170249500Y-59725500D01*
X170229815Y-59792539D01*
X170177011Y-59838294D01*
X170125500Y-59849500D01*
X83624000Y-59849500D01*
X83556961Y-59829815D01*
X83511206Y-59777011D01*
X83500000Y-59725500D01*
X83500000Y-59116309D01*
X83519685Y-59049270D01*
X83572489Y-59003515D01*
X83637258Y-58993020D01*
X83702160Y-58999999D01*
X83702172Y-59000000D01*
X85500000Y-59000000D01*
X85500000Y-57048482D01*
X85518409Y-57059111D01*
X85671009Y-57100000D01*
X85828991Y-57100000D01*
X85981591Y-57059111D01*
X86000000Y-57048482D01*
X86000000Y-59000000D01*
X87797828Y-59000000D01*
X87797844Y-58999999D01*
X87857372Y-58993598D01*
X87857379Y-58993596D01*
X87992086Y-58943354D01*
X87992093Y-58943350D01*
X88107187Y-58857190D01*
X88107190Y-58857187D01*
X88193350Y-58742093D01*
X88193354Y-58742086D01*
X88243596Y-58607379D01*
X88243598Y-58607372D01*
X88249999Y-58547844D01*
X88250000Y-58547827D01*
X88250000Y-56750000D01*
X86298482Y-56750000D01*
X86309111Y-56731591D01*
X86350000Y-56578991D01*
X86350000Y-56421009D01*
X86309111Y-56268409D01*
X86298482Y-56250000D01*
X88250000Y-56250000D01*
X88250000Y-54452172D01*
X88249999Y-54452155D01*
X133250000Y-54452155D01*
X133250000Y-56250000D01*
X135201518Y-56250000D01*
X135190889Y-56268409D01*
X135150000Y-56421009D01*
X135150000Y-56578991D01*
X135190889Y-56731591D01*
X135201518Y-56750000D01*
X133250000Y-56750000D01*
X133250000Y-58547844D01*
X133256401Y-58607372D01*
X133256403Y-58607379D01*
X133306645Y-58742086D01*
X133306649Y-58742093D01*
X133392809Y-58857187D01*
X133392812Y-58857190D01*
X133507906Y-58943350D01*
X133507913Y-58943354D01*
X133642620Y-58993596D01*
X133642627Y-58993598D01*
X133702155Y-58999999D01*
X133702172Y-59000000D01*
X135500000Y-59000000D01*
X135500000Y-57048482D01*
X135518409Y-57059111D01*
X135671009Y-57100000D01*
X135828991Y-57100000D01*
X135981591Y-57059111D01*
X136000000Y-57048482D01*
X136000000Y-59000000D01*
X137797828Y-59000000D01*
X137797844Y-58999999D01*
X137857372Y-58993598D01*
X137857379Y-58993596D01*
X137992086Y-58943354D01*
X137992093Y-58943350D01*
X138107187Y-58857190D01*
X138107190Y-58857187D01*
X138193350Y-58742093D01*
X138193354Y-58742086D01*
X138243596Y-58607379D01*
X138243598Y-58607372D01*
X138249999Y-58547844D01*
X138250000Y-58547827D01*
X138250000Y-56750000D01*
X136298482Y-56750000D01*
X136309111Y-56731591D01*
X136350000Y-56578991D01*
X136350000Y-56421009D01*
X136309111Y-56268409D01*
X136298482Y-56250000D01*
X138250000Y-56250000D01*
X138250000Y-54452172D01*
X138249999Y-54452155D01*
X138243598Y-54392627D01*
X138243596Y-54392620D01*
X138193354Y-54257913D01*
X138193350Y-54257906D01*
X138107190Y-54142812D01*
X138107187Y-54142809D01*
X137992093Y-54056649D01*
X137992086Y-54056645D01*
X137857379Y-54006403D01*
X137857372Y-54006401D01*
X137797844Y-54000000D01*
X136000000Y-54000000D01*
X136000000Y-55951517D01*
X135981591Y-55940889D01*
X135828991Y-55900000D01*
X135671009Y-55900000D01*
X135518409Y-55940889D01*
X135500000Y-55951517D01*
X135500000Y-54000000D01*
X133702155Y-54000000D01*
X133642627Y-54006401D01*
X133642620Y-54006403D01*
X133507913Y-54056645D01*
X133507906Y-54056649D01*
X133392812Y-54142809D01*
X133392809Y-54142812D01*
X133306649Y-54257906D01*
X133306645Y-54257913D01*
X133256403Y-54392620D01*
X133256401Y-54392627D01*
X133250000Y-54452155D01*
X88249999Y-54452155D01*
X88243598Y-54392627D01*
X88243596Y-54392620D01*
X88193354Y-54257913D01*
X88193350Y-54257906D01*
X88107190Y-54142812D01*
X88107187Y-54142809D01*
X87992093Y-54056649D01*
X87992086Y-54056645D01*
X87857379Y-54006403D01*
X87857372Y-54006401D01*
X87797844Y-54000000D01*
X86000000Y-54000000D01*
X86000000Y-55951517D01*
X85981591Y-55940889D01*
X85828991Y-55900000D01*
X85671009Y-55900000D01*
X85518409Y-55940889D01*
X85500000Y-55951517D01*
X85500000Y-54000000D01*
X83820043Y-54000000D01*
X83753004Y-53980315D01*
X83707249Y-53927511D01*
X83697305Y-53858353D01*
X83726330Y-53794797D01*
X83736497Y-53784370D01*
X85546012Y-52134516D01*
X85608813Y-52103894D01*
X85629705Y-52102147D01*
X170125655Y-52206448D01*
G37*
G04 #@! TD.AperFunction*
G04 #@! TA.AperFunction,Conductor*
G36*
X68982630Y-72270185D02*
G01*
X69028385Y-72322989D01*
X69038329Y-72392147D01*
X69009304Y-72455703D01*
X69003272Y-72462181D01*
X68366110Y-73099342D01*
X68304787Y-73132827D01*
X68256645Y-73132315D01*
X68256455Y-73133516D01*
X68151511Y-73116894D01*
X68041687Y-73099500D01*
X67829113Y-73099500D01*
X67780442Y-73107208D01*
X67619160Y-73132753D01*
X67416985Y-73198444D01*
X67227579Y-73294951D01*
X67055615Y-73419889D01*
X66942073Y-73533431D01*
X66880750Y-73566915D01*
X66811058Y-73561931D01*
X66755125Y-73520059D01*
X66738210Y-73489082D01*
X66689197Y-73357671D01*
X66689193Y-73357664D01*
X66602947Y-73242455D01*
X66602944Y-73242452D01*
X66487735Y-73156206D01*
X66487728Y-73156202D01*
X66352882Y-73105908D01*
X66352883Y-73105908D01*
X66293283Y-73099501D01*
X66293281Y-73099500D01*
X66293273Y-73099500D01*
X66293264Y-73099500D01*
X64497529Y-73099500D01*
X64497523Y-73099501D01*
X64437916Y-73105908D01*
X64303071Y-73156202D01*
X64303064Y-73156206D01*
X64187855Y-73242452D01*
X64187852Y-73242455D01*
X64101606Y-73357664D01*
X64101602Y-73357671D01*
X64051308Y-73492517D01*
X64044901Y-73552116D01*
X64044900Y-73552135D01*
X64044900Y-75347870D01*
X64044901Y-75347876D01*
X64051308Y-75407483D01*
X64101602Y-75542328D01*
X64101606Y-75542335D01*
X64187852Y-75657544D01*
X64187855Y-75657547D01*
X64303064Y-75743793D01*
X64303071Y-75743797D01*
X64437917Y-75794091D01*
X64437916Y-75794091D01*
X64444844Y-75794835D01*
X64497527Y-75800500D01*
X66293272Y-75800499D01*
X66352883Y-75794091D01*
X66487731Y-75743796D01*
X66602946Y-75657546D01*
X66689196Y-75542331D01*
X66738210Y-75410916D01*
X66780081Y-75354984D01*
X66845545Y-75330566D01*
X66913818Y-75345417D01*
X66942073Y-75366569D01*
X67055613Y-75480109D01*
X67227579Y-75605048D01*
X67227581Y-75605049D01*
X67227584Y-75605051D01*
X67416988Y-75701557D01*
X67619157Y-75767246D01*
X67829113Y-75800500D01*
X67829114Y-75800500D01*
X68041686Y-75800500D01*
X68041687Y-75800500D01*
X68251643Y-75767246D01*
X68453812Y-75701557D01*
X68643216Y-75605051D01*
X68729538Y-75542335D01*
X68815186Y-75480109D01*
X68815188Y-75480106D01*
X68815192Y-75480104D01*
X68965504Y-75329792D01*
X68965506Y-75329788D01*
X68965509Y-75329786D01*
X69090448Y-75157820D01*
X69090447Y-75157820D01*
X69090451Y-75157816D01*
X69186957Y-74968412D01*
X69252646Y-74766243D01*
X69285900Y-74556287D01*
X69285900Y-74343713D01*
X69251884Y-74128945D01*
X69253526Y-74128684D01*
X69256654Y-74066137D01*
X69286057Y-74019288D01*
X69669527Y-73635819D01*
X69730850Y-73602334D01*
X69757208Y-73599500D01*
X80583300Y-73599500D01*
X80650339Y-73619185D01*
X80696094Y-73671989D01*
X80707300Y-73723500D01*
X80707300Y-75347870D01*
X80707301Y-75347876D01*
X80713708Y-75407483D01*
X80764002Y-75542328D01*
X80764006Y-75542335D01*
X80850252Y-75657544D01*
X80850255Y-75657547D01*
X80965464Y-75743793D01*
X80965471Y-75743797D01*
X81100317Y-75794091D01*
X81100316Y-75794091D01*
X81107244Y-75794835D01*
X81159927Y-75800500D01*
X82955672Y-75800499D01*
X83015283Y-75794091D01*
X83150131Y-75743796D01*
X83265346Y-75657546D01*
X83351596Y-75542331D01*
X83400610Y-75410916D01*
X83442481Y-75354984D01*
X83507945Y-75330566D01*
X83576218Y-75345417D01*
X83604473Y-75366569D01*
X83718013Y-75480109D01*
X83889979Y-75605048D01*
X83889981Y-75605049D01*
X83889984Y-75605051D01*
X84079388Y-75701557D01*
X84281557Y-75767246D01*
X84491513Y-75800500D01*
X84491514Y-75800500D01*
X84704086Y-75800500D01*
X84704087Y-75800500D01*
X84914043Y-75767246D01*
X85116212Y-75701557D01*
X85305616Y-75605051D01*
X85391938Y-75542335D01*
X85477586Y-75480109D01*
X85477588Y-75480106D01*
X85477592Y-75480104D01*
X85627904Y-75329792D01*
X85627906Y-75329788D01*
X85627909Y-75329786D01*
X85752848Y-75157820D01*
X85752847Y-75157820D01*
X85752851Y-75157816D01*
X85849357Y-74968412D01*
X85915046Y-74766243D01*
X85948300Y-74556287D01*
X85948300Y-74343713D01*
X85915046Y-74133757D01*
X85849357Y-73931588D01*
X85752851Y-73742184D01*
X85752849Y-73742181D01*
X85752848Y-73742179D01*
X85627909Y-73570213D01*
X85477586Y-73419890D01*
X85301675Y-73292085D01*
X85302651Y-73290740D01*
X85260634Y-73244295D01*
X85248300Y-73190382D01*
X85248300Y-73183847D01*
X85223302Y-73058180D01*
X85223301Y-73058179D01*
X85223301Y-73058175D01*
X85174265Y-72939792D01*
X85137608Y-72884931D01*
X85103076Y-72833249D01*
X85103074Y-72833247D01*
X85103072Y-72833244D01*
X84732009Y-72462181D01*
X84698524Y-72400858D01*
X84703508Y-72331166D01*
X84745380Y-72275233D01*
X84810844Y-72250816D01*
X84819690Y-72250500D01*
X102240391Y-72250500D01*
X102307430Y-72270185D01*
X102353185Y-72322989D01*
X102363129Y-72392147D01*
X102334104Y-72455703D01*
X102328072Y-72462181D01*
X101690910Y-73099342D01*
X101629587Y-73132827D01*
X101581445Y-73132315D01*
X101581255Y-73133516D01*
X101476311Y-73116894D01*
X101366487Y-73099500D01*
X101153913Y-73099500D01*
X101105242Y-73107208D01*
X100943960Y-73132753D01*
X100741785Y-73198444D01*
X100552379Y-73294951D01*
X100380415Y-73419889D01*
X100266873Y-73533431D01*
X100205550Y-73566915D01*
X100135858Y-73561931D01*
X100079925Y-73520059D01*
X100063010Y-73489082D01*
X100013997Y-73357671D01*
X100013993Y-73357664D01*
X99927747Y-73242455D01*
X99927744Y-73242452D01*
X99812535Y-73156206D01*
X99812528Y-73156202D01*
X99677682Y-73105908D01*
X99677683Y-73105908D01*
X99618083Y-73099501D01*
X99618081Y-73099500D01*
X99618073Y-73099500D01*
X99618064Y-73099500D01*
X97822329Y-73099500D01*
X97822323Y-73099501D01*
X97762716Y-73105908D01*
X97627871Y-73156202D01*
X97627864Y-73156206D01*
X97512655Y-73242452D01*
X97512652Y-73242455D01*
X97426406Y-73357664D01*
X97426402Y-73357671D01*
X97376108Y-73492517D01*
X97369701Y-73552116D01*
X97369700Y-73552135D01*
X97369700Y-75347870D01*
X97369701Y-75347876D01*
X97376108Y-75407483D01*
X97426402Y-75542328D01*
X97426406Y-75542335D01*
X97512652Y-75657544D01*
X97512655Y-75657547D01*
X97627864Y-75743793D01*
X97627871Y-75743797D01*
X97762717Y-75794091D01*
X97762716Y-75794091D01*
X97769644Y-75794835D01*
X97822327Y-75800500D01*
X99618072Y-75800499D01*
X99677683Y-75794091D01*
X99812531Y-75743796D01*
X99927746Y-75657546D01*
X100013996Y-75542331D01*
X100063010Y-75410916D01*
X100104881Y-75354984D01*
X100170345Y-75330566D01*
X100238618Y-75345417D01*
X100266873Y-75366569D01*
X100380413Y-75480109D01*
X100552379Y-75605048D01*
X100552381Y-75605049D01*
X100552384Y-75605051D01*
X100741788Y-75701557D01*
X100943957Y-75767246D01*
X101153913Y-75800500D01*
X101153914Y-75800500D01*
X101366486Y-75800500D01*
X101366487Y-75800500D01*
X101576443Y-75767246D01*
X101778612Y-75701557D01*
X101968016Y-75605051D01*
X102054338Y-75542335D01*
X102139986Y-75480109D01*
X102139988Y-75480106D01*
X102139992Y-75480104D01*
X102290304Y-75329792D01*
X102290306Y-75329788D01*
X102290309Y-75329786D01*
X102415248Y-75157820D01*
X102415247Y-75157820D01*
X102415251Y-75157816D01*
X102511757Y-74968412D01*
X102577446Y-74766243D01*
X102610700Y-74556287D01*
X102610700Y-74343713D01*
X102576684Y-74128945D01*
X102578326Y-74128684D01*
X102581454Y-74066137D01*
X102610857Y-74019288D01*
X102994327Y-73635819D01*
X103055650Y-73602334D01*
X103082008Y-73599500D01*
X113908100Y-73599500D01*
X113975139Y-73619185D01*
X114020894Y-73671989D01*
X114032100Y-73723500D01*
X114032100Y-75347870D01*
X114032101Y-75347876D01*
X114038508Y-75407483D01*
X114088802Y-75542328D01*
X114088806Y-75542335D01*
X114175052Y-75657544D01*
X114175055Y-75657547D01*
X114290264Y-75743793D01*
X114290271Y-75743797D01*
X114425117Y-75794091D01*
X114425116Y-75794091D01*
X114432044Y-75794835D01*
X114484727Y-75800500D01*
X116280472Y-75800499D01*
X116340083Y-75794091D01*
X116474931Y-75743796D01*
X116590146Y-75657546D01*
X116676396Y-75542331D01*
X116725410Y-75410916D01*
X116767281Y-75354984D01*
X116832745Y-75330566D01*
X116901018Y-75345417D01*
X116929273Y-75366569D01*
X117042813Y-75480109D01*
X117214779Y-75605048D01*
X117214781Y-75605049D01*
X117214784Y-75605051D01*
X117404188Y-75701557D01*
X117606357Y-75767246D01*
X117816313Y-75800500D01*
X117816314Y-75800500D01*
X118028886Y-75800500D01*
X118028887Y-75800500D01*
X118238843Y-75767246D01*
X118441012Y-75701557D01*
X118630416Y-75605051D01*
X118716738Y-75542335D01*
X118802386Y-75480109D01*
X118802388Y-75480106D01*
X118802392Y-75480104D01*
X118952704Y-75329792D01*
X118952706Y-75329788D01*
X118952709Y-75329786D01*
X119077648Y-75157820D01*
X119077647Y-75157820D01*
X119077651Y-75157816D01*
X119174157Y-74968412D01*
X119239846Y-74766243D01*
X119273100Y-74556287D01*
X119273100Y-74343713D01*
X119239846Y-74133757D01*
X119174157Y-73931588D01*
X119077651Y-73742184D01*
X119077649Y-73742181D01*
X119077648Y-73742179D01*
X118952709Y-73570213D01*
X118802386Y-73419890D01*
X118630420Y-73294951D01*
X118441014Y-73198444D01*
X118441013Y-73198443D01*
X118441012Y-73198443D01*
X118238843Y-73132754D01*
X118238841Y-73132753D01*
X118238840Y-73132753D01*
X118077557Y-73107208D01*
X118028887Y-73099500D01*
X118028886Y-73099500D01*
X118005408Y-73099500D01*
X117938369Y-73079815D01*
X117917727Y-73063181D01*
X117316728Y-72462181D01*
X117283243Y-72400858D01*
X117288227Y-72331166D01*
X117330099Y-72275233D01*
X117395563Y-72250816D01*
X117404409Y-72250500D01*
X135565191Y-72250500D01*
X135632230Y-72270185D01*
X135677985Y-72322989D01*
X135687929Y-72392147D01*
X135658904Y-72455703D01*
X135652872Y-72462181D01*
X135015710Y-73099342D01*
X134954387Y-73132827D01*
X134906245Y-73132315D01*
X134906055Y-73133516D01*
X134801111Y-73116894D01*
X134691287Y-73099500D01*
X134478713Y-73099500D01*
X134430042Y-73107208D01*
X134268760Y-73132753D01*
X134066585Y-73198444D01*
X133877179Y-73294951D01*
X133705215Y-73419889D01*
X133591673Y-73533431D01*
X133530350Y-73566915D01*
X133460658Y-73561931D01*
X133404725Y-73520059D01*
X133387810Y-73489082D01*
X133338797Y-73357671D01*
X133338793Y-73357664D01*
X133252547Y-73242455D01*
X133252544Y-73242452D01*
X133137335Y-73156206D01*
X133137328Y-73156202D01*
X133002482Y-73105908D01*
X133002483Y-73105908D01*
X132942883Y-73099501D01*
X132942881Y-73099500D01*
X132942873Y-73099500D01*
X132942864Y-73099500D01*
X131147129Y-73099500D01*
X131147123Y-73099501D01*
X131087516Y-73105908D01*
X130952671Y-73156202D01*
X130952664Y-73156206D01*
X130837455Y-73242452D01*
X130837452Y-73242455D01*
X130751206Y-73357664D01*
X130751202Y-73357671D01*
X130700908Y-73492517D01*
X130694501Y-73552116D01*
X130694500Y-73552135D01*
X130694500Y-75347870D01*
X130694501Y-75347876D01*
X130700908Y-75407483D01*
X130751202Y-75542328D01*
X130751206Y-75542335D01*
X130837452Y-75657544D01*
X130837455Y-75657547D01*
X130952664Y-75743793D01*
X130952671Y-75743797D01*
X131087517Y-75794091D01*
X131087516Y-75794091D01*
X131094444Y-75794835D01*
X131147127Y-75800500D01*
X132942872Y-75800499D01*
X133002483Y-75794091D01*
X133137331Y-75743796D01*
X133252546Y-75657546D01*
X133338796Y-75542331D01*
X133387810Y-75410916D01*
X133429681Y-75354984D01*
X133495145Y-75330566D01*
X133563418Y-75345417D01*
X133591673Y-75366569D01*
X133705213Y-75480109D01*
X133877179Y-75605048D01*
X133877181Y-75605049D01*
X133877184Y-75605051D01*
X134066588Y-75701557D01*
X134268757Y-75767246D01*
X134478713Y-75800500D01*
X134478714Y-75800500D01*
X134691286Y-75800500D01*
X134691287Y-75800500D01*
X134901243Y-75767246D01*
X135103412Y-75701557D01*
X135292816Y-75605051D01*
X135379138Y-75542335D01*
X135464786Y-75480109D01*
X135464788Y-75480106D01*
X135464792Y-75480104D01*
X135615104Y-75329792D01*
X135615106Y-75329788D01*
X135615109Y-75329786D01*
X135740048Y-75157820D01*
X135740047Y-75157820D01*
X135740051Y-75157816D01*
X135836557Y-74968412D01*
X135902246Y-74766243D01*
X135935500Y-74556287D01*
X135935500Y-74343713D01*
X135901484Y-74128945D01*
X135903126Y-74128684D01*
X135906254Y-74066137D01*
X135935657Y-74019288D01*
X136319127Y-73635819D01*
X136380450Y-73602334D01*
X136406808Y-73599500D01*
X147232900Y-73599500D01*
X147299939Y-73619185D01*
X147345694Y-73671989D01*
X147356900Y-73723500D01*
X147356900Y-75347870D01*
X147356901Y-75347876D01*
X147363308Y-75407483D01*
X147413602Y-75542328D01*
X147413606Y-75542335D01*
X147499852Y-75657544D01*
X147499855Y-75657547D01*
X147615064Y-75743793D01*
X147615071Y-75743797D01*
X147749917Y-75794091D01*
X147749916Y-75794091D01*
X147756844Y-75794835D01*
X147809527Y-75800500D01*
X149605272Y-75800499D01*
X149664883Y-75794091D01*
X149799731Y-75743796D01*
X149914946Y-75657546D01*
X150001196Y-75542331D01*
X150050210Y-75410916D01*
X150092081Y-75354984D01*
X150157545Y-75330566D01*
X150225818Y-75345417D01*
X150254073Y-75366569D01*
X150367613Y-75480109D01*
X150539579Y-75605048D01*
X150539581Y-75605049D01*
X150539584Y-75605051D01*
X150728988Y-75701557D01*
X150931157Y-75767246D01*
X151141113Y-75800500D01*
X151141114Y-75800500D01*
X151353686Y-75800500D01*
X151353687Y-75800500D01*
X151563643Y-75767246D01*
X151765812Y-75701557D01*
X151955216Y-75605051D01*
X152041538Y-75542335D01*
X152127186Y-75480109D01*
X152127188Y-75480106D01*
X152127192Y-75480104D01*
X152277504Y-75329792D01*
X152277506Y-75329788D01*
X152277509Y-75329786D01*
X152402448Y-75157820D01*
X152402447Y-75157820D01*
X152402451Y-75157816D01*
X152498957Y-74968412D01*
X152564646Y-74766243D01*
X152597900Y-74556287D01*
X152597900Y-74343713D01*
X152564646Y-74133757D01*
X152498957Y-73931588D01*
X152402451Y-73742184D01*
X152402449Y-73742181D01*
X152402448Y-73742179D01*
X152277509Y-73570213D01*
X152127186Y-73419890D01*
X151955220Y-73294951D01*
X151765814Y-73198444D01*
X151765813Y-73198443D01*
X151765812Y-73198443D01*
X151563643Y-73132754D01*
X151563641Y-73132753D01*
X151563640Y-73132753D01*
X151402357Y-73107208D01*
X151353687Y-73099500D01*
X151353686Y-73099500D01*
X151330208Y-73099500D01*
X151263169Y-73079815D01*
X151242527Y-73063181D01*
X150641528Y-72462181D01*
X150608043Y-72400858D01*
X150613027Y-72331166D01*
X150654899Y-72275233D01*
X150720363Y-72250816D01*
X150729209Y-72250500D01*
X170125500Y-72250500D01*
X170192539Y-72270185D01*
X170238294Y-72322989D01*
X170249500Y-72374500D01*
X170249500Y-82325500D01*
X170229815Y-82392539D01*
X170177011Y-82438294D01*
X170125500Y-82449500D01*
X58474500Y-82449500D01*
X58465814Y-82446949D01*
X58456853Y-82448238D01*
X58432812Y-82437259D01*
X58407461Y-82429815D01*
X58401533Y-82422974D01*
X58393297Y-82419213D01*
X58379007Y-82396978D01*
X58361706Y-82377011D01*
X58359418Y-82366496D01*
X58355523Y-82360435D01*
X58350500Y-82325500D01*
X58350500Y-82324000D01*
X58370185Y-82256961D01*
X58422989Y-82211206D01*
X58474500Y-82200000D01*
X67000000Y-82200000D01*
X67000000Y-81531771D01*
X67019685Y-81464732D01*
X67072489Y-81418977D01*
X67141647Y-81409033D01*
X67205203Y-81438058D01*
X67224319Y-81458886D01*
X67304896Y-81569792D01*
X67455213Y-81720109D01*
X67627179Y-81845048D01*
X67627181Y-81845049D01*
X67627184Y-81845051D01*
X67816588Y-81941557D01*
X68018757Y-82007246D01*
X68228713Y-82040500D01*
X68228714Y-82040500D01*
X68441286Y-82040500D01*
X68441287Y-82040500D01*
X68651243Y-82007246D01*
X68853412Y-81941557D01*
X69042816Y-81845051D01*
X69064789Y-81829086D01*
X69214786Y-81720109D01*
X69214788Y-81720106D01*
X69214792Y-81720104D01*
X69365104Y-81569792D01*
X69365106Y-81569788D01*
X69365109Y-81569786D01*
X69490048Y-81397820D01*
X69490047Y-81397820D01*
X69490051Y-81397816D01*
X69586557Y-81208412D01*
X69652246Y-81006243D01*
X69685500Y-80796287D01*
X69685500Y-80583713D01*
X69669375Y-80481902D01*
X160299500Y-80481902D01*
X160299500Y-80718097D01*
X160336446Y-80951368D01*
X160409433Y-81175996D01*
X160516657Y-81386433D01*
X160655483Y-81577510D01*
X160822490Y-81744517D01*
X161013567Y-81883343D01*
X161112991Y-81934002D01*
X161224003Y-81990566D01*
X161224005Y-81990566D01*
X161224008Y-81990568D01*
X161344412Y-82029689D01*
X161448631Y-82063553D01*
X161681903Y-82100500D01*
X161681908Y-82100500D01*
X161918097Y-82100500D01*
X162151368Y-82063553D01*
X162375992Y-81990568D01*
X162586433Y-81883343D01*
X162777510Y-81744517D01*
X162944517Y-81577510D01*
X163083343Y-81386433D01*
X163190568Y-81175992D01*
X163263553Y-80951368D01*
X163272616Y-80894149D01*
X163300500Y-80718097D01*
X163300500Y-80481902D01*
X163263553Y-80248631D01*
X163190566Y-80024003D01*
X163115314Y-79876314D01*
X163083343Y-79813567D01*
X162944517Y-79622490D01*
X162777510Y-79455483D01*
X162586433Y-79316657D01*
X162563649Y-79305048D01*
X162375996Y-79209433D01*
X162151368Y-79136446D01*
X161918097Y-79099500D01*
X161918092Y-79099500D01*
X161681908Y-79099500D01*
X161681903Y-79099500D01*
X161448631Y-79136446D01*
X161224003Y-79209433D01*
X161013566Y-79316657D01*
X160936381Y-79372736D01*
X160822490Y-79455483D01*
X160822488Y-79455485D01*
X160822487Y-79455485D01*
X160655485Y-79622487D01*
X160655485Y-79622488D01*
X160655483Y-79622490D01*
X160628306Y-79659896D01*
X160516657Y-79813566D01*
X160409433Y-80024003D01*
X160336446Y-80248631D01*
X160299500Y-80481902D01*
X69669375Y-80481902D01*
X69652246Y-80373757D01*
X69586557Y-80171588D01*
X69490051Y-79982184D01*
X69490049Y-79982181D01*
X69490048Y-79982179D01*
X69365109Y-79810213D01*
X69214786Y-79659890D01*
X69042820Y-79534951D01*
X69042115Y-79534591D01*
X69034054Y-79530485D01*
X68983259Y-79482512D01*
X68966463Y-79414692D01*
X68988999Y-79348556D01*
X69034054Y-79309515D01*
X69042816Y-79305051D01*
X69129471Y-79242093D01*
X69214784Y-79180110D01*
X69214784Y-79180109D01*
X69214792Y-79180104D01*
X69328329Y-79066566D01*
X69389648Y-79033084D01*
X69459340Y-79038068D01*
X69515274Y-79079939D01*
X69532189Y-79110917D01*
X69581202Y-79242328D01*
X69581206Y-79242335D01*
X69667452Y-79357544D01*
X69667455Y-79357547D01*
X69782664Y-79443793D01*
X69782671Y-79443797D01*
X69917517Y-79494091D01*
X69917516Y-79494091D01*
X69924444Y-79494835D01*
X69977127Y-79500500D01*
X71772872Y-79500499D01*
X71832483Y-79494091D01*
X71967331Y-79443796D01*
X72082546Y-79357546D01*
X72168796Y-79242331D01*
X72219091Y-79107483D01*
X72225500Y-79047873D01*
X72225499Y-78028711D01*
X74199500Y-78028711D01*
X74199500Y-78271288D01*
X74231161Y-78511785D01*
X74293947Y-78746104D01*
X74386773Y-78970205D01*
X74386776Y-78970212D01*
X74508064Y-79180289D01*
X74508066Y-79180292D01*
X74508067Y-79180293D01*
X74655733Y-79372736D01*
X74655739Y-79372743D01*
X74827256Y-79544260D01*
X74827262Y-79544265D01*
X75019711Y-79691936D01*
X75229788Y-79813224D01*
X75453900Y-79906054D01*
X75688211Y-79968838D01*
X75868586Y-79992584D01*
X75928711Y-80000500D01*
X75928712Y-80000500D01*
X76171289Y-80000500D01*
X76219388Y-79994167D01*
X76411789Y-79968838D01*
X76646100Y-79906054D01*
X76870212Y-79813224D01*
X77080289Y-79691936D01*
X77272738Y-79544265D01*
X77444265Y-79372738D01*
X77591936Y-79180289D01*
X77713224Y-78970212D01*
X77806054Y-78746100D01*
X77868838Y-78511789D01*
X77900500Y-78271288D01*
X77900500Y-78028712D01*
X77868838Y-77788211D01*
X77806054Y-77553900D01*
X77734483Y-77381113D01*
X77722748Y-77352781D01*
X77722489Y-77352155D01*
X105897349Y-77352155D01*
X105897349Y-77950000D01*
X106881663Y-77950000D01*
X106877269Y-77954394D01*
X106824608Y-78045606D01*
X106797349Y-78147339D01*
X106797349Y-78252661D01*
X106824608Y-78354394D01*
X106877269Y-78445606D01*
X106881663Y-78450000D01*
X105897349Y-78450000D01*
X105897349Y-79047844D01*
X105903750Y-79107372D01*
X105903752Y-79107379D01*
X105953994Y-79242086D01*
X105953998Y-79242093D01*
X106040158Y-79357187D01*
X106040161Y-79357190D01*
X106155255Y-79443350D01*
X106155262Y-79443354D01*
X106289969Y-79493596D01*
X106289976Y-79493598D01*
X106349504Y-79499999D01*
X106349521Y-79500000D01*
X106947349Y-79500000D01*
X106947349Y-78515686D01*
X106951743Y-78520080D01*
X107042955Y-78572741D01*
X107144688Y-78600000D01*
X107250010Y-78600000D01*
X107351743Y-78572741D01*
X107442955Y-78520080D01*
X107447349Y-78515686D01*
X107447349Y-79500000D01*
X108045177Y-79500000D01*
X108045193Y-79499999D01*
X108104721Y-79493598D01*
X108104728Y-79493596D01*
X108239435Y-79443354D01*
X108239442Y-79443350D01*
X108354536Y-79357190D01*
X108354539Y-79357187D01*
X108440699Y-79242093D01*
X108440703Y-79242086D01*
X108490945Y-79107379D01*
X108490947Y-79107372D01*
X108497348Y-79047844D01*
X108497349Y-79047827D01*
X108497349Y-78450000D01*
X107513035Y-78450000D01*
X107517429Y-78445606D01*
X107570090Y-78354394D01*
X107597349Y-78252661D01*
X107597349Y-78147339D01*
X107584034Y-78097648D01*
X110896849Y-78097648D01*
X110896849Y-78302351D01*
X110928871Y-78504534D01*
X110992130Y-78699223D01*
X111038488Y-78790204D01*
X111083720Y-78878977D01*
X111085064Y-78881613D01*
X111205377Y-79047213D01*
X111350135Y-79191971D01*
X111505098Y-79304556D01*
X111515739Y-79312287D01*
X111603866Y-79357190D01*
X111698125Y-79405218D01*
X111698127Y-79405218D01*
X111698130Y-79405220D01*
X111759967Y-79425312D01*
X111892814Y-79468477D01*
X111981427Y-79482512D01*
X112094997Y-79500500D01*
X112094998Y-79500500D01*
X112299700Y-79500500D01*
X112299701Y-79500500D01*
X112501883Y-79468477D01*
X112696568Y-79405220D01*
X112878959Y-79312287D01*
X113020527Y-79209433D01*
X113044562Y-79191971D01*
X113044564Y-79191968D01*
X113044568Y-79191966D01*
X113189315Y-79047219D01*
X113189317Y-79047215D01*
X113189320Y-79047213D01*
X113278306Y-78924732D01*
X113309636Y-78881610D01*
X113402569Y-78699219D01*
X113465826Y-78504534D01*
X113497849Y-78302352D01*
X113497849Y-78097648D01*
X113489360Y-78044051D01*
X113486930Y-78028711D01*
X164199500Y-78028711D01*
X164199500Y-78271288D01*
X164231161Y-78511785D01*
X164293947Y-78746104D01*
X164386773Y-78970205D01*
X164386776Y-78970212D01*
X164508064Y-79180289D01*
X164508066Y-79180292D01*
X164508067Y-79180293D01*
X164655733Y-79372736D01*
X164655739Y-79372743D01*
X164827256Y-79544260D01*
X164827262Y-79544265D01*
X165019711Y-79691936D01*
X165229788Y-79813224D01*
X165453900Y-79906054D01*
X165688211Y-79968838D01*
X165868586Y-79992584D01*
X165928711Y-80000500D01*
X165928712Y-80000500D01*
X166171289Y-80000500D01*
X166219388Y-79994167D01*
X166411789Y-79968838D01*
X166646100Y-79906054D01*
X166870212Y-79813224D01*
X167080289Y-79691936D01*
X167272738Y-79544265D01*
X167444265Y-79372738D01*
X167591936Y-79180289D01*
X167713224Y-78970212D01*
X167806054Y-78746100D01*
X167868838Y-78511789D01*
X167900500Y-78271288D01*
X167900500Y-78028712D01*
X167868838Y-77788211D01*
X167806054Y-77553900D01*
X167713224Y-77329788D01*
X167591936Y-77119711D01*
X167531018Y-77040321D01*
X167444266Y-76927263D01*
X167444260Y-76927256D01*
X167272743Y-76755739D01*
X167272736Y-76755733D01*
X167080293Y-76608067D01*
X167080292Y-76608066D01*
X167080289Y-76608064D01*
X166870212Y-76486776D01*
X166870205Y-76486773D01*
X166646104Y-76393947D01*
X166411785Y-76331161D01*
X166171289Y-76299500D01*
X166171288Y-76299500D01*
X165928712Y-76299500D01*
X165928711Y-76299500D01*
X165688214Y-76331161D01*
X165453895Y-76393947D01*
X165229794Y-76486773D01*
X165229785Y-76486777D01*
X165019706Y-76608067D01*
X164827263Y-76755733D01*
X164827256Y-76755739D01*
X164655739Y-76927256D01*
X164655733Y-76927263D01*
X164508067Y-77119706D01*
X164386777Y-77329785D01*
X164386773Y-77329794D01*
X164293947Y-77553895D01*
X164231161Y-77788214D01*
X164199500Y-78028711D01*
X113486930Y-78028711D01*
X113465826Y-77895465D01*
X113402567Y-77700776D01*
X113327729Y-77553900D01*
X113309636Y-77518390D01*
X113240898Y-77423779D01*
X113189320Y-77352786D01*
X113044562Y-77208028D01*
X112878962Y-77087715D01*
X112878961Y-77087714D01*
X112878959Y-77087713D01*
X112790836Y-77042812D01*
X112696572Y-76994781D01*
X112501883Y-76931522D01*
X112327344Y-76903878D01*
X112299701Y-76899500D01*
X112094997Y-76899500D01*
X112070678Y-76903351D01*
X111892814Y-76931522D01*
X111698125Y-76994781D01*
X111515735Y-77087715D01*
X111350135Y-77208028D01*
X111205377Y-77352786D01*
X111085064Y-77518386D01*
X110992130Y-77700776D01*
X110928871Y-77895465D01*
X110896849Y-78097648D01*
X107584034Y-78097648D01*
X107570090Y-78045606D01*
X107517429Y-77954394D01*
X107513035Y-77950000D01*
X108497349Y-77950000D01*
X108497349Y-77352172D01*
X108497348Y-77352155D01*
X108490947Y-77292627D01*
X108490945Y-77292620D01*
X108440703Y-77157913D01*
X108440699Y-77157906D01*
X108354539Y-77042812D01*
X108354536Y-77042809D01*
X108239442Y-76956649D01*
X108239435Y-76956645D01*
X108104728Y-76906403D01*
X108104721Y-76906401D01*
X108045193Y-76900000D01*
X107447349Y-76900000D01*
X107447349Y-77884314D01*
X107442955Y-77879920D01*
X107351743Y-77827259D01*
X107250010Y-77800000D01*
X107144688Y-77800000D01*
X107042955Y-77827259D01*
X106951743Y-77879920D01*
X106947349Y-77884314D01*
X106947349Y-76900000D01*
X106349504Y-76900000D01*
X106289976Y-76906401D01*
X106289969Y-76906403D01*
X106155262Y-76956645D01*
X106155255Y-76956649D01*
X106040161Y-77042809D01*
X106040158Y-77042812D01*
X105953998Y-77157906D01*
X105953994Y-77157913D01*
X105903752Y-77292620D01*
X105903750Y-77292627D01*
X105897349Y-77352155D01*
X77722489Y-77352155D01*
X77713224Y-77329788D01*
X77591936Y-77119711D01*
X77531018Y-77040321D01*
X77444266Y-76927263D01*
X77444260Y-76927256D01*
X77272743Y-76755739D01*
X77272736Y-76755733D01*
X77080293Y-76608067D01*
X77080292Y-76608066D01*
X77080289Y-76608064D01*
X76870212Y-76486776D01*
X76870205Y-76486773D01*
X76646104Y-76393947D01*
X76411785Y-76331161D01*
X76171289Y-76299500D01*
X76171288Y-76299500D01*
X75928712Y-76299500D01*
X75928711Y-76299500D01*
X75688214Y-76331161D01*
X75453895Y-76393947D01*
X75229794Y-76486773D01*
X75229785Y-76486777D01*
X75019706Y-76608067D01*
X74827263Y-76755733D01*
X74827256Y-76755739D01*
X74655739Y-76927256D01*
X74655733Y-76927263D01*
X74508067Y-77119706D01*
X74386777Y-77329785D01*
X74386773Y-77329794D01*
X74293947Y-77553895D01*
X74231161Y-77788214D01*
X74199500Y-78028711D01*
X72225499Y-78028711D01*
X72225499Y-77252128D01*
X72219091Y-77192517D01*
X72217810Y-77189083D01*
X72168797Y-77057671D01*
X72168793Y-77057664D01*
X72082547Y-76942455D01*
X72082544Y-76942452D01*
X71967335Y-76856206D01*
X71967328Y-76856202D01*
X71832482Y-76805908D01*
X71832483Y-76805908D01*
X71772883Y-76799501D01*
X71772881Y-76799500D01*
X71772873Y-76799500D01*
X71772864Y-76799500D01*
X69977129Y-76799500D01*
X69977123Y-76799501D01*
X69917516Y-76805908D01*
X69782671Y-76856202D01*
X69782664Y-76856206D01*
X69667455Y-76942452D01*
X69667452Y-76942455D01*
X69581206Y-77057664D01*
X69581203Y-77057669D01*
X69532189Y-77189083D01*
X69490317Y-77245016D01*
X69424853Y-77269433D01*
X69356580Y-77254581D01*
X69328326Y-77233430D01*
X69214786Y-77119890D01*
X69042820Y-76994951D01*
X68853414Y-76898444D01*
X68853413Y-76898443D01*
X68853412Y-76898443D01*
X68651243Y-76832754D01*
X68651241Y-76832753D01*
X68651240Y-76832753D01*
X68489957Y-76807208D01*
X68441287Y-76799500D01*
X68228713Y-76799500D01*
X68180042Y-76807208D01*
X68018760Y-76832753D01*
X67816585Y-76898444D01*
X67627179Y-76994951D01*
X67455213Y-77119890D01*
X67304894Y-77270209D01*
X67304890Y-77270214D01*
X67224318Y-77381113D01*
X67168988Y-77423779D01*
X67099375Y-77429758D01*
X67037580Y-77397152D01*
X67003223Y-77336314D01*
X67000000Y-77308228D01*
X67000000Y-76700000D01*
X58474500Y-76700000D01*
X58407461Y-76680315D01*
X58361706Y-76627511D01*
X58350500Y-76576000D01*
X58350500Y-72374500D01*
X58370185Y-72307461D01*
X58422989Y-72261706D01*
X58474500Y-72250500D01*
X68915591Y-72250500D01*
X68982630Y-72270185D01*
G37*
G04 #@! TD.AperFunction*
D11*
X108109000Y-33250000D03*
X110649000Y-33250000D03*
X113189000Y-33250000D03*
X82057800Y-74450000D03*
X84597800Y-74450000D03*
X87137800Y-74450000D03*
X103397349Y-66600000D03*
X108397349Y-66600000D03*
X107197349Y-78200000D03*
X112197349Y-78200000D03*
X164600000Y-66926000D03*
X167140000Y-69466000D03*
X167140000Y-66926000D03*
X164600000Y-69466000D03*
X128408200Y-63201000D03*
X130948200Y-63201000D03*
X133488200Y-63201000D03*
X166050000Y-78150000D03*
X85750000Y-37000000D03*
X85750000Y-56500000D03*
X135750000Y-56500000D03*
X135750000Y-37000000D03*
X65395400Y-74450000D03*
X67935400Y-74450000D03*
X70475400Y-74450000D03*
X115382600Y-74450000D03*
X117922600Y-74450000D03*
X120462600Y-74450000D03*
X61758600Y-63201000D03*
X64298600Y-63201000D03*
X66838600Y-63201000D03*
X74784200Y-33250000D03*
X77324200Y-33250000D03*
X79864200Y-33250000D03*
X68925000Y-57200000D03*
X76675000Y-57200000D03*
X68335000Y-69441000D03*
X70875000Y-66901000D03*
X68335000Y-66901000D03*
X70875000Y-69441000D03*
D12*
X65900000Y-46749000D03*
D13*
X65900000Y-40449000D03*
D14*
X61100000Y-43849000D03*
D11*
X62000000Y-55000000D03*
X98720200Y-74450000D03*
X101260200Y-74450000D03*
X103800200Y-74450000D03*
X95075000Y-63200000D03*
X97615000Y-63200000D03*
X100155000Y-63200000D03*
X78421000Y-63201000D03*
X80961000Y-63201000D03*
X83501000Y-63201000D03*
X75600000Y-46045000D03*
X75600000Y-43505000D03*
X141433800Y-33250000D03*
X143973800Y-33250000D03*
X146513800Y-33250000D03*
X124771400Y-33250000D03*
X127311400Y-33250000D03*
X129851400Y-33250000D03*
X68335000Y-80690000D03*
X70875000Y-78150000D03*
X68335000Y-78150000D03*
X70875000Y-80690000D03*
X164500000Y-37000000D03*
X167040000Y-39540000D03*
X167040000Y-37000000D03*
X164500000Y-39540000D03*
X158096200Y-33250000D03*
X160636200Y-33250000D03*
X163176200Y-33250000D03*
X161733000Y-63201000D03*
X164273000Y-63201000D03*
X166813000Y-63201000D03*
X76050000Y-78150000D03*
X145070600Y-63201000D03*
X147610600Y-63201000D03*
X150150600Y-63201000D03*
X89000000Y-66851000D03*
X111875000Y-63200000D03*
X114415000Y-63200000D03*
X116955000Y-63200000D03*
X148707400Y-74450000D03*
X151247400Y-74450000D03*
X153787400Y-74450000D03*
X122000000Y-37000000D03*
X69600000Y-50200000D03*
X74700000Y-51400000D03*
X132045000Y-74450000D03*
X134585000Y-74450000D03*
X137125000Y-74450000D03*
X91446600Y-33250000D03*
X93986600Y-33250000D03*
X96526600Y-33250000D03*
X108109000Y-33250000D03*
X110649000Y-33250000D03*
X113189000Y-33250000D03*
X82057800Y-74450000D03*
X84597800Y-74450000D03*
X87137800Y-74450000D03*
X103397349Y-66600000D03*
X108397349Y-66600000D03*
X107197349Y-78200000D03*
X112197349Y-78200000D03*
X164600000Y-66926000D03*
X167140000Y-69466000D03*
X167140000Y-66926000D03*
X164600000Y-69466000D03*
X128408200Y-63201000D03*
X130948200Y-63201000D03*
X133488200Y-63201000D03*
X166050000Y-78150000D03*
X85750000Y-37000000D03*
X85750000Y-56500000D03*
X135750000Y-56500000D03*
X135750000Y-37000000D03*
X65395400Y-74450000D03*
X67935400Y-74450000D03*
X70475400Y-74450000D03*
X115382600Y-74450000D03*
X117922600Y-74450000D03*
X120462600Y-74450000D03*
X61758600Y-63201000D03*
X64298600Y-63201000D03*
X66838600Y-63201000D03*
X74784200Y-33250000D03*
X77324200Y-33250000D03*
X79864200Y-33250000D03*
X68925000Y-57200000D03*
X76675000Y-57200000D03*
X68335000Y-69441000D03*
X70875000Y-66901000D03*
X68335000Y-66901000D03*
X70875000Y-69441000D03*
D12*
X65900000Y-46749000D03*
D13*
X65900000Y-40449000D03*
D14*
X61100000Y-43849000D03*
D11*
X62000000Y-55000000D03*
X98720200Y-74450000D03*
X101260200Y-74450000D03*
X103800200Y-74450000D03*
X95075000Y-63200000D03*
X97615000Y-63200000D03*
X100155000Y-63200000D03*
X78421000Y-63201000D03*
X80961000Y-63201000D03*
X83501000Y-63201000D03*
X75600000Y-46045000D03*
X75600000Y-43505000D03*
X141433800Y-33250000D03*
X143973800Y-33250000D03*
X146513800Y-33250000D03*
X124771400Y-33250000D03*
X127311400Y-33250000D03*
X129851400Y-33250000D03*
X68335000Y-80690000D03*
X70875000Y-78150000D03*
X68335000Y-78150000D03*
X70875000Y-80690000D03*
X164500000Y-37000000D03*
X167040000Y-39540000D03*
X167040000Y-37000000D03*
X164500000Y-39540000D03*
X158096200Y-33250000D03*
X160636200Y-33250000D03*
X163176200Y-33250000D03*
X161733000Y-63201000D03*
X164273000Y-63201000D03*
X166813000Y-63201000D03*
X76050000Y-78150000D03*
X145070600Y-63201000D03*
X147610600Y-63201000D03*
X150150600Y-63201000D03*
X89000000Y-66851000D03*
X111875000Y-63200000D03*
X114415000Y-63200000D03*
X116955000Y-63200000D03*
X148707400Y-74450000D03*
X151247400Y-74450000D03*
X153787400Y-74450000D03*
X122000000Y-37000000D03*
X69600000Y-50200000D03*
X74700000Y-51400000D03*
X132045000Y-74450000D03*
X134585000Y-74450000D03*
X137125000Y-74450000D03*
X91446600Y-33250000D03*
X93986600Y-33250000D03*
X96526600Y-33250000D03*
M02*
