M48
; DRILL file {KiCad 9.0.0} date 2025-07-23T13:38:37+0200
; FORMAT={-:-/ absolute / metric / decimal}
; #@! TF.CreationDate,2025-07-23T13:38:37+02:00
; #@! TF.GenerationSoftware,Kicad,Pcbnew,9.0.0
; #@! TF.FileFunction,Plated,1,2,PTH
FMAT,2
METRIC
; #@! TA.AperFunction,Plated,PTH,ViaDrill
T1C0.600
; #@! TA.AperFunction,Plated,PTH,ComponentDrill
T2C0.710
; #@! TA.AperFunction,Plated,PTH,ComponentDrill
T3C0.800
; #@! TA.AperFunction,Plated,PTH,ComponentDrill
T4C0.900
; #@! TA.AperFunction,Plated,PTH,ComponentDrill
T5C1.000
; #@! TA.AperFunction,Plated,PTH,ComponentDrill
T6C1.200
%
G90
G05
T1
X58.2Y-73.299
X58.2Y-125.701
X58.25Y-178.199
X58.25Y-230.599
X70.6Y-63.499
X70.6Y-115.901
X70.65Y-168.399
X70.65Y-220.799
X71.0Y-43.199
X71.0Y-95.601
X71.05Y-148.099
X71.05Y-200.499
X78.5Y-84.499
X78.5Y-136.901
X78.55Y-189.399
X78.55Y-241.799
X79.7Y-48.099
X79.7Y-100.501
X79.75Y-152.999
X79.75Y-205.399
X88.2Y-73.2
X88.2Y-125.602
X88.25Y-178.1
X88.25Y-230.5
X99.5Y-76.699
X99.5Y-129.101
X99.55Y-181.599
X99.55Y-233.999
X102.5Y-43.249
X102.5Y-95.651
X102.55Y-148.149
X102.55Y-200.549
X103.8Y-88.199
X103.8Y-140.601
X103.85Y-193.099
X103.85Y-245.499
X111.8Y-84.399
X111.8Y-136.801
X111.85Y-189.299
X111.85Y-241.699
X121.6Y-73.2
X121.6Y-125.602
X121.65Y-178.1
X121.65Y-230.5
X134.9Y-43.249
X134.9Y-95.651
X134.95Y-148.149
X134.95Y-200.549
X139.8Y-49.599
X139.8Y-102.001
X139.85Y-154.499
X139.85Y-206.899
X142.2Y-84.449
X142.2Y-136.851
X142.25Y-189.349
X142.25Y-241.749
X155.3Y-73.2
X155.3Y-125.602
X155.35Y-178.1
X155.35Y-230.5
X166.7Y-43.199
X166.7Y-95.601
X166.75Y-148.099
X166.75Y-200.499
X171.25Y-73.3
X171.25Y-125.702
X171.3Y-178.2
X171.3Y-230.6
X183.65Y-63.5
X183.65Y-115.902
X183.7Y-168.4
X183.7Y-220.8
X184.05Y-43.2
X184.05Y-95.602
X184.1Y-148.1
X184.1Y-200.5
X191.55Y-84.5
X191.55Y-136.902
X191.6Y-189.4
X191.6Y-241.8
X192.75Y-48.1
X192.75Y-100.502
X192.8Y-153.0
X192.8Y-205.4
X201.25Y-73.201
X201.25Y-125.603
X201.3Y-178.101
X201.3Y-230.501
X212.55Y-76.7
X212.55Y-129.102
X212.6Y-181.6
X212.6Y-234.0
X215.55Y-43.25
X215.55Y-95.652
X215.6Y-148.15
X215.6Y-200.55
X216.85Y-88.2
X216.85Y-140.602
X216.9Y-193.1
X216.9Y-245.5
X224.85Y-84.4
X224.85Y-136.802
X224.9Y-189.3
X224.9Y-241.7
X234.65Y-73.201
X234.65Y-125.603
X234.7Y-178.101
X234.7Y-230.501
X247.95Y-43.25
X247.95Y-95.652
X248.0Y-148.15
X248.0Y-200.55
X252.85Y-49.6
X252.85Y-102.002
X252.9Y-154.5
X252.9Y-206.9
X255.25Y-84.45
X255.25Y-136.852
X255.3Y-189.35
X255.3Y-241.75
X268.35Y-73.201
X268.35Y-125.603
X268.4Y-178.101
X268.4Y-230.501
X279.75Y-43.2
X279.75Y-95.602
X279.8Y-148.1
X279.8Y-200.5
X309.1Y-184.599
X312.8Y-159.299
X312.85Y-222.999
X312.9Y-192.599
X320.6Y-180.299
X324.0Y-138.999
X324.099Y-168.999
X324.099Y-202.399
X324.099Y-236.099
X333.8Y-151.399
X347.7Y-220.599
X349.2Y-160.499
X354.05Y-183.299
X354.05Y-215.699
X354.1Y-151.799
X354.1Y-247.499
T2
X68.5Y-60.199
X68.5Y-112.601
X68.55Y-165.099
X68.55Y-217.499
X73.6Y-61.399
X73.6Y-113.801
X73.65Y-166.299
X73.65Y-218.699
X181.55Y-60.2
X181.55Y-112.602
X181.6Y-165.1
X181.6Y-217.5
X186.65Y-61.4
X186.65Y-113.802
X186.7Y-166.3
X186.7Y-218.7
X335.9Y-154.399
X337.1Y-149.299
T3
X102.297Y-76.599
X102.297Y-129.001
X102.347Y-181.499
X102.347Y-233.899
X106.097Y-88.199
X106.097Y-140.601
X106.147Y-193.099
X106.147Y-245.499
X107.297Y-76.599
X107.297Y-129.001
X107.347Y-181.499
X107.347Y-233.899
X111.097Y-88.199
X111.097Y-140.601
X111.147Y-193.099
X111.147Y-245.499
X215.347Y-76.6
X215.347Y-129.002
X215.397Y-181.5
X215.397Y-233.9
X219.147Y-88.2
X219.147Y-140.602
X219.197Y-193.1
X219.197Y-245.5
X220.347Y-76.6
X220.347Y-129.002
X220.397Y-181.5
X220.397Y-233.9
X224.147Y-88.2
X224.147Y-140.602
X224.197Y-193.1
X224.197Y-245.5
X309.1Y-186.896
X309.1Y-191.896
X320.7Y-183.096
X320.7Y-188.096
T4
X74.5Y-53.504
X74.5Y-56.044
X74.5Y-105.906
X74.5Y-108.446
X74.55Y-158.404
X74.55Y-160.944
X74.55Y-210.804
X74.55Y-213.344
X187.55Y-53.505
X187.55Y-56.045
X187.55Y-105.907
X187.55Y-108.447
X187.6Y-158.405
X187.6Y-160.945
X187.6Y-210.805
X187.6Y-213.345
X341.255Y-155.299
X343.795Y-155.299
T5
X60.659Y-73.2
X60.659Y-125.602
X60.709Y-178.1
X60.709Y-230.5
X63.199Y-73.2
X63.199Y-125.602
X63.249Y-178.1
X63.249Y-230.5
X64.295Y-84.449
X64.295Y-136.851
X64.345Y-189.349
X64.345Y-241.749
X65.739Y-73.2
X65.739Y-125.602
X65.789Y-178.1
X65.789Y-230.5
X66.835Y-84.449
X66.835Y-136.851
X66.885Y-189.349
X66.885Y-241.749
X67.235Y-76.9
X67.235Y-79.44
X67.235Y-88.149
X67.235Y-90.689
X67.235Y-129.302
X67.235Y-131.842
X67.235Y-140.551
X67.235Y-143.091
X67.285Y-181.8
X67.285Y-184.34
X67.285Y-193.049
X67.285Y-195.589
X67.285Y-234.2
X67.285Y-236.74
X67.285Y-245.449
X67.285Y-247.989
X69.375Y-84.449
X69.375Y-136.851
X69.425Y-189.349
X69.425Y-241.749
X69.775Y-76.9
X69.775Y-79.44
X69.775Y-88.149
X69.775Y-90.689
X69.775Y-129.302
X69.775Y-131.842
X69.775Y-140.551
X69.775Y-143.091
X69.825Y-181.8
X69.825Y-184.34
X69.825Y-193.049
X69.825Y-195.589
X69.825Y-234.2
X69.825Y-236.74
X69.825Y-245.449
X69.825Y-247.989
X73.684Y-43.249
X73.684Y-95.651
X73.734Y-148.149
X73.734Y-200.549
X76.224Y-43.249
X76.224Y-95.651
X76.274Y-148.149
X76.274Y-200.549
X77.321Y-73.2
X77.321Y-125.602
X77.371Y-178.1
X77.371Y-230.5
X78.764Y-43.249
X78.764Y-95.651
X78.814Y-148.149
X78.814Y-200.549
X79.861Y-73.2
X79.861Y-125.602
X79.911Y-178.1
X79.911Y-230.5
X80.958Y-84.449
X80.958Y-136.851
X81.008Y-189.349
X81.008Y-241.749
X82.401Y-73.2
X82.401Y-125.602
X82.451Y-178.1
X82.451Y-230.5
X83.498Y-84.449
X83.498Y-136.851
X83.548Y-189.349
X83.548Y-241.749
X86.038Y-84.449
X86.038Y-136.851
X86.088Y-189.349
X86.088Y-241.749
X90.347Y-43.249
X90.347Y-95.651
X90.397Y-148.149
X90.397Y-200.549
X92.887Y-43.249
X92.887Y-95.651
X92.937Y-148.149
X92.937Y-200.549
X93.975Y-73.199
X93.975Y-125.601
X94.025Y-178.099
X94.025Y-230.499
X95.427Y-43.249
X95.427Y-95.651
X95.477Y-148.149
X95.477Y-200.549
X96.515Y-73.199
X96.515Y-125.601
X96.565Y-178.099
X96.565Y-230.499
X97.62Y-84.449
X97.62Y-136.851
X97.67Y-189.349
X97.67Y-241.749
X99.055Y-73.199
X99.055Y-125.601
X99.105Y-178.099
X99.105Y-230.499
X100.16Y-84.449
X100.16Y-136.851
X100.21Y-189.349
X100.21Y-241.749
X102.7Y-84.449
X102.7Y-136.851
X102.75Y-189.349
X102.75Y-241.749
X107.009Y-43.249
X107.009Y-95.651
X107.059Y-148.149
X107.059Y-200.549
X109.549Y-43.249
X109.549Y-95.651
X109.599Y-148.149
X109.599Y-200.549
X110.775Y-73.199
X110.775Y-125.601
X110.825Y-178.099
X110.825Y-230.499
X112.089Y-43.249
X112.089Y-95.651
X112.139Y-148.149
X112.139Y-200.549
X113.315Y-73.199
X113.315Y-125.601
X113.365Y-178.099
X113.365Y-230.499
X114.283Y-84.449
X114.283Y-136.851
X114.333Y-189.349
X114.333Y-241.749
X115.855Y-73.199
X115.855Y-125.601
X115.905Y-178.099
X115.905Y-230.499
X116.823Y-84.449
X116.823Y-136.851
X116.873Y-189.349
X116.873Y-241.749
X119.363Y-84.449
X119.363Y-136.851
X119.413Y-189.349
X119.413Y-241.749
X123.671Y-43.249
X123.671Y-95.651
X123.721Y-148.149
X123.721Y-200.549
X126.211Y-43.249
X126.211Y-95.651
X126.261Y-148.149
X126.261Y-200.549
X127.308Y-73.2
X127.308Y-125.602
X127.358Y-178.1
X127.358Y-230.5
X128.751Y-43.249
X128.751Y-95.651
X128.801Y-148.149
X128.801Y-200.549
X129.848Y-73.2
X129.848Y-125.602
X129.898Y-178.1
X129.898Y-230.5
X130.945Y-84.449
X130.945Y-136.851
X130.995Y-189.349
X130.995Y-241.749
X132.388Y-73.2
X132.388Y-125.602
X132.438Y-178.1
X132.438Y-230.5
X133.485Y-84.449
X133.485Y-136.851
X133.535Y-189.349
X133.535Y-241.749
X136.025Y-84.449
X136.025Y-136.851
X136.075Y-189.349
X136.075Y-241.749
X140.334Y-43.249
X140.334Y-95.651
X140.384Y-148.149
X140.384Y-200.549
X142.874Y-43.249
X142.874Y-95.651
X142.924Y-148.149
X142.924Y-200.549
X143.971Y-73.2
X143.971Y-125.602
X144.021Y-178.1
X144.021Y-230.5
X145.414Y-43.249
X145.414Y-95.651
X145.464Y-148.149
X145.464Y-200.549
X146.511Y-73.2
X146.511Y-125.602
X146.561Y-178.1
X146.561Y-230.5
X147.607Y-84.449
X147.607Y-136.851
X147.657Y-189.349
X147.657Y-241.749
X149.051Y-73.2
X149.051Y-125.602
X149.101Y-178.1
X149.101Y-230.5
X150.147Y-84.449
X150.147Y-136.851
X150.197Y-189.349
X150.197Y-241.749
X152.687Y-84.449
X152.687Y-136.851
X152.737Y-189.349
X152.737Y-241.749
X156.996Y-43.249
X156.996Y-95.651
X157.046Y-148.149
X157.046Y-200.549
X159.536Y-43.249
X159.536Y-95.651
X159.586Y-148.149
X159.586Y-200.549
X160.633Y-73.2
X160.633Y-125.602
X160.683Y-178.1
X160.683Y-230.5
X162.076Y-43.249
X162.076Y-95.651
X162.126Y-148.149
X162.126Y-200.549
X163.173Y-73.2
X163.173Y-125.602
X163.223Y-178.1
X163.223Y-230.5
X163.4Y-46.999
X163.4Y-49.539
X163.4Y-99.401
X163.4Y-101.941
X163.45Y-151.899
X163.45Y-154.439
X163.45Y-204.299
X163.45Y-206.839
X163.5Y-76.925
X163.5Y-79.465
X163.5Y-129.327
X163.5Y-131.867
X163.55Y-181.825
X163.55Y-184.365
X163.55Y-234.225
X163.55Y-236.765
X165.713Y-73.2
X165.713Y-125.602
X165.763Y-178.1
X165.763Y-230.5
X165.94Y-46.999
X165.94Y-49.539
X165.94Y-99.401
X165.94Y-101.941
X165.99Y-151.899
X165.99Y-154.439
X165.99Y-204.299
X165.99Y-206.839
X166.04Y-76.925
X166.04Y-79.465
X166.04Y-129.327
X166.04Y-131.867
X166.09Y-181.825
X166.09Y-184.365
X166.09Y-234.225
X166.09Y-236.765
X173.709Y-73.201
X173.709Y-125.603
X173.759Y-178.101
X173.759Y-230.501
X176.249Y-73.201
X176.249Y-125.603
X176.299Y-178.101
X176.299Y-230.501
X177.345Y-84.45
X177.345Y-136.852
X177.395Y-189.35
X177.395Y-241.75
X178.789Y-73.201
X178.789Y-125.603
X178.839Y-178.101
X178.839Y-230.501
X179.885Y-84.45
X179.885Y-136.852
X179.935Y-189.35
X179.935Y-241.75
X180.285Y-76.901
X180.285Y-79.441
X180.285Y-88.15
X180.285Y-90.69
X180.285Y-129.303
X180.285Y-131.843
X180.285Y-140.552
X180.285Y-143.092
X180.335Y-181.801
X180.335Y-184.341
X180.335Y-193.05
X180.335Y-195.59
X180.335Y-234.201
X180.335Y-236.741
X180.335Y-245.45
X180.335Y-247.99
X182.425Y-84.45
X182.425Y-136.852
X182.475Y-189.35
X182.475Y-241.75
X182.825Y-76.901
X182.825Y-79.441
X182.825Y-88.15
X182.825Y-90.69
X182.825Y-129.303
X182.825Y-131.843
X182.825Y-140.552
X182.825Y-143.092
X182.875Y-181.801
X182.875Y-184.341
X182.875Y-193.05
X182.875Y-195.59
X182.875Y-234.201
X182.875Y-236.741
X182.875Y-245.45
X182.875Y-247.99
X186.734Y-43.25
X186.734Y-95.652
X186.784Y-148.15
X186.784Y-200.55
X189.274Y-43.25
X189.274Y-95.652
X189.324Y-148.15
X189.324Y-200.55
X190.371Y-73.201
X190.371Y-125.603
X190.421Y-178.101
X190.421Y-230.501
X191.814Y-43.25
X191.814Y-95.652
X191.864Y-148.15
X191.864Y-200.55
X192.911Y-73.201
X192.911Y-125.603
X192.961Y-178.101
X192.961Y-230.501
X194.008Y-84.45
X194.008Y-136.852
X194.058Y-189.35
X194.058Y-241.75
X195.451Y-73.201
X195.451Y-125.603
X195.501Y-178.101
X195.501Y-230.501
X196.548Y-84.45
X196.548Y-136.852
X196.598Y-189.35
X196.598Y-241.75
X199.088Y-84.45
X199.088Y-136.852
X199.138Y-189.35
X199.138Y-241.75
X203.397Y-43.25
X203.397Y-95.652
X203.447Y-148.15
X203.447Y-200.55
X205.937Y-43.25
X205.937Y-95.652
X205.987Y-148.15
X205.987Y-200.55
X207.025Y-73.2
X207.025Y-125.602
X207.075Y-178.1
X207.075Y-230.5
X208.477Y-43.25
X208.477Y-95.652
X208.527Y-148.15
X208.527Y-200.55
X209.565Y-73.2
X209.565Y-125.602
X209.615Y-178.1
X209.615Y-230.5
X210.67Y-84.45
X210.67Y-136.852
X210.72Y-189.35
X210.72Y-241.75
X212.105Y-73.2
X212.105Y-125.602
X212.155Y-178.1
X212.155Y-230.5
X213.21Y-84.45
X213.21Y-136.852
X213.26Y-189.35
X213.26Y-241.75
X215.75Y-84.45
X215.75Y-136.852
X215.8Y-189.35
X215.8Y-241.75
X220.059Y-43.25
X220.059Y-95.652
X220.109Y-148.15
X220.109Y-200.55
X222.599Y-43.25
X222.599Y-95.652
X222.649Y-148.15
X222.649Y-200.55
X223.825Y-73.2
X223.825Y-125.602
X223.875Y-178.1
X223.875Y-230.5
X225.139Y-43.25
X225.139Y-95.652
X225.189Y-148.15
X225.189Y-200.55
X226.365Y-73.2
X226.365Y-125.602
X226.415Y-178.1
X226.415Y-230.5
X227.333Y-84.45
X227.333Y-136.852
X227.383Y-189.35
X227.383Y-241.75
X228.905Y-73.2
X228.905Y-125.602
X228.955Y-178.1
X228.955Y-230.5
X229.873Y-84.45
X229.873Y-136.852
X229.923Y-189.35
X229.923Y-241.75
X232.413Y-84.45
X232.413Y-136.852
X232.463Y-189.35
X232.463Y-241.75
X236.721Y-43.25
X236.721Y-95.652
X236.771Y-148.15
X236.771Y-200.55
X239.261Y-43.25
X239.261Y-95.652
X239.311Y-148.15
X239.311Y-200.55
X240.358Y-73.201
X240.358Y-125.603
X240.408Y-178.101
X240.408Y-230.501
X241.801Y-43.25
X241.801Y-95.652
X241.851Y-148.15
X241.851Y-200.55
X242.898Y-73.201
X242.898Y-125.603
X242.948Y-178.101
X242.948Y-230.501
X243.995Y-84.45
X243.995Y-136.852
X244.045Y-189.35
X244.045Y-241.75
X245.438Y-73.201
X245.438Y-125.603
X245.488Y-178.101
X245.488Y-230.501
X246.535Y-84.45
X246.535Y-136.852
X246.585Y-189.35
X246.585Y-241.75
X249.075Y-84.45
X249.075Y-136.852
X249.125Y-189.35
X249.125Y-241.75
X253.384Y-43.25
X253.384Y-95.652
X253.434Y-148.15
X253.434Y-200.55
X255.924Y-43.25
X255.924Y-95.652
X255.974Y-148.15
X255.974Y-200.55
X257.021Y-73.201
X257.021Y-125.603
X257.071Y-178.101
X257.071Y-230.501
X258.464Y-43.25
X258.464Y-95.652
X258.514Y-148.15
X258.514Y-200.55
X259.561Y-73.201
X259.561Y-125.603
X259.611Y-178.101
X259.611Y-230.501
X260.657Y-84.45
X260.657Y-136.852
X260.707Y-189.35
X260.707Y-241.75
X262.101Y-73.201
X262.101Y-125.603
X262.151Y-178.101
X262.151Y-230.501
X263.197Y-84.45
X263.197Y-136.852
X263.247Y-189.35
X263.247Y-241.75
X265.737Y-84.45
X265.737Y-136.852
X265.787Y-189.35
X265.787Y-241.75
X270.046Y-43.25
X270.046Y-95.652
X270.096Y-148.15
X270.096Y-200.55
X272.586Y-43.25
X272.586Y-95.652
X272.636Y-148.15
X272.636Y-200.55
X273.683Y-73.201
X273.683Y-125.603
X273.733Y-178.101
X273.733Y-230.501
X275.126Y-43.25
X275.126Y-95.652
X275.176Y-148.15
X275.176Y-200.55
X276.223Y-73.201
X276.223Y-125.603
X276.273Y-178.101
X276.273Y-230.501
X276.45Y-47.0
X276.45Y-49.54
X276.45Y-99.402
X276.45Y-101.942
X276.5Y-151.9
X276.5Y-154.44
X276.5Y-204.3
X276.5Y-206.84
X276.55Y-76.926
X276.55Y-79.466
X276.55Y-129.328
X276.55Y-131.868
X276.6Y-181.826
X276.6Y-184.366
X276.6Y-234.226
X276.6Y-236.766
X278.763Y-73.201
X278.763Y-125.603
X278.813Y-178.101
X278.813Y-230.501
X278.99Y-47.0
X278.99Y-49.54
X278.99Y-99.402
X278.99Y-101.942
X279.04Y-151.9
X279.04Y-154.44
X279.04Y-204.3
X279.04Y-206.84
X279.09Y-76.926
X279.09Y-79.466
X279.09Y-129.328
X279.09Y-131.868
X279.14Y-181.826
X279.14Y-184.366
X279.14Y-234.226
X279.14Y-236.766
X306.61Y-148.034
X306.61Y-150.574
X309.15Y-148.034
X309.15Y-150.574
X312.85Y-145.094
X312.85Y-147.634
X312.85Y-150.174
X312.85Y-161.757
X312.85Y-164.297
X312.85Y-166.837
X312.85Y-178.419
X312.85Y-180.959
X312.85Y-183.499
X312.85Y-195.082
X312.85Y-197.622
X312.85Y-200.162
X312.85Y-211.744
X312.85Y-214.284
X312.85Y-216.824
X312.85Y-228.406
X312.85Y-230.946
X312.85Y-233.486
X317.834Y-244.299
X317.834Y-246.839
X317.859Y-148.034
X317.859Y-150.574
X320.374Y-244.299
X320.374Y-246.839
X320.399Y-148.034
X320.399Y-150.574
X324.099Y-141.458
X324.099Y-143.998
X324.099Y-146.538
X324.099Y-158.12
X324.099Y-160.66
X324.099Y-163.2
X324.099Y-208.107
X324.099Y-210.647
X324.099Y-213.187
X324.099Y-224.77
X324.099Y-227.31
X324.099Y-229.85
X324.099Y-241.432
X324.099Y-243.972
X324.099Y-246.512
X324.1Y-174.774
X324.1Y-177.314
X324.1Y-179.854
X324.1Y-191.574
X324.1Y-194.114
X324.1Y-196.654
X347.76Y-244.199
X347.76Y-246.739
X350.3Y-244.199
X350.3Y-246.739
X354.05Y-154.483
X354.05Y-157.023
X354.05Y-159.563
X354.05Y-171.146
X354.05Y-173.686
X354.05Y-176.226
X354.05Y-187.808
X354.05Y-190.348
X354.05Y-192.888
X354.05Y-204.47
X354.05Y-207.01
X354.05Y-209.55
X354.05Y-221.133
X354.05Y-223.673
X354.05Y-226.213
X354.05Y-237.795
X354.05Y-240.335
X354.05Y-242.875
T6
X67.825Y-67.199
X67.825Y-119.601
X67.875Y-172.099
X67.875Y-224.499
X75.575Y-67.199
X75.575Y-119.601
X75.625Y-172.099
X75.625Y-224.499
X84.65Y-46.999
X84.65Y-66.499
X84.65Y-99.401
X84.65Y-118.901
X84.7Y-151.899
X84.7Y-171.399
X84.7Y-204.299
X84.7Y-223.799
X134.65Y-46.999
X134.65Y-66.499
X134.65Y-99.401
X134.65Y-118.901
X134.7Y-151.899
X134.7Y-171.399
X134.7Y-204.299
X134.7Y-223.799
X180.875Y-67.2
X180.875Y-119.602
X180.925Y-172.1
X180.925Y-224.5
X188.625Y-67.2
X188.625Y-119.602
X188.675Y-172.1
X188.675Y-224.5
X197.7Y-47.0
X197.7Y-66.5
X197.7Y-99.402
X197.7Y-118.902
X197.75Y-151.9
X197.75Y-171.4
X197.75Y-204.3
X197.75Y-223.8
X247.7Y-47.0
X247.7Y-66.5
X247.7Y-99.402
X247.7Y-118.902
X247.75Y-151.9
X247.75Y-171.4
X247.75Y-204.3
X247.75Y-223.8
X330.1Y-148.624
X330.1Y-156.374
X330.8Y-165.449
X330.8Y-215.449
X350.3Y-165.449
X350.3Y-215.449
T5
G00X60.0Y-54.948
M15
G01X60.0Y-52.748
M16
G05
G00X60.0Y-107.35
M15
G01X60.0Y-105.15
M16
G05
G00X60.05Y-159.848
M15
G01X60.05Y-157.648
M16
G05
G00X60.05Y-212.248
M15
G01X60.05Y-210.048
M16
G05
G00X65.9Y-50.448
M15
G01X63.7Y-50.448
M16
G05
G00X66.1Y-56.748
M15
G01X63.5Y-56.748
M16
G05
G00X65.9Y-102.85
M15
G01X63.7Y-102.85
M16
G05
G00X66.1Y-109.15
M15
G01X63.5Y-109.15
M16
G05
G00X65.95Y-155.348
M15
G01X63.75Y-155.348
M16
G05
G00X66.15Y-161.648
M15
G01X63.55Y-161.648
M16
G05
G00X65.95Y-207.748
M15
G01X63.75Y-207.748
M16
G05
G00X66.15Y-214.048
M15
G01X63.55Y-214.048
M16
G05
G00X173.05Y-54.949
M15
G01X173.05Y-52.749
M16
G05
G00X173.05Y-107.351
M15
G01X173.05Y-105.151
M16
G05
G00X173.1Y-159.849
M15
G01X173.1Y-157.649
M16
G05
G00X173.1Y-212.249
M15
G01X173.1Y-210.049
M16
G05
G00X178.95Y-50.449
M15
G01X176.75Y-50.449
M16
G05
G00X179.15Y-56.749
M15
G01X176.55Y-56.749
M16
G05
G00X178.95Y-102.851
M15
G01X176.75Y-102.851
M16
G05
G00X179.15Y-109.151
M15
G01X176.55Y-109.151
M16
G05
G00X179.0Y-155.349
M15
G01X176.8Y-155.349
M16
G05
G00X179.2Y-161.649
M15
G01X176.6Y-161.649
M16
G05
G00X179.0Y-207.749
M15
G01X176.8Y-207.749
M16
G05
G00X179.2Y-214.049
M15
G01X176.6Y-214.049
M16
G05
G00X340.551Y-146.899
M15
G01X340.551Y-144.299
M16
G05
G00X342.351Y-140.799
M15
G01X344.551Y-140.799
M16
G05
G00X346.851Y-146.699
M15
G01X346.851Y-144.499
M16
G05
M30
