M48
; DRILL file {KiCad 9.0.0} date 2025-07-23T13:38:37+0200
; FORMAT={-:-/ absolute / metric / decimal}
; #@! TF.CreationDate,2025-07-23T13:38:37+02:00
; #@! TF.GenerationSoftware,Kicad,Pcbnew,9.0.0
; #@! TF.FileFunction,NonPlated,1,2,NPTH
FMAT,2
METRIC
; #@! TA.AperFunction,NonPlated,NPTH,ComponentDrill
T1C3.200
%
G90
G05
T1
X60.9Y-64.999
X60.9Y-117.401
X60.95Y-169.899
X60.95Y-222.299
X74.95Y-88.149
X74.95Y-140.551
X75.0Y-193.049
X75.0Y-245.449
X87.9Y-76.85
X87.9Y-129.252
X87.95Y-181.75
X87.95Y-234.15
X120.9Y-46.999
X120.9Y-99.401
X120.95Y-151.899
X120.95Y-204.299
X164.95Y-88.149
X164.95Y-140.551
X165.0Y-193.049
X165.0Y-245.449
X173.95Y-65.0
X173.95Y-117.402
X174.0Y-169.9
X174.0Y-222.3
X188.0Y-88.15
X188.0Y-140.552
X188.05Y-193.05
X188.05Y-245.45
X200.95Y-76.851
X200.95Y-129.253
X201.0Y-181.751
X201.0Y-234.151
X233.95Y-47.0
X233.95Y-99.402
X234.0Y-151.9
X234.0Y-204.3
X278.0Y-88.15
X278.0Y-140.552
X278.05Y-193.05
X278.05Y-245.45
X309.15Y-155.749
X309.15Y-245.749
X320.449Y-168.699
X332.3Y-141.699
X350.3Y-201.699
M30
