%TF.GenerationSoftware,KiCad,Pcbnew,10.0.1*%
%TF.CreationDate,2026-07-09T21:11:53+02:00*%
%TF.ProjectId,WortuhrNeu,576f7274-7568-4724-9e65-752e6b696361,rev?*%
%TF.SameCoordinates,Original*%
%TF.FileFunction,Profile,NP*%
%FSLAX46Y46*%
G04 Gerber Fmt 4.6, Leading zero omitted, Abs format (unit mm)*
G04 Created by KiCad (PCBNEW 10.0.1) date 2026-07-09 21:11:53*
%MOMM*%
%LPD*%
G01*
G04 APERTURE LIST*
%TA.AperFunction,Profile*%
%ADD10C,0.050000*%
%TD*%
G04 APERTURE END LIST*
D10*
X378982765Y-169172000D02*
G75*
G02*
X378982765Y-170172000I-8000J-500000D01*
G01*
X344440000Y-170180000D02*
G75*
G02*
X344440000Y-169180000I8000J500000D01*
G01*
X344440000Y-170180000D02*
X378982765Y-170172000D01*
X244348000Y-170180000D02*
G75*
G02*
X244348000Y-169180000I8000J500000D01*
G01*
X294640000Y-170180000D02*
X342900000Y-170180000D01*
X292608000Y-169180000D02*
G75*
G02*
X292608000Y-170180000I-8000J-500000D01*
G01*
X294640000Y-169180000D02*
X342900000Y-169180000D01*
X244348000Y-169180000D02*
X292608000Y-169180000D01*
X244348000Y-170180000D02*
X292608000Y-170180000D01*
X342900000Y-169180000D02*
G75*
G02*
X342900000Y-170180000I-8000J-500000D01*
G01*
X294640000Y-170180000D02*
G75*
G02*
X294640000Y-169180000I8000J500000D01*
G01*
X194056000Y-169180000D02*
X242316000Y-169180000D01*
X143764000Y-169180000D02*
X192024000Y-169180000D01*
X143764000Y-170180000D02*
G75*
G02*
X143764000Y-169180000I8000J500000D01*
G01*
X143764000Y-170180000D02*
X192024000Y-170180000D01*
X192024000Y-169180000D02*
G75*
G02*
X192024000Y-170180000I-8000J-500000D01*
G01*
X194056000Y-170180000D02*
X242316000Y-170180000D01*
X242316000Y-169180000D02*
G75*
G02*
X242316000Y-170180000I-8000J-500000D01*
G01*
X194056000Y-170180000D02*
G75*
G02*
X194056000Y-169180000I8000J500000D01*
G01*
X93472000Y-170180000D02*
X141732000Y-170180000D01*
X93472000Y-170180000D02*
G75*
G02*
X93472000Y-169180000I8000J500000D01*
G01*
X93472000Y-169180000D02*
X141732000Y-169180000D01*
X141732000Y-169180000D02*
G75*
G02*
X141732000Y-170180000I-8000J-500000D01*
G01*
X43180000Y-170180000D02*
G75*
G02*
X43180000Y-169180000I8000J500000D01*
G01*
X91440000Y-169180000D02*
G75*
G02*
X91440000Y-170180000I-8000J-500000D01*
G01*
X43180000Y-169180000D02*
X91440000Y-169180000D01*
X43180000Y-170180000D02*
X91440000Y-170180000D01*
X41750000Y-140500000D02*
X380750000Y-140500000D01*
X41750000Y-181000000D02*
X41750000Y-140500000D01*
X374440000Y-149750000D02*
X374440000Y-166300000D01*
X374440000Y-166300000D02*
X380750000Y-166700000D01*
X380750000Y-149200000D02*
X374440000Y-149750000D01*
X380750000Y-149200000D02*
X380750000Y-140500000D01*
X380750000Y-166700000D02*
X380750000Y-181000000D01*
X380750000Y-181000000D02*
X41750000Y-181000000D01*
X344440000Y-169180000D02*
X378982765Y-169172000D01*
M02*
