<?xml version="1.0" encoding="UTF-8" standalone="no"?>
<!-- Created with Inkscape (http://www.inkscape.org/) -->

<svg
   version="1.1"
   id="svg1"
   width="1324"
   height="1324"
   viewBox="0 0 1324 1324"
   sodipodi:docname="baseplate_drills.svg"
   inkscape:version="1.3 (0e150ed6c4, 2023-07-21)"
   xmlns:inkscape="http://www.inkscape.org/namespaces/inkscape"
   xmlns:sodipodi="http://sodipodi.sourceforge.net/DTD/sodipodi-0.dtd"
   xmlns="http://www.w3.org/2000/svg"
   xmlns:svg="http://www.w3.org/2000/svg">
  <defs
     id="defs1" />
  <sodipodi:namedview
     id="namedview1"
     pagecolor="#ffffff"
     bordercolor="#000000"
     borderopacity="0.25"
     inkscape:showpageshadow="2"
     inkscape:pageopacity="0.0"
     inkscape:pagecheckerboard="0"
     inkscape:deskcolor="#d1d1d1"
     inkscape:zoom="0.71861345"
     inkscape:cx="716.65789"
     inkscape:cy="714.57053"
     inkscape:window-width="2880"
     inkscape:window-height="1814"
     inkscape:window-x="-11"
     inkscape:window-y="-11"
     inkscape:window-maximized="1"
     inkscape:current-layer="g1">
    <inkscape:page
       x="0"
       y="0"
       id="page1"
       width="1324"
       height="1324"
       margin="0"
       bleed="0" />
  </sodipodi:namedview>
  <g
     id="g1"
     inkscape:groupmode="layer"
     inkscape:label="">
    <path
       id="path2"
       d="M 1319.4579,-0.1141445 H -0.1141445 V 1319.4579 H 1319.4579 Z"
       style="fill:#ffffff;fill-opacity:1;fill-rule:nonzero;stroke:#00ffff;stroke-width:3.26255;stroke-linecap:round;stroke-linejoin:round;stroke-miterlimit:2;stroke-dasharray:none;stroke-opacity:1;paint-order:stroke fill markers" />
    <path
       style="fill:none;stroke:#ff0000;stroke-width:0.377953;stroke-linecap:round;stroke-linejoin:round;stroke-miterlimit:2;stroke-dasharray:none;stroke-opacity:1;paint-order:stroke fill markers"
       id="path1"
       sodipodi:type="arc"
       sodipodi:cx="-1118.8688"
       sodipodi:cy="37.95525"
       sodipodi:rx="18.868635"
       sodipodi:ry="18.868631"
       sodipodi:start="0"
       sodipodi:end="6.2765103"
       sodipodi:open="true"
       sodipodi:arc-type="arc"
       d="m -1100.0001,37.95525 a 18.868635,18.868631 0 0 1 -18.8372,18.868605 18.868635,18.868631 0 0 1 -18.9,-18.805631 18.868635,18.868631 0 0 1 18.7741,-18.931369 18.868635,18.868631 0 0 1 18.9626,18.742447"
       transform="scale(-1,1)" />
    <path
       style="fill:none;stroke:#ff0000;stroke-width:0.377953;stroke-linecap:round;stroke-linejoin:round;stroke-miterlimit:2;stroke-dasharray:none;stroke-opacity:1;paint-order:stroke fill markers"
       id="path3"
       sodipodi:type="arc"
       sodipodi:cx="-1056.5066"
       sodipodi:cy="37.95525"
       sodipodi:rx="18.868635"
       sodipodi:ry="18.868631"
       sodipodi:start="0"
       sodipodi:end="6.2765103"
       sodipodi:open="true"
       sodipodi:arc-type="arc"
       d="m -1037.638,37.95525 a 18.868635,18.868631 0 0 1 -18.8371,18.868605 18.868635,18.868631 0 0 1 -18.9,-18.805631 18.868635,18.868631 0 0 1 18.774,-18.931369 18.868635,18.868631 0 0 1 18.9627,18.742447"
       transform="scale(-1,1)" />
    <path
       style="fill:none;stroke:#ff0000;stroke-width:0.56217;stroke-linecap:round;stroke-linejoin:round;stroke-miterlimit:2;stroke-dasharray:none;stroke-opacity:1;paint-order:stroke fill markers"
       id="path3-8"
       sodipodi:type="arc"
       sodipodi:cx="-1234.3044"
       sodipodi:cy="1245.3544"
       sodipodi:rx="28.06535"
       sodipodi:ry="28.065371"
       sodipodi:start="0"
       sodipodi:end="6.2765103"
       sodipodi:open="true"
       sodipodi:arc-type="arc"
       d="m -1206.2391,1245.3544 a 28.06535,28.065371 0 0 1 -28.0185,28.0653 28.06535,28.065371 0 0 1 -28.112,-27.9717 28.06535,28.065371 0 0 1 27.9247,-28.1586 28.06535,28.065371 0 0 1 28.2052,27.8776"
       transform="scale(-1,1)" />
  </g>
</svg>
