G04 #@! TF.GenerationSoftware,KiCad,Pcbnew,9.0.0*
G04 #@! TF.CreationDate,2025-07-21T20:03:55+02:00*
G04 #@! TF.ProjectId,PowerPCB,506f7765-7250-4434-922e-6b696361645f,rev?*
G04 #@! TF.SameCoordinates,Original*
G04 #@! TF.FileFunction,Copper,L2,Bot*
G04 #@! TF.FilePolarity,Positive*
%FSLAX46Y46*%
G04 Gerber Fmt 4.6, Leading zero omitted, Abs format (unit mm)*
G04 Created by KiCad (PCBNEW 9.0.0) date 2025-07-21 20:03:55*
%MOMM*%
%LPD*%
G01*
G04 APERTURE LIST*
G04 #@! TA.AperFunction,ComponentPad*
%ADD10R,1.700000X1.700000*%
G04 #@! TD*
G04 #@! TA.AperFunction,ComponentPad*
%ADD11O,1.700000X1.700000*%
G04 #@! TD*
G04 #@! TA.AperFunction,ComponentPad*
%ADD12R,1.600000X1.600000*%
G04 #@! TD*
G04 #@! TA.AperFunction,ComponentPad*
%ADD13C,1.600000*%
G04 #@! TD*
G04 #@! TA.AperFunction,ComponentPad*
%ADD14R,4.000000X4.000000*%
G04 #@! TD*
G04 #@! TA.AperFunction,ComponentPad*
%ADD15C,2.400000*%
G04 #@! TD*
G04 #@! TA.AperFunction,ComponentPad*
%ADD16R,4.600000X2.000000*%
G04 #@! TD*
G04 #@! TA.AperFunction,ComponentPad*
%ADD17O,4.200000X2.000000*%
G04 #@! TD*
G04 #@! TA.AperFunction,ComponentPad*
%ADD18O,2.000000X4.200000*%
G04 #@! TD*
G04 #@! TA.AperFunction,ComponentPad*
%ADD19R,1.800000X1.800000*%
G04 #@! TD*
G04 #@! TA.AperFunction,ComponentPad*
%ADD20O,1.800000X1.800000*%
G04 #@! TD*
G04 #@! TA.AperFunction,ComponentPad*
%ADD21C,1.710000*%
G04 #@! TD*
G04 #@! TA.AperFunction,ViaPad*
%ADD22C,1.200000*%
G04 #@! TD*
G04 #@! TA.AperFunction,Conductor*
%ADD23C,2.000000*%
G04 #@! TD*
G04 #@! TA.AperFunction,Conductor*
%ADD24C,0.300000*%
G04 #@! TD*
G04 #@! TA.AperFunction,Conductor*
%ADD25C,0.500000*%
G04 #@! TD*
%ADD26C,0.350000*%
%ADD27O,3.600000X1.000000*%
%ADD28O,3.200000X1.000000*%
%ADD29O,1.000000X3.200000*%
G04 APERTURE END LIST*
D10*
G04 #@! TO.P,X3,1,Pin_1*
G04 #@! TO.N,+5V*
X108109000Y-33250000D03*
D11*
G04 #@! TO.P,X3,2,Pin_2*
G04 #@! TO.N,Net-(X2-Pin_2)*
X110649000Y-33250000D03*
G04 #@! TO.P,X3,3,Pin_3*
G04 #@! TO.N,GND*
X113189000Y-33250000D03*
G04 #@! TD*
D10*
G04 #@! TO.P,X15,1,Pin_1*
G04 #@! TO.N,+5V3*
X82057800Y-74450000D03*
D11*
G04 #@! TO.P,X15,2,Pin_2*
G04 #@! TO.N,Net-(X14-Pin_2)*
X84597800Y-74450000D03*
G04 #@! TO.P,X15,3,Pin_3*
G04 #@! TO.N,GND3*
X87137800Y-74450000D03*
G04 #@! TD*
D12*
G04 #@! TO.P,C1,1*
G04 #@! TO.N,+5V2*
X103397349Y-66600000D03*
D13*
G04 #@! TO.P,C1,2*
G04 #@! TO.N,GND2*
X108397349Y-66600000D03*
G04 #@! TD*
D12*
G04 #@! TO.P,C2,1*
G04 #@! TO.N,+5V3*
X107197349Y-78200000D03*
D13*
G04 #@! TO.P,C2,2*
G04 #@! TO.N,GND3*
X112197349Y-78200000D03*
G04 #@! TD*
D10*
G04 #@! TO.P,J3,1,Pin_1*
G04 #@! TO.N,GND2*
X164600000Y-66926000D03*
D11*
X167140000Y-69466000D03*
G04 #@! TO.P,J3,2,Pin_2*
G04 #@! TO.N,unconnected-(J3-Pin_2-Pad2)*
X167140000Y-66926000D03*
G04 #@! TO.P,J3,3,Pin_3*
G04 #@! TO.N,+5V2*
X164600000Y-69466000D03*
G04 #@! TD*
D10*
G04 #@! TO.P,X11,1,Pin_1*
G04 #@! TO.N,+5V2*
X128408200Y-63201000D03*
D11*
G04 #@! TO.P,X11,2,Pin_2*
G04 #@! TO.N,Net-(X10-Pin_2)*
X130948200Y-63201000D03*
G04 #@! TO.P,X11,3,Pin_3*
G04 #@! TO.N,GND2*
X133488200Y-63201000D03*
G04 #@! TD*
D14*
G04 #@! TO.P,U1,1,IN*
G04 #@! TO.N,Net-(U1-IN)*
X85750000Y-37000000D03*
G04 #@! TO.P,U1,2,GND*
G04 #@! TO.N,GND*
X85750000Y-56500000D03*
X135750000Y-56500000D03*
G04 #@! TO.P,U1,3,OUT*
G04 #@! TO.N,+5V*
X135750000Y-37000000D03*
G04 #@! TD*
D10*
G04 #@! TO.P,X14,1,Pin_1*
G04 #@! TO.N,GND3*
X65395400Y-74450000D03*
D11*
G04 #@! TO.P,X14,2,Pin_2*
G04 #@! TO.N,Net-(X14-Pin_2)*
X67935400Y-74450000D03*
G04 #@! TO.P,X14,3,Pin_3*
G04 #@! TO.N,+5V3*
X70475400Y-74450000D03*
G04 #@! TD*
D10*
G04 #@! TO.P,X17,1,Pin_1*
G04 #@! TO.N,+5V3*
X115382600Y-74450000D03*
D11*
G04 #@! TO.P,X17,2,Pin_2*
G04 #@! TO.N,Net-(X16-Pin_2)*
X117922600Y-74450000D03*
G04 #@! TO.P,X17,3,Pin_3*
G04 #@! TO.N,GND3*
X120462600Y-74450000D03*
G04 #@! TD*
D10*
G04 #@! TO.P,X7,1,Pin_1*
G04 #@! TO.N,+5V2*
X61758600Y-63201000D03*
D11*
G04 #@! TO.P,X7,2,Pin_2*
G04 #@! TO.N,Net-(J4-Pin_2)*
X64298600Y-63201000D03*
G04 #@! TO.P,X7,3,Pin_3*
G04 #@! TO.N,GND2*
X66838600Y-63201000D03*
G04 #@! TD*
D10*
G04 #@! TO.P,X1,1,Pin_1*
G04 #@! TO.N,+5V*
X74784200Y-33250000D03*
D11*
G04 #@! TO.P,X1,2,Pin_2*
G04 #@! TO.N,unconnected-(X1-Pin_2-Pad2)*
X77324200Y-33250000D03*
G04 #@! TO.P,X1,3,Pin_3*
G04 #@! TO.N,GND*
X79864200Y-33250000D03*
G04 #@! TD*
D15*
G04 #@! TO.P,TH1,1*
G04 #@! TO.N,Net-(D1-K)*
X68925000Y-57200000D03*
G04 #@! TO.P,TH1,2*
G04 #@! TO.N,Net-(U1-IN)*
X76675000Y-57200000D03*
G04 #@! TD*
D11*
G04 #@! TO.P,J4,1,Pin_1*
G04 #@! TO.N,GND2*
X68335000Y-69441000D03*
D10*
X70875000Y-66901000D03*
D11*
G04 #@! TO.P,J4,2,Pin_2*
G04 #@! TO.N,Net-(J4-Pin_2)*
X68335000Y-66901000D03*
G04 #@! TO.P,J4,3,Pin_3*
G04 #@! TO.N,+5V2*
X70875000Y-69441000D03*
G04 #@! TD*
D16*
G04 #@! TO.P,J1,1*
G04 #@! TO.N,Net-(F1-Pad1)*
X65900000Y-46749000D03*
D17*
G04 #@! TO.P,J1,2*
G04 #@! TO.N,GND*
X65900000Y-40449000D03*
D18*
G04 #@! TO.P,J1,MP,MountPin*
X61100000Y-43849000D03*
G04 #@! TD*
D10*
G04 #@! TO.P,X16,1,Pin_1*
G04 #@! TO.N,GND3*
X98720200Y-74450000D03*
D11*
G04 #@! TO.P,X16,2,Pin_2*
G04 #@! TO.N,Net-(X16-Pin_2)*
X101260200Y-74450000D03*
G04 #@! TO.P,X16,3,Pin_3*
G04 #@! TO.N,+5V3*
X103800200Y-74450000D03*
G04 #@! TD*
D10*
G04 #@! TO.P,X9,1,Pin_1*
G04 #@! TO.N,+5V2*
X95075000Y-63200000D03*
D11*
G04 #@! TO.P,X9,2,Pin_2*
G04 #@! TO.N,Net-(X8-Pin_2)*
X97615000Y-63200000D03*
G04 #@! TO.P,X9,3,Pin_3*
G04 #@! TO.N,GND2*
X100155000Y-63200000D03*
G04 #@! TD*
D10*
G04 #@! TO.P,X8,1,Pin_1*
G04 #@! TO.N,GND2*
X78421000Y-63201000D03*
D11*
G04 #@! TO.P,X8,2,Pin_2*
G04 #@! TO.N,Net-(X8-Pin_2)*
X80961000Y-63201000D03*
G04 #@! TO.P,X8,3,Pin_3*
G04 #@! TO.N,+5V2*
X83501000Y-63201000D03*
G04 #@! TD*
D19*
G04 #@! TO.P,D1,1,K*
G04 #@! TO.N,Net-(D1-K)*
X75600000Y-46045000D03*
D20*
G04 #@! TO.P,D1,2,A*
G04 #@! TO.N,GND*
X75600000Y-43505000D03*
G04 #@! TD*
D10*
G04 #@! TO.P,X5,1,Pin_1*
G04 #@! TO.N,+5V*
X141433800Y-33250000D03*
D11*
G04 #@! TO.P,X5,2,Pin_2*
G04 #@! TO.N,Net-(X4-Pin_2)*
X143973800Y-33250000D03*
G04 #@! TO.P,X5,3,Pin_3*
G04 #@! TO.N,GND*
X146513800Y-33250000D03*
G04 #@! TD*
D10*
G04 #@! TO.P,X4,1,Pin_1*
G04 #@! TO.N,GND*
X124771400Y-33250000D03*
D11*
G04 #@! TO.P,X4,2,Pin_2*
G04 #@! TO.N,Net-(X4-Pin_2)*
X127311400Y-33250000D03*
G04 #@! TO.P,X4,3,Pin_3*
G04 #@! TO.N,+5V*
X129851400Y-33250000D03*
G04 #@! TD*
G04 #@! TO.P,J5,1,Pin_1*
G04 #@! TO.N,GND3*
X68335000Y-80690000D03*
D10*
X70875000Y-78150000D03*
D11*
G04 #@! TO.P,J5,2,Pin_2*
G04 #@! TO.N,unconnected-(J5-Pin_2-Pad2)*
X68335000Y-78150000D03*
G04 #@! TO.P,J5,3,Pin_3*
G04 #@! TO.N,+5V3*
X70875000Y-80690000D03*
G04 #@! TD*
D10*
G04 #@! TO.P,J2,1,Pin_1*
G04 #@! TO.N,GND*
X164500000Y-37000000D03*
D11*
X167040000Y-39540000D03*
G04 #@! TO.P,J2,2,Pin_2*
G04 #@! TO.N,Net-(J2-Pin_2)*
X167040000Y-37000000D03*
G04 #@! TO.P,J2,3,Pin_3*
G04 #@! TO.N,+5V*
X164500000Y-39540000D03*
G04 #@! TD*
D10*
G04 #@! TO.P,X6,1,Pin_1*
G04 #@! TO.N,GND*
X158096200Y-33250000D03*
D11*
G04 #@! TO.P,X6,2,Pin_2*
G04 #@! TO.N,Net-(J2-Pin_2)*
X160636200Y-33250000D03*
G04 #@! TO.P,X6,3,Pin_3*
G04 #@! TO.N,+5V*
X163176200Y-33250000D03*
G04 #@! TD*
D10*
G04 #@! TO.P,X13,1,Pin_1*
G04 #@! TO.N,+5V2*
X161733000Y-63201000D03*
D11*
G04 #@! TO.P,X13,2,Pin_2*
G04 #@! TO.N,Net-(X12-Pin_2)*
X164273000Y-63201000D03*
G04 #@! TO.P,X13,3,Pin_3*
G04 #@! TO.N,GND2*
X166813000Y-63201000D03*
G04 #@! TD*
D10*
G04 #@! TO.P,X12,1,Pin_1*
G04 #@! TO.N,GND2*
X145070600Y-63201000D03*
D11*
G04 #@! TO.P,X12,2,Pin_2*
G04 #@! TO.N,Net-(X12-Pin_2)*
X147610600Y-63201000D03*
G04 #@! TO.P,X12,3,Pin_3*
G04 #@! TO.N,+5V2*
X150150600Y-63201000D03*
G04 #@! TD*
D10*
G04 #@! TO.P,X10,1,Pin_1*
G04 #@! TO.N,GND2*
X111875000Y-63200000D03*
D11*
G04 #@! TO.P,X10,2,Pin_2*
G04 #@! TO.N,Net-(X10-Pin_2)*
X114415000Y-63200000D03*
G04 #@! TO.P,X10,3,Pin_3*
G04 #@! TO.N,+5V2*
X116955000Y-63200000D03*
G04 #@! TD*
D10*
G04 #@! TO.P,X19,1,Pin_1*
G04 #@! TO.N,+5V3*
X148707400Y-74450000D03*
D11*
G04 #@! TO.P,X19,2,Pin_2*
G04 #@! TO.N,Net-(X18-Pin_2)*
X151247400Y-74450000D03*
G04 #@! TO.P,X19,3,Pin_3*
G04 #@! TO.N,GND3*
X153787400Y-74450000D03*
G04 #@! TD*
D21*
G04 #@! TO.P,F1,1*
G04 #@! TO.N,Net-(F1-Pad1)*
X69600000Y-50200000D03*
G04 #@! TO.P,F1,2*
G04 #@! TO.N,Net-(D1-K)*
X74700000Y-51400000D03*
G04 #@! TD*
D10*
G04 #@! TO.P,X18,1,Pin_1*
G04 #@! TO.N,GND3*
X132045000Y-74450000D03*
D11*
G04 #@! TO.P,X18,2,Pin_2*
G04 #@! TO.N,Net-(X18-Pin_2)*
X134585000Y-74450000D03*
G04 #@! TO.P,X18,3,Pin_3*
G04 #@! TO.N,+5V3*
X137125000Y-74450000D03*
G04 #@! TD*
D10*
G04 #@! TO.P,X2,1,Pin_1*
G04 #@! TO.N,GND*
X91446600Y-33250000D03*
D11*
G04 #@! TO.P,X2,2,Pin_2*
G04 #@! TO.N,Net-(X2-Pin_2)*
X93986600Y-33250000D03*
G04 #@! TO.P,X2,3,Pin_3*
G04 #@! TO.N,+5V*
X96526600Y-33250000D03*
G04 #@! TD*
D22*
G04 #@! TO.N,Net-(D1-K)*
X71700000Y-53500000D03*
G04 #@! TO.N,+5V*
X167800000Y-33200000D03*
G04 #@! TO.N,+5V2*
X122700000Y-63201000D03*
X100600000Y-66700000D03*
G04 #@! TO.N,+5V3*
X104900000Y-78200000D03*
X143300000Y-74450000D03*
X112900000Y-74400000D03*
X79600000Y-74500000D03*
G04 #@! TO.N,+5V2*
X59300000Y-63300000D03*
X89300000Y-63201000D03*
X156400000Y-63201000D03*
G04 #@! TO.N,+5V*
X136000000Y-33250000D03*
X103600000Y-33250000D03*
X72100000Y-33200000D03*
X140900000Y-39600000D03*
G04 #@! TO.N,Net-(U1-IN)*
X80800000Y-38100000D03*
G04 #@! TD*
D23*
G04 #@! TO.N,Net-(F1-Pad1)*
X69351000Y-50200000D02*
X65900000Y-46749000D01*
X69600000Y-50200000D02*
X69351000Y-50200000D01*
G04 #@! TO.N,Net-(D1-K)*
X71700000Y-53400000D02*
X71700000Y-53500000D01*
X73200000Y-51900000D02*
X71700000Y-53400000D01*
X74700000Y-51400000D02*
X73700000Y-51400000D01*
X73700000Y-51400000D02*
X73200000Y-51900000D01*
D24*
G04 #@! TO.N,Net-(X2-Pin_2)*
X109610000Y-31749000D02*
X95487600Y-31749000D01*
X95487600Y-31749000D02*
X93986600Y-33250000D01*
X110649000Y-32788000D02*
X109610000Y-31749000D01*
X110649000Y-33250000D02*
X110649000Y-32788000D01*
G04 #@! TO.N,Net-(X4-Pin_2)*
X128812400Y-31749000D02*
X127311400Y-33250000D01*
X143674881Y-31749000D02*
X128812400Y-31749000D01*
X143973800Y-32047919D02*
X143674881Y-31749000D01*
X143973800Y-33250000D02*
X143973800Y-32047919D01*
G04 #@! TO.N,Net-(J4-Pin_2)*
X67900000Y-65300000D02*
X68335000Y-65735000D01*
X64500000Y-65300000D02*
X67900000Y-65300000D01*
X64298600Y-65098600D02*
X64500000Y-65300000D01*
X64298600Y-63201000D02*
X64298600Y-65098600D01*
X68335000Y-65735000D02*
X68335000Y-66901000D01*
G04 #@! TO.N,Net-(X8-Pin_2)*
X82462000Y-61700000D02*
X80961000Y-63201000D01*
X97615000Y-61997919D02*
X97317081Y-61700000D01*
X97317081Y-61700000D02*
X82462000Y-61700000D01*
X97615000Y-63200000D02*
X97615000Y-61997919D01*
G04 #@! TO.N,Net-(X10-Pin_2)*
X129908200Y-61699000D02*
X115916000Y-61699000D01*
X130948200Y-62739000D02*
X129908200Y-61699000D01*
X130948200Y-63201000D02*
X130948200Y-62739000D01*
X115916000Y-61699000D02*
X114415000Y-63200000D01*
G04 #@! TO.N,Net-(X12-Pin_2)*
X163974081Y-61700000D02*
X149111600Y-61700000D01*
X164273000Y-61998919D02*
X163974081Y-61700000D01*
X149111600Y-61700000D02*
X147610600Y-63201000D01*
X164273000Y-63201000D02*
X164273000Y-61998919D01*
G04 #@! TO.N,Net-(X14-Pin_2)*
X69436400Y-72949000D02*
X67935400Y-74450000D01*
X83558800Y-72949000D02*
X69436400Y-72949000D01*
X84597800Y-73988000D02*
X83558800Y-72949000D01*
X84597800Y-74450000D02*
X84597800Y-73988000D01*
G04 #@! TO.N,Net-(X16-Pin_2)*
X102761200Y-72949000D02*
X101260200Y-74450000D01*
X117623681Y-72949000D02*
X102761200Y-72949000D01*
X117922600Y-73247919D02*
X117623681Y-72949000D01*
X117922600Y-74450000D02*
X117922600Y-73247919D01*
G04 #@! TO.N,Net-(X18-Pin_2)*
X136086000Y-72949000D02*
X134585000Y-74450000D01*
X150208400Y-72949000D02*
X136086000Y-72949000D01*
X151247400Y-73988000D02*
X150208400Y-72949000D01*
X151247400Y-74450000D02*
X151247400Y-73988000D01*
D25*
G04 #@! TO.N,+5V*
X103600000Y-33250000D02*
X108109000Y-33250000D01*
X103600000Y-33250000D02*
X96526600Y-33250000D01*
X136000000Y-33250000D02*
X141433800Y-33250000D01*
X136000000Y-33250000D02*
X129851400Y-33250000D01*
X167750000Y-33250000D02*
X167800000Y-33200000D01*
X163176200Y-33250000D02*
X167750000Y-33250000D01*
G04 #@! TO.N,+5V2*
X92900000Y-63200000D02*
X95075000Y-63200000D01*
X92899000Y-63201000D02*
X92900000Y-63200000D01*
X89300000Y-63201000D02*
X92899000Y-63201000D01*
X89300000Y-63201000D02*
X83501000Y-63201000D01*
X128408200Y-63201000D02*
X122700000Y-63201000D01*
X122700000Y-63201000D02*
X116956000Y-63201000D01*
X116956000Y-63201000D02*
X116955000Y-63200000D01*
X156400000Y-63201000D02*
X150150600Y-63201000D01*
X156400000Y-63201000D02*
X161733000Y-63201000D01*
G04 #@! TO.N,+5V3*
X72110000Y-80690000D02*
X70875000Y-80690000D01*
X73000000Y-79800000D02*
X72110000Y-80690000D01*
X73000000Y-74450000D02*
X73000000Y-79800000D01*
X73000000Y-74450000D02*
X79550000Y-74450000D01*
G04 #@! TO.N,GND3*
X66210000Y-80690000D02*
X68335000Y-80690000D01*
X66100000Y-80800000D02*
X66210000Y-80690000D01*
X65395400Y-80095400D02*
X66100000Y-80800000D01*
X65395400Y-74450000D02*
X65395400Y-80095400D01*
G04 #@! TO.N,+5V3*
X79550000Y-74450000D02*
X79600000Y-74500000D01*
X70475400Y-74450000D02*
X73000000Y-74450000D01*
X103800200Y-74450000D02*
X112850000Y-74450000D01*
X112850000Y-74450000D02*
X112900000Y-74400000D01*
X143300000Y-74450000D02*
X148707400Y-74450000D01*
X143300000Y-74450000D02*
X137125000Y-74450000D01*
G04 #@! TO.N,+5V2*
X100700000Y-66600000D02*
X100600000Y-66700000D01*
X103397349Y-66600000D02*
X100700000Y-66600000D01*
G04 #@! TO.N,+5V3*
X107197349Y-78200000D02*
X104900000Y-78200000D01*
X112950000Y-74450000D02*
X112900000Y-74400000D01*
X115382600Y-74450000D02*
X112950000Y-74450000D01*
X79650000Y-74450000D02*
X79600000Y-74500000D01*
X82057800Y-74450000D02*
X79650000Y-74450000D01*
G04 #@! TO.N,+5V2*
X59399000Y-63201000D02*
X59300000Y-63300000D01*
X61758600Y-63201000D02*
X59399000Y-63201000D01*
G04 #@! TO.N,+5V*
X72150000Y-33250000D02*
X72100000Y-33200000D01*
X74784200Y-33250000D02*
X72150000Y-33250000D01*
D23*
X138300000Y-37000000D02*
X140900000Y-39600000D01*
X135750000Y-37000000D02*
X138300000Y-37000000D01*
G04 #@! TO.N,Net-(U1-IN)*
X81900000Y-37000000D02*
X80800000Y-38100000D01*
X85750000Y-37000000D02*
X81900000Y-37000000D01*
D25*
G04 #@! TO.N,unconnected-(J5-Pin_2-Pad2)*
X68335000Y-78150000D02*
X68000000Y-77815000D01*
D24*
G04 #@! TO.N,Net-(J2-Pin_2)*
X167040000Y-37000000D02*
X167040000Y-35797919D01*
X162137200Y-34751000D02*
X160636200Y-33250000D01*
X165993081Y-34751000D02*
X162137200Y-34751000D01*
X167040000Y-35797919D02*
X165993081Y-34751000D01*
G04 #@! TD*
G04 #@! TA.AperFunction,Conductor*
G04 #@! TO.N,GND*
G36*
X94933830Y-31170185D02*
G01*
X94979585Y-31222989D01*
X94989529Y-31292147D01*
X94960504Y-31355703D01*
X94954472Y-31362181D01*
X94417310Y-31899342D01*
X94355987Y-31932827D01*
X94307845Y-31932315D01*
X94307655Y-31933516D01*
X94202711Y-31916894D01*
X94092887Y-31899500D01*
X93880313Y-31899500D01*
X93831642Y-31907208D01*
X93670360Y-31932753D01*
X93468185Y-31998444D01*
X93278779Y-32094951D01*
X93106813Y-32219890D01*
X92956490Y-32370213D01*
X92831551Y-32542179D01*
X92735044Y-32731585D01*
X92669353Y-32933760D01*
X92636100Y-33143713D01*
X92636100Y-33356286D01*
X92652162Y-33457701D01*
X92669354Y-33566243D01*
X92687615Y-33622445D01*
X92735044Y-33768414D01*
X92831551Y-33957820D01*
X92956490Y-34129786D01*
X93106813Y-34280109D01*
X93278779Y-34405048D01*
X93278781Y-34405049D01*
X93278784Y-34405051D01*
X93468188Y-34501557D01*
X93670357Y-34567246D01*
X93880313Y-34600500D01*
X93880314Y-34600500D01*
X94092886Y-34600500D01*
X94092887Y-34600500D01*
X94302843Y-34567246D01*
X94505012Y-34501557D01*
X94694416Y-34405051D01*
X94780738Y-34342335D01*
X94866386Y-34280109D01*
X94866388Y-34280106D01*
X94866392Y-34280104D01*
X95016704Y-34129792D01*
X95016706Y-34129788D01*
X95016709Y-34129786D01*
X95141648Y-33957820D01*
X95141647Y-33957820D01*
X95141651Y-33957816D01*
X95146114Y-33949054D01*
X95194088Y-33898259D01*
X95261908Y-33881463D01*
X95328044Y-33903999D01*
X95367086Y-33949056D01*
X95371551Y-33957820D01*
X95496490Y-34129786D01*
X95646813Y-34280109D01*
X95818779Y-34405048D01*
X95818781Y-34405049D01*
X95818784Y-34405051D01*
X96008188Y-34501557D01*
X96210357Y-34567246D01*
X96420313Y-34600500D01*
X96420314Y-34600500D01*
X96632886Y-34600500D01*
X96632887Y-34600500D01*
X96842843Y-34567246D01*
X97045012Y-34501557D01*
X97234416Y-34405051D01*
X97320738Y-34342335D01*
X97406386Y-34280109D01*
X97406388Y-34280106D01*
X97406392Y-34280104D01*
X97556704Y-34129792D01*
X97586040Y-34089414D01*
X97613503Y-34051615D01*
X97668833Y-34008949D01*
X97713821Y-34000500D01*
X102742796Y-34000500D01*
X102809835Y-34020185D01*
X102830477Y-34036819D01*
X102883072Y-34089414D01*
X103023212Y-34191232D01*
X103177555Y-34269873D01*
X103342299Y-34323402D01*
X103513389Y-34350500D01*
X103513390Y-34350500D01*
X103686610Y-34350500D01*
X103686611Y-34350500D01*
X103857701Y-34323402D01*
X104022445Y-34269873D01*
X104176788Y-34191232D01*
X104316928Y-34089414D01*
X104369523Y-34036819D01*
X104430846Y-34003334D01*
X104457204Y-34000500D01*
X106634501Y-34000500D01*
X106701540Y-34020185D01*
X106747295Y-34072989D01*
X106758501Y-34124500D01*
X106758501Y-34147876D01*
X106764908Y-34207483D01*
X106815202Y-34342328D01*
X106815206Y-34342335D01*
X106901452Y-34457544D01*
X106901455Y-34457547D01*
X107016664Y-34543793D01*
X107016671Y-34543797D01*
X107151517Y-34594091D01*
X107151516Y-34594091D01*
X107158444Y-34594835D01*
X107211127Y-34600500D01*
X109006872Y-34600499D01*
X109066483Y-34594091D01*
X109201331Y-34543796D01*
X109316546Y-34457546D01*
X109402796Y-34342331D01*
X109451810Y-34210916D01*
X109493681Y-34154984D01*
X109559145Y-34130566D01*
X109627418Y-34145417D01*
X109655673Y-34166569D01*
X109769213Y-34280109D01*
X109941179Y-34405048D01*
X109941181Y-34405049D01*
X109941184Y-34405051D01*
X110130588Y-34501557D01*
X110332757Y-34567246D01*
X110542713Y-34600500D01*
X110542714Y-34600500D01*
X110755286Y-34600500D01*
X110755287Y-34600500D01*
X110965243Y-34567246D01*
X111167412Y-34501557D01*
X111356816Y-34405051D01*
X111443138Y-34342335D01*
X111528786Y-34280109D01*
X111528788Y-34280106D01*
X111528792Y-34280104D01*
X111679104Y-34129792D01*
X111679106Y-34129788D01*
X111679109Y-34129786D01*
X111804048Y-33957820D01*
X111804047Y-33957820D01*
X111804051Y-33957816D01*
X111900557Y-33768412D01*
X111966246Y-33566243D01*
X111999500Y-33356287D01*
X111999500Y-33143713D01*
X111966246Y-32933757D01*
X111900557Y-32731588D01*
X111804051Y-32542184D01*
X111804049Y-32542181D01*
X111804048Y-32542179D01*
X111679109Y-32370213D01*
X111528786Y-32219890D01*
X111356820Y-32094951D01*
X111167414Y-31998444D01*
X111167413Y-31998443D01*
X111167412Y-31998443D01*
X110965243Y-31932754D01*
X110965241Y-31932753D01*
X110965240Y-31932753D01*
X110803957Y-31907208D01*
X110755287Y-31899500D01*
X110755286Y-31899500D01*
X110731808Y-31899500D01*
X110664769Y-31879815D01*
X110644127Y-31863181D01*
X110143128Y-31362181D01*
X110109643Y-31300858D01*
X110114627Y-31231166D01*
X110156499Y-31175233D01*
X110221963Y-31150816D01*
X110230809Y-31150500D01*
X128191591Y-31150500D01*
X128258630Y-31170185D01*
X128304385Y-31222989D01*
X128314329Y-31292147D01*
X128285304Y-31355703D01*
X128279272Y-31362181D01*
X127742110Y-31899342D01*
X127680787Y-31932827D01*
X127632645Y-31932315D01*
X127632455Y-31933516D01*
X127527511Y-31916894D01*
X127417687Y-31899500D01*
X127205113Y-31899500D01*
X127156442Y-31907208D01*
X126995160Y-31932753D01*
X126792985Y-31998444D01*
X126603579Y-32094951D01*
X126431613Y-32219890D01*
X126281290Y-32370213D01*
X126156351Y-32542179D01*
X126059844Y-32731585D01*
X125994153Y-32933760D01*
X125960900Y-33143713D01*
X125960900Y-33356286D01*
X125976962Y-33457701D01*
X125994154Y-33566243D01*
X126012415Y-33622445D01*
X126059844Y-33768414D01*
X126156351Y-33957820D01*
X126281290Y-34129786D01*
X126431613Y-34280109D01*
X126603579Y-34405048D01*
X126603581Y-34405049D01*
X126603584Y-34405051D01*
X126792988Y-34501557D01*
X126995157Y-34567246D01*
X127205113Y-34600500D01*
X127205114Y-34600500D01*
X127417686Y-34600500D01*
X127417687Y-34600500D01*
X127627643Y-34567246D01*
X127829812Y-34501557D01*
X128019216Y-34405051D01*
X128105538Y-34342335D01*
X128191186Y-34280109D01*
X128191188Y-34280106D01*
X128191192Y-34280104D01*
X128341504Y-34129792D01*
X128341506Y-34129788D01*
X128341509Y-34129786D01*
X128466448Y-33957820D01*
X128466447Y-33957820D01*
X128466451Y-33957816D01*
X128470914Y-33949054D01*
X128518888Y-33898259D01*
X128586708Y-33881463D01*
X128652844Y-33903999D01*
X128691886Y-33949056D01*
X128696351Y-33957820D01*
X128821290Y-34129786D01*
X128971613Y-34280109D01*
X129143579Y-34405048D01*
X129143581Y-34405049D01*
X129143584Y-34405051D01*
X129332988Y-34501557D01*
X129535157Y-34567246D01*
X129745113Y-34600500D01*
X129745114Y-34600500D01*
X129957686Y-34600500D01*
X129957687Y-34600500D01*
X130167643Y-34567246D01*
X130369812Y-34501557D01*
X130559216Y-34405051D01*
X130645538Y-34342335D01*
X130731186Y-34280109D01*
X130731188Y-34280106D01*
X130731192Y-34280104D01*
X130881504Y-34129792D01*
X130910840Y-34089414D01*
X130938303Y-34051615D01*
X130993633Y-34008949D01*
X131038621Y-34000500D01*
X135142796Y-34000500D01*
X135209835Y-34020185D01*
X135230477Y-34036819D01*
X135283072Y-34089414D01*
X135363534Y-34147873D01*
X135423213Y-34191233D01*
X135568020Y-34265015D01*
X135618817Y-34312989D01*
X135635612Y-34380810D01*
X135613075Y-34446945D01*
X135558360Y-34490397D01*
X135511726Y-34499500D01*
X133702129Y-34499500D01*
X133702123Y-34499501D01*
X133642516Y-34505908D01*
X133507671Y-34556202D01*
X133507664Y-34556206D01*
X133392455Y-34642452D01*
X133392452Y-34642455D01*
X133306206Y-34757664D01*
X133306202Y-34757671D01*
X133255908Y-34892517D01*
X133249501Y-34952116D01*
X133249501Y-34952123D01*
X133249500Y-34952135D01*
X133249500Y-39047870D01*
X133249501Y-39047876D01*
X133255908Y-39107483D01*
X133306202Y-39242328D01*
X133306206Y-39242335D01*
X133392452Y-39357544D01*
X133392455Y-39357547D01*
X133507664Y-39443793D01*
X133507671Y-39443797D01*
X133642517Y-39494091D01*
X133642516Y-39494091D01*
X133649444Y-39494835D01*
X133702127Y-39500500D01*
X137797872Y-39500499D01*
X137857483Y-39494091D01*
X137992331Y-39443796D01*
X138107546Y-39357546D01*
X138189080Y-39248631D01*
X138193794Y-39242334D01*
X138194410Y-39241207D01*
X138195318Y-39240298D01*
X138199112Y-39235231D01*
X138199840Y-39235776D01*
X138243814Y-39191801D01*
X138312087Y-39176948D01*
X138377551Y-39201363D01*
X138390924Y-39212951D01*
X139922490Y-40744517D01*
X140113566Y-40883343D01*
X140324008Y-40990568D01*
X140324010Y-40990569D01*
X140429370Y-41024802D01*
X140548631Y-41063552D01*
X140656673Y-41080663D01*
X140781903Y-41100499D01*
X140781908Y-41100499D01*
X141018097Y-41100499D01*
X141131184Y-41082587D01*
X141251368Y-41063552D01*
X141475992Y-40990568D01*
X141686433Y-40883343D01*
X141877510Y-40744517D01*
X142044517Y-40577510D01*
X142183343Y-40386433D01*
X142290568Y-40175992D01*
X142363552Y-39951368D01*
X142382587Y-39831184D01*
X142400499Y-39718097D01*
X142400499Y-39481903D01*
X142395167Y-39448240D01*
X142395167Y-39448239D01*
X142392866Y-39433713D01*
X163149500Y-39433713D01*
X163149500Y-39646287D01*
X163182754Y-39856243D01*
X163223964Y-39983075D01*
X163248444Y-40058414D01*
X163344951Y-40247820D01*
X163469890Y-40419786D01*
X163620213Y-40570109D01*
X163792179Y-40695048D01*
X163792181Y-40695049D01*
X163792184Y-40695051D01*
X163981588Y-40791557D01*
X164183757Y-40857246D01*
X164393713Y-40890500D01*
X164393714Y-40890500D01*
X164606286Y-40890500D01*
X164606287Y-40890500D01*
X164816243Y-40857246D01*
X165018412Y-40791557D01*
X165207816Y-40695051D01*
X165280845Y-40641993D01*
X165379786Y-40570109D01*
X165379788Y-40570106D01*
X165379792Y-40570104D01*
X165530104Y-40419792D01*
X165530106Y-40419788D01*
X165530109Y-40419786D01*
X165655048Y-40247820D01*
X165655047Y-40247820D01*
X165655051Y-40247816D01*
X165751557Y-40058412D01*
X165817246Y-39856243D01*
X165850500Y-39646287D01*
X165850500Y-39433713D01*
X165817246Y-39223757D01*
X165751557Y-39021588D01*
X165655051Y-38832184D01*
X165655049Y-38832181D01*
X165655048Y-38832179D01*
X165530109Y-38660213D01*
X165379786Y-38509890D01*
X165207820Y-38384951D01*
X165018414Y-38288444D01*
X165018413Y-38288443D01*
X165018412Y-38288443D01*
X164816243Y-38222754D01*
X164816241Y-38222753D01*
X164816240Y-38222753D01*
X164654957Y-38197208D01*
X164606287Y-38189500D01*
X164393713Y-38189500D01*
X164345042Y-38197208D01*
X164183760Y-38222753D01*
X163981585Y-38288444D01*
X163792179Y-38384951D01*
X163620213Y-38509890D01*
X163469890Y-38660213D01*
X163344951Y-38832179D01*
X163248444Y-39021585D01*
X163182753Y-39223760D01*
X163157478Y-39383342D01*
X163149500Y-39433713D01*
X142392866Y-39433713D01*
X142380634Y-39356488D01*
X142363552Y-39248631D01*
X142301904Y-39058897D01*
X142290569Y-39024010D01*
X142290567Y-39024007D01*
X142289335Y-39021588D01*
X142183343Y-38813566D01*
X142044517Y-38622490D01*
X139277510Y-35855483D01*
X139086434Y-35716657D01*
X138875996Y-35609433D01*
X138651368Y-35536446D01*
X138418097Y-35499500D01*
X138418092Y-35499500D01*
X138374499Y-35499500D01*
X138307460Y-35479815D01*
X138261705Y-35427011D01*
X138250499Y-35375500D01*
X138250499Y-34952129D01*
X138250498Y-34952123D01*
X138250497Y-34952116D01*
X138244091Y-34892517D01*
X138193796Y-34757669D01*
X138193795Y-34757668D01*
X138193793Y-34757664D01*
X138107547Y-34642455D01*
X138107544Y-34642452D01*
X137992335Y-34556206D01*
X137992328Y-34556202D01*
X137857482Y-34505908D01*
X137857483Y-34505908D01*
X137797883Y-34499501D01*
X137797881Y-34499500D01*
X137797873Y-34499500D01*
X137797865Y-34499500D01*
X136488274Y-34499500D01*
X136421235Y-34479815D01*
X136375480Y-34427011D01*
X136365536Y-34357853D01*
X136394561Y-34294297D01*
X136431980Y-34265015D01*
X136576786Y-34191233D01*
X136576785Y-34191233D01*
X136576788Y-34191232D01*
X136716928Y-34089414D01*
X136769523Y-34036819D01*
X136830846Y-34003334D01*
X136857204Y-34000500D01*
X139959301Y-34000500D01*
X140026340Y-34020185D01*
X140072095Y-34072989D01*
X140083301Y-34124500D01*
X140083301Y-34147876D01*
X140089708Y-34207483D01*
X140140002Y-34342328D01*
X140140006Y-34342335D01*
X140226252Y-34457544D01*
X140226255Y-34457547D01*
X140341464Y-34543793D01*
X140341471Y-34543797D01*
X140476317Y-34594091D01*
X140476316Y-34594091D01*
X140483244Y-34594835D01*
X140535927Y-34600500D01*
X142331672Y-34600499D01*
X142391283Y-34594091D01*
X142526131Y-34543796D01*
X142641346Y-34457546D01*
X142727596Y-34342331D01*
X142776610Y-34210916D01*
X142818481Y-34154984D01*
X142883945Y-34130566D01*
X142952218Y-34145417D01*
X142980473Y-34166569D01*
X143094013Y-34280109D01*
X143265979Y-34405048D01*
X143265981Y-34405049D01*
X143265984Y-34405051D01*
X143455388Y-34501557D01*
X143657557Y-34567246D01*
X143867513Y-34600500D01*
X143867514Y-34600500D01*
X144080086Y-34600500D01*
X144080087Y-34600500D01*
X144290043Y-34567246D01*
X144492212Y-34501557D01*
X144681616Y-34405051D01*
X144767938Y-34342335D01*
X144853586Y-34280109D01*
X144853588Y-34280106D01*
X144853592Y-34280104D01*
X145003904Y-34129792D01*
X145003906Y-34129788D01*
X145003909Y-34129786D01*
X145128848Y-33957820D01*
X145128847Y-33957820D01*
X145128851Y-33957816D01*
X145225357Y-33768412D01*
X145291046Y-33566243D01*
X145324300Y-33356287D01*
X145324300Y-33143713D01*
X159285700Y-33143713D01*
X159285700Y-33356286D01*
X159301762Y-33457701D01*
X159318954Y-33566243D01*
X159337215Y-33622445D01*
X159384644Y-33768414D01*
X159481151Y-33957820D01*
X159606090Y-34129786D01*
X159756413Y-34280109D01*
X159928379Y-34405048D01*
X159928381Y-34405049D01*
X159928384Y-34405051D01*
X160117788Y-34501557D01*
X160319957Y-34567246D01*
X160529913Y-34600500D01*
X160529914Y-34600500D01*
X160742486Y-34600500D01*
X160742487Y-34600500D01*
X160852311Y-34583105D01*
X160957255Y-34566484D01*
X160957515Y-34568128D01*
X161020052Y-34571250D01*
X161066911Y-34600657D01*
X161722525Y-35256272D01*
X161722531Y-35256277D01*
X161829074Y-35327466D01*
X161898421Y-35356189D01*
X161947456Y-35376501D01*
X161947459Y-35376501D01*
X161947460Y-35376502D01*
X162073128Y-35401500D01*
X162073131Y-35401500D01*
X165672273Y-35401500D01*
X165739312Y-35421185D01*
X165759954Y-35437819D01*
X166138438Y-35816303D01*
X166171923Y-35877626D01*
X166166939Y-35947318D01*
X166138439Y-35991665D01*
X166009889Y-36120215D01*
X165884951Y-36292179D01*
X165788444Y-36481585D01*
X165722753Y-36683760D01*
X165689500Y-36893713D01*
X165689500Y-37106286D01*
X165722753Y-37316239D01*
X165788444Y-37518414D01*
X165884951Y-37707820D01*
X166009890Y-37879786D01*
X166160213Y-38030109D01*
X166332179Y-38155048D01*
X166332181Y-38155049D01*
X166332184Y-38155051D01*
X166521588Y-38251557D01*
X166723757Y-38317246D01*
X166933713Y-38350500D01*
X166933714Y-38350500D01*
X167146286Y-38350500D01*
X167146287Y-38350500D01*
X167356243Y-38317246D01*
X167558412Y-38251557D01*
X167747816Y-38155051D01*
X167769789Y-38139086D01*
X167919786Y-38030109D01*
X167919788Y-38030106D01*
X167919792Y-38030104D01*
X168070104Y-37879792D01*
X168070106Y-37879788D01*
X168070109Y-37879786D01*
X168195048Y-37707820D01*
X168195047Y-37707820D01*
X168195051Y-37707816D01*
X168291557Y-37518412D01*
X168357246Y-37316243D01*
X168390500Y-37106287D01*
X168390500Y-36893713D01*
X168357246Y-36683757D01*
X168291557Y-36481588D01*
X168195051Y-36292184D01*
X168195049Y-36292181D01*
X168195048Y-36292179D01*
X168070109Y-36120213D01*
X167919786Y-35969890D01*
X167743875Y-35842085D01*
X167744851Y-35840740D01*
X167702834Y-35794295D01*
X167690500Y-35740382D01*
X167690500Y-35733847D01*
X167665502Y-35608180D01*
X167665501Y-35608179D01*
X167665501Y-35608175D01*
X167616465Y-35489792D01*
X167616464Y-35489791D01*
X167616460Y-35489783D01*
X167595266Y-35458065D01*
X167595264Y-35458063D01*
X167545277Y-35383250D01*
X167545275Y-35383248D01*
X167545273Y-35383245D01*
X166407754Y-34245726D01*
X166407750Y-34245723D01*
X166380628Y-34227601D01*
X166335825Y-34173991D01*
X166327117Y-34104666D01*
X166357271Y-34041638D01*
X166416714Y-34004919D01*
X166449520Y-34000500D01*
X166992796Y-34000500D01*
X167059835Y-34020185D01*
X167080477Y-34036819D01*
X167083072Y-34039414D01*
X167223212Y-34141232D01*
X167377555Y-34219873D01*
X167542299Y-34273402D01*
X167713389Y-34300500D01*
X167713390Y-34300500D01*
X167886610Y-34300500D01*
X167886611Y-34300500D01*
X168057701Y-34273402D01*
X168222445Y-34219873D01*
X168376788Y-34141232D01*
X168516928Y-34039414D01*
X168639414Y-33916928D01*
X168741232Y-33776788D01*
X168819873Y-33622445D01*
X168873402Y-33457701D01*
X168900500Y-33286611D01*
X168900500Y-33113389D01*
X168873402Y-32942299D01*
X168819873Y-32777555D01*
X168741232Y-32623212D01*
X168639414Y-32483072D01*
X168516928Y-32360586D01*
X168376788Y-32258768D01*
X168222445Y-32180127D01*
X168057701Y-32126598D01*
X168057699Y-32126597D01*
X168057698Y-32126597D01*
X167926271Y-32105781D01*
X167886611Y-32099500D01*
X167713389Y-32099500D01*
X167673728Y-32105781D01*
X167542302Y-32126597D01*
X167377552Y-32180128D01*
X167223211Y-32258768D01*
X167083073Y-32360585D01*
X166980476Y-32463182D01*
X166919153Y-32496666D01*
X166892795Y-32499500D01*
X164363421Y-32499500D01*
X164296382Y-32479815D01*
X164263103Y-32448385D01*
X164206307Y-32370211D01*
X164055986Y-32219890D01*
X163884020Y-32094951D01*
X163694614Y-31998444D01*
X163694613Y-31998443D01*
X163694612Y-31998443D01*
X163492443Y-31932754D01*
X163492441Y-31932753D01*
X163492440Y-31932753D01*
X163331157Y-31907208D01*
X163282487Y-31899500D01*
X163069913Y-31899500D01*
X163021242Y-31907208D01*
X162859960Y-31932753D01*
X162657785Y-31998444D01*
X162468379Y-32094951D01*
X162296413Y-32219890D01*
X162146090Y-32370213D01*
X162021149Y-32542182D01*
X162016684Y-32550946D01*
X161968709Y-32601742D01*
X161900888Y-32618536D01*
X161834753Y-32595998D01*
X161795716Y-32550946D01*
X161791250Y-32542182D01*
X161666309Y-32370213D01*
X161515986Y-32219890D01*
X161344020Y-32094951D01*
X161154614Y-31998444D01*
X161154613Y-31998443D01*
X161154612Y-31998443D01*
X160952443Y-31932754D01*
X160952441Y-31932753D01*
X160952440Y-31932753D01*
X160791157Y-31907208D01*
X160742487Y-31899500D01*
X160529913Y-31899500D01*
X160481242Y-31907208D01*
X160319960Y-31932753D01*
X160117785Y-31998444D01*
X159928379Y-32094951D01*
X159756413Y-32219890D01*
X159606090Y-32370213D01*
X159481151Y-32542179D01*
X159384644Y-32731585D01*
X159318953Y-32933760D01*
X159285700Y-33143713D01*
X145324300Y-33143713D01*
X145291046Y-32933757D01*
X145225357Y-32731588D01*
X145128851Y-32542184D01*
X145128849Y-32542181D01*
X145128848Y-32542179D01*
X145003909Y-32370213D01*
X144853586Y-32219890D01*
X144677675Y-32092085D01*
X144678651Y-32090740D01*
X144636634Y-32044295D01*
X144624300Y-31990382D01*
X144624300Y-31983847D01*
X144599302Y-31858180D01*
X144599301Y-31858179D01*
X144599301Y-31858175D01*
X144550265Y-31739792D01*
X144513608Y-31684931D01*
X144479076Y-31633249D01*
X144479074Y-31633247D01*
X144479072Y-31633244D01*
X144208009Y-31362181D01*
X144174524Y-31300858D01*
X144179508Y-31231166D01*
X144221380Y-31175233D01*
X144286844Y-31150816D01*
X144295690Y-31150500D01*
X170125500Y-31150500D01*
X170192539Y-31170185D01*
X170238294Y-31222989D01*
X170249500Y-31274500D01*
X170249500Y-59725500D01*
X170229815Y-59792539D01*
X170177011Y-59838294D01*
X170125500Y-59849500D01*
X58474500Y-59849500D01*
X58407461Y-59829815D01*
X58361706Y-59777011D01*
X58350500Y-59725500D01*
X58350500Y-57088549D01*
X67224500Y-57088549D01*
X67224500Y-57311450D01*
X67224501Y-57311466D01*
X67253594Y-57532452D01*
X67253595Y-57532457D01*
X67253596Y-57532463D01*
X67253597Y-57532465D01*
X67311290Y-57747780D01*
X67311293Y-57747790D01*
X67396593Y-57953722D01*
X67396595Y-57953726D01*
X67508052Y-58146774D01*
X67508057Y-58146780D01*
X67508058Y-58146782D01*
X67643751Y-58323622D01*
X67643757Y-58323629D01*
X67801370Y-58481242D01*
X67801376Y-58481247D01*
X67978226Y-58616948D01*
X68171274Y-58728405D01*
X68377219Y-58813710D01*
X68592537Y-58871404D01*
X68813543Y-58900500D01*
X68813550Y-58900500D01*
X69036450Y-58900500D01*
X69036457Y-58900500D01*
X69257463Y-58871404D01*
X69472781Y-58813710D01*
X69678726Y-58728405D01*
X69871774Y-58616948D01*
X70048624Y-58481247D01*
X70206247Y-58323624D01*
X70341948Y-58146774D01*
X70453405Y-57953726D01*
X70538710Y-57747781D01*
X70596404Y-57532463D01*
X70625500Y-57311457D01*
X70625500Y-57088549D01*
X74974500Y-57088549D01*
X74974500Y-57311450D01*
X74974501Y-57311466D01*
X75003594Y-57532452D01*
X75003595Y-57532457D01*
X75003596Y-57532463D01*
X75003597Y-57532465D01*
X75061290Y-57747780D01*
X75061293Y-57747790D01*
X75146593Y-57953722D01*
X75146595Y-57953726D01*
X75258052Y-58146774D01*
X75258057Y-58146780D01*
X75258058Y-58146782D01*
X75393751Y-58323622D01*
X75393757Y-58323629D01*
X75551370Y-58481242D01*
X75551376Y-58481247D01*
X75728226Y-58616948D01*
X75921274Y-58728405D01*
X76127219Y-58813710D01*
X76342537Y-58871404D01*
X76563543Y-58900500D01*
X76563550Y-58900500D01*
X76786450Y-58900500D01*
X76786457Y-58900500D01*
X77007463Y-58871404D01*
X77222781Y-58813710D01*
X77428726Y-58728405D01*
X77621774Y-58616948D01*
X77798624Y-58481247D01*
X77956247Y-58323624D01*
X78091948Y-58146774D01*
X78203405Y-57953726D01*
X78288710Y-57747781D01*
X78346404Y-57532463D01*
X78375500Y-57311457D01*
X78375500Y-57088543D01*
X78346404Y-56867537D01*
X78288710Y-56652219D01*
X78203405Y-56446274D01*
X78091948Y-56253226D01*
X78052867Y-56202294D01*
X77956248Y-56076377D01*
X77956242Y-56076370D01*
X77798629Y-55918757D01*
X77798622Y-55918751D01*
X77621782Y-55783058D01*
X77621780Y-55783057D01*
X77621774Y-55783052D01*
X77428726Y-55671595D01*
X77428722Y-55671593D01*
X77222790Y-55586293D01*
X77222783Y-55586291D01*
X77222781Y-55586290D01*
X77007463Y-55528596D01*
X77007457Y-55528595D01*
X77007452Y-55528594D01*
X76786466Y-55499501D01*
X76786463Y-55499500D01*
X76786457Y-55499500D01*
X76563543Y-55499500D01*
X76563537Y-55499500D01*
X76563533Y-55499501D01*
X76342547Y-55528594D01*
X76342540Y-55528595D01*
X76342537Y-55528596D01*
X76127219Y-55586290D01*
X76127209Y-55586293D01*
X75921277Y-55671593D01*
X75921273Y-55671595D01*
X75728226Y-55783052D01*
X75728217Y-55783058D01*
X75551377Y-55918751D01*
X75551370Y-55918757D01*
X75393757Y-56076370D01*
X75393751Y-56076377D01*
X75258058Y-56253217D01*
X75258052Y-56253226D01*
X75146595Y-56446273D01*
X75146593Y-56446277D01*
X75061293Y-56652209D01*
X75061291Y-56652216D01*
X75061290Y-56652219D01*
X75040023Y-56731591D01*
X75003597Y-56867534D01*
X75003594Y-56867547D01*
X74974501Y-57088533D01*
X74974500Y-57088549D01*
X70625500Y-57088549D01*
X70625500Y-57088543D01*
X70596404Y-56867537D01*
X70538710Y-56652219D01*
X70453405Y-56446274D01*
X70341948Y-56253226D01*
X70302867Y-56202294D01*
X70206248Y-56076377D01*
X70206242Y-56076370D01*
X70048629Y-55918757D01*
X70048622Y-55918751D01*
X69871782Y-55783058D01*
X69871780Y-55783057D01*
X69871774Y-55783052D01*
X69678726Y-55671595D01*
X69678722Y-55671593D01*
X69472790Y-55586293D01*
X69472783Y-55586291D01*
X69472781Y-55586290D01*
X69257463Y-55528596D01*
X69257457Y-55528595D01*
X69257452Y-55528594D01*
X69036466Y-55499501D01*
X69036463Y-55499500D01*
X69036457Y-55499500D01*
X68813543Y-55499500D01*
X68813537Y-55499500D01*
X68813533Y-55499501D01*
X68592547Y-55528594D01*
X68592540Y-55528595D01*
X68592537Y-55528596D01*
X68377219Y-55586290D01*
X68377209Y-55586293D01*
X68171277Y-55671593D01*
X68171273Y-55671595D01*
X67978226Y-55783052D01*
X67978217Y-55783058D01*
X67801377Y-55918751D01*
X67801370Y-55918757D01*
X67643757Y-56076370D01*
X67643751Y-56076377D01*
X67508058Y-56253217D01*
X67508052Y-56253226D01*
X67396595Y-56446273D01*
X67396593Y-56446277D01*
X67311293Y-56652209D01*
X67311291Y-56652216D01*
X67311290Y-56652219D01*
X67290023Y-56731591D01*
X67253597Y-56867534D01*
X67253594Y-56867547D01*
X67224501Y-57088533D01*
X67224500Y-57088549D01*
X58350500Y-57088549D01*
X58350500Y-54878711D01*
X60149500Y-54878711D01*
X60149500Y-55121288D01*
X60181161Y-55361785D01*
X60243947Y-55596104D01*
X60275216Y-55671593D01*
X60336776Y-55820212D01*
X60458064Y-56030289D01*
X60458066Y-56030292D01*
X60458067Y-56030293D01*
X60605733Y-56222736D01*
X60605739Y-56222743D01*
X60777256Y-56394260D01*
X60777263Y-56394266D01*
X60890321Y-56481018D01*
X60969711Y-56541936D01*
X61179788Y-56663224D01*
X61403900Y-56756054D01*
X61638211Y-56818838D01*
X61818586Y-56842584D01*
X61878711Y-56850500D01*
X61878712Y-56850500D01*
X62121289Y-56850500D01*
X62169388Y-56844167D01*
X62361789Y-56818838D01*
X62596100Y-56756054D01*
X62820212Y-56663224D01*
X63030289Y-56541936D01*
X63222738Y-56394265D01*
X63394265Y-56222738D01*
X63541936Y-56030289D01*
X63663224Y-55820212D01*
X63756054Y-55596100D01*
X63818838Y-55361789D01*
X63850500Y-55121288D01*
X63850500Y-54878712D01*
X63818838Y-54638211D01*
X63756054Y-54403900D01*
X63663224Y-54179788D01*
X63541936Y-53969711D01*
X63394265Y-53777262D01*
X63394260Y-53777256D01*
X63222743Y-53605739D01*
X63222736Y-53605733D01*
X63030293Y-53458067D01*
X63030292Y-53458066D01*
X63030289Y-53458064D01*
X62820212Y-53336776D01*
X62820205Y-53336773D01*
X62687735Y-53281902D01*
X70199500Y-53281902D01*
X70199500Y-53618097D01*
X70236446Y-53851368D01*
X70309433Y-54075996D01*
X70402122Y-54257906D01*
X70416657Y-54286433D01*
X70555483Y-54477510D01*
X70722490Y-54644517D01*
X70913567Y-54783343D01*
X71012991Y-54834002D01*
X71124003Y-54890566D01*
X71124005Y-54890566D01*
X71124008Y-54890568D01*
X71244412Y-54929689D01*
X71348631Y-54963553D01*
X71581903Y-55000500D01*
X71581908Y-55000500D01*
X71818097Y-55000500D01*
X72051368Y-54963553D01*
X72275992Y-54890568D01*
X72486433Y-54783343D01*
X72677510Y-54644517D01*
X72844517Y-54477510D01*
X72862939Y-54452155D01*
X83250000Y-54452155D01*
X83250000Y-56250000D01*
X85201518Y-56250000D01*
X85190889Y-56268409D01*
X85150000Y-56421009D01*
X85150000Y-56578991D01*
X85190889Y-56731591D01*
X85201518Y-56750000D01*
X83250000Y-56750000D01*
X83250000Y-58547844D01*
X83256401Y-58607372D01*
X83256403Y-58607379D01*
X83306645Y-58742086D01*
X83306649Y-58742093D01*
X83392809Y-58857187D01*
X83392812Y-58857190D01*
X83507906Y-58943350D01*
X83507913Y-58943354D01*
X83642620Y-58993596D01*
X83642627Y-58993598D01*
X83702155Y-58999999D01*
X83702172Y-59000000D01*
X85500000Y-59000000D01*
X85500000Y-57048482D01*
X85518409Y-57059111D01*
X85671009Y-57100000D01*
X85828991Y-57100000D01*
X85981591Y-57059111D01*
X86000000Y-57048482D01*
X86000000Y-59000000D01*
X87797828Y-59000000D01*
X87797844Y-58999999D01*
X87857372Y-58993598D01*
X87857379Y-58993596D01*
X87992086Y-58943354D01*
X87992093Y-58943350D01*
X88107187Y-58857190D01*
X88107190Y-58857187D01*
X88193350Y-58742093D01*
X88193354Y-58742086D01*
X88243596Y-58607379D01*
X88243598Y-58607372D01*
X88249999Y-58547844D01*
X88250000Y-58547827D01*
X88250000Y-56750000D01*
X86298482Y-56750000D01*
X86309111Y-56731591D01*
X86350000Y-56578991D01*
X86350000Y-56421009D01*
X86309111Y-56268409D01*
X86298482Y-56250000D01*
X88250000Y-56250000D01*
X88250000Y-54452172D01*
X88249999Y-54452155D01*
X133250000Y-54452155D01*
X133250000Y-56250000D01*
X135201518Y-56250000D01*
X135190889Y-56268409D01*
X135150000Y-56421009D01*
X135150000Y-56578991D01*
X135190889Y-56731591D01*
X135201518Y-56750000D01*
X133250000Y-56750000D01*
X133250000Y-58547844D01*
X133256401Y-58607372D01*
X133256403Y-58607379D01*
X133306645Y-58742086D01*
X133306649Y-58742093D01*
X133392809Y-58857187D01*
X133392812Y-58857190D01*
X133507906Y-58943350D01*
X133507913Y-58943354D01*
X133642620Y-58993596D01*
X133642627Y-58993598D01*
X133702155Y-58999999D01*
X133702172Y-59000000D01*
X135500000Y-59000000D01*
X135500000Y-57048482D01*
X135518409Y-57059111D01*
X135671009Y-57100000D01*
X135828991Y-57100000D01*
X135981591Y-57059111D01*
X136000000Y-57048482D01*
X136000000Y-59000000D01*
X137797828Y-59000000D01*
X137797844Y-58999999D01*
X137857372Y-58993598D01*
X137857379Y-58993596D01*
X137992086Y-58943354D01*
X137992093Y-58943350D01*
X138107187Y-58857190D01*
X138107190Y-58857187D01*
X138193350Y-58742093D01*
X138193354Y-58742086D01*
X138243596Y-58607379D01*
X138243598Y-58607372D01*
X138249999Y-58547844D01*
X138250000Y-58547827D01*
X138250000Y-56750000D01*
X136298482Y-56750000D01*
X136309111Y-56731591D01*
X136350000Y-56578991D01*
X136350000Y-56421009D01*
X136309111Y-56268409D01*
X136298482Y-56250000D01*
X138250000Y-56250000D01*
X138250000Y-54452172D01*
X138249999Y-54452155D01*
X138243598Y-54392627D01*
X138243596Y-54392620D01*
X138193354Y-54257913D01*
X138193350Y-54257906D01*
X138107190Y-54142812D01*
X138107187Y-54142809D01*
X137992093Y-54056649D01*
X137992086Y-54056645D01*
X137857379Y-54006403D01*
X137857372Y-54006401D01*
X137797844Y-54000000D01*
X136000000Y-54000000D01*
X136000000Y-55951517D01*
X135981591Y-55940889D01*
X135828991Y-55900000D01*
X135671009Y-55900000D01*
X135518409Y-55940889D01*
X135500000Y-55951517D01*
X135500000Y-54000000D01*
X133702155Y-54000000D01*
X133642627Y-54006401D01*
X133642620Y-54006403D01*
X133507913Y-54056645D01*
X133507906Y-54056649D01*
X133392812Y-54142809D01*
X133392809Y-54142812D01*
X133306649Y-54257906D01*
X133306645Y-54257913D01*
X133256403Y-54392620D01*
X133256401Y-54392627D01*
X133250000Y-54452155D01*
X88249999Y-54452155D01*
X88243598Y-54392627D01*
X88243596Y-54392620D01*
X88193354Y-54257913D01*
X88193350Y-54257906D01*
X88107190Y-54142812D01*
X88107187Y-54142809D01*
X87992093Y-54056649D01*
X87992086Y-54056645D01*
X87857379Y-54006403D01*
X87857372Y-54006401D01*
X87797844Y-54000000D01*
X86000000Y-54000000D01*
X86000000Y-55951517D01*
X85981591Y-55940889D01*
X85828991Y-55900000D01*
X85671009Y-55900000D01*
X85518409Y-55940889D01*
X85500000Y-55951517D01*
X85500000Y-54000000D01*
X83702155Y-54000000D01*
X83642627Y-54006401D01*
X83642620Y-54006403D01*
X83507913Y-54056645D01*
X83507906Y-54056649D01*
X83392812Y-54142809D01*
X83392809Y-54142812D01*
X83306649Y-54257906D01*
X83306645Y-54257913D01*
X83256403Y-54392620D01*
X83256401Y-54392627D01*
X83250000Y-54452155D01*
X72862939Y-54452155D01*
X72983343Y-54286433D01*
X73026461Y-54201806D01*
X73029277Y-54197289D01*
X73033535Y-54193494D01*
X73046830Y-54175195D01*
X74285208Y-52936819D01*
X74346531Y-52903334D01*
X74372889Y-52900500D01*
X74818097Y-52900500D01*
X75051368Y-52863553D01*
X75275992Y-52790568D01*
X75486433Y-52683343D01*
X75677510Y-52544517D01*
X75844517Y-52377510D01*
X75983343Y-52186433D01*
X76090568Y-51975992D01*
X76163553Y-51751368D01*
X76171610Y-51700500D01*
X76200500Y-51518097D01*
X76200500Y-51281902D01*
X76163553Y-51048631D01*
X76090566Y-50824003D01*
X75983342Y-50613566D01*
X75844517Y-50422490D01*
X75677510Y-50255483D01*
X75486433Y-50116657D01*
X75275996Y-50009433D01*
X75051368Y-49936446D01*
X74818097Y-49899500D01*
X74818092Y-49899500D01*
X73818092Y-49899500D01*
X73581908Y-49899500D01*
X73581903Y-49899500D01*
X73348631Y-49936446D01*
X73124003Y-50009433D01*
X72913563Y-50116659D01*
X72722496Y-50255476D01*
X72722491Y-50255480D01*
X72222490Y-50755483D01*
X70555485Y-52422487D01*
X70555484Y-52422488D01*
X70416657Y-52613565D01*
X70326451Y-52790606D01*
X70309433Y-52824003D01*
X70236446Y-53048631D01*
X70199500Y-53281902D01*
X62687735Y-53281902D01*
X62596104Y-53243947D01*
X62361785Y-53181161D01*
X62121289Y-53149500D01*
X62121288Y-53149500D01*
X61878712Y-53149500D01*
X61878711Y-53149500D01*
X61638214Y-53181161D01*
X61403895Y-53243947D01*
X61179794Y-53336773D01*
X61179785Y-53336777D01*
X60969706Y-53458067D01*
X60777263Y-53605733D01*
X60777256Y-53605739D01*
X60605739Y-53777256D01*
X60605733Y-53777263D01*
X60458067Y-53969706D01*
X60336777Y-54179785D01*
X60336773Y-54179794D01*
X60243947Y-54403895D01*
X60181161Y-54638214D01*
X60149500Y-54878711D01*
X58350500Y-54878711D01*
X58350500Y-42630947D01*
X59600000Y-42630947D01*
X59600000Y-43599000D01*
X60600000Y-43599000D01*
X60600000Y-44099000D01*
X59600000Y-44099000D01*
X59600000Y-45067052D01*
X59636934Y-45300247D01*
X59709897Y-45524802D01*
X59817085Y-45735171D01*
X59955866Y-45926186D01*
X60122813Y-46093133D01*
X60313828Y-46231914D01*
X60524195Y-46339102D01*
X60748744Y-46412063D01*
X60748750Y-46412065D01*
X60850000Y-46428101D01*
X60850000Y-45382012D01*
X60907007Y-45414925D01*
X61034174Y-45449000D01*
X61165826Y-45449000D01*
X61292993Y-45414925D01*
X61350000Y-45382012D01*
X61350000Y-46428100D01*
X61451249Y-46412065D01*
X61451255Y-46412063D01*
X61675804Y-46339102D01*
X61886171Y-46231914D01*
X62077186Y-46093133D01*
X62244133Y-45926186D01*
X62382914Y-45735171D01*
X62400257Y-45701135D01*
X63099500Y-45701135D01*
X63099500Y-47796870D01*
X63099501Y-47796876D01*
X63105908Y-47856483D01*
X63156202Y-47991328D01*
X63156206Y-47991335D01*
X63242452Y-48106544D01*
X63242455Y-48106547D01*
X63357664Y-48192793D01*
X63357671Y-48192797D01*
X63492517Y-48243091D01*
X63492516Y-48243091D01*
X63499444Y-48243835D01*
X63552127Y-48249500D01*
X65227110Y-48249499D01*
X65294149Y-48269184D01*
X65314791Y-48285818D01*
X68373490Y-51344517D01*
X68500874Y-51437067D01*
X68564567Y-51483344D01*
X68628635Y-51515987D01*
X68692704Y-51548632D01*
X68775003Y-51590566D01*
X68775005Y-51590566D01*
X68775008Y-51590568D01*
X68895412Y-51629689D01*
X68999631Y-51663553D01*
X69232903Y-51700500D01*
X69232908Y-51700500D01*
X69718097Y-51700500D01*
X69951368Y-51663553D01*
X70175992Y-51590568D01*
X70386433Y-51483343D01*
X70577510Y-51344517D01*
X70744517Y-51177510D01*
X70883343Y-50986433D01*
X70990568Y-50775992D01*
X71063553Y-50551368D01*
X71100500Y-50318097D01*
X71100500Y-50081902D01*
X71063553Y-49848631D01*
X70990566Y-49624003D01*
X70883342Y-49413566D01*
X70744517Y-49222490D01*
X70577510Y-49055483D01*
X70386433Y-48916657D01*
X70175996Y-48809433D01*
X70065751Y-48773612D01*
X70016389Y-48743362D01*
X68736818Y-47463791D01*
X68703333Y-47402468D01*
X68700499Y-47376110D01*
X68700499Y-45701129D01*
X68700498Y-45701123D01*
X68700497Y-45701116D01*
X68694091Y-45641517D01*
X68643796Y-45506669D01*
X68643795Y-45506668D01*
X68643793Y-45506664D01*
X68557547Y-45391455D01*
X68557544Y-45391452D01*
X68442335Y-45305206D01*
X68442328Y-45305202D01*
X68307482Y-45254908D01*
X68307483Y-45254908D01*
X68247883Y-45248501D01*
X68247881Y-45248500D01*
X68247873Y-45248500D01*
X66018094Y-45248500D01*
X66018092Y-45248500D01*
X65781908Y-45248500D01*
X65781904Y-45248500D01*
X63552129Y-45248500D01*
X63552123Y-45248501D01*
X63492516Y-45254908D01*
X63357671Y-45305202D01*
X63357664Y-45305206D01*
X63242455Y-45391452D01*
X63242452Y-45391455D01*
X63156206Y-45506664D01*
X63156202Y-45506671D01*
X63105908Y-45641517D01*
X63099501Y-45701116D01*
X63099501Y-45701123D01*
X63099500Y-45701135D01*
X62400257Y-45701135D01*
X62430637Y-45641511D01*
X62490102Y-45524802D01*
X62563065Y-45300247D01*
X62595235Y-45097135D01*
X74199500Y-45097135D01*
X74199500Y-46992870D01*
X74199501Y-46992876D01*
X74205908Y-47052483D01*
X74256202Y-47187328D01*
X74256206Y-47187335D01*
X74342452Y-47302544D01*
X74342455Y-47302547D01*
X74457664Y-47388793D01*
X74457671Y-47388797D01*
X74592517Y-47439091D01*
X74592516Y-47439091D01*
X74599444Y-47439835D01*
X74652127Y-47445500D01*
X76547872Y-47445499D01*
X76607483Y-47439091D01*
X76742331Y-47388796D01*
X76857546Y-47302546D01*
X76943796Y-47187331D01*
X76994091Y-47052483D01*
X77000500Y-46992873D01*
X77000499Y-45097128D01*
X76994091Y-45037517D01*
X76943796Y-44902669D01*
X76943795Y-44902668D01*
X76943793Y-44902664D01*
X76857547Y-44787455D01*
X76857544Y-44787452D01*
X76742335Y-44701206D01*
X76742328Y-44701202D01*
X76607482Y-44650908D01*
X76607483Y-44650908D01*
X76547883Y-44644501D01*
X76547881Y-44644500D01*
X76547873Y-44644500D01*
X76547864Y-44644500D01*
X74652129Y-44644500D01*
X74652123Y-44644501D01*
X74592516Y-44650908D01*
X74457671Y-44701202D01*
X74457664Y-44701206D01*
X74342455Y-44787452D01*
X74342452Y-44787455D01*
X74256206Y-44902664D01*
X74256202Y-44902671D01*
X74205908Y-45037517D01*
X74199501Y-45097116D01*
X74199501Y-45097123D01*
X74199500Y-45097135D01*
X62595235Y-45097135D01*
X62598835Y-45074408D01*
X62598835Y-45074407D01*
X62600000Y-45067053D01*
X62600000Y-44099000D01*
X61600000Y-44099000D01*
X61600000Y-43599000D01*
X62600000Y-43599000D01*
X62600000Y-42630947D01*
X62563065Y-42397752D01*
X62490102Y-42173197D01*
X62382914Y-41962828D01*
X62244133Y-41771813D01*
X62077186Y-41604866D01*
X61886171Y-41466085D01*
X61675802Y-41358897D01*
X61451247Y-41285934D01*
X61350000Y-41269897D01*
X61350000Y-42315988D01*
X61292993Y-42283075D01*
X61165826Y-42249000D01*
X61034174Y-42249000D01*
X60907007Y-42283075D01*
X60850000Y-42315988D01*
X60850000Y-41269897D01*
X60748752Y-41285934D01*
X60524197Y-41358897D01*
X60313828Y-41466085D01*
X60122813Y-41604866D01*
X59955866Y-41771813D01*
X59817085Y-41962828D01*
X59709897Y-42173197D01*
X59636934Y-42397752D01*
X59600000Y-42630947D01*
X58350500Y-42630947D01*
X58350500Y-40199000D01*
X63320898Y-40199000D01*
X64366988Y-40199000D01*
X64334075Y-40256007D01*
X64300000Y-40383174D01*
X64300000Y-40514826D01*
X64334075Y-40641993D01*
X64366988Y-40699000D01*
X63320898Y-40699000D01*
X63336934Y-40800247D01*
X63409897Y-41024802D01*
X63517085Y-41235171D01*
X63655866Y-41426186D01*
X63822813Y-41593133D01*
X64013828Y-41731914D01*
X64224197Y-41839102D01*
X64448752Y-41912065D01*
X64448751Y-41912065D01*
X64681948Y-41949000D01*
X65650000Y-41949000D01*
X65650000Y-40949000D01*
X66150000Y-40949000D01*
X66150000Y-41949000D01*
X67118052Y-41949000D01*
X67351247Y-41912065D01*
X67575802Y-41839102D01*
X67786171Y-41731914D01*
X67977186Y-41593133D01*
X68144133Y-41426186D01*
X68282914Y-41235171D01*
X68390102Y-41024802D01*
X68463065Y-40800247D01*
X68479102Y-40699000D01*
X67433012Y-40699000D01*
X67465925Y-40641993D01*
X67500000Y-40514826D01*
X67500000Y-40383174D01*
X67465925Y-40256007D01*
X67433012Y-40199000D01*
X68479102Y-40199000D01*
X68463065Y-40097752D01*
X68390102Y-39873197D01*
X68282914Y-39662828D01*
X68144133Y-39471813D01*
X67977186Y-39304866D01*
X67786171Y-39166085D01*
X67575802Y-39058897D01*
X67351247Y-38985934D01*
X67351248Y-38985934D01*
X67118052Y-38949000D01*
X66150000Y-38949000D01*
X66150000Y-39949000D01*
X65650000Y-39949000D01*
X65650000Y-38949000D01*
X64681948Y-38949000D01*
X64448752Y-38985934D01*
X64224197Y-39058897D01*
X64013828Y-39166085D01*
X63822813Y-39304866D01*
X63655866Y-39471813D01*
X63517085Y-39662828D01*
X63409897Y-39873197D01*
X63336934Y-40097752D01*
X63320898Y-40199000D01*
X58350500Y-40199000D01*
X58350500Y-37981902D01*
X79299500Y-37981902D01*
X79299500Y-38218097D01*
X79336446Y-38451368D01*
X79409433Y-38675996D01*
X79479529Y-38813566D01*
X79516657Y-38886434D01*
X79655483Y-39077510D01*
X79822490Y-39244517D01*
X80013566Y-39383343D01*
X80112423Y-39433713D01*
X80224003Y-39490566D01*
X80224005Y-39490566D01*
X80224008Y-39490568D01*
X80344412Y-39529689D01*
X80448631Y-39563553D01*
X80681903Y-39600500D01*
X80681908Y-39600500D01*
X80918097Y-39600500D01*
X81151368Y-39563553D01*
X81375992Y-39490568D01*
X81586434Y-39383343D01*
X81777510Y-39244517D01*
X82485208Y-38536819D01*
X82546531Y-38503334D01*
X82572889Y-38500500D01*
X83125501Y-38500500D01*
X83192540Y-38520185D01*
X83238295Y-38572989D01*
X83249501Y-38624500D01*
X83249501Y-39047876D01*
X83255908Y-39107483D01*
X83306202Y-39242328D01*
X83306206Y-39242335D01*
X83392452Y-39357544D01*
X83392455Y-39357547D01*
X83507664Y-39443793D01*
X83507671Y-39443797D01*
X83642517Y-39494091D01*
X83642516Y-39494091D01*
X83649444Y-39494835D01*
X83702127Y-39500500D01*
X87797872Y-39500499D01*
X87857483Y-39494091D01*
X87992331Y-39443796D01*
X88107546Y-39357546D01*
X88193796Y-39242331D01*
X88244091Y-39107483D01*
X88250500Y-39047873D01*
X88250499Y-36878711D01*
X120149500Y-36878711D01*
X120149500Y-37121288D01*
X120181161Y-37361785D01*
X120243947Y-37596104D01*
X120336773Y-37820205D01*
X120336776Y-37820212D01*
X120458064Y-38030289D01*
X120458066Y-38030292D01*
X120458067Y-38030293D01*
X120605733Y-38222736D01*
X120605739Y-38222743D01*
X120777256Y-38394260D01*
X120777262Y-38394265D01*
X120969711Y-38541936D01*
X121179788Y-38663224D01*
X121403900Y-38756054D01*
X121638211Y-38818838D01*
X121818586Y-38842584D01*
X121878711Y-38850500D01*
X121878712Y-38850500D01*
X122121289Y-38850500D01*
X122169388Y-38844167D01*
X122361789Y-38818838D01*
X122596100Y-38756054D01*
X122820212Y-38663224D01*
X123030289Y-38541936D01*
X123222738Y-38394265D01*
X123394265Y-38222738D01*
X123541936Y-38030289D01*
X123663224Y-37820212D01*
X123756054Y-37596100D01*
X123818838Y-37361789D01*
X123850500Y-37121288D01*
X123850500Y-36878712D01*
X123818838Y-36638211D01*
X123756054Y-36403900D01*
X123663224Y-36179788D01*
X123541936Y-35969711D01*
X123471277Y-35877626D01*
X123394266Y-35777263D01*
X123394260Y-35777256D01*
X123222743Y-35605739D01*
X123222736Y-35605733D01*
X123030293Y-35458067D01*
X123030290Y-35458065D01*
X123030289Y-35458064D01*
X122820212Y-35336776D01*
X122797726Y-35327462D01*
X122596104Y-35243947D01*
X122361785Y-35181161D01*
X122121289Y-35149500D01*
X122121288Y-35149500D01*
X121878712Y-35149500D01*
X121878711Y-35149500D01*
X121638214Y-35181161D01*
X121403895Y-35243947D01*
X121179794Y-35336773D01*
X121179785Y-35336777D01*
X120969706Y-35458067D01*
X120777263Y-35605733D01*
X120777256Y-35605739D01*
X120605739Y-35777256D01*
X120605733Y-35777263D01*
X120458067Y-35969706D01*
X120336777Y-36179785D01*
X120336773Y-36179794D01*
X120243947Y-36403895D01*
X120181161Y-36638214D01*
X120149500Y-36878711D01*
X88250499Y-36878711D01*
X88250499Y-34952128D01*
X88244091Y-34892517D01*
X88193796Y-34757669D01*
X88193795Y-34757668D01*
X88193793Y-34757664D01*
X88107547Y-34642455D01*
X88107544Y-34642452D01*
X87992335Y-34556206D01*
X87992328Y-34556202D01*
X87857482Y-34505908D01*
X87857483Y-34505908D01*
X87797883Y-34499501D01*
X87797881Y-34499500D01*
X87797873Y-34499500D01*
X87797864Y-34499500D01*
X83702129Y-34499500D01*
X83702123Y-34499501D01*
X83642516Y-34505908D01*
X83507671Y-34556202D01*
X83507664Y-34556206D01*
X83392455Y-34642452D01*
X83392452Y-34642455D01*
X83306206Y-34757664D01*
X83306202Y-34757671D01*
X83255908Y-34892517D01*
X83249501Y-34952116D01*
X83249501Y-34952123D01*
X83249500Y-34952135D01*
X83249500Y-35375500D01*
X83229815Y-35442539D01*
X83177011Y-35488294D01*
X83125500Y-35499500D01*
X81781903Y-35499500D01*
X81548631Y-35536446D01*
X81324003Y-35609433D01*
X81113566Y-35716657D01*
X81030150Y-35777263D01*
X80922490Y-35855483D01*
X80922488Y-35855485D01*
X80922487Y-35855485D01*
X79655484Y-37122488D01*
X79516657Y-37313565D01*
X79409433Y-37524003D01*
X79336446Y-37748631D01*
X79299500Y-37981902D01*
X58350500Y-37981902D01*
X58350500Y-33113389D01*
X70999500Y-33113389D01*
X70999500Y-33286611D01*
X71026598Y-33457701D01*
X71080127Y-33622445D01*
X71158768Y-33776788D01*
X71260586Y-33916928D01*
X71383072Y-34039414D01*
X71523212Y-34141232D01*
X71677555Y-34219873D01*
X71842299Y-34273402D01*
X72013389Y-34300500D01*
X72013390Y-34300500D01*
X72186610Y-34300500D01*
X72186611Y-34300500D01*
X72357701Y-34273402D01*
X72522445Y-34219873D01*
X72676788Y-34141232D01*
X72816928Y-34039414D01*
X72819523Y-34036819D01*
X72880846Y-34003334D01*
X72907204Y-34000500D01*
X73309701Y-34000500D01*
X73376740Y-34020185D01*
X73422495Y-34072989D01*
X73433701Y-34124500D01*
X73433701Y-34147876D01*
X73440108Y-34207483D01*
X73490402Y-34342328D01*
X73490406Y-34342335D01*
X73576652Y-34457544D01*
X73576655Y-34457547D01*
X73691864Y-34543793D01*
X73691871Y-34543797D01*
X73826717Y-34594091D01*
X73826716Y-34594091D01*
X73833644Y-34594835D01*
X73886327Y-34600500D01*
X75682072Y-34600499D01*
X75741683Y-34594091D01*
X75876531Y-34543796D01*
X75991746Y-34457546D01*
X76077996Y-34342331D01*
X76127010Y-34210916D01*
X76168881Y-34154984D01*
X76234345Y-34130566D01*
X76302618Y-34145417D01*
X76330873Y-34166569D01*
X76444413Y-34280109D01*
X76616379Y-34405048D01*
X76616381Y-34405049D01*
X76616384Y-34405051D01*
X76805788Y-34501557D01*
X77007957Y-34567246D01*
X77217913Y-34600500D01*
X77217914Y-34600500D01*
X77430486Y-34600500D01*
X77430487Y-34600500D01*
X77640443Y-34567246D01*
X77842612Y-34501557D01*
X78032016Y-34405051D01*
X78118338Y-34342335D01*
X78203986Y-34280109D01*
X78203988Y-34280106D01*
X78203992Y-34280104D01*
X78354304Y-34129792D01*
X78354306Y-34129788D01*
X78354309Y-34129786D01*
X78479248Y-33957820D01*
X78479247Y-33957820D01*
X78479251Y-33957816D01*
X78575757Y-33768412D01*
X78641446Y-33566243D01*
X78674700Y-33356287D01*
X78674700Y-33143713D01*
X78641446Y-32933757D01*
X78575757Y-32731588D01*
X78479251Y-32542184D01*
X78479249Y-32542181D01*
X78479248Y-32542179D01*
X78354309Y-32370213D01*
X78203986Y-32219890D01*
X78032020Y-32094951D01*
X77842614Y-31998444D01*
X77842613Y-31998443D01*
X77842612Y-31998443D01*
X77640443Y-31932754D01*
X77640441Y-31932753D01*
X77640440Y-31932753D01*
X77479157Y-31907208D01*
X77430487Y-31899500D01*
X77217913Y-31899500D01*
X77169242Y-31907208D01*
X77007960Y-31932753D01*
X76805785Y-31998444D01*
X76616379Y-32094951D01*
X76444415Y-32219889D01*
X76330873Y-32333431D01*
X76269550Y-32366915D01*
X76199858Y-32361931D01*
X76143925Y-32320059D01*
X76127010Y-32289082D01*
X76077997Y-32157671D01*
X76077993Y-32157664D01*
X75991747Y-32042455D01*
X75991744Y-32042452D01*
X75876535Y-31956206D01*
X75876528Y-31956202D01*
X75741682Y-31905908D01*
X75741683Y-31905908D01*
X75682083Y-31899501D01*
X75682081Y-31899500D01*
X75682073Y-31899500D01*
X75682064Y-31899500D01*
X73886329Y-31899500D01*
X73886323Y-31899501D01*
X73826716Y-31905908D01*
X73691871Y-31956202D01*
X73691864Y-31956206D01*
X73576655Y-32042452D01*
X73576652Y-32042455D01*
X73490406Y-32157664D01*
X73490402Y-32157671D01*
X73440108Y-32292517D01*
X73433701Y-32352116D01*
X73433700Y-32352135D01*
X73433700Y-32375500D01*
X73414015Y-32442539D01*
X73361211Y-32488294D01*
X73309700Y-32499500D01*
X73007205Y-32499500D01*
X72940166Y-32479815D01*
X72919524Y-32463182D01*
X72898881Y-32442539D01*
X72816928Y-32360586D01*
X72676788Y-32258768D01*
X72522445Y-32180127D01*
X72357701Y-32126598D01*
X72357699Y-32126597D01*
X72357698Y-32126597D01*
X72226271Y-32105781D01*
X72186611Y-32099500D01*
X72013389Y-32099500D01*
X71973728Y-32105781D01*
X71842302Y-32126597D01*
X71677552Y-32180128D01*
X71523211Y-32258768D01*
X71443256Y-32316859D01*
X71383072Y-32360586D01*
X71383070Y-32360588D01*
X71383069Y-32360588D01*
X71260588Y-32483069D01*
X71260588Y-32483070D01*
X71260586Y-32483072D01*
X71234886Y-32518445D01*
X71158768Y-32623211D01*
X71080128Y-32777552D01*
X71026597Y-32942302D01*
X70999500Y-33113389D01*
X58350500Y-33113389D01*
X58350500Y-31274500D01*
X58370185Y-31207461D01*
X58422989Y-31161706D01*
X58474500Y-31150500D01*
X94866791Y-31150500D01*
X94933830Y-31170185D01*
G37*
G04 #@! TD.AperFunction*
G04 #@! TD*
G04 #@! TA.AperFunction,Conductor*
G04 #@! TO.N,GND3*
G36*
X68982630Y-72270185D02*
G01*
X69028385Y-72322989D01*
X69038329Y-72392147D01*
X69009304Y-72455703D01*
X69003272Y-72462181D01*
X68366110Y-73099342D01*
X68304787Y-73132827D01*
X68256645Y-73132315D01*
X68256455Y-73133516D01*
X68151511Y-73116894D01*
X68041687Y-73099500D01*
X67829113Y-73099500D01*
X67780442Y-73107208D01*
X67619160Y-73132753D01*
X67416985Y-73198444D01*
X67227579Y-73294951D01*
X67055613Y-73419890D01*
X66905290Y-73570213D01*
X66780351Y-73742179D01*
X66683844Y-73931585D01*
X66618153Y-74133760D01*
X66584900Y-74343713D01*
X66584900Y-74556286D01*
X66618153Y-74766239D01*
X66683844Y-74968414D01*
X66780351Y-75157820D01*
X66905290Y-75329786D01*
X67055613Y-75480109D01*
X67227579Y-75605048D01*
X67227581Y-75605049D01*
X67227584Y-75605051D01*
X67416988Y-75701557D01*
X67619157Y-75767246D01*
X67829113Y-75800500D01*
X67829114Y-75800500D01*
X68041686Y-75800500D01*
X68041687Y-75800500D01*
X68251643Y-75767246D01*
X68453812Y-75701557D01*
X68643216Y-75605051D01*
X68665189Y-75589086D01*
X68815186Y-75480109D01*
X68815188Y-75480106D01*
X68815192Y-75480104D01*
X68965504Y-75329792D01*
X68965506Y-75329788D01*
X68965509Y-75329786D01*
X69090448Y-75157820D01*
X69090447Y-75157820D01*
X69090451Y-75157816D01*
X69094914Y-75149054D01*
X69142888Y-75098259D01*
X69210708Y-75081463D01*
X69276844Y-75103999D01*
X69315886Y-75149056D01*
X69320351Y-75157820D01*
X69445290Y-75329786D01*
X69595613Y-75480109D01*
X69767579Y-75605048D01*
X69767581Y-75605049D01*
X69767584Y-75605051D01*
X69956988Y-75701557D01*
X70159157Y-75767246D01*
X70369113Y-75800500D01*
X70369114Y-75800500D01*
X70581686Y-75800500D01*
X70581687Y-75800500D01*
X70791643Y-75767246D01*
X70993812Y-75701557D01*
X71183216Y-75605051D01*
X71205189Y-75589086D01*
X71355186Y-75480109D01*
X71355188Y-75480106D01*
X71355192Y-75480104D01*
X71505504Y-75329792D01*
X71534840Y-75289414D01*
X71562303Y-75251615D01*
X71617633Y-75208949D01*
X71662621Y-75200500D01*
X72125500Y-75200500D01*
X72192539Y-75220185D01*
X72238294Y-75272989D01*
X72249500Y-75324500D01*
X72249500Y-79437769D01*
X72229815Y-79504808D01*
X72213181Y-79525450D01*
X72004444Y-79734186D01*
X71943121Y-79767671D01*
X71873429Y-79762687D01*
X71829082Y-79734186D01*
X71754786Y-79659890D01*
X71582820Y-79534951D01*
X71393414Y-79438444D01*
X71393413Y-79438443D01*
X71393412Y-79438443D01*
X71191243Y-79372754D01*
X71191241Y-79372753D01*
X71191240Y-79372753D01*
X71029957Y-79347208D01*
X70981287Y-79339500D01*
X70768713Y-79339500D01*
X70720042Y-79347208D01*
X70558760Y-79372753D01*
X70356585Y-79438444D01*
X70167179Y-79534951D01*
X69995213Y-79659890D01*
X69844890Y-79810213D01*
X69719951Y-79982179D01*
X69623444Y-80171585D01*
X69557753Y-80373760D01*
X69524500Y-80583713D01*
X69524500Y-80796286D01*
X69557753Y-81006239D01*
X69623444Y-81208414D01*
X69719951Y-81397820D01*
X69844890Y-81569786D01*
X69995213Y-81720109D01*
X70167179Y-81845048D01*
X70167181Y-81845049D01*
X70167184Y-81845051D01*
X70356588Y-81941557D01*
X70558757Y-82007246D01*
X70768713Y-82040500D01*
X70768714Y-82040500D01*
X70981286Y-82040500D01*
X70981287Y-82040500D01*
X71191243Y-82007246D01*
X71393412Y-81941557D01*
X71582816Y-81845051D01*
X71604789Y-81829086D01*
X71754786Y-81720109D01*
X71754788Y-81720106D01*
X71754792Y-81720104D01*
X71905104Y-81569792D01*
X71905108Y-81569786D01*
X71961903Y-81491615D01*
X72017233Y-81448949D01*
X72062221Y-81440500D01*
X72183920Y-81440500D01*
X72281462Y-81421096D01*
X72328913Y-81411658D01*
X72465495Y-81355084D01*
X72514729Y-81322186D01*
X72588416Y-81272952D01*
X73582952Y-80278416D01*
X73606638Y-80242965D01*
X73654327Y-80171595D01*
X73654331Y-80171588D01*
X73665084Y-80155495D01*
X73721658Y-80018913D01*
X73750500Y-79873918D01*
X73750500Y-78028711D01*
X74199500Y-78028711D01*
X74199500Y-78271288D01*
X74231161Y-78511785D01*
X74293947Y-78746104D01*
X74386765Y-78970185D01*
X74386776Y-78970212D01*
X74508064Y-79180289D01*
X74508066Y-79180292D01*
X74508067Y-79180293D01*
X74655733Y-79372736D01*
X74655739Y-79372743D01*
X74827256Y-79544260D01*
X74827262Y-79544265D01*
X75019711Y-79691936D01*
X75229788Y-79813224D01*
X75453900Y-79906054D01*
X75688211Y-79968838D01*
X75868586Y-79992584D01*
X75928711Y-80000500D01*
X75928712Y-80000500D01*
X76171289Y-80000500D01*
X76219388Y-79994167D01*
X76411789Y-79968838D01*
X76646100Y-79906054D01*
X76870212Y-79813224D01*
X77080289Y-79691936D01*
X77272738Y-79544265D01*
X77444265Y-79372738D01*
X77591936Y-79180289D01*
X77713224Y-78970212D01*
X77806054Y-78746100D01*
X77868838Y-78511789D01*
X77900500Y-78271288D01*
X77900500Y-78113389D01*
X103799500Y-78113389D01*
X103799500Y-78286611D01*
X103826598Y-78457701D01*
X103880127Y-78622445D01*
X103958768Y-78776788D01*
X104060586Y-78916928D01*
X104183072Y-79039414D01*
X104323212Y-79141232D01*
X104477555Y-79219873D01*
X104642299Y-79273402D01*
X104813389Y-79300500D01*
X104813390Y-79300500D01*
X104986610Y-79300500D01*
X104986611Y-79300500D01*
X105157701Y-79273402D01*
X105322445Y-79219873D01*
X105476788Y-79141232D01*
X105616928Y-79039414D01*
X105669523Y-78986819D01*
X105696450Y-78972115D01*
X105722269Y-78955523D01*
X105728469Y-78954631D01*
X105730846Y-78953334D01*
X105757204Y-78950500D01*
X105774998Y-78950500D01*
X105842037Y-78970185D01*
X105887792Y-79022989D01*
X105898288Y-79061248D01*
X105903257Y-79107483D01*
X105953551Y-79242328D01*
X105953555Y-79242335D01*
X106039801Y-79357544D01*
X106039804Y-79357547D01*
X106155013Y-79443793D01*
X106155020Y-79443797D01*
X106289866Y-79494091D01*
X106289865Y-79494091D01*
X106296793Y-79494835D01*
X106349476Y-79500500D01*
X108045221Y-79500499D01*
X108104832Y-79494091D01*
X108239680Y-79443796D01*
X108354895Y-79357546D01*
X108441145Y-79242331D01*
X108461081Y-79188881D01*
X108461082Y-79188879D01*
X108491439Y-79107485D01*
X108491440Y-79107483D01*
X108497849Y-79047873D01*
X108497848Y-78097682D01*
X110897349Y-78097682D01*
X110897349Y-78302317D01*
X110929358Y-78504417D01*
X110992593Y-78699031D01*
X111085490Y-78881350D01*
X111085496Y-78881359D01*
X111117872Y-78925921D01*
X111117873Y-78925922D01*
X111797349Y-78246446D01*
X111797349Y-78252661D01*
X111824608Y-78354394D01*
X111877269Y-78445606D01*
X111951743Y-78520080D01*
X112042955Y-78572741D01*
X112144688Y-78600000D01*
X112150902Y-78600000D01*
X111471425Y-79279474D01*
X111515999Y-79311859D01*
X111698317Y-79404755D01*
X111892931Y-79467990D01*
X112095032Y-79500000D01*
X112299666Y-79500000D01*
X112501766Y-79467990D01*
X112696380Y-79404755D01*
X112878698Y-79311859D01*
X112923270Y-79279474D01*
X112243796Y-78600000D01*
X112250010Y-78600000D01*
X112351743Y-78572741D01*
X112442955Y-78520080D01*
X112517429Y-78445606D01*
X112570090Y-78354394D01*
X112597349Y-78252661D01*
X112597349Y-78246447D01*
X113276823Y-78925921D01*
X113309208Y-78881349D01*
X113402104Y-78699031D01*
X113465339Y-78504417D01*
X113497349Y-78302317D01*
X113497349Y-78097683D01*
X113488854Y-78044052D01*
X113488854Y-78044051D01*
X113486424Y-78028711D01*
X164199500Y-78028711D01*
X164199500Y-78271288D01*
X164231161Y-78511785D01*
X164293947Y-78746104D01*
X164386765Y-78970185D01*
X164386776Y-78970212D01*
X164508064Y-79180289D01*
X164508066Y-79180292D01*
X164508067Y-79180293D01*
X164655733Y-79372736D01*
X164655739Y-79372743D01*
X164827256Y-79544260D01*
X164827262Y-79544265D01*
X165019711Y-79691936D01*
X165229788Y-79813224D01*
X165453900Y-79906054D01*
X165688211Y-79968838D01*
X165868586Y-79992584D01*
X165928711Y-80000500D01*
X165928712Y-80000500D01*
X166171289Y-80000500D01*
X166219388Y-79994167D01*
X166411789Y-79968838D01*
X166646100Y-79906054D01*
X166870212Y-79813224D01*
X167080289Y-79691936D01*
X167272738Y-79544265D01*
X167444265Y-79372738D01*
X167591936Y-79180289D01*
X167713224Y-78970212D01*
X167806054Y-78746100D01*
X167868838Y-78511789D01*
X167900500Y-78271288D01*
X167900500Y-78028712D01*
X167868838Y-77788211D01*
X167806054Y-77553900D01*
X167713224Y-77329788D01*
X167591936Y-77119711D01*
X167496429Y-76995244D01*
X167444266Y-76927263D01*
X167444260Y-76927256D01*
X167272743Y-76755739D01*
X167272736Y-76755733D01*
X167080293Y-76608067D01*
X167080292Y-76608066D01*
X167080289Y-76608064D01*
X166870212Y-76486776D01*
X166870205Y-76486773D01*
X166646104Y-76393947D01*
X166411785Y-76331161D01*
X166171289Y-76299500D01*
X166171288Y-76299500D01*
X165928712Y-76299500D01*
X165928711Y-76299500D01*
X165688214Y-76331161D01*
X165453895Y-76393947D01*
X165229794Y-76486773D01*
X165229785Y-76486777D01*
X165019706Y-76608067D01*
X164827263Y-76755733D01*
X164827256Y-76755739D01*
X164655739Y-76927256D01*
X164655733Y-76927263D01*
X164508067Y-77119706D01*
X164386777Y-77329785D01*
X164386773Y-77329794D01*
X164293947Y-77553895D01*
X164231161Y-77788214D01*
X164199500Y-78028711D01*
X113486424Y-78028711D01*
X113465338Y-77895582D01*
X113402104Y-77700968D01*
X113309208Y-77518650D01*
X113276823Y-77474077D01*
X113276823Y-77474076D01*
X112597349Y-78153551D01*
X112597349Y-78147339D01*
X112570090Y-78045606D01*
X112517429Y-77954394D01*
X112442955Y-77879920D01*
X112351743Y-77827259D01*
X112250010Y-77800000D01*
X112243795Y-77800000D01*
X112923271Y-77120524D01*
X112923270Y-77120523D01*
X112878708Y-77088147D01*
X112878699Y-77088141D01*
X112696380Y-76995244D01*
X112501766Y-76932009D01*
X112299666Y-76900000D01*
X112095032Y-76900000D01*
X111892931Y-76932009D01*
X111698317Y-76995244D01*
X111515993Y-77088143D01*
X111471426Y-77120523D01*
X111471426Y-77120524D01*
X112150903Y-77800000D01*
X112144688Y-77800000D01*
X112042955Y-77827259D01*
X111951743Y-77879920D01*
X111877269Y-77954394D01*
X111824608Y-78045606D01*
X111797349Y-78147339D01*
X111797349Y-78153553D01*
X111117873Y-77474077D01*
X111117872Y-77474077D01*
X111085492Y-77518644D01*
X110992593Y-77700968D01*
X110929358Y-77895582D01*
X110897349Y-78097682D01*
X108497848Y-78097682D01*
X108497848Y-77352128D01*
X108491440Y-77292517D01*
X108491439Y-77292513D01*
X108461080Y-77211116D01*
X108441146Y-77157671D01*
X108441142Y-77157664D01*
X108354896Y-77042455D01*
X108354893Y-77042452D01*
X108239684Y-76956206D01*
X108239677Y-76956202D01*
X108104831Y-76905908D01*
X108104832Y-76905908D01*
X108045232Y-76899501D01*
X108045230Y-76899500D01*
X108045222Y-76899500D01*
X108045213Y-76899500D01*
X106349478Y-76899500D01*
X106349472Y-76899501D01*
X106289865Y-76905908D01*
X106155020Y-76956202D01*
X106155013Y-76956206D01*
X106039804Y-77042452D01*
X106039801Y-77042455D01*
X105953555Y-77157664D01*
X105953551Y-77157671D01*
X105903259Y-77292513D01*
X105903258Y-77292517D01*
X105898286Y-77338757D01*
X105897409Y-77340875D01*
X105897736Y-77343147D01*
X105884106Y-77372990D01*
X105871550Y-77403306D01*
X105869664Y-77404615D01*
X105868711Y-77406703D01*
X105841109Y-77424441D01*
X105814158Y-77443154D01*
X105811261Y-77443623D01*
X105809933Y-77444477D01*
X105774998Y-77449500D01*
X105757204Y-77449500D01*
X105690165Y-77429815D01*
X105669523Y-77413181D01*
X105616930Y-77360588D01*
X105616928Y-77360586D01*
X105476788Y-77258768D01*
X105322445Y-77180127D01*
X105157701Y-77126598D01*
X105157699Y-77126597D01*
X105157698Y-77126597D01*
X105026271Y-77105781D01*
X104986611Y-77099500D01*
X104813389Y-77099500D01*
X104773728Y-77105781D01*
X104642302Y-77126597D01*
X104477552Y-77180128D01*
X104323211Y-77258768D01*
X104243256Y-77316859D01*
X104183072Y-77360586D01*
X104183070Y-77360588D01*
X104183069Y-77360588D01*
X104060588Y-77483069D01*
X104060588Y-77483070D01*
X104060586Y-77483072D01*
X104034737Y-77518650D01*
X103958768Y-77623211D01*
X103880128Y-77777552D01*
X103826597Y-77942302D01*
X103810482Y-78044051D01*
X103799500Y-78113389D01*
X77900500Y-78113389D01*
X77900500Y-78028712D01*
X77868838Y-77788211D01*
X77806054Y-77553900D01*
X77713224Y-77329788D01*
X77591936Y-77119711D01*
X77496429Y-76995244D01*
X77444266Y-76927263D01*
X77444260Y-76927256D01*
X77272743Y-76755739D01*
X77272736Y-76755733D01*
X77080293Y-76608067D01*
X77080292Y-76608066D01*
X77080289Y-76608064D01*
X76870212Y-76486776D01*
X76870205Y-76486773D01*
X76646104Y-76393947D01*
X76411785Y-76331161D01*
X76171289Y-76299500D01*
X76171288Y-76299500D01*
X75928712Y-76299500D01*
X75928711Y-76299500D01*
X75688214Y-76331161D01*
X75453895Y-76393947D01*
X75229794Y-76486773D01*
X75229785Y-76486777D01*
X75019706Y-76608067D01*
X74827263Y-76755733D01*
X74827256Y-76755739D01*
X74655739Y-76927256D01*
X74655733Y-76927263D01*
X74508067Y-77119706D01*
X74386777Y-77329785D01*
X74386773Y-77329794D01*
X74293947Y-77553895D01*
X74231161Y-77788214D01*
X74199500Y-78028711D01*
X73750500Y-78028711D01*
X73750500Y-75324500D01*
X73770185Y-75257461D01*
X73822989Y-75211706D01*
X73874500Y-75200500D01*
X78692795Y-75200500D01*
X78759834Y-75220185D01*
X78780476Y-75236818D01*
X78883072Y-75339414D01*
X79023212Y-75441232D01*
X79177555Y-75519873D01*
X79342299Y-75573402D01*
X79513389Y-75600500D01*
X79513390Y-75600500D01*
X79686610Y-75600500D01*
X79686611Y-75600500D01*
X79857701Y-75573402D01*
X80022445Y-75519873D01*
X80176788Y-75441232D01*
X80316928Y-75339414D01*
X80419524Y-75236818D01*
X80446457Y-75222111D01*
X80472270Y-75205523D01*
X80478470Y-75204631D01*
X80480847Y-75203334D01*
X80507205Y-75200500D01*
X80583301Y-75200500D01*
X80650340Y-75220185D01*
X80696095Y-75272989D01*
X80707301Y-75324500D01*
X80707301Y-75347876D01*
X80713708Y-75407483D01*
X80764002Y-75542328D01*
X80764006Y-75542335D01*
X80850252Y-75657544D01*
X80850255Y-75657547D01*
X80965464Y-75743793D01*
X80965471Y-75743797D01*
X81100317Y-75794091D01*
X81100316Y-75794091D01*
X81107244Y-75794835D01*
X81159927Y-75800500D01*
X82955672Y-75800499D01*
X83015283Y-75794091D01*
X83150131Y-75743796D01*
X83265346Y-75657546D01*
X83351596Y-75542331D01*
X83400610Y-75410916D01*
X83442481Y-75354984D01*
X83507945Y-75330566D01*
X83576218Y-75345417D01*
X83604473Y-75366569D01*
X83718013Y-75480109D01*
X83889979Y-75605048D01*
X83889981Y-75605049D01*
X83889984Y-75605051D01*
X84079388Y-75701557D01*
X84281557Y-75767246D01*
X84491513Y-75800500D01*
X84491514Y-75800500D01*
X84704086Y-75800500D01*
X84704087Y-75800500D01*
X84914043Y-75767246D01*
X85116212Y-75701557D01*
X85305616Y-75605051D01*
X85327589Y-75589086D01*
X85477586Y-75480109D01*
X85477588Y-75480106D01*
X85477592Y-75480104D01*
X85627904Y-75329792D01*
X85627906Y-75329788D01*
X85627909Y-75329786D01*
X85752848Y-75157820D01*
X85752847Y-75157820D01*
X85752851Y-75157816D01*
X85849357Y-74968412D01*
X85915046Y-74766243D01*
X85948300Y-74556287D01*
X85948300Y-74343713D01*
X85915046Y-74133757D01*
X85849357Y-73931588D01*
X85752851Y-73742184D01*
X85752849Y-73742181D01*
X85752848Y-73742179D01*
X85627909Y-73570213D01*
X85477586Y-73419890D01*
X85305620Y-73294951D01*
X85116214Y-73198444D01*
X85116213Y-73198443D01*
X85116212Y-73198443D01*
X84914043Y-73132754D01*
X84914041Y-73132753D01*
X84914040Y-73132753D01*
X84752757Y-73107208D01*
X84704087Y-73099500D01*
X84704086Y-73099500D01*
X84680608Y-73099500D01*
X84613569Y-73079815D01*
X84592927Y-73063181D01*
X83991928Y-72462181D01*
X83958443Y-72400858D01*
X83963427Y-72331166D01*
X84005299Y-72275233D01*
X84070763Y-72250816D01*
X84079609Y-72250500D01*
X102240391Y-72250500D01*
X102307430Y-72270185D01*
X102353185Y-72322989D01*
X102363129Y-72392147D01*
X102334104Y-72455703D01*
X102328072Y-72462181D01*
X101690910Y-73099342D01*
X101629587Y-73132827D01*
X101581445Y-73132315D01*
X101581255Y-73133516D01*
X101476311Y-73116894D01*
X101366487Y-73099500D01*
X101153913Y-73099500D01*
X101105242Y-73107208D01*
X100943960Y-73132753D01*
X100741785Y-73198444D01*
X100552379Y-73294951D01*
X100380413Y-73419890D01*
X100230090Y-73570213D01*
X100105151Y-73742179D01*
X100008644Y-73931585D01*
X99942953Y-74133760D01*
X99909700Y-74343713D01*
X99909700Y-74556286D01*
X99942953Y-74766239D01*
X100008644Y-74968414D01*
X100105151Y-75157820D01*
X100230090Y-75329786D01*
X100380413Y-75480109D01*
X100552379Y-75605048D01*
X100552381Y-75605049D01*
X100552384Y-75605051D01*
X100741788Y-75701557D01*
X100943957Y-75767246D01*
X101153913Y-75800500D01*
X101153914Y-75800500D01*
X101366486Y-75800500D01*
X101366487Y-75800500D01*
X101576443Y-75767246D01*
X101778612Y-75701557D01*
X101968016Y-75605051D01*
X101989989Y-75589086D01*
X102139986Y-75480109D01*
X102139988Y-75480106D01*
X102139992Y-75480104D01*
X102290304Y-75329792D01*
X102290306Y-75329788D01*
X102290309Y-75329786D01*
X102415248Y-75157820D01*
X102415247Y-75157820D01*
X102415251Y-75157816D01*
X102419714Y-75149054D01*
X102467688Y-75098259D01*
X102535508Y-75081463D01*
X102601644Y-75103999D01*
X102640686Y-75149056D01*
X102645151Y-75157820D01*
X102770090Y-75329786D01*
X102920413Y-75480109D01*
X103092379Y-75605048D01*
X103092381Y-75605049D01*
X103092384Y-75605051D01*
X103281788Y-75701557D01*
X103483957Y-75767246D01*
X103693913Y-75800500D01*
X103693914Y-75800500D01*
X103906486Y-75800500D01*
X103906487Y-75800500D01*
X104116443Y-75767246D01*
X104318612Y-75701557D01*
X104508016Y-75605051D01*
X104529989Y-75589086D01*
X104679986Y-75480109D01*
X104679988Y-75480106D01*
X104679992Y-75480104D01*
X104830304Y-75329792D01*
X104859640Y-75289414D01*
X104887103Y-75251615D01*
X104942433Y-75208949D01*
X104987421Y-75200500D01*
X112092796Y-75200500D01*
X112159835Y-75220185D01*
X112180476Y-75236818D01*
X112183072Y-75239414D01*
X112323212Y-75341232D01*
X112477555Y-75419873D01*
X112642299Y-75473402D01*
X112813389Y-75500500D01*
X112813390Y-75500500D01*
X112986610Y-75500500D01*
X112986611Y-75500500D01*
X113157701Y-75473402D01*
X113322445Y-75419873D01*
X113476788Y-75341232D01*
X113616928Y-75239414D01*
X113619523Y-75236819D01*
X113646450Y-75222115D01*
X113672269Y-75205523D01*
X113678469Y-75204631D01*
X113680846Y-75203334D01*
X113707204Y-75200500D01*
X113908101Y-75200500D01*
X113975140Y-75220185D01*
X114020895Y-75272989D01*
X114032101Y-75324500D01*
X114032101Y-75347876D01*
X114038508Y-75407483D01*
X114088802Y-75542328D01*
X114088806Y-75542335D01*
X114175052Y-75657544D01*
X114175055Y-75657547D01*
X114290264Y-75743793D01*
X114290271Y-75743797D01*
X114425117Y-75794091D01*
X114425116Y-75794091D01*
X114432044Y-75794835D01*
X114484727Y-75800500D01*
X116280472Y-75800499D01*
X116340083Y-75794091D01*
X116474931Y-75743796D01*
X116590146Y-75657546D01*
X116676396Y-75542331D01*
X116725410Y-75410916D01*
X116767281Y-75354984D01*
X116832745Y-75330566D01*
X116901018Y-75345417D01*
X116929273Y-75366569D01*
X117042813Y-75480109D01*
X117214779Y-75605048D01*
X117214781Y-75605049D01*
X117214784Y-75605051D01*
X117404188Y-75701557D01*
X117606357Y-75767246D01*
X117816313Y-75800500D01*
X117816314Y-75800500D01*
X118028886Y-75800500D01*
X118028887Y-75800500D01*
X118238843Y-75767246D01*
X118441012Y-75701557D01*
X118630416Y-75605051D01*
X118652389Y-75589086D01*
X118802386Y-75480109D01*
X118802388Y-75480106D01*
X118802392Y-75480104D01*
X118952704Y-75329792D01*
X118952706Y-75329788D01*
X118952709Y-75329786D01*
X119077648Y-75157820D01*
X119077647Y-75157820D01*
X119077651Y-75157816D01*
X119174157Y-74968412D01*
X119239846Y-74766243D01*
X119273100Y-74556287D01*
X119273100Y-74343713D01*
X119239846Y-74133757D01*
X119174157Y-73931588D01*
X119077651Y-73742184D01*
X119077649Y-73742181D01*
X119077648Y-73742179D01*
X118952709Y-73570213D01*
X118802386Y-73419890D01*
X118626475Y-73292085D01*
X118627451Y-73290740D01*
X118585434Y-73244295D01*
X118573100Y-73190382D01*
X118573100Y-73183847D01*
X118548102Y-73058180D01*
X118548101Y-73058179D01*
X118548101Y-73058175D01*
X118499065Y-72939792D01*
X118462408Y-72884931D01*
X118427876Y-72833249D01*
X118427874Y-72833247D01*
X118427872Y-72833244D01*
X118056809Y-72462181D01*
X118023324Y-72400858D01*
X118028308Y-72331166D01*
X118070180Y-72275233D01*
X118135644Y-72250816D01*
X118144490Y-72250500D01*
X135565191Y-72250500D01*
X135632230Y-72270185D01*
X135677985Y-72322989D01*
X135687929Y-72392147D01*
X135658904Y-72455703D01*
X135652872Y-72462181D01*
X135015710Y-73099342D01*
X134954387Y-73132827D01*
X134906245Y-73132315D01*
X134906055Y-73133516D01*
X134801111Y-73116894D01*
X134691287Y-73099500D01*
X134478713Y-73099500D01*
X134430042Y-73107208D01*
X134268760Y-73132753D01*
X134066585Y-73198444D01*
X133877179Y-73294951D01*
X133705213Y-73419890D01*
X133554890Y-73570213D01*
X133429951Y-73742179D01*
X133333444Y-73931585D01*
X133267753Y-74133760D01*
X133234500Y-74343713D01*
X133234500Y-74556286D01*
X133267753Y-74766239D01*
X133333444Y-74968414D01*
X133429951Y-75157820D01*
X133554890Y-75329786D01*
X133705213Y-75480109D01*
X133877179Y-75605048D01*
X133877181Y-75605049D01*
X133877184Y-75605051D01*
X134066588Y-75701557D01*
X134268757Y-75767246D01*
X134478713Y-75800500D01*
X134478714Y-75800500D01*
X134691286Y-75800500D01*
X134691287Y-75800500D01*
X134901243Y-75767246D01*
X135103412Y-75701557D01*
X135292816Y-75605051D01*
X135314789Y-75589086D01*
X135464786Y-75480109D01*
X135464788Y-75480106D01*
X135464792Y-75480104D01*
X135615104Y-75329792D01*
X135615106Y-75329788D01*
X135615109Y-75329786D01*
X135740048Y-75157820D01*
X135740047Y-75157820D01*
X135740051Y-75157816D01*
X135744514Y-75149054D01*
X135792488Y-75098259D01*
X135860308Y-75081463D01*
X135926444Y-75103999D01*
X135965486Y-75149056D01*
X135969951Y-75157820D01*
X136094890Y-75329786D01*
X136245213Y-75480109D01*
X136417179Y-75605048D01*
X136417181Y-75605049D01*
X136417184Y-75605051D01*
X136606588Y-75701557D01*
X136808757Y-75767246D01*
X137018713Y-75800500D01*
X137018714Y-75800500D01*
X137231286Y-75800500D01*
X137231287Y-75800500D01*
X137441243Y-75767246D01*
X137643412Y-75701557D01*
X137832816Y-75605051D01*
X137854789Y-75589086D01*
X138004786Y-75480109D01*
X138004788Y-75480106D01*
X138004792Y-75480104D01*
X138155104Y-75329792D01*
X138184440Y-75289414D01*
X138211903Y-75251615D01*
X138267233Y-75208949D01*
X138312221Y-75200500D01*
X142442796Y-75200500D01*
X142509835Y-75220185D01*
X142530476Y-75236818D01*
X142583072Y-75289414D01*
X142723212Y-75391232D01*
X142877555Y-75469873D01*
X143042299Y-75523402D01*
X143213389Y-75550500D01*
X143213390Y-75550500D01*
X143386610Y-75550500D01*
X143386611Y-75550500D01*
X143557701Y-75523402D01*
X143722445Y-75469873D01*
X143876788Y-75391232D01*
X144016928Y-75289414D01*
X144069523Y-75236819D01*
X144130846Y-75203334D01*
X144157204Y-75200500D01*
X147232901Y-75200500D01*
X147299940Y-75220185D01*
X147345695Y-75272989D01*
X147356901Y-75324500D01*
X147356901Y-75347876D01*
X147363308Y-75407483D01*
X147413602Y-75542328D01*
X147413606Y-75542335D01*
X147499852Y-75657544D01*
X147499855Y-75657547D01*
X147615064Y-75743793D01*
X147615071Y-75743797D01*
X147749917Y-75794091D01*
X147749916Y-75794091D01*
X147756844Y-75794835D01*
X147809527Y-75800500D01*
X149605272Y-75800499D01*
X149664883Y-75794091D01*
X149799731Y-75743796D01*
X149914946Y-75657546D01*
X150001196Y-75542331D01*
X150050210Y-75410916D01*
X150092081Y-75354984D01*
X150157545Y-75330566D01*
X150225818Y-75345417D01*
X150254073Y-75366569D01*
X150367613Y-75480109D01*
X150539579Y-75605048D01*
X150539581Y-75605049D01*
X150539584Y-75605051D01*
X150728988Y-75701557D01*
X150931157Y-75767246D01*
X151141113Y-75800500D01*
X151141114Y-75800500D01*
X151353686Y-75800500D01*
X151353687Y-75800500D01*
X151563643Y-75767246D01*
X151765812Y-75701557D01*
X151955216Y-75605051D01*
X151977189Y-75589086D01*
X152127186Y-75480109D01*
X152127188Y-75480106D01*
X152127192Y-75480104D01*
X152277504Y-75329792D01*
X152277506Y-75329788D01*
X152277509Y-75329786D01*
X152402448Y-75157820D01*
X152402447Y-75157820D01*
X152402451Y-75157816D01*
X152498957Y-74968412D01*
X152564646Y-74766243D01*
X152597900Y-74556287D01*
X152597900Y-74343713D01*
X152564646Y-74133757D01*
X152498957Y-73931588D01*
X152402451Y-73742184D01*
X152402449Y-73742181D01*
X152402448Y-73742179D01*
X152277509Y-73570213D01*
X152127186Y-73419890D01*
X151955220Y-73294951D01*
X151765814Y-73198444D01*
X151765813Y-73198443D01*
X151765812Y-73198443D01*
X151563643Y-73132754D01*
X151563641Y-73132753D01*
X151563640Y-73132753D01*
X151402357Y-73107208D01*
X151353687Y-73099500D01*
X151353686Y-73099500D01*
X151330208Y-73099500D01*
X151263169Y-73079815D01*
X151242527Y-73063181D01*
X150641528Y-72462181D01*
X150608043Y-72400858D01*
X150613027Y-72331166D01*
X150654899Y-72275233D01*
X150720363Y-72250816D01*
X150729209Y-72250500D01*
X170125500Y-72250500D01*
X170192539Y-72270185D01*
X170238294Y-72322989D01*
X170249500Y-72374500D01*
X170249500Y-82325500D01*
X170229815Y-82392539D01*
X170177011Y-82438294D01*
X170125500Y-82449500D01*
X58474500Y-82449500D01*
X58407461Y-82429815D01*
X58361706Y-82377011D01*
X58350500Y-82325500D01*
X58350500Y-78043713D01*
X66984500Y-78043713D01*
X66984500Y-78256287D01*
X67017754Y-78466243D01*
X67068507Y-78622445D01*
X67083444Y-78668414D01*
X67179951Y-78857820D01*
X67304890Y-79029786D01*
X67455213Y-79180109D01*
X67627179Y-79305048D01*
X67627181Y-79305049D01*
X67627184Y-79305051D01*
X67816588Y-79401557D01*
X68018757Y-79467246D01*
X68228713Y-79500500D01*
X68228714Y-79500500D01*
X68441286Y-79500500D01*
X68441287Y-79500500D01*
X68651243Y-79467246D01*
X68853412Y-79401557D01*
X69042816Y-79305051D01*
X69078020Y-79279474D01*
X69214786Y-79180109D01*
X69214788Y-79180106D01*
X69214792Y-79180104D01*
X69365104Y-79029792D01*
X69365106Y-79029788D01*
X69365109Y-79029786D01*
X69490048Y-78857820D01*
X69490047Y-78857820D01*
X69490051Y-78857816D01*
X69586557Y-78668412D01*
X69652246Y-78466243D01*
X69685500Y-78256287D01*
X69685500Y-78043713D01*
X69652246Y-77833757D01*
X69586557Y-77631588D01*
X69490051Y-77442184D01*
X69490049Y-77442181D01*
X69490048Y-77442179D01*
X69365109Y-77270213D01*
X69214786Y-77119890D01*
X69042820Y-76994951D01*
X68853414Y-76898444D01*
X68853413Y-76898443D01*
X68853412Y-76898443D01*
X68651243Y-76832754D01*
X68651241Y-76832753D01*
X68651240Y-76832753D01*
X68489957Y-76807208D01*
X68441287Y-76799500D01*
X68228713Y-76799500D01*
X68180042Y-76807208D01*
X68018760Y-76832753D01*
X67816585Y-76898444D01*
X67627179Y-76994951D01*
X67455213Y-77119890D01*
X67304890Y-77270213D01*
X67179951Y-77442179D01*
X67083444Y-77631585D01*
X67017753Y-77833760D01*
X67000562Y-77942302D01*
X66984500Y-78043713D01*
X58350500Y-78043713D01*
X58350500Y-72374500D01*
X58370185Y-72307461D01*
X58422989Y-72261706D01*
X58474500Y-72250500D01*
X68915591Y-72250500D01*
X68982630Y-72270185D01*
G37*
G04 #@! TD.AperFunction*
G04 #@! TD*
G04 #@! TA.AperFunction,Conductor*
G04 #@! TO.N,GND2*
G36*
X82071103Y-60970185D02*
G01*
X82116858Y-61022989D01*
X82126802Y-61092147D01*
X82097777Y-61155703D01*
X82072956Y-61177601D01*
X82068223Y-61180763D01*
X82047328Y-61194724D01*
X81391710Y-61850342D01*
X81330387Y-61883827D01*
X81282245Y-61883315D01*
X81282055Y-61884516D01*
X81177111Y-61867894D01*
X81067287Y-61850500D01*
X80854713Y-61850500D01*
X80806042Y-61858208D01*
X80644760Y-61883753D01*
X80442585Y-61949444D01*
X80253179Y-62045951D01*
X80081213Y-62170890D01*
X79930890Y-62321213D01*
X79805951Y-62493179D01*
X79709444Y-62682585D01*
X79643753Y-62884760D01*
X79610500Y-63094713D01*
X79610500Y-63307286D01*
X79643753Y-63517239D01*
X79709444Y-63719414D01*
X79805951Y-63908820D01*
X79930890Y-64080786D01*
X80081213Y-64231109D01*
X80253179Y-64356048D01*
X80253181Y-64356049D01*
X80253184Y-64356051D01*
X80442588Y-64452557D01*
X80644757Y-64518246D01*
X80854713Y-64551500D01*
X80854714Y-64551500D01*
X81067286Y-64551500D01*
X81067287Y-64551500D01*
X81277243Y-64518246D01*
X81479412Y-64452557D01*
X81668816Y-64356051D01*
X81755138Y-64293335D01*
X81840786Y-64231109D01*
X81840788Y-64231106D01*
X81840792Y-64231104D01*
X81991104Y-64080792D01*
X81991106Y-64080788D01*
X81991109Y-64080786D01*
X82116048Y-63908820D01*
X82116047Y-63908820D01*
X82116051Y-63908816D01*
X82120514Y-63900054D01*
X82168488Y-63849259D01*
X82236308Y-63832463D01*
X82302444Y-63854999D01*
X82341486Y-63900056D01*
X82345951Y-63908820D01*
X82470890Y-64080786D01*
X82621213Y-64231109D01*
X82793179Y-64356048D01*
X82793181Y-64356049D01*
X82793184Y-64356051D01*
X82982588Y-64452557D01*
X83184757Y-64518246D01*
X83394713Y-64551500D01*
X83394714Y-64551500D01*
X83607286Y-64551500D01*
X83607287Y-64551500D01*
X83817243Y-64518246D01*
X84019412Y-64452557D01*
X84208816Y-64356051D01*
X84295138Y-64293335D01*
X84380786Y-64231109D01*
X84380788Y-64231106D01*
X84380792Y-64231104D01*
X84531104Y-64080792D01*
X84531831Y-64079792D01*
X84587903Y-64002615D01*
X84643233Y-63959949D01*
X84688221Y-63951500D01*
X88442796Y-63951500D01*
X88509835Y-63971185D01*
X88530477Y-63987819D01*
X88583072Y-64040414D01*
X88723212Y-64142232D01*
X88877555Y-64220873D01*
X89042299Y-64274402D01*
X89213389Y-64301500D01*
X89213390Y-64301500D01*
X89386610Y-64301500D01*
X89386611Y-64301500D01*
X89557701Y-64274402D01*
X89722445Y-64220873D01*
X89876788Y-64142232D01*
X90016928Y-64040414D01*
X90069523Y-63987819D01*
X90130846Y-63954334D01*
X90157204Y-63951500D01*
X92972922Y-63951500D01*
X92977015Y-63951097D01*
X92989166Y-63950500D01*
X93600501Y-63950500D01*
X93667540Y-63970185D01*
X93713295Y-64022989D01*
X93724501Y-64074500D01*
X93724501Y-64097876D01*
X93730908Y-64157483D01*
X93781202Y-64292328D01*
X93781206Y-64292335D01*
X93867452Y-64407544D01*
X93867455Y-64407547D01*
X93982664Y-64493793D01*
X93982671Y-64493797D01*
X94117517Y-64544091D01*
X94117516Y-64544091D01*
X94124444Y-64544835D01*
X94177127Y-64550500D01*
X95972872Y-64550499D01*
X96032483Y-64544091D01*
X96167331Y-64493796D01*
X96282546Y-64407546D01*
X96368796Y-64292331D01*
X96417810Y-64160916D01*
X96459681Y-64104984D01*
X96525145Y-64080566D01*
X96593418Y-64095417D01*
X96621673Y-64116569D01*
X96735213Y-64230109D01*
X96907179Y-64355048D01*
X96907181Y-64355049D01*
X96907184Y-64355051D01*
X97096588Y-64451557D01*
X97298757Y-64517246D01*
X97508713Y-64550500D01*
X97508714Y-64550500D01*
X97721286Y-64550500D01*
X97721287Y-64550500D01*
X97931243Y-64517246D01*
X98133412Y-64451557D01*
X98322816Y-64355051D01*
X98371235Y-64319873D01*
X98494786Y-64230109D01*
X98494788Y-64230106D01*
X98494792Y-64230104D01*
X98645104Y-64079792D01*
X98645106Y-64079788D01*
X98645109Y-64079786D01*
X98754086Y-63929789D01*
X98770051Y-63907816D01*
X98866557Y-63718412D01*
X98932246Y-63516243D01*
X98965500Y-63306287D01*
X98965500Y-63093713D01*
X98932246Y-62883757D01*
X98866557Y-62681588D01*
X98770051Y-62492184D01*
X98770049Y-62492181D01*
X98770048Y-62492179D01*
X98645109Y-62320213D01*
X98494786Y-62169890D01*
X98318875Y-62042085D01*
X98319851Y-62040740D01*
X98277834Y-61994295D01*
X98265500Y-61940382D01*
X98265500Y-61933847D01*
X98240502Y-61808180D01*
X98240501Y-61808179D01*
X98240501Y-61808175D01*
X98191465Y-61689792D01*
X98120277Y-61583250D01*
X98120275Y-61583248D01*
X98120273Y-61583245D01*
X97731752Y-61194724D01*
X97713943Y-61182825D01*
X97706125Y-61177601D01*
X97661321Y-61123990D01*
X97652614Y-61054665D01*
X97682768Y-60991638D01*
X97742211Y-60954918D01*
X97775017Y-60950500D01*
X115456567Y-60950500D01*
X115523606Y-60970185D01*
X115569361Y-61022989D01*
X115579305Y-61092147D01*
X115550280Y-61155703D01*
X115525458Y-61177602D01*
X115501328Y-61193724D01*
X114845710Y-61849342D01*
X114784387Y-61882827D01*
X114736245Y-61882315D01*
X114736055Y-61883516D01*
X114568065Y-61856909D01*
X114521287Y-61849500D01*
X114308713Y-61849500D01*
X114261941Y-61856908D01*
X114098760Y-61882753D01*
X113896585Y-61948444D01*
X113707179Y-62044951D01*
X113535213Y-62169890D01*
X113384890Y-62320213D01*
X113259951Y-62492179D01*
X113163444Y-62681585D01*
X113097753Y-62883760D01*
X113097595Y-62884760D01*
X113064500Y-63093713D01*
X113064500Y-63306287D01*
X113074534Y-63369644D01*
X113097753Y-63516239D01*
X113163444Y-63718414D01*
X113259951Y-63907820D01*
X113384890Y-64079786D01*
X113535213Y-64230109D01*
X113707179Y-64355048D01*
X113707181Y-64355049D01*
X113707184Y-64355051D01*
X113896588Y-64451557D01*
X114098757Y-64517246D01*
X114308713Y-64550500D01*
X114308714Y-64550500D01*
X114521286Y-64550500D01*
X114521287Y-64550500D01*
X114731243Y-64517246D01*
X114933412Y-64451557D01*
X115122816Y-64355051D01*
X115171235Y-64319873D01*
X115294786Y-64230109D01*
X115294788Y-64230106D01*
X115294792Y-64230104D01*
X115445104Y-64079792D01*
X115445106Y-64079788D01*
X115445109Y-64079786D01*
X115554086Y-63929789D01*
X115570051Y-63907816D01*
X115574514Y-63899054D01*
X115622488Y-63848259D01*
X115690308Y-63831463D01*
X115756444Y-63853999D01*
X115795486Y-63899056D01*
X115799951Y-63907820D01*
X115924890Y-64079786D01*
X116075213Y-64230109D01*
X116247179Y-64355048D01*
X116247181Y-64355049D01*
X116247184Y-64355051D01*
X116436588Y-64451557D01*
X116638757Y-64517246D01*
X116848713Y-64550500D01*
X116848714Y-64550500D01*
X117061286Y-64550500D01*
X117061287Y-64550500D01*
X117271243Y-64517246D01*
X117473412Y-64451557D01*
X117662816Y-64355051D01*
X117711235Y-64319873D01*
X117834786Y-64230109D01*
X117834788Y-64230106D01*
X117834792Y-64230104D01*
X117985104Y-64079792D01*
X118041175Y-64002615D01*
X118096505Y-63959949D01*
X118141494Y-63951500D01*
X121842796Y-63951500D01*
X121909835Y-63971185D01*
X121930477Y-63987819D01*
X121983072Y-64040414D01*
X122123212Y-64142232D01*
X122277555Y-64220873D01*
X122442299Y-64274402D01*
X122613389Y-64301500D01*
X122613390Y-64301500D01*
X122786610Y-64301500D01*
X122786611Y-64301500D01*
X122957701Y-64274402D01*
X123122445Y-64220873D01*
X123276788Y-64142232D01*
X123416928Y-64040414D01*
X123469523Y-63987819D01*
X123530846Y-63954334D01*
X123557204Y-63951500D01*
X126933701Y-63951500D01*
X127000740Y-63971185D01*
X127046495Y-64023989D01*
X127057701Y-64075500D01*
X127057701Y-64098876D01*
X127064108Y-64158483D01*
X127114402Y-64293328D01*
X127114406Y-64293335D01*
X127200652Y-64408544D01*
X127200655Y-64408547D01*
X127315864Y-64494793D01*
X127315871Y-64494797D01*
X127450717Y-64545091D01*
X127450716Y-64545091D01*
X127457644Y-64545835D01*
X127510327Y-64551500D01*
X129306072Y-64551499D01*
X129365683Y-64545091D01*
X129500531Y-64494796D01*
X129615746Y-64408546D01*
X129701996Y-64293331D01*
X129751010Y-64161916D01*
X129792881Y-64105984D01*
X129858345Y-64081566D01*
X129926618Y-64096417D01*
X129954873Y-64117569D01*
X130068413Y-64231109D01*
X130240379Y-64356048D01*
X130240381Y-64356049D01*
X130240384Y-64356051D01*
X130429788Y-64452557D01*
X130631957Y-64518246D01*
X130841913Y-64551500D01*
X130841914Y-64551500D01*
X131054486Y-64551500D01*
X131054487Y-64551500D01*
X131264443Y-64518246D01*
X131466612Y-64452557D01*
X131656016Y-64356051D01*
X131742338Y-64293335D01*
X131827986Y-64231109D01*
X131827988Y-64231106D01*
X131827992Y-64231104D01*
X131978304Y-64080792D01*
X131978306Y-64080788D01*
X131978309Y-64080786D01*
X132103248Y-63908820D01*
X132103247Y-63908820D01*
X132103251Y-63908816D01*
X132199757Y-63719412D01*
X132265446Y-63517243D01*
X132298700Y-63307287D01*
X132298700Y-63094713D01*
X132265446Y-62884757D01*
X132199757Y-62682588D01*
X132103251Y-62493184D01*
X132103249Y-62493181D01*
X132103248Y-62493179D01*
X131978309Y-62321213D01*
X131827986Y-62170890D01*
X131656020Y-62045951D01*
X131466614Y-61949444D01*
X131466613Y-61949443D01*
X131466612Y-61949443D01*
X131264443Y-61883754D01*
X131264441Y-61883753D01*
X131264440Y-61883753D01*
X131103157Y-61858208D01*
X131054487Y-61850500D01*
X131054486Y-61850500D01*
X131031008Y-61850500D01*
X130963969Y-61830815D01*
X130943327Y-61814181D01*
X130322874Y-61193727D01*
X130322870Y-61193724D01*
X130322869Y-61193723D01*
X130298740Y-61177600D01*
X130253937Y-61123991D01*
X130245228Y-61054666D01*
X130275382Y-60991639D01*
X130334825Y-60954919D01*
X130367632Y-60950500D01*
X148653664Y-60950500D01*
X148720703Y-60970185D01*
X148766458Y-61022989D01*
X148776402Y-61092147D01*
X148747377Y-61155703D01*
X148722556Y-61177601D01*
X148717823Y-61180763D01*
X148696928Y-61194724D01*
X148041310Y-61850342D01*
X147979987Y-61883827D01*
X147931845Y-61883315D01*
X147931655Y-61884516D01*
X147826711Y-61867894D01*
X147716887Y-61850500D01*
X147504313Y-61850500D01*
X147455642Y-61858208D01*
X147294360Y-61883753D01*
X147092185Y-61949444D01*
X146902779Y-62045951D01*
X146730813Y-62170890D01*
X146580490Y-62321213D01*
X146455551Y-62493179D01*
X146359044Y-62682585D01*
X146293353Y-62884760D01*
X146260100Y-63094713D01*
X146260100Y-63307286D01*
X146293353Y-63517239D01*
X146359044Y-63719414D01*
X146455551Y-63908820D01*
X146580490Y-64080786D01*
X146730813Y-64231109D01*
X146902779Y-64356048D01*
X146902781Y-64356049D01*
X146902784Y-64356051D01*
X147092188Y-64452557D01*
X147294357Y-64518246D01*
X147504313Y-64551500D01*
X147504314Y-64551500D01*
X147716886Y-64551500D01*
X147716887Y-64551500D01*
X147926843Y-64518246D01*
X148129012Y-64452557D01*
X148318416Y-64356051D01*
X148404738Y-64293335D01*
X148490386Y-64231109D01*
X148490388Y-64231106D01*
X148490392Y-64231104D01*
X148640704Y-64080792D01*
X148640706Y-64080788D01*
X148640709Y-64080786D01*
X148765648Y-63908820D01*
X148765647Y-63908820D01*
X148765651Y-63908816D01*
X148770114Y-63900054D01*
X148818088Y-63849259D01*
X148885908Y-63832463D01*
X148952044Y-63854999D01*
X148991086Y-63900056D01*
X148995551Y-63908820D01*
X149120490Y-64080786D01*
X149270813Y-64231109D01*
X149442779Y-64356048D01*
X149442781Y-64356049D01*
X149442784Y-64356051D01*
X149632188Y-64452557D01*
X149834357Y-64518246D01*
X150044313Y-64551500D01*
X150044314Y-64551500D01*
X150256886Y-64551500D01*
X150256887Y-64551500D01*
X150466843Y-64518246D01*
X150669012Y-64452557D01*
X150858416Y-64356051D01*
X150944738Y-64293335D01*
X151030386Y-64231109D01*
X151030388Y-64231106D01*
X151030392Y-64231104D01*
X151180704Y-64080792D01*
X151181431Y-64079792D01*
X151237503Y-64002615D01*
X151292833Y-63959949D01*
X151337821Y-63951500D01*
X155542796Y-63951500D01*
X155609835Y-63971185D01*
X155630477Y-63987819D01*
X155683072Y-64040414D01*
X155823212Y-64142232D01*
X155977555Y-64220873D01*
X156142299Y-64274402D01*
X156313389Y-64301500D01*
X156313390Y-64301500D01*
X156486610Y-64301500D01*
X156486611Y-64301500D01*
X156657701Y-64274402D01*
X156822445Y-64220873D01*
X156976788Y-64142232D01*
X157116928Y-64040414D01*
X157169523Y-63987819D01*
X157230846Y-63954334D01*
X157257204Y-63951500D01*
X160258501Y-63951500D01*
X160325540Y-63971185D01*
X160371295Y-64023989D01*
X160382501Y-64075500D01*
X160382501Y-64098876D01*
X160388908Y-64158483D01*
X160439202Y-64293328D01*
X160439206Y-64293335D01*
X160525452Y-64408544D01*
X160525455Y-64408547D01*
X160640664Y-64494793D01*
X160640671Y-64494797D01*
X160775517Y-64545091D01*
X160775516Y-64545091D01*
X160782444Y-64545835D01*
X160835127Y-64551500D01*
X162630872Y-64551499D01*
X162690483Y-64545091D01*
X162825331Y-64494796D01*
X162940546Y-64408546D01*
X163026796Y-64293331D01*
X163075810Y-64161916D01*
X163117681Y-64105984D01*
X163183145Y-64081566D01*
X163251418Y-64096417D01*
X163279673Y-64117569D01*
X163393213Y-64231109D01*
X163565179Y-64356048D01*
X163565181Y-64356049D01*
X163565184Y-64356051D01*
X163754588Y-64452557D01*
X163956757Y-64518246D01*
X164166713Y-64551500D01*
X164166714Y-64551500D01*
X164379286Y-64551500D01*
X164379287Y-64551500D01*
X164589243Y-64518246D01*
X164791412Y-64452557D01*
X164980816Y-64356051D01*
X165067138Y-64293335D01*
X165152786Y-64231109D01*
X165152788Y-64231106D01*
X165152792Y-64231104D01*
X165303104Y-64080792D01*
X165303106Y-64080788D01*
X165303109Y-64080786D01*
X165428048Y-63908820D01*
X165428047Y-63908820D01*
X165428051Y-63908816D01*
X165524557Y-63719412D01*
X165590246Y-63517243D01*
X165623500Y-63307287D01*
X165623500Y-63094713D01*
X165590246Y-62884757D01*
X165524557Y-62682588D01*
X165428051Y-62493184D01*
X165428049Y-62493181D01*
X165428048Y-62493179D01*
X165303109Y-62321213D01*
X165152786Y-62170890D01*
X164976875Y-62043085D01*
X164977851Y-62041740D01*
X164935834Y-61995295D01*
X164923500Y-61941382D01*
X164923500Y-61934847D01*
X164898502Y-61809180D01*
X164898501Y-61809179D01*
X164898501Y-61809175D01*
X164849465Y-61690792D01*
X164848797Y-61689793D01*
X164812140Y-61634931D01*
X164812140Y-61634930D01*
X164778277Y-61584250D01*
X164778271Y-61584243D01*
X164388752Y-61194724D01*
X164370943Y-61182825D01*
X164363125Y-61177601D01*
X164318321Y-61123990D01*
X164309614Y-61054665D01*
X164339768Y-60991638D01*
X164399211Y-60954918D01*
X164432017Y-60950500D01*
X170125500Y-60950500D01*
X170192539Y-60970185D01*
X170238294Y-61022989D01*
X170249500Y-61074500D01*
X170249500Y-71025500D01*
X170229815Y-71092539D01*
X170177011Y-71138294D01*
X170125500Y-71149500D01*
X58474500Y-71149500D01*
X58407461Y-71129815D01*
X58361706Y-71077011D01*
X58350500Y-71025500D01*
X58350500Y-69334713D01*
X69524500Y-69334713D01*
X69524500Y-69547287D01*
X69528460Y-69572287D01*
X69557753Y-69757239D01*
X69623444Y-69959414D01*
X69719951Y-70148820D01*
X69844890Y-70320786D01*
X69995213Y-70471109D01*
X70167179Y-70596048D01*
X70167181Y-70596049D01*
X70167184Y-70596051D01*
X70356588Y-70692557D01*
X70558757Y-70758246D01*
X70768713Y-70791500D01*
X70768714Y-70791500D01*
X70981286Y-70791500D01*
X70981287Y-70791500D01*
X71191243Y-70758246D01*
X71393412Y-70692557D01*
X71582816Y-70596051D01*
X71604789Y-70580086D01*
X71754786Y-70471109D01*
X71754788Y-70471106D01*
X71754792Y-70471104D01*
X71905104Y-70320792D01*
X71905106Y-70320788D01*
X71905109Y-70320786D01*
X72030048Y-70148820D01*
X72030047Y-70148820D01*
X72030051Y-70148816D01*
X72126557Y-69959412D01*
X72192246Y-69757243D01*
X72225500Y-69547287D01*
X72225500Y-69359713D01*
X163249500Y-69359713D01*
X163249500Y-69572286D01*
X163282753Y-69782239D01*
X163348444Y-69984414D01*
X163444951Y-70173820D01*
X163569890Y-70345786D01*
X163720213Y-70496109D01*
X163892179Y-70621048D01*
X163892181Y-70621049D01*
X163892184Y-70621051D01*
X164081588Y-70717557D01*
X164283757Y-70783246D01*
X164493713Y-70816500D01*
X164493714Y-70816500D01*
X164706286Y-70816500D01*
X164706287Y-70816500D01*
X164916243Y-70783246D01*
X165118412Y-70717557D01*
X165307816Y-70621051D01*
X165342230Y-70596048D01*
X165479786Y-70496109D01*
X165479788Y-70496106D01*
X165479792Y-70496104D01*
X165630104Y-70345792D01*
X165630106Y-70345788D01*
X165630109Y-70345786D01*
X165755048Y-70173820D01*
X165755047Y-70173820D01*
X165755051Y-70173816D01*
X165851557Y-69984412D01*
X165917246Y-69782243D01*
X165950500Y-69572287D01*
X165950500Y-69359713D01*
X165917246Y-69149757D01*
X165851557Y-68947588D01*
X165755051Y-68758184D01*
X165755049Y-68758181D01*
X165755048Y-68758179D01*
X165630109Y-68586213D01*
X165479786Y-68435890D01*
X165307820Y-68310951D01*
X165118414Y-68214444D01*
X165118413Y-68214443D01*
X165118412Y-68214443D01*
X164916243Y-68148754D01*
X164916241Y-68148753D01*
X164916240Y-68148753D01*
X164754957Y-68123208D01*
X164706287Y-68115500D01*
X164493713Y-68115500D01*
X164445042Y-68123208D01*
X164283760Y-68148753D01*
X164081585Y-68214444D01*
X163892179Y-68310951D01*
X163720213Y-68435890D01*
X163569890Y-68586213D01*
X163444951Y-68758179D01*
X163348444Y-68947585D01*
X163282753Y-69149760D01*
X163249500Y-69359713D01*
X72225500Y-69359713D01*
X72225500Y-69334713D01*
X72192246Y-69124757D01*
X72126557Y-68922588D01*
X72030051Y-68733184D01*
X72030049Y-68733181D01*
X72030048Y-68733179D01*
X71905109Y-68561213D01*
X71754786Y-68410890D01*
X71582820Y-68285951D01*
X71393414Y-68189444D01*
X71393413Y-68189443D01*
X71393412Y-68189443D01*
X71191243Y-68123754D01*
X71191241Y-68123753D01*
X71191240Y-68123753D01*
X71029957Y-68098208D01*
X70981287Y-68090500D01*
X70768713Y-68090500D01*
X70720042Y-68098208D01*
X70558760Y-68123753D01*
X70356585Y-68189444D01*
X70167179Y-68285951D01*
X69995213Y-68410890D01*
X69844890Y-68561213D01*
X69719951Y-68733179D01*
X69623444Y-68922585D01*
X69557753Y-69124760D01*
X69524500Y-69334713D01*
X58350500Y-69334713D01*
X58350500Y-64206204D01*
X58370185Y-64139165D01*
X58422989Y-64093410D01*
X58492147Y-64083466D01*
X58555703Y-64112491D01*
X58562181Y-64118523D01*
X58583072Y-64139414D01*
X58723212Y-64241232D01*
X58877555Y-64319873D01*
X59042299Y-64373402D01*
X59213389Y-64400500D01*
X59213390Y-64400500D01*
X59386610Y-64400500D01*
X59386611Y-64400500D01*
X59557701Y-64373402D01*
X59722445Y-64319873D01*
X59876788Y-64241232D01*
X60016928Y-64139414D01*
X60139414Y-64016928D01*
X60140206Y-64015836D01*
X60149814Y-64002615D01*
X60154145Y-63999274D01*
X60156419Y-63994297D01*
X60181521Y-63978164D01*
X60205144Y-63959949D01*
X60211815Y-63958696D01*
X60215197Y-63956523D01*
X60250132Y-63951500D01*
X60284101Y-63951500D01*
X60351140Y-63971185D01*
X60396895Y-64023989D01*
X60408101Y-64075500D01*
X60408101Y-64098876D01*
X60414508Y-64158483D01*
X60464802Y-64293328D01*
X60464806Y-64293335D01*
X60551052Y-64408544D01*
X60551055Y-64408547D01*
X60666264Y-64494793D01*
X60666271Y-64494797D01*
X60801117Y-64545091D01*
X60801116Y-64545091D01*
X60808044Y-64545835D01*
X60860727Y-64551500D01*
X62656472Y-64551499D01*
X62716083Y-64545091D01*
X62850931Y-64494796D01*
X62966146Y-64408546D01*
X63052396Y-64293331D01*
X63101410Y-64161916D01*
X63143281Y-64105984D01*
X63208745Y-64081566D01*
X63277018Y-64096417D01*
X63305273Y-64117569D01*
X63418808Y-64231104D01*
X63590784Y-64356051D01*
X63590788Y-64356053D01*
X63594726Y-64358914D01*
X63593746Y-64360262D01*
X63635760Y-64406690D01*
X63648100Y-64460617D01*
X63648100Y-65162669D01*
X63648100Y-65162671D01*
X63648099Y-65162671D01*
X63673097Y-65288338D01*
X63673099Y-65288344D01*
X63717378Y-65395244D01*
X63722135Y-65406727D01*
X63793323Y-65513269D01*
X63793326Y-65513273D01*
X64085325Y-65805272D01*
X64085332Y-65805278D01*
X64191863Y-65876459D01*
X64191867Y-65876461D01*
X64191874Y-65876466D01*
X64238783Y-65895896D01*
X64238784Y-65895896D01*
X64238785Y-65895897D01*
X64293716Y-65918650D01*
X64310256Y-65925501D01*
X64310260Y-65925501D01*
X64310261Y-65925502D01*
X64435928Y-65950500D01*
X64435931Y-65950500D01*
X64564069Y-65950500D01*
X67112905Y-65950500D01*
X67179944Y-65970185D01*
X67225699Y-66022989D01*
X67235643Y-66092147D01*
X67213223Y-66147385D01*
X67179951Y-66193180D01*
X67083444Y-66382585D01*
X67017753Y-66584760D01*
X67013219Y-66613389D01*
X66984500Y-66794713D01*
X66984500Y-67007287D01*
X66988460Y-67032287D01*
X67017048Y-67212789D01*
X67017754Y-67217243D01*
X67082636Y-67416929D01*
X67083444Y-67419414D01*
X67179951Y-67608820D01*
X67304890Y-67780786D01*
X67455213Y-67931109D01*
X67627179Y-68056048D01*
X67627181Y-68056049D01*
X67627184Y-68056051D01*
X67816588Y-68152557D01*
X68018757Y-68218246D01*
X68228713Y-68251500D01*
X68228714Y-68251500D01*
X68441286Y-68251500D01*
X68441287Y-68251500D01*
X68651243Y-68218246D01*
X68853412Y-68152557D01*
X69042816Y-68056051D01*
X69064789Y-68040086D01*
X69214786Y-67931109D01*
X69214788Y-67931106D01*
X69214792Y-67931104D01*
X69365104Y-67780792D01*
X69365106Y-67780788D01*
X69365109Y-67780786D01*
X69490048Y-67608820D01*
X69490047Y-67608820D01*
X69490051Y-67608816D01*
X69586557Y-67419412D01*
X69652246Y-67217243D01*
X69685500Y-67007287D01*
X69685500Y-66794713D01*
X69675205Y-66729711D01*
X87149500Y-66729711D01*
X87149500Y-66972288D01*
X87166185Y-67099031D01*
X87181162Y-67212789D01*
X87189053Y-67242239D01*
X87243947Y-67447104D01*
X87302673Y-67588881D01*
X87336776Y-67671212D01*
X87458064Y-67881289D01*
X87458066Y-67881292D01*
X87458067Y-67881293D01*
X87605733Y-68073736D01*
X87605739Y-68073743D01*
X87777256Y-68245260D01*
X87777263Y-68245266D01*
X87830285Y-68285951D01*
X87969711Y-68392936D01*
X88179788Y-68514224D01*
X88403900Y-68607054D01*
X88638211Y-68669838D01*
X88818586Y-68693584D01*
X88878711Y-68701500D01*
X88878712Y-68701500D01*
X89121289Y-68701500D01*
X89169388Y-68695167D01*
X89361789Y-68669838D01*
X89596100Y-68607054D01*
X89820212Y-68514224D01*
X90030289Y-68392936D01*
X90222738Y-68245265D01*
X90394265Y-68073738D01*
X90541936Y-67881289D01*
X90663224Y-67671212D01*
X90756054Y-67447100D01*
X90818838Y-67212789D01*
X90850500Y-66972288D01*
X90850500Y-66729712D01*
X90835186Y-66613389D01*
X99499500Y-66613389D01*
X99499500Y-66786611D01*
X99500899Y-66795443D01*
X99518158Y-66904417D01*
X99526598Y-66957701D01*
X99580127Y-67122445D01*
X99658768Y-67276788D01*
X99760586Y-67416928D01*
X99883072Y-67539414D01*
X100023212Y-67641232D01*
X100177555Y-67719873D01*
X100342299Y-67773402D01*
X100513389Y-67800500D01*
X100513390Y-67800500D01*
X100686610Y-67800500D01*
X100686611Y-67800500D01*
X100857701Y-67773402D01*
X101022445Y-67719873D01*
X101176788Y-67641232D01*
X101316928Y-67539414D01*
X101439414Y-67416928D01*
X101450541Y-67401612D01*
X101505872Y-67358948D01*
X101550858Y-67350500D01*
X101974998Y-67350500D01*
X102042037Y-67370185D01*
X102087792Y-67422989D01*
X102098288Y-67461248D01*
X102103257Y-67507483D01*
X102153551Y-67642328D01*
X102153555Y-67642335D01*
X102239801Y-67757544D01*
X102239804Y-67757547D01*
X102355013Y-67843793D01*
X102355020Y-67843797D01*
X102489866Y-67894091D01*
X102489865Y-67894091D01*
X102496793Y-67894835D01*
X102549476Y-67900500D01*
X104245221Y-67900499D01*
X104304832Y-67894091D01*
X104439680Y-67843796D01*
X104554895Y-67757546D01*
X104641145Y-67642331D01*
X104661081Y-67588881D01*
X104661082Y-67588879D01*
X104691439Y-67507485D01*
X104691440Y-67507483D01*
X104697849Y-67447873D01*
X104697848Y-66497682D01*
X107097349Y-66497682D01*
X107097349Y-66702317D01*
X107129358Y-66904417D01*
X107192593Y-67099031D01*
X107285490Y-67281350D01*
X107285496Y-67281359D01*
X107317872Y-67325921D01*
X107317873Y-67325922D01*
X107997349Y-66646446D01*
X107997349Y-66652661D01*
X108024608Y-66754394D01*
X108077269Y-66845606D01*
X108151743Y-66920080D01*
X108242955Y-66972741D01*
X108344688Y-67000000D01*
X108350902Y-67000000D01*
X107671425Y-67679474D01*
X107715999Y-67711859D01*
X107898317Y-67804755D01*
X108092931Y-67867990D01*
X108295032Y-67900000D01*
X108499666Y-67900000D01*
X108701766Y-67867990D01*
X108896380Y-67804755D01*
X109078698Y-67711859D01*
X109123270Y-67679474D01*
X108443796Y-67000000D01*
X108450010Y-67000000D01*
X108551743Y-66972741D01*
X108642955Y-66920080D01*
X108717429Y-66845606D01*
X108770090Y-66754394D01*
X108797349Y-66652661D01*
X108797349Y-66646448D01*
X109476823Y-67325922D01*
X109476823Y-67325921D01*
X109509208Y-67281349D01*
X109602104Y-67099031D01*
X109665339Y-66904417D01*
X109678755Y-66819713D01*
X165789500Y-66819713D01*
X165789500Y-67032286D01*
X165818793Y-67217239D01*
X165822754Y-67242243D01*
X165881482Y-67422989D01*
X165888444Y-67444414D01*
X165984951Y-67633820D01*
X166109890Y-67805786D01*
X166260213Y-67956109D01*
X166432179Y-68081048D01*
X166432181Y-68081049D01*
X166432184Y-68081051D01*
X166621588Y-68177557D01*
X166823757Y-68243246D01*
X167033713Y-68276500D01*
X167033714Y-68276500D01*
X167246286Y-68276500D01*
X167246287Y-68276500D01*
X167456243Y-68243246D01*
X167658412Y-68177557D01*
X167847816Y-68081051D01*
X167882230Y-68056048D01*
X168019786Y-67956109D01*
X168019788Y-67956106D01*
X168019792Y-67956104D01*
X168170104Y-67805792D01*
X168170106Y-67805788D01*
X168170109Y-67805786D01*
X168288862Y-67642335D01*
X168295051Y-67633816D01*
X168391557Y-67444412D01*
X168457246Y-67242243D01*
X168490500Y-67032287D01*
X168490500Y-66819713D01*
X168457246Y-66609757D01*
X168391557Y-66407588D01*
X168295051Y-66218184D01*
X168295049Y-66218181D01*
X168295048Y-66218179D01*
X168170109Y-66046213D01*
X168019786Y-65895890D01*
X167847820Y-65770951D01*
X167658414Y-65674444D01*
X167658413Y-65674443D01*
X167658412Y-65674443D01*
X167456243Y-65608754D01*
X167456241Y-65608753D01*
X167456240Y-65608753D01*
X167294957Y-65583208D01*
X167246287Y-65575500D01*
X167033713Y-65575500D01*
X166985042Y-65583208D01*
X166823760Y-65608753D01*
X166621585Y-65674444D01*
X166432179Y-65770951D01*
X166260213Y-65895890D01*
X166109890Y-66046213D01*
X165984951Y-66218179D01*
X165888444Y-66407585D01*
X165822753Y-66609760D01*
X165789500Y-66819713D01*
X109678755Y-66819713D01*
X109682599Y-66795443D01*
X109697349Y-66702317D01*
X109697349Y-66497682D01*
X109665339Y-66295582D01*
X109602104Y-66100968D01*
X109509208Y-65918650D01*
X109476823Y-65874077D01*
X109476823Y-65874076D01*
X108797349Y-66553551D01*
X108797349Y-66547339D01*
X108770090Y-66445606D01*
X108717429Y-66354394D01*
X108642955Y-66279920D01*
X108551743Y-66227259D01*
X108450010Y-66200000D01*
X108443795Y-66200000D01*
X109123271Y-65520524D01*
X109123270Y-65520523D01*
X109078708Y-65488147D01*
X109078699Y-65488141D01*
X108896380Y-65395244D01*
X108701766Y-65332009D01*
X108499666Y-65300000D01*
X108295032Y-65300000D01*
X108092931Y-65332009D01*
X107898317Y-65395244D01*
X107715993Y-65488143D01*
X107671426Y-65520523D01*
X107671426Y-65520524D01*
X108350903Y-66200000D01*
X108344688Y-66200000D01*
X108242955Y-66227259D01*
X108151743Y-66279920D01*
X108077269Y-66354394D01*
X108024608Y-66445606D01*
X107997349Y-66547339D01*
X107997349Y-66553553D01*
X107317873Y-65874077D01*
X107317872Y-65874077D01*
X107285492Y-65918644D01*
X107192593Y-66100968D01*
X107129358Y-66295582D01*
X107097349Y-66497682D01*
X104697848Y-66497682D01*
X104697848Y-65752128D01*
X104691440Y-65692517D01*
X104691439Y-65692513D01*
X104661080Y-65611116D01*
X104641146Y-65557671D01*
X104641142Y-65557664D01*
X104554896Y-65442455D01*
X104554893Y-65442452D01*
X104439684Y-65356206D01*
X104439677Y-65356202D01*
X104304831Y-65305908D01*
X104304832Y-65305908D01*
X104245232Y-65299501D01*
X104245230Y-65299500D01*
X104245222Y-65299500D01*
X104245213Y-65299500D01*
X102549478Y-65299500D01*
X102549472Y-65299501D01*
X102489865Y-65305908D01*
X102355020Y-65356202D01*
X102355013Y-65356206D01*
X102239804Y-65442452D01*
X102239801Y-65442455D01*
X102153555Y-65557664D01*
X102153551Y-65557671D01*
X102103259Y-65692513D01*
X102103258Y-65692517D01*
X102098286Y-65738757D01*
X102071550Y-65803306D01*
X102014158Y-65843154D01*
X101974998Y-65849500D01*
X101341960Y-65849500D01*
X101274921Y-65829815D01*
X101269074Y-65825818D01*
X101176788Y-65758768D01*
X101022447Y-65680128D01*
X101022446Y-65680127D01*
X101022445Y-65680127D01*
X100857701Y-65626598D01*
X100857699Y-65626597D01*
X100857698Y-65626597D01*
X100726271Y-65605781D01*
X100686611Y-65599500D01*
X100513389Y-65599500D01*
X100473728Y-65605781D01*
X100342302Y-65626597D01*
X100177552Y-65680128D01*
X100023211Y-65758768D01*
X99943256Y-65816859D01*
X99883072Y-65860586D01*
X99883070Y-65860588D01*
X99883069Y-65860588D01*
X99760588Y-65983069D01*
X99760588Y-65983070D01*
X99760586Y-65983072D01*
X99732875Y-66021213D01*
X99658768Y-66123211D01*
X99580128Y-66277552D01*
X99526597Y-66442302D01*
X99504034Y-66584760D01*
X99499500Y-66613389D01*
X90835186Y-66613389D01*
X90818838Y-66489211D01*
X90756054Y-66254900D01*
X90663224Y-66030788D01*
X90541936Y-65820711D01*
X90443850Y-65692883D01*
X90394266Y-65628263D01*
X90394260Y-65628256D01*
X90222743Y-65456739D01*
X90222736Y-65456733D01*
X90030293Y-65309067D01*
X90030292Y-65309066D01*
X90030289Y-65309064D01*
X89820212Y-65187776D01*
X89820205Y-65187773D01*
X89596104Y-65094947D01*
X89361785Y-65032161D01*
X89121289Y-65000500D01*
X89121288Y-65000500D01*
X88878712Y-65000500D01*
X88878711Y-65000500D01*
X88638214Y-65032161D01*
X88403895Y-65094947D01*
X88179794Y-65187773D01*
X88179785Y-65187777D01*
X88005609Y-65288338D01*
X87975178Y-65305908D01*
X87969706Y-65309067D01*
X87777263Y-65456733D01*
X87777256Y-65456739D01*
X87605739Y-65628256D01*
X87605733Y-65628263D01*
X87458067Y-65820706D01*
X87458064Y-65820710D01*
X87458064Y-65820711D01*
X87452808Y-65829815D01*
X87336777Y-66030785D01*
X87336773Y-66030794D01*
X87243947Y-66254895D01*
X87181161Y-66489214D01*
X87149500Y-66729711D01*
X69675205Y-66729711D01*
X69652246Y-66584757D01*
X69586557Y-66382588D01*
X69490051Y-66193184D01*
X69490049Y-66193181D01*
X69490048Y-66193179D01*
X69365109Y-66021213D01*
X69214786Y-65870890D01*
X69042816Y-65745948D01*
X69040776Y-65744698D01*
X69040164Y-65744021D01*
X69038875Y-65743085D01*
X69039071Y-65742814D01*
X68993904Y-65692883D01*
X68983956Y-65663167D01*
X68960502Y-65545261D01*
X68960501Y-65545260D01*
X68960501Y-65545256D01*
X68911465Y-65426873D01*
X68864246Y-65356204D01*
X68864246Y-65356203D01*
X68848080Y-65332009D01*
X68840277Y-65320331D01*
X68614892Y-65094946D01*
X68314674Y-64794727D01*
X68314673Y-64794726D01*
X68314669Y-64794723D01*
X68208127Y-64723535D01*
X68089744Y-64674499D01*
X68089738Y-64674497D01*
X67964071Y-64649500D01*
X67964069Y-64649500D01*
X65073100Y-64649500D01*
X65064414Y-64646949D01*
X65055453Y-64648238D01*
X65031412Y-64637259D01*
X65006061Y-64629815D01*
X65000133Y-64622974D01*
X64991897Y-64619213D01*
X64977607Y-64596978D01*
X64960306Y-64577011D01*
X64958018Y-64566496D01*
X64954123Y-64560435D01*
X64949100Y-64525500D01*
X64949100Y-64460617D01*
X64968785Y-64393578D01*
X65003192Y-64359902D01*
X65002474Y-64358914D01*
X65006411Y-64356053D01*
X65006416Y-64356051D01*
X65178392Y-64231104D01*
X65328704Y-64080792D01*
X65328706Y-64080788D01*
X65328709Y-64080786D01*
X65453648Y-63908820D01*
X65453647Y-63908820D01*
X65453651Y-63908816D01*
X65550157Y-63719412D01*
X65615846Y-63517243D01*
X65649100Y-63307287D01*
X65649100Y-63094713D01*
X65615846Y-62884757D01*
X65550157Y-62682588D01*
X65453651Y-62493184D01*
X65453649Y-62493181D01*
X65453648Y-62493179D01*
X65328709Y-62321213D01*
X65178386Y-62170890D01*
X65006420Y-62045951D01*
X64817014Y-61949444D01*
X64817013Y-61949443D01*
X64817012Y-61949443D01*
X64614843Y-61883754D01*
X64614841Y-61883753D01*
X64614840Y-61883753D01*
X64453557Y-61858208D01*
X64404887Y-61850500D01*
X64192313Y-61850500D01*
X64143642Y-61858208D01*
X63982360Y-61883753D01*
X63780185Y-61949444D01*
X63590779Y-62045951D01*
X63418815Y-62170889D01*
X63305273Y-62284431D01*
X63243950Y-62317915D01*
X63174258Y-62312931D01*
X63118325Y-62271059D01*
X63101410Y-62240082D01*
X63052397Y-62108671D01*
X63052393Y-62108664D01*
X62966147Y-61993455D01*
X62966144Y-61993452D01*
X62850935Y-61907206D01*
X62850928Y-61907202D01*
X62716082Y-61856908D01*
X62716083Y-61856908D01*
X62656483Y-61850501D01*
X62656481Y-61850500D01*
X62656473Y-61850500D01*
X62656464Y-61850500D01*
X60860729Y-61850500D01*
X60860723Y-61850501D01*
X60801116Y-61856908D01*
X60666271Y-61907202D01*
X60666264Y-61907206D01*
X60551055Y-61993452D01*
X60551052Y-61993455D01*
X60464806Y-62108664D01*
X60464802Y-62108671D01*
X60414508Y-62243517D01*
X60408101Y-62303116D01*
X60408100Y-62303135D01*
X60408100Y-62326500D01*
X60405549Y-62335185D01*
X60406838Y-62344147D01*
X60395859Y-62368187D01*
X60388415Y-62393539D01*
X60381574Y-62399466D01*
X60377813Y-62407703D01*
X60355578Y-62421992D01*
X60335611Y-62439294D01*
X60325096Y-62441581D01*
X60319035Y-62445477D01*
X60284100Y-62450500D01*
X60043336Y-62450500D01*
X59976297Y-62430815D01*
X59970460Y-62426824D01*
X59876788Y-62358768D01*
X59722445Y-62280127D01*
X59557701Y-62226598D01*
X59557699Y-62226597D01*
X59557698Y-62226597D01*
X59426271Y-62205781D01*
X59386611Y-62199500D01*
X59213389Y-62199500D01*
X59173728Y-62205781D01*
X59042302Y-62226597D01*
X58877552Y-62280128D01*
X58723211Y-62358768D01*
X58675354Y-62393539D01*
X58583072Y-62460586D01*
X58583070Y-62460588D01*
X58583069Y-62460588D01*
X58562181Y-62481477D01*
X58500858Y-62514962D01*
X58431166Y-62509978D01*
X58375233Y-62468106D01*
X58350816Y-62402642D01*
X58350500Y-62393796D01*
X58350500Y-61074500D01*
X58370185Y-61007461D01*
X58422989Y-60961706D01*
X58474500Y-60950500D01*
X82004064Y-60950500D01*
X82071103Y-60970185D01*
G37*
G04 #@! TD.AperFunction*
G04 #@! TD*
D26*
X71700000Y-53500000D03*
X167800000Y-33200000D03*
X122700000Y-63201000D03*
X100600000Y-66700000D03*
X104900000Y-78200000D03*
X143300000Y-74450000D03*
X112900000Y-74400000D03*
X79600000Y-74500000D03*
X59300000Y-63300000D03*
X89300000Y-63201000D03*
X156400000Y-63201000D03*
X136000000Y-33250000D03*
X103600000Y-33250000D03*
X72100000Y-33200000D03*
X140900000Y-39600000D03*
X80800000Y-38100000D03*
X108109000Y-33250000D03*
X110649000Y-33250000D03*
X113189000Y-33250000D03*
X82057800Y-74450000D03*
X84597800Y-74450000D03*
X87137800Y-74450000D03*
X103397349Y-66600000D03*
X108397349Y-66600000D03*
X107197349Y-78200000D03*
X112197349Y-78200000D03*
X164600000Y-66926000D03*
X167140000Y-69466000D03*
X167140000Y-66926000D03*
X164600000Y-69466000D03*
X128408200Y-63201000D03*
X130948200Y-63201000D03*
X133488200Y-63201000D03*
X166050000Y-78150000D03*
X85750000Y-37000000D03*
X85750000Y-56500000D03*
X135750000Y-56500000D03*
X135750000Y-37000000D03*
X65395400Y-74450000D03*
X67935400Y-74450000D03*
X70475400Y-74450000D03*
X115382600Y-74450000D03*
X117922600Y-74450000D03*
X120462600Y-74450000D03*
X61758600Y-63201000D03*
X64298600Y-63201000D03*
X66838600Y-63201000D03*
X74784200Y-33250000D03*
X77324200Y-33250000D03*
X79864200Y-33250000D03*
X68925000Y-57200000D03*
X76675000Y-57200000D03*
X68335000Y-69441000D03*
X70875000Y-66901000D03*
X68335000Y-66901000D03*
X70875000Y-69441000D03*
D27*
X65900000Y-46749000D03*
D28*
X65900000Y-40449000D03*
D29*
X61100000Y-43849000D03*
D26*
X62000000Y-55000000D03*
X98720200Y-74450000D03*
X101260200Y-74450000D03*
X103800200Y-74450000D03*
X95075000Y-63200000D03*
X97615000Y-63200000D03*
X100155000Y-63200000D03*
X78421000Y-63201000D03*
X80961000Y-63201000D03*
X83501000Y-63201000D03*
X75600000Y-46045000D03*
X75600000Y-43505000D03*
X141433800Y-33250000D03*
X143973800Y-33250000D03*
X146513800Y-33250000D03*
X124771400Y-33250000D03*
X127311400Y-33250000D03*
X129851400Y-33250000D03*
X68335000Y-80690000D03*
X70875000Y-78150000D03*
X68335000Y-78150000D03*
X70875000Y-80690000D03*
X164500000Y-37000000D03*
X167040000Y-39540000D03*
X167040000Y-37000000D03*
X164500000Y-39540000D03*
X158096200Y-33250000D03*
X160636200Y-33250000D03*
X163176200Y-33250000D03*
X161733000Y-63201000D03*
X164273000Y-63201000D03*
X166813000Y-63201000D03*
X76050000Y-78150000D03*
X145070600Y-63201000D03*
X147610600Y-63201000D03*
X150150600Y-63201000D03*
X89000000Y-66851000D03*
X111875000Y-63200000D03*
X114415000Y-63200000D03*
X116955000Y-63200000D03*
X148707400Y-74450000D03*
X151247400Y-74450000D03*
X153787400Y-74450000D03*
X122000000Y-37000000D03*
X69600000Y-50200000D03*
X74700000Y-51400000D03*
X132045000Y-74450000D03*
X134585000Y-74450000D03*
X137125000Y-74450000D03*
X91446600Y-33250000D03*
X93986600Y-33250000D03*
X96526600Y-33250000D03*
M02*
