G04 #@! TF.GenerationSoftware,KiCad,Pcbnew,9.0.0*
G04 #@! TF.CreationDate,2025-07-17T21:24:10+02:00*
G04 #@! TF.ProjectId,PowerPCB,506f7765-7250-4434-922e-6b696361645f,rev?*
G04 #@! TF.SameCoordinates,Original*
G04 #@! TF.FileFunction,Other,ECO1*
%FSLAX46Y46*%
G04 Gerber Fmt 4.6, Leading zero omitted, Abs format (unit mm)*
G04 Created by KiCad (PCBNEW 9.0.0) date 2025-07-17 21:24:10*
%MOMM*%
%LPD*%
G01*
G04 APERTURE LIST*
%ADD10C,1.500000*%
%ADD11C,0.350000*%
%ADD12O,3.600000X1.000000*%
%ADD13O,3.200000X1.000000*%
%ADD14O,1.000000X3.200000*%
G04 APERTURE END LIST*
D10*
G04 #@! TO.C,FID1*
X60300000Y-33200000D03*
G04 #@! TD*
G04 #@! TO.C,FID3*
X161800000Y-80600000D03*
G04 #@! TD*
G04 #@! TO.C,FID2*
X60500000Y-80400000D03*
G04 #@! TD*
D11*
X108109000Y-33250000D03*
X110649000Y-33250000D03*
X113189000Y-33250000D03*
X82057800Y-74450000D03*
X84597800Y-74450000D03*
X87137800Y-74450000D03*
X103397349Y-66600000D03*
X108397349Y-66600000D03*
X107197349Y-78200000D03*
X112197349Y-78200000D03*
X164600000Y-66926000D03*
X167140000Y-69466000D03*
X167140000Y-66926000D03*
X164600000Y-69466000D03*
X128408200Y-63201000D03*
X130948200Y-63201000D03*
X133488200Y-63201000D03*
X166050000Y-78150000D03*
X85750000Y-37000000D03*
X85750000Y-56500000D03*
X135750000Y-56500000D03*
X135750000Y-37000000D03*
X65395400Y-74450000D03*
X67935400Y-74450000D03*
X70475400Y-74450000D03*
X115382600Y-74450000D03*
X117922600Y-74450000D03*
X120462600Y-74450000D03*
X61758600Y-63201000D03*
X64298600Y-63201000D03*
X66838600Y-63201000D03*
X74784200Y-33250000D03*
X77324200Y-33250000D03*
X79864200Y-33250000D03*
X68925000Y-57200000D03*
X76675000Y-57200000D03*
X68335000Y-69441000D03*
X70875000Y-66901000D03*
X68335000Y-66901000D03*
X70875000Y-69441000D03*
D12*
X65900000Y-46749000D03*
D13*
X65900000Y-40449000D03*
D14*
X61100000Y-43849000D03*
D11*
X62000000Y-55000000D03*
X98720200Y-74450000D03*
X101260200Y-74450000D03*
X103800200Y-74450000D03*
X95075000Y-63200000D03*
X97615000Y-63200000D03*
X100155000Y-63200000D03*
X78421000Y-63201000D03*
X80961000Y-63201000D03*
X83501000Y-63201000D03*
X75600000Y-46045000D03*
X75600000Y-43505000D03*
X141433800Y-33250000D03*
X143973800Y-33250000D03*
X146513800Y-33250000D03*
X124771400Y-33250000D03*
X127311400Y-33250000D03*
X129851400Y-33250000D03*
X68335000Y-80690000D03*
X70875000Y-78150000D03*
X68335000Y-78150000D03*
X70875000Y-80690000D03*
X164500000Y-37000000D03*
X167040000Y-39540000D03*
X167040000Y-37000000D03*
X164500000Y-39540000D03*
X158096200Y-33250000D03*
X160636200Y-33250000D03*
X163176200Y-33250000D03*
X161733000Y-63201000D03*
X164273000Y-63201000D03*
X166813000Y-63201000D03*
X76050000Y-78150000D03*
X145070600Y-63201000D03*
X147610600Y-63201000D03*
X150150600Y-63201000D03*
X89000000Y-66851000D03*
X111875000Y-63200000D03*
X114415000Y-63200000D03*
X116955000Y-63200000D03*
X148707400Y-74450000D03*
X151247400Y-74450000D03*
X153787400Y-74450000D03*
X122000000Y-37000000D03*
X69600000Y-50200000D03*
X74700000Y-51400000D03*
X132045000Y-74450000D03*
X134585000Y-74450000D03*
X137125000Y-74450000D03*
X91446600Y-33250000D03*
X93986600Y-33250000D03*
X96526600Y-33250000D03*
M02*
