%TF.GenerationSoftware,KiCad,Pcbnew,9.0.0*%
%TF.CreationDate,2025-07-23T13:45:27+02:00*%
%TF.ProjectId,PowerPCB,506f7765-7250-4434-922e-6b696361645f,rev?*%
%TF.SameCoordinates,Original*%
%TF.FileFunction,NonPlated,1,2,NPTH,Drill*%
%TF.FilePolarity,Positive*%
%FSLAX46Y46*%
G04 Gerber Fmt 4.6, Leading zero omitted, Abs format (unit mm)*
G04 Created by KiCad (PCBNEW 9.0.0) date 2025-07-23 13:45:27*
%MOMM*%
%LPD*%
G01*
G04 APERTURE LIST*
%TA.AperFunction,ComponentDrill*%
%ADD10C,3.200000*%
%TD*%
G04 APERTURE END LIST*
D10*
%TO.C,H1*%
X60900000Y-64999000D03*
X60900000Y-117400553D03*
X60950000Y-169899000D03*
X60950000Y-222299000D03*
%TO.C,H3*%
X74950000Y-88149000D03*
X74950000Y-140550553D03*
X75000000Y-193049000D03*
X75000000Y-245449000D03*
%TO.C,H4*%
X87900000Y-76850000D03*
X87900000Y-129251553D03*
X87950000Y-181750000D03*
X87950000Y-234150000D03*
%TO.C,H2*%
X120900000Y-46999000D03*
X120900000Y-99400553D03*
X120950000Y-151899000D03*
X120950000Y-204299000D03*
%TO.C,H5*%
X164950000Y-88149000D03*
X164950000Y-140550553D03*
X165000000Y-193049000D03*
X165000000Y-245449000D03*
%TO.C,H1*%
X173950000Y-65000000D03*
X173950000Y-117401553D03*
X174000000Y-169900000D03*
X174000000Y-222300000D03*
%TO.C,H3*%
X188000000Y-88150000D03*
X188000000Y-140551553D03*
X188050000Y-193050000D03*
X188050000Y-245450000D03*
%TO.C,H4*%
X200950000Y-76851000D03*
X200950000Y-129252553D03*
X201000000Y-181751000D03*
X201000000Y-234151000D03*
%TO.C,H2*%
X233950000Y-47000000D03*
X233950000Y-99401553D03*
X234000000Y-151900000D03*
X234000000Y-204300000D03*
%TO.C,H5*%
X278000000Y-88150000D03*
X278000000Y-140551553D03*
X278050000Y-193050000D03*
X278050000Y-245450000D03*
%TO.C,H3*%
X309150000Y-155749000D03*
%TO.C,H5*%
X309150000Y-245749000D03*
%TO.C,H4*%
X320449000Y-168699000D03*
%TO.C,H1*%
X332300000Y-141699000D03*
%TO.C,H2*%
X350300000Y-201699000D03*
M02*
