%TF.GenerationSoftware,KiCad,Pcbnew,9.0.0*%
%TF.CreationDate,2025-07-23T13:45:27+02:00*%
%TF.ProjectId,PowerPCB,506f7765-7250-4434-922e-6b696361645f,rev?*%
%TF.SameCoordinates,Original*%
%TF.FileFunction,Plated,1,2,PTH,Mixed*%
%TF.FilePolarity,Positive*%
%FSLAX46Y46*%
G04 Gerber Fmt 4.6, Leading zero omitted, Abs format (unit mm)*
G04 Created by KiCad (PCBNEW 9.0.0) date 2025-07-23 13:45:27*
%MOMM*%
%LPD*%
G01*
G04 APERTURE LIST*
%TA.AperFunction,ViaDrill*%
%ADD10C,0.600000*%
%TD*%
%TA.AperFunction,ComponentDrill*%
%ADD11C,0.710000*%
%TD*%
%TA.AperFunction,ComponentDrill*%
%ADD12C,0.800000*%
%TD*%
%TA.AperFunction,ComponentDrill*%
%ADD13C,0.900000*%
%TD*%
G04 aperture for slot hole*
%TA.AperFunction,ComponentDrill*%
%ADD14C,1.000000*%
%TD*%
%TA.AperFunction,ComponentDrill*%
%ADD15C,1.000000*%
%TD*%
%TA.AperFunction,ComponentDrill*%
%ADD16C,1.200000*%
%TD*%
G04 APERTURE END LIST*
D10*
X58200000Y-73299000D03*
X58200000Y-125700553D03*
X58250000Y-178199000D03*
X58250000Y-230599000D03*
X70600000Y-63499000D03*
X70600000Y-115900553D03*
X70650000Y-168399000D03*
X70650000Y-220799000D03*
X71000000Y-43199000D03*
X71000000Y-95600553D03*
X71050000Y-148099000D03*
X71050000Y-200499000D03*
X78500000Y-84499000D03*
X78500000Y-136900553D03*
X78550000Y-189399000D03*
X78550000Y-241799000D03*
X79700000Y-48099000D03*
X79700000Y-100500553D03*
X79750000Y-152999000D03*
X79750000Y-205399000D03*
X88200000Y-73200000D03*
X88200000Y-125601553D03*
X88250000Y-178100000D03*
X88250000Y-230500000D03*
X99500000Y-76699000D03*
X99500000Y-129100553D03*
X99550000Y-181599000D03*
X99550000Y-233999000D03*
X102500000Y-43249000D03*
X102500000Y-95650553D03*
X102550000Y-148149000D03*
X102550000Y-200549000D03*
X103800000Y-88199000D03*
X103800000Y-140600553D03*
X103850000Y-193099000D03*
X103850000Y-245499000D03*
X111800000Y-84399000D03*
X111800000Y-136800553D03*
X111850000Y-189299000D03*
X111850000Y-241699000D03*
X121600000Y-73200000D03*
X121600000Y-125601553D03*
X121650000Y-178100000D03*
X121650000Y-230500000D03*
X134900000Y-43249000D03*
X134900000Y-95650553D03*
X134950000Y-148149000D03*
X134950000Y-200549000D03*
X139800000Y-49599000D03*
X139800000Y-102000553D03*
X139850000Y-154499000D03*
X139850000Y-206899000D03*
X142200000Y-84449000D03*
X142200000Y-136850553D03*
X142250000Y-189349000D03*
X142250000Y-241749000D03*
X155300000Y-73200000D03*
X155300000Y-125601553D03*
X155350000Y-178100000D03*
X155350000Y-230500000D03*
X166700000Y-43199000D03*
X166700000Y-95600553D03*
X166750000Y-148099000D03*
X166750000Y-200499000D03*
X171250000Y-73300000D03*
X171250000Y-125701553D03*
X171300000Y-178200000D03*
X171300000Y-230600000D03*
X183650000Y-63500000D03*
X183650000Y-115901553D03*
X183700000Y-168400000D03*
X183700000Y-220800000D03*
X184050000Y-43200000D03*
X184050000Y-95601553D03*
X184100000Y-148100000D03*
X184100000Y-200500000D03*
X191550000Y-84500000D03*
X191550000Y-136901553D03*
X191600000Y-189400000D03*
X191600000Y-241800000D03*
X192750000Y-48100000D03*
X192750000Y-100501553D03*
X192800000Y-153000000D03*
X192800000Y-205400000D03*
X201250000Y-73201000D03*
X201250000Y-125602553D03*
X201300000Y-178101000D03*
X201300000Y-230501000D03*
X212550000Y-76700000D03*
X212550000Y-129101553D03*
X212600000Y-181600000D03*
X212600000Y-234000000D03*
X215550000Y-43250000D03*
X215550000Y-95651553D03*
X215600000Y-148150000D03*
X215600000Y-200550000D03*
X216850000Y-88200000D03*
X216850000Y-140601553D03*
X216900000Y-193100000D03*
X216900000Y-245500000D03*
X224850000Y-84400000D03*
X224850000Y-136801553D03*
X224900000Y-189300000D03*
X224900000Y-241700000D03*
X234650000Y-73201000D03*
X234650000Y-125602553D03*
X234700000Y-178101000D03*
X234700000Y-230501000D03*
X247950000Y-43250000D03*
X247950000Y-95651553D03*
X248000000Y-148150000D03*
X248000000Y-200550000D03*
X252850000Y-49600000D03*
X252850000Y-102001553D03*
X252900000Y-154500000D03*
X252900000Y-206900000D03*
X255250000Y-84450000D03*
X255250000Y-136851553D03*
X255300000Y-189350000D03*
X255300000Y-241750000D03*
X268350000Y-73201000D03*
X268350000Y-125602553D03*
X268400000Y-178101000D03*
X268400000Y-230501000D03*
X279750000Y-43200000D03*
X279750000Y-95601553D03*
X279800000Y-148100000D03*
X279800000Y-200500000D03*
X309100000Y-184599000D03*
X312800000Y-159299000D03*
X312850000Y-222999000D03*
X312900000Y-192599000D03*
X320600000Y-180299000D03*
X324000000Y-138999000D03*
X324099000Y-168999000D03*
X324099000Y-202399000D03*
X324099000Y-236099000D03*
X333800000Y-151399000D03*
X347700000Y-220599000D03*
X349200000Y-160499000D03*
X354050000Y-183299000D03*
X354050000Y-215699000D03*
X354100000Y-151799000D03*
X354100000Y-247499000D03*
D11*
%TO.C,F1*%
X68500000Y-60199000D03*
X68500000Y-112600553D03*
X68550000Y-165099000D03*
X68550000Y-217499000D03*
X73600000Y-61399000D03*
X73600000Y-113800553D03*
X73650000Y-166299000D03*
X73650000Y-218699000D03*
X181550000Y-60200000D03*
X181550000Y-112601553D03*
X181600000Y-165100000D03*
X181600000Y-217500000D03*
X186650000Y-61400000D03*
X186650000Y-113801553D03*
X186700000Y-166300000D03*
X186700000Y-218700000D03*
X335900000Y-154399000D03*
X337100000Y-149299000D03*
D12*
%TO.C,C1*%
X102297349Y-76599000D03*
X102297349Y-129000553D03*
X102347349Y-181499000D03*
X102347349Y-233899000D03*
%TO.C,C2*%
X106097349Y-88199000D03*
X106097349Y-140600553D03*
X106147349Y-193099000D03*
X106147349Y-245499000D03*
%TO.C,C1*%
X107297349Y-76599000D03*
X107297349Y-129000553D03*
X107347349Y-181499000D03*
X107347349Y-233899000D03*
%TO.C,C2*%
X111097349Y-88199000D03*
X111097349Y-140600553D03*
X111147349Y-193099000D03*
X111147349Y-245499000D03*
%TO.C,C1*%
X215347349Y-76600000D03*
X215347349Y-129001553D03*
X215397349Y-181500000D03*
X215397349Y-233900000D03*
%TO.C,C2*%
X219147349Y-88200000D03*
X219147349Y-140601553D03*
X219197349Y-193100000D03*
X219197349Y-245500000D03*
%TO.C,C1*%
X220347349Y-76600000D03*
X220347349Y-129001553D03*
X220397349Y-181500000D03*
X220397349Y-233900000D03*
%TO.C,C2*%
X224147349Y-88200000D03*
X224147349Y-140601553D03*
X224197349Y-193100000D03*
X224197349Y-245500000D03*
X309100000Y-186896349D03*
X309100000Y-191896349D03*
%TO.C,C1*%
X320700000Y-183096349D03*
X320700000Y-188096349D03*
D13*
%TO.C,D1*%
X74500000Y-53504000D03*
X74500000Y-56044000D03*
X74500000Y-105905553D03*
X74500000Y-108445553D03*
X74550000Y-158404000D03*
X74550000Y-160944000D03*
X74550000Y-210804000D03*
X74550000Y-213344000D03*
X187550000Y-53505000D03*
X187550000Y-56045000D03*
X187550000Y-105906553D03*
X187550000Y-108446553D03*
X187600000Y-158405000D03*
X187600000Y-160945000D03*
X187600000Y-210805000D03*
X187600000Y-213345000D03*
X341255000Y-155299000D03*
X343795000Y-155299000D03*
D14*
%TO.C,J1*%
X60000000Y-52748000D02*
X60000000Y-54948000D01*
X60000000Y-105149553D02*
X60000000Y-107349553D01*
X60050000Y-157648000D02*
X60050000Y-159848000D01*
X60050000Y-210048000D02*
X60050000Y-212248000D01*
D15*
%TO.C,X7*%
X60658600Y-73200000D03*
X60658600Y-125601553D03*
X60708600Y-178100000D03*
X60708600Y-230500000D03*
X63198600Y-73200000D03*
X63198600Y-125601553D03*
X63248600Y-178100000D03*
X63248600Y-230500000D03*
%TO.C,X14*%
X64295400Y-84449000D03*
X64295400Y-136850553D03*
X64345400Y-189349000D03*
X64345400Y-241749000D03*
D14*
%TO.C,J1*%
X63700000Y-50448000D02*
X65900000Y-50448000D01*
X63500000Y-56748000D02*
X66100000Y-56748000D01*
X63700000Y-102849553D02*
X65900000Y-102849553D01*
X63500000Y-109149553D02*
X66100000Y-109149553D01*
X63750000Y-155348000D02*
X65950000Y-155348000D01*
X63550000Y-161648000D02*
X66150000Y-161648000D01*
X63750000Y-207748000D02*
X65950000Y-207748000D01*
X63550000Y-214048000D02*
X66150000Y-214048000D01*
D15*
%TO.C,X7*%
X65738600Y-73200000D03*
X65738600Y-125601553D03*
X65788600Y-178100000D03*
X65788600Y-230500000D03*
%TO.C,X14*%
X66835400Y-84449000D03*
X66835400Y-136850553D03*
X66885400Y-189349000D03*
X66885400Y-241749000D03*
%TO.C,J4*%
X67235000Y-76900000D03*
X67235000Y-79440000D03*
%TO.C,J5*%
X67235000Y-88149000D03*
X67235000Y-90689000D03*
%TO.C,J4*%
X67235000Y-129301553D03*
X67235000Y-131841553D03*
%TO.C,J5*%
X67235000Y-140550553D03*
X67235000Y-143090553D03*
%TO.C,J4*%
X67285000Y-181800000D03*
X67285000Y-184340000D03*
%TO.C,J5*%
X67285000Y-193049000D03*
X67285000Y-195589000D03*
%TO.C,J4*%
X67285000Y-234200000D03*
X67285000Y-236740000D03*
%TO.C,J5*%
X67285000Y-245449000D03*
X67285000Y-247989000D03*
%TO.C,X14*%
X69375400Y-84449000D03*
X69375400Y-136850553D03*
X69425400Y-189349000D03*
X69425400Y-241749000D03*
%TO.C,J4*%
X69775000Y-76900000D03*
X69775000Y-79440000D03*
%TO.C,J5*%
X69775000Y-88149000D03*
X69775000Y-90689000D03*
%TO.C,J4*%
X69775000Y-129301553D03*
X69775000Y-131841553D03*
%TO.C,J5*%
X69775000Y-140550553D03*
X69775000Y-143090553D03*
%TO.C,J4*%
X69825000Y-181800000D03*
X69825000Y-184340000D03*
%TO.C,J5*%
X69825000Y-193049000D03*
X69825000Y-195589000D03*
%TO.C,J4*%
X69825000Y-234200000D03*
X69825000Y-236740000D03*
%TO.C,J5*%
X69825000Y-245449000D03*
X69825000Y-247989000D03*
%TO.C,X1*%
X73684200Y-43249000D03*
X73684200Y-95650553D03*
X73734200Y-148149000D03*
X73734200Y-200549000D03*
X76224200Y-43249000D03*
X76224200Y-95650553D03*
X76274200Y-148149000D03*
X76274200Y-200549000D03*
%TO.C,X8*%
X77321000Y-73200000D03*
X77321000Y-125601553D03*
X77371000Y-178100000D03*
X77371000Y-230500000D03*
%TO.C,X1*%
X78764200Y-43249000D03*
X78764200Y-95650553D03*
X78814200Y-148149000D03*
X78814200Y-200549000D03*
%TO.C,X8*%
X79861000Y-73200000D03*
X79861000Y-125601553D03*
X79911000Y-178100000D03*
X79911000Y-230500000D03*
%TO.C,X15*%
X80957800Y-84449000D03*
X80957800Y-136850553D03*
X81007800Y-189349000D03*
X81007800Y-241749000D03*
%TO.C,X8*%
X82401000Y-73200000D03*
X82401000Y-125601553D03*
X82451000Y-178100000D03*
X82451000Y-230500000D03*
%TO.C,X15*%
X83497800Y-84449000D03*
X83497800Y-136850553D03*
X83547800Y-189349000D03*
X83547800Y-241749000D03*
X86037800Y-84449000D03*
X86037800Y-136850553D03*
X86087800Y-189349000D03*
X86087800Y-241749000D03*
%TO.C,X2*%
X90346600Y-43249000D03*
X90346600Y-95650553D03*
X90396600Y-148149000D03*
X90396600Y-200549000D03*
X92886600Y-43249000D03*
X92886600Y-95650553D03*
X92936600Y-148149000D03*
X92936600Y-200549000D03*
%TO.C,X9*%
X93975000Y-73199000D03*
X93975000Y-125600553D03*
X94025000Y-178099000D03*
X94025000Y-230499000D03*
%TO.C,X2*%
X95426600Y-43249000D03*
X95426600Y-95650553D03*
X95476600Y-148149000D03*
X95476600Y-200549000D03*
%TO.C,X9*%
X96515000Y-73199000D03*
X96515000Y-125600553D03*
X96565000Y-178099000D03*
X96565000Y-230499000D03*
%TO.C,X16*%
X97620200Y-84449000D03*
X97620200Y-136850553D03*
X97670200Y-189349000D03*
X97670200Y-241749000D03*
%TO.C,X9*%
X99055000Y-73199000D03*
X99055000Y-125600553D03*
X99105000Y-178099000D03*
X99105000Y-230499000D03*
%TO.C,X16*%
X100160200Y-84449000D03*
X100160200Y-136850553D03*
X100210200Y-189349000D03*
X100210200Y-241749000D03*
X102700200Y-84449000D03*
X102700200Y-136850553D03*
X102750200Y-189349000D03*
X102750200Y-241749000D03*
%TO.C,X3*%
X107009000Y-43249000D03*
X107009000Y-95650553D03*
X107059000Y-148149000D03*
X107059000Y-200549000D03*
X109549000Y-43249000D03*
X109549000Y-95650553D03*
X109599000Y-148149000D03*
X109599000Y-200549000D03*
%TO.C,X10*%
X110775000Y-73199000D03*
X110775000Y-125600553D03*
X110825000Y-178099000D03*
X110825000Y-230499000D03*
%TO.C,X3*%
X112089000Y-43249000D03*
X112089000Y-95650553D03*
X112139000Y-148149000D03*
X112139000Y-200549000D03*
%TO.C,X10*%
X113315000Y-73199000D03*
X113315000Y-125600553D03*
X113365000Y-178099000D03*
X113365000Y-230499000D03*
%TO.C,X17*%
X114282600Y-84449000D03*
X114282600Y-136850553D03*
X114332600Y-189349000D03*
X114332600Y-241749000D03*
%TO.C,X10*%
X115855000Y-73199000D03*
X115855000Y-125600553D03*
X115905000Y-178099000D03*
X115905000Y-230499000D03*
%TO.C,X17*%
X116822600Y-84449000D03*
X116822600Y-136850553D03*
X116872600Y-189349000D03*
X116872600Y-241749000D03*
X119362600Y-84449000D03*
X119362600Y-136850553D03*
X119412600Y-189349000D03*
X119412600Y-241749000D03*
%TO.C,X4*%
X123671400Y-43249000D03*
X123671400Y-95650553D03*
X123721400Y-148149000D03*
X123721400Y-200549000D03*
X126211400Y-43249000D03*
X126211400Y-95650553D03*
X126261400Y-148149000D03*
X126261400Y-200549000D03*
%TO.C,X11*%
X127308200Y-73200000D03*
X127308200Y-125601553D03*
X127358200Y-178100000D03*
X127358200Y-230500000D03*
%TO.C,X4*%
X128751400Y-43249000D03*
X128751400Y-95650553D03*
X128801400Y-148149000D03*
X128801400Y-200549000D03*
%TO.C,X11*%
X129848200Y-73200000D03*
X129848200Y-125601553D03*
X129898200Y-178100000D03*
X129898200Y-230500000D03*
%TO.C,X18*%
X130945000Y-84449000D03*
X130945000Y-136850553D03*
X130995000Y-189349000D03*
X130995000Y-241749000D03*
%TO.C,X11*%
X132388200Y-73200000D03*
X132388200Y-125601553D03*
X132438200Y-178100000D03*
X132438200Y-230500000D03*
%TO.C,X18*%
X133485000Y-84449000D03*
X133485000Y-136850553D03*
X133535000Y-189349000D03*
X133535000Y-241749000D03*
X136025000Y-84449000D03*
X136025000Y-136850553D03*
X136075000Y-189349000D03*
X136075000Y-241749000D03*
%TO.C,X5*%
X140333800Y-43249000D03*
X140333800Y-95650553D03*
X140383800Y-148149000D03*
X140383800Y-200549000D03*
X142873800Y-43249000D03*
X142873800Y-95650553D03*
X142923800Y-148149000D03*
X142923800Y-200549000D03*
%TO.C,X12*%
X143970600Y-73200000D03*
X143970600Y-125601553D03*
X144020600Y-178100000D03*
X144020600Y-230500000D03*
%TO.C,X5*%
X145413800Y-43249000D03*
X145413800Y-95650553D03*
X145463800Y-148149000D03*
X145463800Y-200549000D03*
%TO.C,X12*%
X146510600Y-73200000D03*
X146510600Y-125601553D03*
X146560600Y-178100000D03*
X146560600Y-230500000D03*
%TO.C,X19*%
X147607400Y-84449000D03*
X147607400Y-136850553D03*
X147657400Y-189349000D03*
X147657400Y-241749000D03*
%TO.C,X12*%
X149050600Y-73200000D03*
X149050600Y-125601553D03*
X149100600Y-178100000D03*
X149100600Y-230500000D03*
%TO.C,X19*%
X150147400Y-84449000D03*
X150147400Y-136850553D03*
X150197400Y-189349000D03*
X150197400Y-241749000D03*
X152687400Y-84449000D03*
X152687400Y-136850553D03*
X152737400Y-189349000D03*
X152737400Y-241749000D03*
%TO.C,X6*%
X156996200Y-43249000D03*
X156996200Y-95650553D03*
X157046200Y-148149000D03*
X157046200Y-200549000D03*
X159536200Y-43249000D03*
X159536200Y-95650553D03*
X159586200Y-148149000D03*
X159586200Y-200549000D03*
%TO.C,X13*%
X160633000Y-73200000D03*
X160633000Y-125601553D03*
X160683000Y-178100000D03*
X160683000Y-230500000D03*
%TO.C,X6*%
X162076200Y-43249000D03*
X162076200Y-95650553D03*
X162126200Y-148149000D03*
X162126200Y-200549000D03*
%TO.C,X13*%
X163173000Y-73200000D03*
X163173000Y-125601553D03*
X163223000Y-178100000D03*
X163223000Y-230500000D03*
%TO.C,J2*%
X163400000Y-46999000D03*
X163400000Y-49539000D03*
X163400000Y-99400553D03*
X163400000Y-101940553D03*
X163450000Y-151899000D03*
X163450000Y-154439000D03*
X163450000Y-204299000D03*
X163450000Y-206839000D03*
%TO.C,J3*%
X163500000Y-76925000D03*
X163500000Y-79465000D03*
X163500000Y-129326553D03*
X163500000Y-131866553D03*
X163550000Y-181825000D03*
X163550000Y-184365000D03*
X163550000Y-234225000D03*
X163550000Y-236765000D03*
%TO.C,X13*%
X165713000Y-73200000D03*
X165713000Y-125601553D03*
X165763000Y-178100000D03*
X165763000Y-230500000D03*
%TO.C,J2*%
X165940000Y-46999000D03*
X165940000Y-49539000D03*
X165940000Y-99400553D03*
X165940000Y-101940553D03*
X165990000Y-151899000D03*
X165990000Y-154439000D03*
X165990000Y-204299000D03*
X165990000Y-206839000D03*
%TO.C,J3*%
X166040000Y-76925000D03*
X166040000Y-79465000D03*
X166040000Y-129326553D03*
X166040000Y-131866553D03*
X166090000Y-181825000D03*
X166090000Y-184365000D03*
X166090000Y-234225000D03*
X166090000Y-236765000D03*
D14*
%TO.C,J1*%
X173050000Y-52749000D02*
X173050000Y-54949000D01*
X173050000Y-105150553D02*
X173050000Y-107350553D01*
X173100000Y-157649000D02*
X173100000Y-159849000D01*
X173100000Y-210049000D02*
X173100000Y-212249000D01*
D15*
%TO.C,X7*%
X173708600Y-73201000D03*
X173708600Y-125602553D03*
X173758600Y-178101000D03*
X173758600Y-230501000D03*
X176248600Y-73201000D03*
X176248600Y-125602553D03*
X176298600Y-178101000D03*
X176298600Y-230501000D03*
%TO.C,X14*%
X177345400Y-84450000D03*
X177345400Y-136851553D03*
X177395400Y-189350000D03*
X177395400Y-241750000D03*
D14*
%TO.C,J1*%
X176750000Y-50449000D02*
X178950000Y-50449000D01*
X176550000Y-56749000D02*
X179150000Y-56749000D01*
X176750000Y-102850553D02*
X178950000Y-102850553D01*
X176550000Y-109150553D02*
X179150000Y-109150553D01*
X176800000Y-155349000D02*
X179000000Y-155349000D01*
X176600000Y-161649000D02*
X179200000Y-161649000D01*
X176800000Y-207749000D02*
X179000000Y-207749000D01*
X176600000Y-214049000D02*
X179200000Y-214049000D01*
D15*
%TO.C,X7*%
X178788600Y-73201000D03*
X178788600Y-125602553D03*
X178838600Y-178101000D03*
X178838600Y-230501000D03*
%TO.C,X14*%
X179885400Y-84450000D03*
X179885400Y-136851553D03*
X179935400Y-189350000D03*
X179935400Y-241750000D03*
%TO.C,J4*%
X180285000Y-76901000D03*
X180285000Y-79441000D03*
%TO.C,J5*%
X180285000Y-88150000D03*
X180285000Y-90690000D03*
%TO.C,J4*%
X180285000Y-129302553D03*
X180285000Y-131842553D03*
%TO.C,J5*%
X180285000Y-140551553D03*
X180285000Y-143091553D03*
%TO.C,J4*%
X180335000Y-181801000D03*
X180335000Y-184341000D03*
%TO.C,J5*%
X180335000Y-193050000D03*
X180335000Y-195590000D03*
%TO.C,J4*%
X180335000Y-234201000D03*
X180335000Y-236741000D03*
%TO.C,J5*%
X180335000Y-245450000D03*
X180335000Y-247990000D03*
%TO.C,X14*%
X182425400Y-84450000D03*
X182425400Y-136851553D03*
X182475400Y-189350000D03*
X182475400Y-241750000D03*
%TO.C,J4*%
X182825000Y-76901000D03*
X182825000Y-79441000D03*
%TO.C,J5*%
X182825000Y-88150000D03*
X182825000Y-90690000D03*
%TO.C,J4*%
X182825000Y-129302553D03*
X182825000Y-131842553D03*
%TO.C,J5*%
X182825000Y-140551553D03*
X182825000Y-143091553D03*
%TO.C,J4*%
X182875000Y-181801000D03*
X182875000Y-184341000D03*
%TO.C,J5*%
X182875000Y-193050000D03*
X182875000Y-195590000D03*
%TO.C,J4*%
X182875000Y-234201000D03*
X182875000Y-236741000D03*
%TO.C,J5*%
X182875000Y-245450000D03*
X182875000Y-247990000D03*
%TO.C,X1*%
X186734200Y-43250000D03*
X186734200Y-95651553D03*
X186784200Y-148150000D03*
X186784200Y-200550000D03*
X189274200Y-43250000D03*
X189274200Y-95651553D03*
X189324200Y-148150000D03*
X189324200Y-200550000D03*
%TO.C,X8*%
X190371000Y-73201000D03*
X190371000Y-125602553D03*
X190421000Y-178101000D03*
X190421000Y-230501000D03*
%TO.C,X1*%
X191814200Y-43250000D03*
X191814200Y-95651553D03*
X191864200Y-148150000D03*
X191864200Y-200550000D03*
%TO.C,X8*%
X192911000Y-73201000D03*
X192911000Y-125602553D03*
X192961000Y-178101000D03*
X192961000Y-230501000D03*
%TO.C,X15*%
X194007800Y-84450000D03*
X194007800Y-136851553D03*
X194057800Y-189350000D03*
X194057800Y-241750000D03*
%TO.C,X8*%
X195451000Y-73201000D03*
X195451000Y-125602553D03*
X195501000Y-178101000D03*
X195501000Y-230501000D03*
%TO.C,X15*%
X196547800Y-84450000D03*
X196547800Y-136851553D03*
X196597800Y-189350000D03*
X196597800Y-241750000D03*
X199087800Y-84450000D03*
X199087800Y-136851553D03*
X199137800Y-189350000D03*
X199137800Y-241750000D03*
%TO.C,X2*%
X203396600Y-43250000D03*
X203396600Y-95651553D03*
X203446600Y-148150000D03*
X203446600Y-200550000D03*
X205936600Y-43250000D03*
X205936600Y-95651553D03*
X205986600Y-148150000D03*
X205986600Y-200550000D03*
%TO.C,X9*%
X207025000Y-73200000D03*
X207025000Y-125601553D03*
X207075000Y-178100000D03*
X207075000Y-230500000D03*
%TO.C,X2*%
X208476600Y-43250000D03*
X208476600Y-95651553D03*
X208526600Y-148150000D03*
X208526600Y-200550000D03*
%TO.C,X9*%
X209565000Y-73200000D03*
X209565000Y-125601553D03*
X209615000Y-178100000D03*
X209615000Y-230500000D03*
%TO.C,X16*%
X210670200Y-84450000D03*
X210670200Y-136851553D03*
X210720200Y-189350000D03*
X210720200Y-241750000D03*
%TO.C,X9*%
X212105000Y-73200000D03*
X212105000Y-125601553D03*
X212155000Y-178100000D03*
X212155000Y-230500000D03*
%TO.C,X16*%
X213210200Y-84450000D03*
X213210200Y-136851553D03*
X213260200Y-189350000D03*
X213260200Y-241750000D03*
X215750200Y-84450000D03*
X215750200Y-136851553D03*
X215800200Y-189350000D03*
X215800200Y-241750000D03*
%TO.C,X3*%
X220059000Y-43250000D03*
X220059000Y-95651553D03*
X220109000Y-148150000D03*
X220109000Y-200550000D03*
X222599000Y-43250000D03*
X222599000Y-95651553D03*
X222649000Y-148150000D03*
X222649000Y-200550000D03*
%TO.C,X10*%
X223825000Y-73200000D03*
X223825000Y-125601553D03*
X223875000Y-178100000D03*
X223875000Y-230500000D03*
%TO.C,X3*%
X225139000Y-43250000D03*
X225139000Y-95651553D03*
X225189000Y-148150000D03*
X225189000Y-200550000D03*
%TO.C,X10*%
X226365000Y-73200000D03*
X226365000Y-125601553D03*
X226415000Y-178100000D03*
X226415000Y-230500000D03*
%TO.C,X17*%
X227332600Y-84450000D03*
X227332600Y-136851553D03*
X227382600Y-189350000D03*
X227382600Y-241750000D03*
%TO.C,X10*%
X228905000Y-73200000D03*
X228905000Y-125601553D03*
X228955000Y-178100000D03*
X228955000Y-230500000D03*
%TO.C,X17*%
X229872600Y-84450000D03*
X229872600Y-136851553D03*
X229922600Y-189350000D03*
X229922600Y-241750000D03*
X232412600Y-84450000D03*
X232412600Y-136851553D03*
X232462600Y-189350000D03*
X232462600Y-241750000D03*
%TO.C,X4*%
X236721400Y-43250000D03*
X236721400Y-95651553D03*
X236771400Y-148150000D03*
X236771400Y-200550000D03*
X239261400Y-43250000D03*
X239261400Y-95651553D03*
X239311400Y-148150000D03*
X239311400Y-200550000D03*
%TO.C,X11*%
X240358200Y-73201000D03*
X240358200Y-125602553D03*
X240408200Y-178101000D03*
X240408200Y-230501000D03*
%TO.C,X4*%
X241801400Y-43250000D03*
X241801400Y-95651553D03*
X241851400Y-148150000D03*
X241851400Y-200550000D03*
%TO.C,X11*%
X242898200Y-73201000D03*
X242898200Y-125602553D03*
X242948200Y-178101000D03*
X242948200Y-230501000D03*
%TO.C,X18*%
X243995000Y-84450000D03*
X243995000Y-136851553D03*
X244045000Y-189350000D03*
X244045000Y-241750000D03*
%TO.C,X11*%
X245438200Y-73201000D03*
X245438200Y-125602553D03*
X245488200Y-178101000D03*
X245488200Y-230501000D03*
%TO.C,X18*%
X246535000Y-84450000D03*
X246535000Y-136851553D03*
X246585000Y-189350000D03*
X246585000Y-241750000D03*
X249075000Y-84450000D03*
X249075000Y-136851553D03*
X249125000Y-189350000D03*
X249125000Y-241750000D03*
%TO.C,X5*%
X253383800Y-43250000D03*
X253383800Y-95651553D03*
X253433800Y-148150000D03*
X253433800Y-200550000D03*
X255923800Y-43250000D03*
X255923800Y-95651553D03*
X255973800Y-148150000D03*
X255973800Y-200550000D03*
%TO.C,X12*%
X257020600Y-73201000D03*
X257020600Y-125602553D03*
X257070600Y-178101000D03*
X257070600Y-230501000D03*
%TO.C,X5*%
X258463800Y-43250000D03*
X258463800Y-95651553D03*
X258513800Y-148150000D03*
X258513800Y-200550000D03*
%TO.C,X12*%
X259560600Y-73201000D03*
X259560600Y-125602553D03*
X259610600Y-178101000D03*
X259610600Y-230501000D03*
%TO.C,X19*%
X260657400Y-84450000D03*
X260657400Y-136851553D03*
X260707400Y-189350000D03*
X260707400Y-241750000D03*
%TO.C,X12*%
X262100600Y-73201000D03*
X262100600Y-125602553D03*
X262150600Y-178101000D03*
X262150600Y-230501000D03*
%TO.C,X19*%
X263197400Y-84450000D03*
X263197400Y-136851553D03*
X263247400Y-189350000D03*
X263247400Y-241750000D03*
X265737400Y-84450000D03*
X265737400Y-136851553D03*
X265787400Y-189350000D03*
X265787400Y-241750000D03*
%TO.C,X6*%
X270046200Y-43250000D03*
X270046200Y-95651553D03*
X270096200Y-148150000D03*
X270096200Y-200550000D03*
X272586200Y-43250000D03*
X272586200Y-95651553D03*
X272636200Y-148150000D03*
X272636200Y-200550000D03*
%TO.C,X13*%
X273683000Y-73201000D03*
X273683000Y-125602553D03*
X273733000Y-178101000D03*
X273733000Y-230501000D03*
%TO.C,X6*%
X275126200Y-43250000D03*
X275126200Y-95651553D03*
X275176200Y-148150000D03*
X275176200Y-200550000D03*
%TO.C,X13*%
X276223000Y-73201000D03*
X276223000Y-125602553D03*
X276273000Y-178101000D03*
X276273000Y-230501000D03*
%TO.C,J2*%
X276450000Y-47000000D03*
X276450000Y-49540000D03*
X276450000Y-99401553D03*
X276450000Y-101941553D03*
X276500000Y-151900000D03*
X276500000Y-154440000D03*
X276500000Y-204300000D03*
X276500000Y-206840000D03*
%TO.C,J3*%
X276550000Y-76926000D03*
X276550000Y-79466000D03*
X276550000Y-129327553D03*
X276550000Y-131867553D03*
X276600000Y-181826000D03*
X276600000Y-184366000D03*
X276600000Y-234226000D03*
X276600000Y-236766000D03*
%TO.C,X13*%
X278763000Y-73201000D03*
X278763000Y-125602553D03*
X278813000Y-178101000D03*
X278813000Y-230501000D03*
%TO.C,J2*%
X278990000Y-47000000D03*
X278990000Y-49540000D03*
X278990000Y-99401553D03*
X278990000Y-101941553D03*
X279040000Y-151900000D03*
X279040000Y-154440000D03*
X279040000Y-204300000D03*
X279040000Y-206840000D03*
%TO.C,J3*%
X279090000Y-76926000D03*
X279090000Y-79466000D03*
X279090000Y-129327553D03*
X279090000Y-131867553D03*
X279140000Y-181826000D03*
X279140000Y-184366000D03*
X279140000Y-234226000D03*
X279140000Y-236766000D03*
%TO.C,J5*%
X306610000Y-148034000D03*
X306610000Y-150574000D03*
X309150000Y-148034000D03*
X309150000Y-150574000D03*
%TO.C,X14*%
X312850000Y-145094400D03*
X312850000Y-147634400D03*
X312850000Y-150174400D03*
%TO.C,X15*%
X312850000Y-161756800D03*
X312850000Y-164296800D03*
X312850000Y-166836800D03*
%TO.C,X16*%
X312850000Y-178419200D03*
X312850000Y-180959200D03*
X312850000Y-183499200D03*
%TO.C,X17*%
X312850000Y-195081600D03*
X312850000Y-197621600D03*
X312850000Y-200161600D03*
%TO.C,X18*%
X312850000Y-211744000D03*
X312850000Y-214284000D03*
X312850000Y-216824000D03*
%TO.C,X19*%
X312850000Y-228406400D03*
X312850000Y-230946400D03*
X312850000Y-233486400D03*
%TO.C,J3*%
X317834000Y-244299000D03*
X317834000Y-246839000D03*
%TO.C,J4*%
X317859000Y-148034000D03*
X317859000Y-150574000D03*
%TO.C,J3*%
X320374000Y-244299000D03*
X320374000Y-246839000D03*
%TO.C,J4*%
X320399000Y-148034000D03*
X320399000Y-150574000D03*
%TO.C,X7*%
X324099000Y-141457600D03*
X324099000Y-143997600D03*
X324099000Y-146537600D03*
%TO.C,X8*%
X324099000Y-158120000D03*
X324099000Y-160660000D03*
X324099000Y-163200000D03*
%TO.C,X11*%
X324099000Y-208107200D03*
X324099000Y-210647200D03*
X324099000Y-213187200D03*
%TO.C,X12*%
X324099000Y-224769600D03*
X324099000Y-227309600D03*
X324099000Y-229849600D03*
%TO.C,X13*%
X324099000Y-241432000D03*
X324099000Y-243972000D03*
X324099000Y-246512000D03*
%TO.C,X9*%
X324100000Y-174774000D03*
X324100000Y-177314000D03*
X324100000Y-179854000D03*
%TO.C,X10*%
X324100000Y-191574000D03*
X324100000Y-194114000D03*
X324100000Y-196654000D03*
D14*
%TO.C,J1*%
X340551000Y-144299000D02*
X340551000Y-146899000D01*
X344551000Y-140799000D02*
X342351000Y-140799000D01*
X346851000Y-144499000D02*
X346851000Y-146699000D01*
D15*
%TO.C,J2*%
X347760000Y-244199000D03*
X347760000Y-246739000D03*
X350300000Y-244199000D03*
X350300000Y-246739000D03*
%TO.C,X1*%
X354050000Y-154483200D03*
X354050000Y-157023200D03*
X354050000Y-159563200D03*
%TO.C,X2*%
X354050000Y-171145600D03*
X354050000Y-173685600D03*
X354050000Y-176225600D03*
%TO.C,X3*%
X354050000Y-187808000D03*
X354050000Y-190348000D03*
X354050000Y-192888000D03*
%TO.C,X4*%
X354050000Y-204470400D03*
X354050000Y-207010400D03*
X354050000Y-209550400D03*
%TO.C,X5*%
X354050000Y-221132800D03*
X354050000Y-223672800D03*
X354050000Y-226212800D03*
%TO.C,X6*%
X354050000Y-237795200D03*
X354050000Y-240335200D03*
X354050000Y-242875200D03*
D16*
%TO.C,TH1*%
X67825000Y-67199000D03*
X67825000Y-119600553D03*
X67875000Y-172099000D03*
X67875000Y-224499000D03*
X75575000Y-67199000D03*
X75575000Y-119600553D03*
X75625000Y-172099000D03*
X75625000Y-224499000D03*
%TO.C,U1*%
X84650000Y-46999000D03*
X84650000Y-66499000D03*
X84650000Y-99400553D03*
X84650000Y-118900553D03*
X84700000Y-151899000D03*
X84700000Y-171399000D03*
X84700000Y-204299000D03*
X84700000Y-223799000D03*
X134650000Y-46999000D03*
X134650000Y-66499000D03*
X134650000Y-99400553D03*
X134650000Y-118900553D03*
X134700000Y-151899000D03*
X134700000Y-171399000D03*
X134700000Y-204299000D03*
X134700000Y-223799000D03*
%TO.C,TH1*%
X180875000Y-67200000D03*
X180875000Y-119601553D03*
X180925000Y-172100000D03*
X180925000Y-224500000D03*
X188625000Y-67200000D03*
X188625000Y-119601553D03*
X188675000Y-172100000D03*
X188675000Y-224500000D03*
%TO.C,U1*%
X197700000Y-47000000D03*
X197700000Y-66500000D03*
X197700000Y-99401553D03*
X197700000Y-118901553D03*
X197750000Y-151900000D03*
X197750000Y-171400000D03*
X197750000Y-204300000D03*
X197750000Y-223800000D03*
X247700000Y-47000000D03*
X247700000Y-66500000D03*
X247700000Y-99401553D03*
X247700000Y-118901553D03*
X247750000Y-151900000D03*
X247750000Y-171400000D03*
X247750000Y-204300000D03*
X247750000Y-223800000D03*
%TO.C,TH1*%
X330100000Y-148624000D03*
X330100000Y-156374000D03*
%TO.C,U1*%
X330800000Y-165449000D03*
X330800000Y-215449000D03*
X350300000Y-165449000D03*
X350300000Y-215449000D03*
M02*
