G04 #@! TF.GenerationSoftware,KiCad,Pcbnew,9.0.0*
G04 #@! TF.CreationDate,2025-07-23T13:45:27+02:00*
G04 #@! TF.ProjectId,PowerPCB,506f7765-7250-4434-922e-6b696361645f,rev?*
G04 #@! TF.SameCoordinates,Original*
G04 #@! TF.FileFunction,Other,ECO1*
%FSLAX46Y46*%
G04 Gerber Fmt 4.6, Leading zero omitted, Abs format (unit mm)*
G04 Created by KiCad (PCBNEW 9.0.0) date 2025-07-23 13:45:27*
%MOMM*%
%LPD*%
G01*
G04 APERTURE LIST*
%ADD10C,1.500000*%
%ADD11C,0.350000*%
%ADD12O,1.000000X3.600000*%
%ADD13O,1.000000X3.200000*%
%ADD14O,3.200000X1.000000*%
%ADD15O,3.600000X1.000000*%
G04 APERTURE END LIST*
D10*
G04 #@! TO.C,FID3*
X306700000Y-241499000D03*
G04 #@! TD*
G04 #@! TO.C,FID1*
X59200000Y-43199000D03*
G04 #@! TD*
G04 #@! TO.C,FID2*
X59450000Y-247699000D03*
G04 #@! TD*
D11*
X320374000Y-244299000D03*
X317834000Y-246839000D03*
X320374000Y-246839000D03*
X317834000Y-244299000D03*
X350300000Y-165449000D03*
X330800000Y-165449000D03*
X330800000Y-215449000D03*
X350300000Y-215449000D03*
X324099000Y-208107200D03*
X324099000Y-210647200D03*
X324099000Y-213187200D03*
X309100000Y-186896349D03*
X309100000Y-191896349D03*
X312850000Y-145094400D03*
X312850000Y-147634400D03*
X312850000Y-150174400D03*
X309150000Y-245749000D03*
X354050000Y-171145600D03*
X354050000Y-173685600D03*
X354050000Y-176225600D03*
X350300000Y-201699000D03*
X324100000Y-191574000D03*
X324100000Y-194114000D03*
X324100000Y-196654000D03*
X320449000Y-168699000D03*
X312850000Y-211744000D03*
X312850000Y-214284000D03*
X312850000Y-216824000D03*
X341255000Y-155299000D03*
X343795000Y-155299000D03*
X354050000Y-221132800D03*
X354050000Y-223672800D03*
X354050000Y-226212800D03*
X312850000Y-228406400D03*
X312850000Y-230946400D03*
X312850000Y-233486400D03*
X324099000Y-224769600D03*
X324099000Y-227309600D03*
X324099000Y-229849600D03*
X337100000Y-149299000D03*
X335900000Y-154399000D03*
X324099000Y-241432000D03*
X324099000Y-243972000D03*
X324099000Y-246512000D03*
X354050000Y-237795200D03*
X354050000Y-240335200D03*
X354050000Y-242875200D03*
X350300000Y-244199000D03*
X347760000Y-246739000D03*
X350300000Y-246739000D03*
X347760000Y-244199000D03*
X312850000Y-178419200D03*
X312850000Y-180959200D03*
X312850000Y-183499200D03*
X309150000Y-155749000D03*
X324099000Y-158120000D03*
X324099000Y-160660000D03*
X324099000Y-163200000D03*
X324100000Y-174774000D03*
X324100000Y-177314000D03*
X324100000Y-179854000D03*
X354050000Y-204470400D03*
X354050000Y-207010400D03*
X354050000Y-209550400D03*
X320700000Y-183096349D03*
X320700000Y-188096349D03*
X354050000Y-187808000D03*
X354050000Y-190348000D03*
X354050000Y-192888000D03*
X332300000Y-141699000D03*
X324099000Y-141457600D03*
X324099000Y-143997600D03*
X324099000Y-146537600D03*
X330100000Y-148624000D03*
X330100000Y-156374000D03*
X317859000Y-148034000D03*
X320399000Y-150574000D03*
X320399000Y-148034000D03*
X317859000Y-150574000D03*
D12*
X340551000Y-145599000D03*
D13*
X346851000Y-145599000D03*
D14*
X343451000Y-140799000D03*
D11*
X312850000Y-195081600D03*
X312850000Y-197621600D03*
X312850000Y-200161600D03*
X312850000Y-161756800D03*
X312850000Y-164296800D03*
X312850000Y-166836800D03*
X354050000Y-154483200D03*
X354050000Y-157023200D03*
X354050000Y-159563200D03*
X233950000Y-99401553D03*
X203396600Y-95651553D03*
X205936600Y-95651553D03*
X208476600Y-95651553D03*
X223825000Y-125601553D03*
X226365000Y-125601553D03*
X228905000Y-125601553D03*
X260657400Y-136851553D03*
X263197400Y-136851553D03*
X265737400Y-136851553D03*
X200950000Y-129252553D03*
X243995000Y-136851553D03*
X246535000Y-136851553D03*
X249075000Y-136851553D03*
X187550000Y-108446553D03*
X187550000Y-105906553D03*
X253383800Y-95651553D03*
X255923800Y-95651553D03*
X258463800Y-95651553D03*
X276450000Y-99401553D03*
X278990000Y-101941553D03*
X278990000Y-99401553D03*
X276450000Y-101941553D03*
X210670200Y-136851553D03*
X213210200Y-136851553D03*
X215750200Y-136851553D03*
X236721400Y-95651553D03*
X239261400Y-95651553D03*
X241801400Y-95651553D03*
X181550000Y-112601553D03*
X186650000Y-113801553D03*
X273683000Y-125602553D03*
X276223000Y-125602553D03*
X278763000Y-125602553D03*
X180285000Y-143091553D03*
X182825000Y-140551553D03*
X180285000Y-140551553D03*
X182825000Y-143091553D03*
X257020600Y-125602553D03*
X259560600Y-125602553D03*
X262100600Y-125602553D03*
X207025000Y-125601553D03*
X209565000Y-125601553D03*
X212105000Y-125601553D03*
X270046200Y-95651553D03*
X272586200Y-95651553D03*
X275126200Y-95651553D03*
X188000000Y-140551553D03*
X278000000Y-140551553D03*
X219147349Y-140601553D03*
X224147349Y-140601553D03*
X177345400Y-136851553D03*
X179885400Y-136851553D03*
X182425400Y-136851553D03*
X240358200Y-125602553D03*
X242898200Y-125602553D03*
X245438200Y-125602553D03*
X197700000Y-99401553D03*
X197700000Y-118901553D03*
X247700000Y-118901553D03*
X247700000Y-99401553D03*
X276550000Y-129327553D03*
X279090000Y-131867553D03*
X279090000Y-129327553D03*
X276550000Y-131867553D03*
X219147349Y-88200000D03*
X224147349Y-88200000D03*
X276550000Y-76926000D03*
X279090000Y-79466000D03*
X279090000Y-76926000D03*
X276550000Y-79466000D03*
X177345400Y-84450000D03*
X179885400Y-84450000D03*
X182425400Y-84450000D03*
X197700000Y-47000000D03*
X197700000Y-66500000D03*
X247700000Y-66500000D03*
X247700000Y-47000000D03*
X278000000Y-88150000D03*
X240358200Y-73201000D03*
X242898200Y-73201000D03*
X245438200Y-73201000D03*
X173708600Y-125602553D03*
X176248600Y-125602553D03*
X178788600Y-125602553D03*
X180285000Y-131842553D03*
X182825000Y-129302553D03*
X180285000Y-129302553D03*
X182825000Y-131842553D03*
X190371000Y-125602553D03*
X192911000Y-125602553D03*
X195451000Y-125602553D03*
X215347349Y-129001553D03*
X220347349Y-129001553D03*
X220059000Y-95651553D03*
X222599000Y-95651553D03*
X225139000Y-95651553D03*
X173950000Y-117401553D03*
D15*
X177850000Y-109150553D03*
D14*
X177850000Y-102850553D03*
D13*
X173050000Y-106250553D03*
D11*
X180875000Y-119601553D03*
X188625000Y-119601553D03*
X194007800Y-136851553D03*
X196547800Y-136851553D03*
X199087800Y-136851553D03*
X203396600Y-43250000D03*
X205936600Y-43250000D03*
X208476600Y-43250000D03*
X186734200Y-95651553D03*
X189274200Y-95651553D03*
X191814200Y-95651553D03*
X227332600Y-136851553D03*
X229872600Y-136851553D03*
X232412600Y-136851553D03*
X233950000Y-47000000D03*
X223825000Y-73200000D03*
X226365000Y-73200000D03*
X228905000Y-73200000D03*
X200950000Y-76851000D03*
X243995000Y-84450000D03*
X246535000Y-84450000D03*
X249075000Y-84450000D03*
X260657400Y-84450000D03*
X263197400Y-84450000D03*
X265737400Y-84450000D03*
X257020600Y-73201000D03*
X259560600Y-73201000D03*
X262100600Y-73201000D03*
X181550000Y-60200000D03*
X186650000Y-61400000D03*
X187550000Y-56045000D03*
X187550000Y-53505000D03*
X273683000Y-73201000D03*
X276223000Y-73201000D03*
X278763000Y-73201000D03*
X253383800Y-43250000D03*
X255923800Y-43250000D03*
X258463800Y-43250000D03*
X270046200Y-43250000D03*
X272586200Y-43250000D03*
X275126200Y-43250000D03*
X276450000Y-47000000D03*
X278990000Y-49540000D03*
X278990000Y-47000000D03*
X276450000Y-49540000D03*
X207025000Y-73200000D03*
X209565000Y-73200000D03*
X212105000Y-73200000D03*
X236721400Y-43250000D03*
X239261400Y-43250000D03*
X241801400Y-43250000D03*
X180285000Y-90690000D03*
X182825000Y-88150000D03*
X180285000Y-88150000D03*
X182825000Y-90690000D03*
X188000000Y-88150000D03*
X210670200Y-84450000D03*
X213210200Y-84450000D03*
X215750200Y-84450000D03*
X190371000Y-73201000D03*
X192911000Y-73201000D03*
X195451000Y-73201000D03*
X197750000Y-204300000D03*
X197750000Y-223800000D03*
X247750000Y-223800000D03*
X247750000Y-204300000D03*
X177395400Y-241750000D03*
X179935400Y-241750000D03*
X182475400Y-241750000D03*
X278050000Y-245450000D03*
X240408200Y-230501000D03*
X242948200Y-230501000D03*
X245488200Y-230501000D03*
X203446600Y-200550000D03*
X205986600Y-200550000D03*
X208526600Y-200550000D03*
X234000000Y-204300000D03*
X201000000Y-234151000D03*
X223875000Y-230500000D03*
X226415000Y-230500000D03*
X228955000Y-230500000D03*
X244045000Y-241750000D03*
X246585000Y-241750000D03*
X249125000Y-241750000D03*
X260707400Y-241750000D03*
X263247400Y-241750000D03*
X265787400Y-241750000D03*
X181600000Y-217500000D03*
X186700000Y-218700000D03*
X257070600Y-230501000D03*
X259610600Y-230501000D03*
X262150600Y-230501000D03*
X270096200Y-200550000D03*
X272636200Y-200550000D03*
X275176200Y-200550000D03*
X207075000Y-230500000D03*
X209615000Y-230500000D03*
X212155000Y-230500000D03*
X273733000Y-230501000D03*
X276273000Y-230501000D03*
X278813000Y-230501000D03*
X253433800Y-200550000D03*
X255973800Y-200550000D03*
X258513800Y-200550000D03*
X236771400Y-200550000D03*
X239311400Y-200550000D03*
X241851400Y-200550000D03*
X210720200Y-241750000D03*
X213260200Y-241750000D03*
X215800200Y-241750000D03*
X190421000Y-230501000D03*
X192961000Y-230501000D03*
X195501000Y-230501000D03*
X188050000Y-245450000D03*
X187600000Y-213345000D03*
X187600000Y-210805000D03*
X276500000Y-204300000D03*
X279040000Y-206840000D03*
X279040000Y-204300000D03*
X276500000Y-206840000D03*
X215397349Y-233900000D03*
X220397349Y-233900000D03*
X180335000Y-247990000D03*
X182875000Y-245450000D03*
X180335000Y-245450000D03*
X182875000Y-247990000D03*
X174000000Y-222300000D03*
D15*
X177900000Y-214049000D03*
D14*
X177900000Y-207749000D03*
D13*
X173100000Y-211149000D03*
D11*
X186784200Y-200550000D03*
X189324200Y-200550000D03*
X191864200Y-200550000D03*
X173758600Y-230501000D03*
X176298600Y-230501000D03*
X178838600Y-230501000D03*
X180335000Y-236741000D03*
X182875000Y-234201000D03*
X180335000Y-234201000D03*
X182875000Y-236741000D03*
X227382600Y-241750000D03*
X229922600Y-241750000D03*
X232462600Y-241750000D03*
X194057800Y-241750000D03*
X196597800Y-241750000D03*
X199137800Y-241750000D03*
X220109000Y-200550000D03*
X222649000Y-200550000D03*
X225189000Y-200550000D03*
X180925000Y-224500000D03*
X188675000Y-224500000D03*
X219197349Y-193100000D03*
X224197349Y-193100000D03*
X177395400Y-189350000D03*
X179935400Y-189350000D03*
X182475400Y-189350000D03*
X234000000Y-151900000D03*
X240408200Y-178101000D03*
X242948200Y-178101000D03*
X245488200Y-178101000D03*
X201000000Y-181751000D03*
X203446600Y-148150000D03*
X205986600Y-148150000D03*
X208526600Y-148150000D03*
X197750000Y-151900000D03*
X197750000Y-171400000D03*
X247750000Y-171400000D03*
X247750000Y-151900000D03*
X276600000Y-181826000D03*
X279140000Y-184366000D03*
X279140000Y-181826000D03*
X276600000Y-184366000D03*
X278050000Y-193050000D03*
X244045000Y-189350000D03*
X246585000Y-189350000D03*
X249125000Y-189350000D03*
X223875000Y-178100000D03*
X226415000Y-178100000D03*
X228955000Y-178100000D03*
X257070600Y-178101000D03*
X259610600Y-178101000D03*
X262150600Y-178101000D03*
X207075000Y-178100000D03*
X209615000Y-178100000D03*
X212155000Y-178100000D03*
X273733000Y-178101000D03*
X276273000Y-178101000D03*
X278813000Y-178101000D03*
X187600000Y-160945000D03*
X187600000Y-158405000D03*
X253433800Y-148150000D03*
X255973800Y-148150000D03*
X258513800Y-148150000D03*
X276500000Y-151900000D03*
X279040000Y-154440000D03*
X279040000Y-151900000D03*
X276500000Y-154440000D03*
X270096200Y-148150000D03*
X272636200Y-148150000D03*
X275176200Y-148150000D03*
X236771400Y-148150000D03*
X239311400Y-148150000D03*
X241851400Y-148150000D03*
X260707400Y-189350000D03*
X263247400Y-189350000D03*
X265787400Y-189350000D03*
X181600000Y-165100000D03*
X186700000Y-166300000D03*
X188050000Y-193050000D03*
X173758600Y-178101000D03*
X176298600Y-178101000D03*
X178838600Y-178101000D03*
D15*
X177900000Y-161649000D03*
D14*
X177900000Y-155349000D03*
D13*
X173100000Y-158749000D03*
D11*
X210720200Y-189350000D03*
X213260200Y-189350000D03*
X215800200Y-189350000D03*
X190421000Y-178101000D03*
X192961000Y-178101000D03*
X195501000Y-178101000D03*
X215397349Y-181500000D03*
X220397349Y-181500000D03*
X220109000Y-148150000D03*
X222649000Y-148150000D03*
X225189000Y-148150000D03*
X174000000Y-169900000D03*
X180335000Y-195590000D03*
X182875000Y-193050000D03*
X180335000Y-193050000D03*
X182875000Y-195590000D03*
X227382600Y-189350000D03*
X229922600Y-189350000D03*
X232462600Y-189350000D03*
X186784200Y-148150000D03*
X189324200Y-148150000D03*
X191864200Y-148150000D03*
X180335000Y-184341000D03*
X182875000Y-181801000D03*
X180335000Y-181801000D03*
X182875000Y-184341000D03*
X180925000Y-172100000D03*
X188675000Y-172100000D03*
X194057800Y-189350000D03*
X196597800Y-189350000D03*
X199137800Y-189350000D03*
X276600000Y-234226000D03*
X279140000Y-236766000D03*
X279140000Y-234226000D03*
X276600000Y-236766000D03*
X219197349Y-245500000D03*
X224197349Y-245500000D03*
X215347349Y-76600000D03*
X220347349Y-76600000D03*
X220059000Y-43250000D03*
X222599000Y-43250000D03*
X225139000Y-43250000D03*
X173950000Y-65000000D03*
D15*
X177850000Y-56749000D03*
D14*
X177850000Y-50449000D03*
D13*
X173050000Y-53849000D03*
D11*
X173708600Y-73201000D03*
X176248600Y-73201000D03*
X178788600Y-73201000D03*
X180285000Y-79441000D03*
X182825000Y-76901000D03*
X180285000Y-76901000D03*
X182825000Y-79441000D03*
X180875000Y-67200000D03*
X188625000Y-67200000D03*
X186734200Y-43250000D03*
X189274200Y-43250000D03*
X191814200Y-43250000D03*
X227332600Y-84450000D03*
X229872600Y-84450000D03*
X232412600Y-84450000D03*
X194007800Y-84450000D03*
X196547800Y-84450000D03*
X199087800Y-84450000D03*
X106147349Y-245499000D03*
X111147349Y-245499000D03*
X163550000Y-234225000D03*
X166090000Y-236765000D03*
X166090000Y-234225000D03*
X163550000Y-236765000D03*
X64345400Y-241749000D03*
X66885400Y-241749000D03*
X69425400Y-241749000D03*
X84700000Y-204299000D03*
X84700000Y-223799000D03*
X134700000Y-223799000D03*
X134700000Y-204299000D03*
X165000000Y-245449000D03*
X127358200Y-230500000D03*
X129898200Y-230500000D03*
X132438200Y-230500000D03*
X90396600Y-200549000D03*
X92936600Y-200549000D03*
X95476600Y-200549000D03*
X120950000Y-204299000D03*
X110825000Y-230499000D03*
X113365000Y-230499000D03*
X115905000Y-230499000D03*
X87950000Y-234150000D03*
X130995000Y-241749000D03*
X133535000Y-241749000D03*
X136075000Y-241749000D03*
X147657400Y-241749000D03*
X150197400Y-241749000D03*
X152737400Y-241749000D03*
X144020600Y-230500000D03*
X146560600Y-230500000D03*
X149100600Y-230500000D03*
X68550000Y-217499000D03*
X73650000Y-218699000D03*
X74550000Y-213344000D03*
X74550000Y-210804000D03*
X160683000Y-230500000D03*
X163223000Y-230500000D03*
X165763000Y-230500000D03*
X140383800Y-200549000D03*
X142923800Y-200549000D03*
X145463800Y-200549000D03*
X157046200Y-200549000D03*
X159586200Y-200549000D03*
X162126200Y-200549000D03*
X163450000Y-204299000D03*
X165990000Y-206839000D03*
X165990000Y-204299000D03*
X163450000Y-206839000D03*
X94025000Y-230499000D03*
X96565000Y-230499000D03*
X99105000Y-230499000D03*
X123721400Y-200549000D03*
X126261400Y-200549000D03*
X128801400Y-200549000D03*
X67285000Y-247989000D03*
X69825000Y-245449000D03*
X67285000Y-245449000D03*
X69825000Y-247989000D03*
X75000000Y-245449000D03*
X97670200Y-241749000D03*
X100210200Y-241749000D03*
X102750200Y-241749000D03*
X77371000Y-230500000D03*
X79911000Y-230500000D03*
X82451000Y-230500000D03*
X102347349Y-233899000D03*
X107347349Y-233899000D03*
X107059000Y-200549000D03*
X109599000Y-200549000D03*
X112139000Y-200549000D03*
X60950000Y-222299000D03*
D15*
X64850000Y-214048000D03*
D14*
X64850000Y-207748000D03*
D13*
X60050000Y-211148000D03*
D11*
X60708600Y-230500000D03*
X63248600Y-230500000D03*
X65788600Y-230500000D03*
X67285000Y-236740000D03*
X69825000Y-234200000D03*
X67285000Y-234200000D03*
X69825000Y-236740000D03*
X67875000Y-224499000D03*
X75625000Y-224499000D03*
X73734200Y-200549000D03*
X76274200Y-200549000D03*
X78814200Y-200549000D03*
X114332600Y-241749000D03*
X116872600Y-241749000D03*
X119412600Y-241749000D03*
X81007800Y-241749000D03*
X83547800Y-241749000D03*
X86087800Y-241749000D03*
X86087800Y-189349000D03*
X83547800Y-189349000D03*
X81007800Y-189349000D03*
X75625000Y-172099000D03*
X67875000Y-172099000D03*
X69825000Y-184340000D03*
X67285000Y-181800000D03*
X69825000Y-181800000D03*
X67285000Y-184340000D03*
X78814200Y-148149000D03*
X76274200Y-148149000D03*
X73734200Y-148149000D03*
X119412600Y-189349000D03*
X116872600Y-189349000D03*
X114332600Y-189349000D03*
X69825000Y-195589000D03*
X67285000Y-193049000D03*
X69825000Y-193049000D03*
X67285000Y-195589000D03*
X60950000Y-169899000D03*
X112139000Y-148149000D03*
X109599000Y-148149000D03*
X107059000Y-148149000D03*
X107347349Y-181499000D03*
X102347349Y-181499000D03*
X82451000Y-178100000D03*
X79911000Y-178100000D03*
X77371000Y-178100000D03*
X102750200Y-189349000D03*
X100210200Y-189349000D03*
X97670200Y-189349000D03*
D13*
X60050000Y-158748000D03*
D14*
X64850000Y-155348000D03*
D15*
X64850000Y-161648000D03*
D11*
X65788600Y-178100000D03*
X63248600Y-178100000D03*
X60708600Y-178100000D03*
X75000000Y-193049000D03*
X73650000Y-166299000D03*
X68550000Y-165099000D03*
X152737400Y-189349000D03*
X150197400Y-189349000D03*
X147657400Y-189349000D03*
X128801400Y-148149000D03*
X126261400Y-148149000D03*
X123721400Y-148149000D03*
X162126200Y-148149000D03*
X159586200Y-148149000D03*
X157046200Y-148149000D03*
X163450000Y-154439000D03*
X165990000Y-151899000D03*
X165990000Y-154439000D03*
X163450000Y-151899000D03*
X145463800Y-148149000D03*
X142923800Y-148149000D03*
X140383800Y-148149000D03*
X74550000Y-158404000D03*
X74550000Y-160944000D03*
X165763000Y-178100000D03*
X163223000Y-178100000D03*
X160683000Y-178100000D03*
X99105000Y-178099000D03*
X96565000Y-178099000D03*
X94025000Y-178099000D03*
X149100600Y-178100000D03*
X146560600Y-178100000D03*
X144020600Y-178100000D03*
X115905000Y-178099000D03*
X113365000Y-178099000D03*
X110825000Y-178099000D03*
X136075000Y-189349000D03*
X133535000Y-189349000D03*
X130995000Y-189349000D03*
X165000000Y-193049000D03*
X163550000Y-184365000D03*
X166090000Y-181825000D03*
X166090000Y-184365000D03*
X163550000Y-181825000D03*
X134700000Y-151899000D03*
X134700000Y-171399000D03*
X84700000Y-171399000D03*
X84700000Y-151899000D03*
X95476600Y-148149000D03*
X92936600Y-148149000D03*
X90396600Y-148149000D03*
X87950000Y-181750000D03*
X132438200Y-178100000D03*
X129898200Y-178100000D03*
X127358200Y-178100000D03*
X120950000Y-151899000D03*
X69425400Y-189349000D03*
X66885400Y-189349000D03*
X64345400Y-189349000D03*
X111147349Y-193099000D03*
X106147349Y-193099000D03*
X106097349Y-140600553D03*
X111097349Y-140600553D03*
X163500000Y-129326553D03*
X166040000Y-131866553D03*
X166040000Y-129326553D03*
X163500000Y-131866553D03*
X64295400Y-136850553D03*
X66835400Y-136850553D03*
X69375400Y-136850553D03*
X84650000Y-99400553D03*
X84650000Y-118900553D03*
X134650000Y-118900553D03*
X134650000Y-99400553D03*
X164950000Y-140550553D03*
X127308200Y-125601553D03*
X129848200Y-125601553D03*
X132388200Y-125601553D03*
X90346600Y-95650553D03*
X92886600Y-95650553D03*
X95426600Y-95650553D03*
X120900000Y-99400553D03*
X110775000Y-125600553D03*
X113315000Y-125600553D03*
X115855000Y-125600553D03*
X87900000Y-129251553D03*
X130945000Y-136850553D03*
X133485000Y-136850553D03*
X136025000Y-136850553D03*
X147607400Y-136850553D03*
X150147400Y-136850553D03*
X152687400Y-136850553D03*
X143970600Y-125601553D03*
X146510600Y-125601553D03*
X149050600Y-125601553D03*
X68500000Y-112600553D03*
X73600000Y-113800553D03*
X74500000Y-108445553D03*
X74500000Y-105905553D03*
X160633000Y-125601553D03*
X163173000Y-125601553D03*
X165713000Y-125601553D03*
X140333800Y-95650553D03*
X142873800Y-95650553D03*
X145413800Y-95650553D03*
X156996200Y-95650553D03*
X159536200Y-95650553D03*
X162076200Y-95650553D03*
X163400000Y-99400553D03*
X165940000Y-101940553D03*
X165940000Y-99400553D03*
X163400000Y-101940553D03*
X93975000Y-125600553D03*
X96515000Y-125600553D03*
X99055000Y-125600553D03*
X123671400Y-95650553D03*
X126211400Y-95650553D03*
X128751400Y-95650553D03*
X67235000Y-143090553D03*
X69775000Y-140550553D03*
X67235000Y-140550553D03*
X69775000Y-143090553D03*
X74950000Y-140550553D03*
X97620200Y-136850553D03*
X100160200Y-136850553D03*
X102700200Y-136850553D03*
X77321000Y-125601553D03*
X79861000Y-125601553D03*
X82401000Y-125601553D03*
X102297349Y-129000553D03*
X107297349Y-129000553D03*
X107009000Y-95650553D03*
X109549000Y-95650553D03*
X112089000Y-95650553D03*
X60900000Y-117400553D03*
D15*
X64800000Y-109149553D03*
D14*
X64800000Y-102849553D03*
D13*
X60000000Y-106249553D03*
D11*
X60658600Y-125601553D03*
X63198600Y-125601553D03*
X65738600Y-125601553D03*
X67235000Y-131841553D03*
X69775000Y-129301553D03*
X67235000Y-129301553D03*
X69775000Y-131841553D03*
X67825000Y-119600553D03*
X75575000Y-119600553D03*
X73684200Y-95650553D03*
X76224200Y-95650553D03*
X78764200Y-95650553D03*
X114282600Y-136850553D03*
X116822600Y-136850553D03*
X119362600Y-136850553D03*
X80957800Y-136850553D03*
X83497800Y-136850553D03*
X86037800Y-136850553D03*
X107009000Y-43249000D03*
X109549000Y-43249000D03*
X112089000Y-43249000D03*
X80957800Y-84449000D03*
X83497800Y-84449000D03*
X86037800Y-84449000D03*
X102297349Y-76599000D03*
X107297349Y-76599000D03*
X106097349Y-88199000D03*
X111097349Y-88199000D03*
X163500000Y-76925000D03*
X166040000Y-79465000D03*
X166040000Y-76925000D03*
X163500000Y-79465000D03*
X127308200Y-73200000D03*
X129848200Y-73200000D03*
X132388200Y-73200000D03*
X164950000Y-88149000D03*
X84650000Y-46999000D03*
X84650000Y-66499000D03*
X134650000Y-66499000D03*
X134650000Y-46999000D03*
X64295400Y-84449000D03*
X66835400Y-84449000D03*
X69375400Y-84449000D03*
X114282600Y-84449000D03*
X116822600Y-84449000D03*
X119362600Y-84449000D03*
X60658600Y-73200000D03*
X63198600Y-73200000D03*
X65738600Y-73200000D03*
X73684200Y-43249000D03*
X76224200Y-43249000D03*
X78764200Y-43249000D03*
X67825000Y-67199000D03*
X75575000Y-67199000D03*
X67235000Y-79440000D03*
X69775000Y-76900000D03*
X67235000Y-76900000D03*
X69775000Y-79440000D03*
D15*
X64800000Y-56748000D03*
D14*
X64800000Y-50448000D03*
D13*
X60000000Y-53848000D03*
D11*
X60900000Y-64999000D03*
X97620200Y-84449000D03*
X100160200Y-84449000D03*
X102700200Y-84449000D03*
X93975000Y-73199000D03*
X96515000Y-73199000D03*
X99055000Y-73199000D03*
X77321000Y-73200000D03*
X79861000Y-73200000D03*
X82401000Y-73200000D03*
X74500000Y-56044000D03*
X74500000Y-53504000D03*
X140333800Y-43249000D03*
X142873800Y-43249000D03*
X145413800Y-43249000D03*
X123671400Y-43249000D03*
X126211400Y-43249000D03*
X128751400Y-43249000D03*
X67235000Y-90689000D03*
X69775000Y-88149000D03*
X67235000Y-88149000D03*
X69775000Y-90689000D03*
X163400000Y-46999000D03*
X165940000Y-49539000D03*
X165940000Y-46999000D03*
X163400000Y-49539000D03*
X156996200Y-43249000D03*
X159536200Y-43249000D03*
X162076200Y-43249000D03*
X160633000Y-73200000D03*
X163173000Y-73200000D03*
X165713000Y-73200000D03*
X74950000Y-88149000D03*
X143970600Y-73200000D03*
X146510600Y-73200000D03*
X149050600Y-73200000D03*
X87900000Y-76850000D03*
X110775000Y-73199000D03*
X113315000Y-73199000D03*
X115855000Y-73199000D03*
X147607400Y-84449000D03*
X150147400Y-84449000D03*
X152687400Y-84449000D03*
X120900000Y-46999000D03*
X68500000Y-60199000D03*
X73600000Y-61399000D03*
X130945000Y-84449000D03*
X133485000Y-84449000D03*
X136025000Y-84449000D03*
X90346600Y-43249000D03*
X92886600Y-43249000D03*
X95426600Y-43249000D03*
X306610000Y-148034000D03*
X309150000Y-150574000D03*
X309150000Y-148034000D03*
X306610000Y-150574000D03*
M02*
